<svg width="322" height="200" viewBox="0 0 322 200" fill="none" xmlns="http://www.w3.org/2000/svg">
<g clip-path="url(#clip0_37_3953)">
<path opacity="0.25" d="M271.553 169.205C299.066 169.205 321.37 146.901 321.37 119.388C321.37 91.8747 299.066 69.5708 271.553 69.5708C244.04 69.5708 221.736 91.8747 221.736 119.388C221.736 146.901 244.04 169.205 271.553 169.205Z" fill="#F26724"/>
<path d="M94.6103 67.7308C108.179 61.1462 130.549 112.737 132.367 120.607C126.957 124.665 117.668 136.725 111.083 130.074C104.498 123.401 96.65 105.155 96.65 105.155C96.65 105.155 86.1855 71.8324 94.6103 67.753V67.7308Z" fill="white" stroke="#145A35" stroke-miterlimit="10"/>
<path d="M112.125 197.229H69.8236C68.6486 193.615 66.9637 189.868 64.7909 187.451C63.9263 186.498 63.0395 185.589 62.0418 184.702C62.0418 184.702 62.0418 184.702 62.0418 184.68C59.6474 182.396 56.9648 180.246 54.3708 177.985C54.0826 177.741 53.7944 177.497 53.5062 177.275C52.8854 176.787 52.3311 176.388 51.7769 176.056C50.2028 175.036 49.0056 174.504 47.9635 173.417C47.498 172.93 47.0546 172.309 46.6333 171.466C46.5446 171.289 46.4559 171.09 46.3673 170.912C45.8795 169.826 45.5026 168.695 45.2366 167.587H45.4804C45.813 167.52 46.1677 167.476 46.5003 167.454C47.6088 167.321 48.7173 167.21 49.7372 167.121C49.7372 167.121 49.7594 167.121 49.7815 167.121C67.3849 165.436 74.9672 166.589 74.9672 166.589C74.9672 166.589 107.624 164.061 108.046 169.227V169.427C108.09 169.914 108.179 170.535 108.289 171.333C108.4 172.353 108.578 173.55 108.733 174.903C109.664 181.51 111.26 191.664 112.147 197.251L112.125 197.229Z" fill="white" stroke="#145A35" stroke-miterlimit="10"/>
<path d="M78.4481 176.122C78.4481 176.122 78.4481 178.783 78.2929 183.638C78.2042 185.7 78.1155 188.138 77.9825 190.91C77.8495 193.615 77.6721 196.652 77.4504 200" fill="white"/>
<path d="M77.4504 186.099C77.0957 189.336 76.608 193.083 75.9207 197.206H36.2798C35.8586 189.336 35.4817 181.421 35.26 175.612C35.2378 174.703 35.1935 173.817 35.1713 172.996C35.1713 172.752 35.1713 172.508 35.1491 172.287C35.127 171.112 35.0605 170.092 35.0383 169.249C35.0383 168.784 35.0161 168.385 35.0161 168.03V167.498C35.0161 166.944 35.0161 166.589 35.0161 166.522C36.5015 166.589 37.9648 166.678 39.4502 166.789C41.379 166.922 43.2635 167.099 45.1924 167.276C45.6136 167.321 46.0348 167.343 46.4561 167.387C63.2392 169.028 78.4481 171.932 78.4481 171.932" fill="white"/>
<path d="M77.4504 186.099C77.0957 189.336 76.608 193.083 75.9207 197.206H36.2798C35.8586 189.336 35.4817 181.421 35.26 175.612C35.2378 174.703 35.1935 173.817 35.1713 172.996C35.1713 172.752 35.1713 172.508 35.1491 172.287C35.127 171.112 35.0605 170.092 35.0383 169.249C35.0383 168.784 35.0161 168.385 35.0161 168.03V167.498C35.0161 166.944 35.0161 166.589 35.0161 166.522C36.5015 166.589 37.9648 166.678 39.4502 166.789C41.379 166.922 43.2635 167.099 45.1924 167.276C45.6136 167.321 46.0348 167.343 46.4561 167.387C63.2392 169.028 78.4481 171.932 78.4481 171.932" stroke="#145A35" stroke-miterlimit="10"/>
<path d="M103.501 109.744C118.554 130.03 115.295 162.199 108.489 174.637C103.057 184.547 59.6252 189.802 34.9938 171.555C24.5294 163.818 37.5434 90.8103 41.2237 75.7344C44.2833 63.1637 61.9088 65.159 69.4689 64.7378C81.4853 64.0727 95.8962 65.5803 101.128 67.8417C101.128 67.8417 106.738 71.8767 110.861 77.8849" fill="white"/>
<path d="M103.501 109.744C118.554 130.03 115.295 162.199 108.489 174.637C103.057 184.547 59.6252 189.802 34.9938 171.555C24.5294 163.818 37.5434 90.8103 41.2237 75.7344C44.2833 63.1637 61.9088 65.159 69.4689 64.7378C81.4853 64.0727 95.8962 65.5803 101.128 67.8417C101.128 67.8417 106.738 71.8767 110.861 77.8849" stroke="#145A35" stroke-miterlimit="10"/>
<path d="M104.631 109.744C102.281 92.4066 103.213 71.8102 100.729 68.5068L104.631 109.744Z" fill="white"/>
<path d="M83.7467 67.3984C83.7467 67.3984 82.2834 50.1941 82.2834 47.0459C82.2834 43.8977 87.5157 36.7588 83.0151 28.3783C78.5145 19.9979 59.6252 21.4612 55.435 31.1053C51.2447 40.7495 51.8434 66.7776 58.5388 65.5139C65.2565 64.2502 65.0348 63.8733 65.0348 63.8733L64.0371 73.6726C64.0371 73.6726 66.4759 82.8512 75.2776 76.9761C84.0792 71.1009 83.7467 67.3984 83.7467 67.3984Z" fill="white" stroke="#145A35" stroke-miterlimit="10"/>
<path opacity="0.14" d="M75.4549 26.2275L53.9274 38.8647L53.75 40.3058L53.6392 41.3035C53.6392 41.3035 57.6077 42.3233 64.015 40.0841C70.4444 37.867 73.4818 31.7923 73.4818 31.7923C73.4818 31.7923 72.4176 41.1261 74.812 41.5252C76.6521 41.8577 78.581 37.9779 79.3791 36.2043C79.3791 36.2043 79.3791 36.2043 79.3791 36.1821C79.5786 35.6722 79.7117 35.3618 79.7117 35.3618L81.1749 45.272L82.2169 30.9942L75.4771 26.2497L75.4549 26.2275Z" fill="#145A35"/>
<path d="M72.6394 29.2206C72.6394 29.2206 61.7093 41.4366 53.3289 39.3082C44.9484 37.1798 36.967 28.9324 41.8002 22.8799C46.6334 16.8273 49.3603 -3.72472 66.9637 1.52969C66.9637 1.52969 82.0618 3.21464 80.3769 8.86812C80.3769 8.86812 92.5485 8.86812 91.4843 18.734C90.4201 28.5999 88.3361 44.9617 83.9241 46.6245C79.5122 48.3094 80.5764 44.097 80.5764 44.097L79.9556 34.6524C79.9556 34.6524 78.2707 32.5462 77.6499 36.7586C77.0291 40.9488 74.7234 41.9908 74.3021 37.1798C73.8809 32.3467 77.2508 29.8414 72.6172 29.2206H72.6394Z" fill="#145A35"/>
<path d="M111.149 124.11C110.263 125.906 113.987 138.299 112.125 148.985C110.972 155.548 95.364 172.553 95.364 172.553C95.3862 175.346 105.984 175.767 105.984 175.767C109.376 183.771 134.805 148.276 135.559 135.129C135.781 131.316 133.519 123.046 131.391 117.459" fill="white"/>
<path d="M111.149 124.11C110.263 125.906 113.987 138.299 112.125 148.985C110.972 155.548 95.364 172.553 95.364 172.553C95.3862 175.346 105.984 175.767 105.984 175.767C109.376 183.771 134.805 148.276 135.559 135.129C135.781 131.316 133.519 123.046 131.391 117.459" stroke="#145A35" stroke-miterlimit="10"/>
<path d="M59.4479 192.329C58.7606 192.24 58.0734 192.151 57.3861 191.996C56.3441 191.797 55.4129 191.575 54.5482 191.353C51.4665 190.577 48.54 188.782 47.1211 185.922C47.0324 185.744 46.9659 185.789 46.9659 185.789C46.9659 185.789 43.5517 185.456 38.6298 184.259C26.6578 181.377 5.70665 173.417 2.09286 152.821C0.474414 143.62 4.13254 129.564 8.98788 116.173C16.0824 96.6188 25.9483 81.033 25.9483 81.033C25.9483 81.033 30.0055 75.7121 34.8608 73.9828C36.6345 73.362 38.2308 71.7214 40.0931 71.9874C39.7384 73.2511 39.4058 74.5149 39.0954 75.8007C36.2576 86.9525 34.8608 98.3925 34.6835 109.899C34.6835 110.697 34.6835 111.495 34.6835 112.271C34.6835 117.548 34.3066 122.647 33.1981 125.817L32.0895 127.968H32.0674L19.4745 150.138C18.9868 150.981 19.2085 152.045 19.9623 152.621C19.9623 152.621 39.5832 166.101 49.4934 173.639C49.6929 173.972 52.6194 178.472 55.5903 179.78C56.5658 180.224 57.5634 180.29 58.4724 179.78C62.2414 177.563 67.8062 175.368 68.7152 176.167C69.6242 176.943 63.4164 181.62 63.4164 181.62C63.4164 181.62 77.6721 183.793 79.4014 185.434C81.042 186.986 71.1096 193.77 59.4258 192.351L59.4479 192.329Z" fill="white" stroke="#145A35" stroke-miterlimit="10"/>
<path d="M39.0733 104.6C36.1911 128.145 30.1829 130.517 27.1678 129.631C21.3813 127.901 14.8188 121.804 12.4465 115.153C11.6927 113.091 11.3602 110.963 11.6041 108.923C11.6927 105.531 12.1362 102.383 12.8456 99.501C14.5306 92.5394 17.8561 87.0412 21.7803 82.6736C25.8819 78.1286 30.6485 74.8696 34.9496 72.6082C41.7559 68.9944 47.4094 67.8193 47.4094 67.8193" fill="white"/>
<path d="M39.0733 104.6C36.1911 128.145 30.1829 130.517 27.1678 129.631C21.3813 127.901 14.8188 121.804 12.4465 115.153C11.6927 113.091 11.3602 110.963 11.6041 108.923C11.6927 105.531 12.1362 102.383 12.8456 99.501C14.5306 92.5394 17.8561 87.0412 21.7803 82.6736C25.8819 78.1286 30.6485 74.8696 34.9496 72.6082C41.7559 68.9944 47.4094 67.8193 47.4094 67.8193" stroke="#145A35" stroke-miterlimit="10"/>
<path d="M87.3161 176.832C87.3161 176.832 82.0617 177.164 83.1259 175.79C84.1901 174.415 91.6837 172.376 96.3395 172.575C100.973 172.752 111.083 175.413 111.083 175.413C111.083 175.413 105.562 188.361 98.4901 191.287C91.4177 194.214 84.3896 191.686 84.3896 191.686C84.3896 191.686 90.8634 184.281 89.6884 180.933C88.5134 177.586 87.3161 176.854 87.3161 176.854V176.832Z" fill="white" stroke="#145A35" stroke-miterlimit="10"/>
<path d="M268.893 197.428H187.549C188.015 194.28 188.791 191.309 189.544 189.092C192.338 180.911 191.451 163.418 191.451 163.418L192.937 97.1065C192.937 97.1065 246.079 85.201 257.297 88.6374C268.516 92.0295 274.347 132.624 275.655 141.137C276.83 148.852 273.415 182.064 268.915 197.428H268.893Z" fill="white" stroke="#145A35" stroke-miterlimit="10"/>
<path d="M221.891 159.073C260.579 173.573 280.776 146.968 283.37 117.637C285.986 88.3051 266.299 76.0226 259.403 70.9234C252.508 65.802 245.325 63.2524 233.752 63.585C231.912 63.6293 230.116 63.7402 228.365 63.851C211.05 65.0039 194.599 74.9585 183.425 92.3179C177.04 102.25 171.897 115.198 171.231 131.515C169.325 178.118 212.047 173.795 232.888 149.252C245.214 136.969 244.704 138.034 245.48 133.932C246.256 129.83 248.207 109.367 241.822 114.4C235.437 119.432 224.241 139.297 204.709 137.258L196.107 135.04C196.107 135.04 194.222 135.55 194.799 134.109C195.375 132.668 198.745 130.141 199.188 127.503C199.654 124.864 199.898 120.208 197.592 119.92C198.656 118.302 201.272 119.144 204.265 121.672C207.258 124.199 220.184 129.875 224.574 130.917" fill="white"/>
<path d="M221.891 159.073C260.579 173.573 280.776 146.968 283.37 117.637C285.986 88.3051 266.299 76.0226 259.403 70.9234C252.508 65.802 245.325 63.2524 233.752 63.585C231.912 63.6293 230.116 63.7402 228.365 63.851C211.05 65.0039 194.599 74.9585 183.425 92.3179C177.04 102.25 171.897 115.198 171.231 131.515C169.325 178.118 212.047 173.795 232.888 149.252C245.214 136.969 244.704 138.034 245.48 133.932C246.256 129.83 248.207 109.367 241.822 114.4C235.437 119.432 224.241 139.297 204.709 137.258L196.107 135.04C196.107 135.04 194.222 135.55 194.799 134.109C195.375 132.668 198.745 130.141 199.188 127.503C199.654 124.864 199.898 120.208 197.592 119.92C198.656 118.302 201.272 119.144 204.265 121.672C207.258 124.199 220.184 129.875 224.574 130.917" stroke="#145A35" stroke-miterlimit="10"/>
<path d="M234.417 52.0564C207.059 64.8709 223.155 15.7854 223.155 15.7854L246.611 14.9873L252.442 33.5218L247.01 44.0972C247.01 44.0972 243.574 48.5313 244.394 55.3598C245.237 62.1883 252.42 70.48 252.42 70.48C252.42 70.48 238.031 79.4591 220.494 69.9036C223.11 63.319 226.769 60.6807 227.345 54.1404" fill="white"/>
<path d="M234.417 52.0564C207.059 64.8709 223.155 15.7854 223.155 15.7854L246.611 14.9873L252.442 33.5218L247.01 44.0972C247.01 44.0972 243.574 48.5313 244.394 55.3598C245.237 62.1883 252.42 70.48 252.42 70.48C252.42 70.48 238.031 79.4591 220.494 69.9036C223.11 63.319 226.769 60.6807 227.345 54.1404" stroke="#145A35" stroke-miterlimit="10"/>
<path d="M215.129 1.4411C215.129 1.70715 207.702 21.8158 229.451 22.0818C236.812 22.3479 238.364 21.062 239.938 19.0888C241.512 17.1156 244.86 21.3059 242.355 24.2989C245.081 25.1414 247.919 24.1215 247.831 29.9302C247.742 35.7389 243.596 36.3153 241.955 36.8252C243.84 42.9664 246.257 45.7821 248.208 45.7821C252.442 44.8509 253.44 44.9396 254.925 34.0096C256.411 23.1017 258.761 16.6944 252.42 9.97674C246.7 3.83552 242.044 2.12839 235.659 4.01288C229.274 5.89737 224.108 7.75969 216.925 0.421259C215.351 -0.953311 215.129 1.4411 215.129 1.4411Z" fill="#145A35"/>
<path d="M245.48 133.932C260.069 127.37 256.943 100.942 256.943 100.942L245.48 133.932Z" fill="white"/>
<path d="M245.48 133.932C260.069 127.37 256.943 100.942 256.943 100.942" stroke="#145A35" stroke-miterlimit="10"/>
<path d="M197.969 122.248C197.969 122.248 191.318 118.213 185.288 122.758C179.257 127.303 179.479 135.04 181.519 138.166C183.558 141.292 188.303 137.945 189.677 136.415C191.074 134.885 191.54 133.754 192.404 133.621C193.269 133.488 196.439 133.91 196.439 133.91C196.439 133.91 200.075 130.008 201.095 125.219C201.539 123.179 197.969 122.27 197.969 122.27V122.248Z" fill="white" stroke="#145A35" stroke-miterlimit="10"/>
<path d="M245.48 115.996C245.48 115.996 251.356 111.961 256.632 116.062C253.107 129.586 250.225 131.582 249.294 131.759L246.412 130.119C246.079 129.919 245.902 129.431 246.013 128.966C246.922 124.886 246.633 120.541 245.458 116.018L245.48 115.996Z" fill="white" stroke="#145A35" stroke-miterlimit="10"/>
<path d="M18.9202 197.428H85.9194H136.801H136.845H137.288H149.238H178.104H178.193H182.96H195.087H209.32H269.07H276.985H292.26" stroke="#145A35" stroke-miterlimit="10"/>
<path d="M148.773 86.5978C168.707 86.5978 184.866 70.4381 184.866 50.5042C184.866 30.5703 168.707 14.4106 148.773 14.4106C128.839 14.4106 112.679 30.5703 112.679 50.5042C112.679 70.4381 128.839 86.5978 148.773 86.5978Z" fill="#F26724"/>
<path d="M108.755 118.811C108.755 118.811 123.033 123.246 127.312 107.438L108.755 118.811Z" fill="white"/>
<path d="M108.755 118.811C108.755 118.811 123.033 123.246 127.312 107.438" stroke="#145A35" stroke-miterlimit="10"/>
<path d="M134.473 46.7354C136.848 46.7354 138.774 44.8098 138.774 42.4344C138.774 40.059 136.848 38.1333 134.473 38.1333C132.098 38.1333 130.172 40.059 130.172 42.4344C130.172 44.8098 132.098 46.7354 134.473 46.7354Z" fill="#FBF7F4"/>
<path d="M163.073 46.7354C165.448 46.7354 167.374 44.8098 167.374 42.4344C167.374 40.059 165.448 38.1333 163.073 38.1333C160.697 38.1333 158.772 40.059 158.772 42.4344C158.772 44.8098 160.697 46.7354 163.073 46.7354Z" fill="#FBF7F4"/>
<path d="M161.299 59.2617C161.299 66.1789 155.69 71.7881 148.773 71.7881C141.856 71.7881 136.247 66.1789 136.247 59.2617" fill="#FBF7F4"/>
<path d="M69.6687 46.2257C69.6687 46.2257 68.0946 44.0974 66.1436 46.2257H69.6687Z" fill="white"/>
<path d="M69.6686 46.2255C68.56 46.2477 68.1388 46.3585 67.9171 46.4029C67.7841 46.4029 67.6511 46.3585 67.3628 46.3364C67.0746 46.3142 66.7199 46.3142 66.1435 46.2477C65.9218 45.1835 66.7199 44.2523 67.8949 44.208C69.07 44.208 69.9124 45.1835 69.6686 46.2477V46.2255Z" fill="#145A35"/>
<path d="M59.6255 46.2257C59.6255 46.2257 58.0513 44.0974 56.1003 46.2257H59.6255Z" fill="white"/>
<path d="M59.6254 46.2255C58.5168 46.2477 58.0956 46.3585 57.8739 46.4029C57.7409 46.4029 57.6078 46.3585 57.3196 46.3364C57.0314 46.3142 56.6767 46.3142 56.1003 46.2477C55.8785 45.1835 56.6767 44.2523 57.8517 44.208C59.0268 44.208 59.8692 45.1835 59.6254 46.2477V46.2255Z" fill="#145A35"/>
<path d="M58.8271 57.4215C58.8271 57.4215 60.8447 65.0703 64.8353 56.7563L58.8271 57.4215Z" fill="white"/>
<path d="M58.8271 57.4217C59.3813 57.6877 59.8247 57.9316 60.2682 58.1089C60.4012 58.4415 60.5564 58.7519 60.7337 58.9736C60.9111 59.2396 61.0885 59.3727 61.2215 59.4613C61.3545 59.4613 61.3323 59.5279 61.4875 59.4613C61.7979 59.3505 62.33 58.8184 62.7069 58.2198C62.9064 57.9094 63.1282 57.6212 63.2833 57.2665C63.7489 57.0891 64.2367 56.8896 64.8131 56.7344C65.0348 57.2886 65.1235 57.8207 65.2122 58.3528C65.0348 58.7297 64.7466 59.1066 64.5249 59.4835C63.9928 60.2151 63.4607 61.0133 62.2413 61.5454C61.6649 61.8336 60.7781 61.7671 60.1795 61.4345C59.603 61.102 59.204 60.6807 58.9158 60.2595C58.6054 59.8382 58.4058 59.417 58.2063 58.9958C58.3172 58.4415 58.4723 57.9094 58.8049 57.3995L58.8271 57.4217Z" fill="#145A35"/>
<path d="M61.8201 64.8711C61.8201 64.8711 68.2273 64.8711 70.8656 60.7695L61.8201 64.8711Z" fill="white"/>
<path d="M61.8201 64.8711C61.8201 64.8711 68.2273 64.8711 70.8656 60.7695" stroke="#145A35" stroke-miterlimit="10"/>
<path d="M224.928 31.0831C224.928 31.0831 228.055 27.8241 228.321 31.9921L224.928 31.0831Z" fill="white"/>
<path d="M224.928 31.0831C224.928 31.0831 228.055 27.8241 228.321 31.9921" stroke="#145A35" stroke-miterlimit="10"/>
<path d="M234.417 34.2091C234.417 34.2091 237.544 30.9501 237.81 35.1181L234.417 34.2091Z" fill="white"/>
<path d="M234.417 34.2091C234.417 34.2091 237.544 30.9501 237.81 35.1181" stroke="#145A35" stroke-miterlimit="10"/>
<path d="M224.396 44.6514C224.396 44.6514 224.707 53.9851 229.607 45.7821L224.396 44.6514Z" fill="white"/>
<path d="M224.396 44.6514C224.396 44.6514 224.707 53.9851 229.607 45.7821" stroke="#145A35" stroke-miterlimit="10"/>
<path d="M230.538 35.7832C230.538 35.7832 223.82 44.1858 229.629 41.9023L230.538 35.7832Z" fill="white"/>
<path d="M230.626 35.8495C229.917 37.2906 229.185 38.7539 228.675 40.1728C228.564 40.5275 228.476 40.8822 228.454 41.1926C228.365 41.4587 228.52 41.7912 228.321 41.4143C227.855 41.1039 228.01 41.4587 228.365 41.503L229.606 41.8134L229.695 42.0129C229.429 42.4342 229.097 42.7889 228.653 43.0106C228.431 43.1436 228.165 43.2323 227.788 43.2545C227.478 43.2988 226.835 43.1214 226.48 42.6115C225.837 41.5252 226.259 40.9709 226.392 40.5053C226.636 40.0619 226.879 39.685 227.123 39.3303C228.099 37.9114 229.252 36.7585 230.493 35.6943L230.671 35.8274L230.626 35.8495Z" fill="#145A35"/>
<path d="M62.7955 48.5757C62.7955 48.5757 58.8048 53.5862 62.2412 52.2338L62.7955 48.5757Z" fill="white"/>
<path d="M62.8842 48.6423C62.5517 49.5735 62.2191 50.5046 61.9974 51.3471C61.9531 51.5688 61.9309 51.7683 61.9753 51.9235C61.9753 52.0122 62.0196 52.0122 61.9974 52.0344C61.9974 52.0787 61.9974 51.9457 61.9974 51.9014C61.9753 51.8349 61.9309 51.8349 61.8644 51.6797C61.3101 51.2362 61.2658 51.5688 61.4653 51.6575C61.6205 51.7905 61.9087 51.9014 62.2191 52.1231L62.3078 52.3226C62.1748 52.6773 62.0196 52.9877 61.7092 53.1873C61.5097 53.2759 61.4432 53.3868 61.0884 53.409C60.7559 53.409 60.4012 53.3646 60.0021 52.8769C59.8247 52.633 59.8026 52.5 59.7582 52.3226C59.7139 52.1674 59.7139 51.9235 59.7139 51.8349C59.7582 51.6353 59.8247 51.3914 59.8912 51.2584C60.0686 50.9702 60.246 50.7485 60.4233 50.5268C61.0884 49.6843 61.8644 49.0635 62.7069 48.5093L62.8842 48.6423Z" fill="#145A35"/>
<path d="M67.1853 78.4393L62.7069 85.6225C61.9309 86.8641 62.6404 88.5047 64.1036 88.7707L68.4712 89.591L59.3591 131.759L72.2624 124.62L82.1947 130.052L74.9006 89.3693L78.9578 88.3273C80.4433 87.9504 81.0197 86.1324 80.022 84.9574L74.4129 78.3506L67.1631 78.4393H67.1853Z" fill="#F26724"/>
<path d="M230.937 74.6924L229.074 79.2152C228.675 80.1685 229.052 81.41 229.762 81.6096L231.957 82.2304L227.412 114.245L233.863 108.835L238.829 112.959L235.171 82.0752L237.211 81.277C237.965 80.9888 238.253 79.6142 237.743 78.7052L235.57 75.158C234.041 75.4018 232.777 75.0693 230.937 74.6924Z" fill="#F26724"/>
<path d="M200.63 119.388C200.63 119.388 200.275 114 206.926 99.6118L200.63 119.388Z" fill="white"/>
<path d="M200.63 119.388C200.63 119.388 200.275 114 206.926 99.6118" stroke="#145A35" stroke-miterlimit="10"/>
</g>
<defs>
<clipPath id="clip0_37_3953">
<rect width="320.741" height="200" fill="white" transform="translate(0.629639)"/>
</clipPath>
</defs>
</svg>
