<svg width="296" height="200" viewBox="0 0 296 200" fill="none" xmlns="http://www.w3.org/2000/svg">
<g clip-path="url(#clip0_37_4009)">
<path opacity="0.25" d="M44.5607 183.164C68.742 183.164 88.3448 163.562 88.3448 139.38C88.3448 115.199 68.742 95.5962 44.5607 95.5962C20.3794 95.5962 0.776611 115.199 0.776611 139.38C0.776611 163.562 20.3794 183.164 44.5607 183.164Z" fill="#F26724"/>
<path d="M101.127 36.7691V176.286C101.127 184.041 107.48 190.374 115.216 190.374H141.521C138.501 195.206 133.142 198.402 127.043 198.402H46.1781C36.7861 198.402 29.1477 190.803 29.1477 181.411V17.9655C29.1672 8.59298 36.7861 0.974121 46.1781 0.974121H127.043C136.455 0.974121 144.074 8.59298 144.074 17.9655V22.6616H115.216C107.46 22.6616 101.127 29.0139 101.127 36.7496V36.7691Z" fill="white" stroke="#F26724" stroke-miterlimit="10"/>
<path d="M61.26 0.974121H109.331C111.903 0.974121 114.008 3.8385 114.008 7.36539C114.008 10.9118 111.923 13.7761 109.331 13.7761H61.26C58.6879 13.7761 56.5835 10.9118 56.5835 7.38488C56.5835 3.8385 58.6685 0.974121 61.26 0.974121Z" fill="white" stroke="#F26724" stroke-miterlimit="10"/>
<path d="M96.2171 5.61182H74.3542C73.3749 5.61182 72.5811 6.40134 72.5811 7.37526C72.5811 8.34919 73.3749 9.13871 74.3542 9.13871H96.2171C97.1964 9.13871 97.9903 8.34919 97.9903 7.37526C97.9903 6.40134 97.1964 5.61182 96.2171 5.61182Z" fill="#145A35"/>
<path d="M81.8562 118.842L80.9403 115.179L75.9325 115.218C73.906 115.218 72.2498 113.581 72.2693 111.555L72.3472 96.9602C72.3472 95.0506 73.8476 93.4528 75.7767 93.3358L79.5569 93.102L79.1477 86.4379C78.9918 83.9243 76.9848 81.9173 74.4711 81.7809L73.906 81.7419C68.6255 81.4301 64.0658 85.3662 63.6177 90.6468C63.0721 97.0576 62.8188 106.04 64.0658 115.413C64.9232 121.707 70.7689 126.033 77.0432 125.039C80.2583 125.039 82.6161 121.999 81.8367 118.862L81.8562 118.842Z" fill="#F26724"/>
<path d="M295.223 199.025H293.703H281.252H274.354H274.335H252.472H248.146H231.038H230.141H208.98H189.845H189.611H181.408H177.024H176.946H150.582H141.326H139.689H139.3H139.28H139.222H131.35H130.336H122.484H113.189H104.771H101.985H94.132H92.7291H83.6878H75.8156H62.429H62.3511H55.6675H49.2957H47.3082H40.9559H30.5896H24.2178H22.0549H19.0151H8.4929H0.776611" stroke="#145A35" stroke-miterlimit="10"/>
<path d="M141.521 190.374H115.216C107.46 190.374 101.127 184.022 101.127 176.286V36.7692C101.127 29.014 107.48 22.6812 115.216 22.6812H144.074" stroke="#145A35" stroke-miterlimit="10"/>
<path d="M144.073 22.6616H254.732C262.487 22.6616 268.82 29.0139 268.82 36.7497" stroke="#145A35" stroke-miterlimit="10"/>
<path d="M141.521 190.374H254.732C262.487 190.374 268.82 184.022 268.82 176.286" stroke="#145A35" stroke-miterlimit="10"/>
<path d="M136.163 67.2445C143.48 67.2445 149.413 61.3122 149.413 53.9943C149.413 46.6765 143.48 40.7441 136.163 40.7441C128.845 40.7441 122.912 46.6765 122.912 53.9943C122.912 61.3122 128.845 67.2445 136.163 67.2445Z" fill="#F26724"/>
<path d="M136.163 46.687V54.0331C136.163 54.4812 136.396 54.9099 136.767 55.1632L139.222 56.7611" stroke="white" stroke-miterlimit="10"/>
<path d="M159.623 47.5059H247.075" stroke="#145A35" stroke-miterlimit="10"/>
<path d="M159.623 53.9941H209.195" stroke="#145A35" stroke-miterlimit="10"/>
<path d="M159.623 60.4634H194.483" stroke="#145A35" stroke-miterlimit="10"/>
<path d="M136.163 103.468C143.48 103.468 149.413 97.5358 149.413 90.218C149.413 82.9001 143.48 76.9678 136.163 76.9678C128.845 76.9678 122.912 82.9001 122.912 90.218C122.912 97.5358 128.845 103.468 136.163 103.468Z" fill="#F26724"/>
<path d="M136.163 136.048C143.48 136.048 149.413 130.116 149.413 122.798C149.413 115.48 143.48 109.548 136.163 109.548C128.845 109.548 122.912 115.48 122.912 122.798C122.912 130.116 128.845 136.048 136.163 136.048Z" stroke="#145A35" stroke-miterlimit="10"/>
<path d="M136.163 82.9111V90.2572C136.163 90.7054 136.396 91.1341 136.767 91.3874L140.333 93.7256" stroke="white" stroke-miterlimit="10"/>
<path d="M159.623 83.7295H247.075" stroke="#145A35" stroke-miterlimit="10"/>
<path d="M159.623 90.2183H209.195" stroke="#145A35" stroke-miterlimit="10"/>
<path d="M159.623 96.687H194.483" stroke="#145A35" stroke-miterlimit="10"/>
<path d="M159.623 116.368H247.075" stroke="#145A35" stroke-miterlimit="10"/>
<path d="M159.623 122.837H209.195" stroke="#145A35" stroke-miterlimit="10"/>
<path d="M159.623 129.306H194.483" stroke="#145A35" stroke-miterlimit="10"/>
<path d="M159.623 152.591H247.075" stroke="#145A35" stroke-miterlimit="10"/>
<path d="M159.623 159.061H209.195" stroke="#145A35" stroke-miterlimit="10"/>
<path d="M159.623 165.53H194.483" stroke="#145A35" stroke-miterlimit="10"/>
<path d="M132.538 119.135L139.767 126.52" stroke="#F26724" stroke-miterlimit="10"/>
<path d="M139.845 119.232L132.46 126.442" stroke="#F26724" stroke-miterlimit="10"/>
<path d="M136.163 172.311C143.48 172.311 149.413 166.379 149.413 159.061C149.413 151.743 143.48 145.811 136.163 145.811C128.845 145.811 122.912 151.743 122.912 159.061C122.912 166.379 128.845 172.311 136.163 172.311Z" stroke="#145A35" stroke-miterlimit="10"/>
<path d="M132.538 155.397L139.767 162.782" stroke="#F26724" stroke-miterlimit="10"/>
<path d="M139.845 155.495L132.46 162.704" stroke="#F26724" stroke-miterlimit="10"/>
</g>
<defs>
<clipPath id="clip0_37_4009">
<rect width="294.447" height="200" fill="white" transform="translate(0.776611)"/>
</clipPath>
</defs>
</svg>
