<svg width="234" height="200" viewBox="0 0 234 200" fill="none" xmlns="http://www.w3.org/2000/svg">
<g clip-path="url(#clip0_37_3921)">
<path opacity="0.25" d="M76.195 25.4674H61.1254C52.3779 25.4674 45.2208 32.6244 45.2208 41.3719V102.306C20.5488 102.306 0.548828 82.3063 0.548828 57.6344C0.548828 32.9624 20.5488 12.9624 45.2208 12.9624C57.2486 12.9624 68.1631 17.7338 76.195 25.4674Z" fill="#F26724"/>
<path d="M8.00415 199.006H26.8511H66.2546H74.2865H74.3262H74.7437H85.8769H112.776H112.855H117.308H125.698H125.937H129.813H156.434H166.831H167.05H167.288H167.964H176.851H189.833H195.201H211.543H211.583H212.139H212.179H219.197H233.451" stroke="#145A35" stroke-miterlimit="10"/>
<path d="M193.511 41.3719V199.006H45.2207V41.3719C45.2207 32.6243 52.3778 25.4673 61.1253 25.4673H177.606C186.354 25.4673 193.511 32.6243 193.511 41.3719Z" fill="white" stroke="#145A35" stroke-miterlimit="10"/>
<path d="M149.952 11.1731H130.787C130.787 5.54682 125.678 0.994141 119.376 0.994141C113.074 0.994141 107.964 5.54682 107.964 11.1731H88.7993C86.4136 11.1731 84.4653 12.9027 84.4653 15.0299V31.511C84.4653 33.6383 86.4136 35.3679 88.7993 35.3679H149.972C152.358 35.3679 154.306 33.6383 154.306 31.511V15.0299C154.306 12.9027 152.358 11.1731 149.972 11.1731H149.952Z" fill="white" stroke="#F26724" stroke-miterlimit="10"/>
<path d="M145.082 67.3761H62.5569V50.8154H145.082" fill="white"/>
<path d="M145.082 67.3761H62.5569V50.8154H145.082" stroke="#F26724" stroke-miterlimit="10"/>
<path d="M91.344 82.8232H178.064" stroke="#F26724" stroke-miterlimit="10"/>
<path d="M91.344 90.1987H162.378" stroke="#F26724" stroke-miterlimit="10"/>
<path d="M91.344 97.5547H150.251" stroke="#F26724" stroke-miterlimit="10"/>
<path d="M77.3084 98.9663H62.5569V80.3579H77.3084" fill="white"/>
<path d="M77.3084 98.9663H62.5569V80.3579H77.3084" stroke="#145A35" stroke-miterlimit="10"/>
<path d="M91.344 114.394H178.064" stroke="#145A35" stroke-miterlimit="10"/>
<path d="M91.344 121.77H162.378" stroke="#145A35" stroke-miterlimit="10"/>
<path d="M91.344 129.125H150.251" stroke="#145A35" stroke-miterlimit="10"/>
<path d="M77.3084 130.537H62.5569V111.948H77.3084" fill="white"/>
<path d="M77.3084 130.537H62.5569V111.948H77.3084" stroke="#145A35" stroke-miterlimit="10"/>
<path d="M91.344 145.964H178.064" stroke="#145A35" stroke-miterlimit="10"/>
<path d="M91.344 153.34H162.378" stroke="#145A35" stroke-miterlimit="10"/>
<path d="M91.344 160.716H150.251" stroke="#145A35" stroke-miterlimit="10"/>
<path d="M77.3084 162.108H62.5569V143.519H77.3084" fill="white"/>
<path d="M77.3084 162.108H62.5569V143.519H77.3084" stroke="#145A35" stroke-miterlimit="10"/>
<path d="M185.579 39.1255V56.2229L198.899 64.9505" stroke="#145A35" stroke-miterlimit="10"/>
<path d="M198.899 65.7457C215.676 65.7457 229.276 52.1451 229.276 35.368C229.276 18.5908 215.676 4.99023 198.899 4.99023C182.122 4.99023 168.521 18.5908 168.521 35.368C168.521 52.1451 182.122 65.7457 198.899 65.7457Z" fill="#F26724"/>
<path d="M198.899 18.6284V35.4674C198.899 36.5012 199.416 37.4753 200.29 38.0519L212.895 46.3223" stroke="white" stroke-miterlimit="10"/>
<path d="M32.497 192.565C43.7184 192.565 52.8151 183.468 52.8151 172.247C52.8151 161.025 43.7184 151.929 32.497 151.929C21.2757 151.929 12.179 161.025 12.179 172.247C12.179 183.468 21.2757 192.565 32.497 192.565Z" fill="white" stroke="#F26724" stroke-miterlimit="10"/>
<path d="M24.9822 173.579L29.2963 178.231L39.9921 167.535" fill="white"/>
<path d="M24.9822 173.579L29.2963 178.231L39.9921 167.535" stroke="#F26724" stroke-miterlimit="10"/>
<path d="M72.1592 90.1987L74.2268 92.2465L78.7198 87.7534" fill="white"/>
<path d="M72.1592 90.1987L74.2268 92.2465L78.7198 87.7534" stroke="#145A35" stroke-miterlimit="10"/>
<path d="M72.1592 121.948L74.2268 124.016L78.7198 119.523" fill="white"/>
<path d="M72.1592 121.948L74.2268 124.016L78.7198 119.523" stroke="#145A35" stroke-miterlimit="10"/>
<path d="M72.1592 153.002L74.2268 155.07L78.7198 150.557" fill="white"/>
<path d="M72.1592 153.002L74.2268 155.07L78.7198 150.557" stroke="#145A35" stroke-miterlimit="10"/>
</g>
<defs>
<clipPath id="clip0_37_3921">
<rect width="232.903" height="200" fill="white" transform="translate(0.548828)"/>
</clipPath>
</defs>
</svg>
