<svg width="300" height="200" viewBox="0 0 300 200" fill="none" xmlns="http://www.w3.org/2000/svg">
<g clip-path="url(#clip0_37_3901)">
<path d="M290 199L288.628 199L277.369 199L271.16 199L271.142 199L251.387 199L247.5 199L232.037 199L231.246 199L212.124 199L194.867 199L194.638 199L187.233 199L183.292 199L183.222 199L159.404 199L151.048 199L149.57 199L149.218 199L149.201 199L149.148 199L142.059 199L141.144 199L134.037 199L125.646 199L118.064 199L115.531 199L108.442 199L107.176 199L99.0309 199L91.9065 199L79.8215 199L79.7511 199L73.7174 199L67.9827 199L66.1884 199L60.4361 199L51.0776 199L45.3429 199L43.3727 199L40.6285 199L15.9658 199L8.99976 199" stroke="#145A35" stroke-miterlimit="10"/>
<path d="M290.336 62.8003C290.336 78.6365 284.324 94.4253 272.322 106.427C272.322 106.427 183.649 194.887 181.732 196.355C178.347 194.129 94.3604 110.735 94.3604 110.735C96.0647 108.463 97.9584 106.285 100.018 104.225L185.069 19.1738C209.072 -4.80534 248.343 -4.80534 272.322 19.1738C284.324 31.1753 290.336 46.9878 290.336 62.8003Z" fill="white" stroke="#145A35" stroke-miterlimit="10"/>
<path d="M201.616 44.384L259.398 101.29C262.499 104.391 265.221 107.752 267.493 111.303L187.294 191.502C185.519 193.277 183.673 194.887 181.779 196.378C178.394 194.153 175.151 191.526 172.192 188.543L94.3604 110.735L90.0522 106.427C66.0493 82.424 66.0493 43.1531 90.0522 19.1739C102.054 7.17247 117.866 1.18359 133.679 1.18359C149.491 1.18359 165.304 7.17247 177.305 19.1739L179.27 21.1386" fill="white"/>
<path d="M201.616 44.384L259.398 101.29C262.499 104.391 265.221 107.752 267.493 111.303L187.294 191.502C185.519 193.277 183.673 194.887 181.779 196.378C178.394 194.153 175.151 191.526 172.192 188.543L94.3604 110.735L90.0522 106.427C66.0493 82.424 66.0493 43.1531 90.0522 19.1739C102.054 7.17247 117.866 1.18359 133.679 1.18359C149.491 1.18359 165.304 7.17247 177.305 19.1739L179.27 21.1386" stroke="#F26724" stroke-miterlimit="10"/>
<path d="M241.762 84.4834L265.102 107.823C271.044 113.765 271.044 123.518 265.102 129.459C259.161 135.401 249.408 135.401 243.467 129.459L225.997 112.51" fill="white"/>
<path d="M241.762 84.4834L265.102 107.823C271.044 113.765 271.044 123.518 265.102 129.459C259.161 135.401 249.408 135.401 243.467 129.459L225.997 112.51" stroke="#F26724" stroke-miterlimit="10"/>
<path d="M225.808 112.108L243.277 129.057C249.219 134.998 249.219 144.751 243.277 150.692C237.336 156.634 227.583 156.634 221.642 150.692L204.172 133.744" fill="white"/>
<path d="M225.808 112.108L243.277 129.057C249.219 134.998 249.219 144.751 243.277 150.692C237.336 156.634 227.583 156.634 221.642 150.692L204.172 133.744" stroke="#F26724" stroke-miterlimit="10"/>
<path d="M203.983 133.933L221.452 150.882C227.394 156.823 227.394 166.576 221.452 172.518C215.511 178.459 205.758 178.459 199.817 172.518L182.347 155.569" fill="white"/>
<path d="M203.983 133.933L221.452 150.882C227.394 156.823 227.394 166.576 221.452 172.518C215.511 178.459 205.758 178.459 199.817 172.518L182.347 155.569" stroke="#F26724" stroke-miterlimit="10"/>
<path d="M182.134 155.758L199.604 172.707C205.545 178.648 205.545 188.401 199.604 194.342C193.662 200.284 183.909 200.284 177.968 194.342L154.628 171.002C148.686 165.061 148.686 155.308 154.628 149.367" fill="white"/>
<path d="M182.134 155.758L199.604 172.707C205.545 178.648 205.545 188.401 199.604 194.342C193.662 200.284 183.909 200.284 177.968 194.342L154.628 171.002C148.686 165.061 148.686 155.308 154.628 149.367" stroke="#F26724" stroke-miterlimit="10"/>
<path d="M173.277 164.004L173.261 163.987C167.289 158.015 157.607 158.015 151.635 163.987L142.897 172.725C136.926 178.696 136.926 188.379 142.897 194.35L142.914 194.367C148.886 200.339 158.568 200.339 164.54 194.367L173.277 185.63C179.249 179.658 179.249 169.976 173.277 164.004Z" fill="white" stroke="#145A35" stroke-miterlimit="10"/>
<path d="M151.436 142.164L151.419 142.147C145.447 136.176 135.765 136.176 129.793 142.147L121.056 150.885C115.084 156.857 115.084 166.539 121.056 172.511L121.072 172.527C127.044 178.499 136.726 178.499 142.698 172.527L151.436 163.79C157.407 157.818 157.407 148.136 151.436 142.164Z" fill="white" stroke="#145A35" stroke-miterlimit="10"/>
<path d="M129.61 120.341L129.594 120.325C123.622 114.353 113.94 114.353 107.968 120.325L99.2305 129.062C93.2587 135.034 93.2587 144.716 99.2305 150.688L99.2472 150.705C105.219 156.676 114.901 156.676 120.873 150.705L129.61 141.967C135.582 135.995 135.582 126.313 129.61 120.341Z" fill="white" stroke="#145A35" stroke-miterlimit="10"/>
<path d="M107.778 98.502L107.762 98.4853C101.79 92.5135 92.1076 92.5135 86.1358 98.4853L77.3985 107.223C71.4267 113.194 71.4267 122.877 77.3985 128.848L77.4152 128.865C83.387 134.837 93.0692 134.837 99.041 128.865L107.778 120.128C113.75 114.156 113.75 104.474 107.778 98.502Z" fill="white" stroke="#145A35" stroke-miterlimit="10"/>
<path d="M187.01 17.2329L156.924 47.3193C168.357 58.7526 186.868 58.7526 198.278 47.3193L209.332 37.5193" fill="white"/>
<path d="M187.01 17.2329L156.924 47.3193C168.357 58.7526 186.868 58.7526 198.278 47.3193L209.332 37.5193" stroke="#145A35" stroke-miterlimit="10"/>
<path d="M54.1898 95.8928C79.0554 95.8928 99.2129 75.7353 99.2129 50.8698C99.2129 26.0042 79.0554 5.84668 54.1898 5.84668C29.3243 5.84668 9.16675 26.0042 9.16675 50.8698C9.16675 75.7353 29.3243 95.8928 54.1898 95.8928Z" fill="#F26724"/>
<path d="M54.1899 26.0625V51.0122C54.1899 52.5508 54.9711 53.9948 56.2494 54.8233L68.7242 62.9899" stroke="white" stroke-miterlimit="10"/>
</g>
<defs>
<clipPath id="clip0_37_3901">
<rect width="300" height="200" fill="white"/>
</clipPath>
</defs>
</svg>
