<svg width="264" height="200" viewBox="0 0 264 200" fill="none" xmlns="http://www.w3.org/2000/svg">
<g clip-path="url(#clip0_37_3867)">
<path opacity="0.25" d="M44.783 195.883C69.1136 195.883 88.8375 176.159 88.8375 151.828C88.8375 127.498 69.1136 107.774 44.783 107.774C20.4524 107.774 0.728516 127.498 0.728516 151.828C0.728516 176.159 20.4524 195.883 44.783 195.883Z" fill="#F26724"/>
<path d="M251.273 17.7236H21.55V199.02H251.273V17.7236Z" fill="white" stroke="#145A35" stroke-miterlimit="10"/>
<path d="M72.3685 94.5005H24.8438V199.02H72.3685V94.5005Z" fill="#F26724"/>
<path d="M225.785 162.396C230.885 162.396 235.019 158.261 235.019 153.161C235.019 148.061 230.885 143.927 225.785 143.927C220.685 143.927 216.55 148.061 216.55 153.161C216.55 158.261 220.685 162.396 225.785 162.396Z" fill="white"/>
<path d="M225.785 162.396C230.885 162.396 235.019 158.261 235.019 153.161C235.019 148.061 230.885 143.927 225.785 143.927C220.685 143.927 216.55 148.061 216.55 153.161C216.55 158.261 220.685 162.396 225.785 162.396Z" stroke="#F26724" stroke-miterlimit="10"/>
<path d="M240.94 177.59V199.039H210.649V177.59C210.649 170.767 216.237 165.18 223.059 165.18H228.53C235.352 165.18 240.94 170.767 240.94 177.59Z" fill="white" stroke="#145A35" stroke-miterlimit="10"/>
<path d="M202.963 151.456C209.59 151.456 214.962 146.084 214.962 139.457C214.962 132.83 209.59 127.458 202.963 127.458C196.337 127.458 190.965 132.83 190.965 139.457C190.965 146.084 196.337 151.456 202.963 151.456Z" fill="white"/>
<path d="M202.963 151.456C209.59 151.456 214.962 146.084 214.962 139.457C214.962 132.83 209.59 127.458 202.963 127.458C196.337 127.458 190.965 132.83 190.965 139.457C190.965 146.084 196.337 151.456 202.963 151.456Z" stroke="#F26724" stroke-miterlimit="10"/>
<path d="M222.648 171.179V199.019H183.318V171.179C183.318 162.317 190.573 155.063 199.434 155.063H206.532C215.394 155.063 222.648 162.317 222.648 171.179Z" fill="white" stroke="#145A35" stroke-miterlimit="10"/>
<path d="M178.574 141.986C186.51 141.986 192.945 135.552 192.945 127.615C192.945 119.678 186.51 113.244 178.574 113.244C170.637 113.244 164.202 119.678 164.202 127.615C164.202 135.552 170.637 141.986 178.574 141.986Z" fill="white"/>
<path d="M178.574 141.986C186.51 141.986 192.945 135.552 192.945 127.615C192.945 119.678 186.51 113.244 178.574 113.244C170.637 113.244 164.202 119.678 164.202 127.615C164.202 135.552 170.637 141.986 178.574 141.986Z" stroke="#F26724" stroke-miterlimit="10"/>
<path d="M202.16 165.65V199.039H155.007V165.65C155.007 155.024 163.712 146.319 174.319 146.319H182.828C193.455 146.319 202.16 155.024 202.16 165.65Z" fill="white" stroke="#145A35" stroke-miterlimit="10"/>
<path d="M152.243 135.359C161.111 135.359 168.3 128.17 168.3 119.302C168.3 110.434 161.111 103.245 152.243 103.245C143.375 103.245 136.186 110.434 136.186 119.302C136.186 128.17 143.375 135.359 152.243 135.359Z" fill="white"/>
<path d="M152.243 135.359C161.111 135.359 168.3 128.17 168.3 119.302C168.3 110.434 161.111 103.245 152.243 103.245C143.375 103.245 136.186 110.434 136.186 119.302C136.186 128.17 143.375 135.359 152.243 135.359Z" stroke="#F26724" stroke-miterlimit="10"/>
<path d="M178.574 161.749V199.02H125.932V161.749C125.932 149.887 135.637 140.163 147.498 140.163H157.007C168.869 140.163 178.593 149.868 178.593 161.749H178.574Z" fill="white" stroke="#145A35" stroke-miterlimit="10"/>
<path d="M126.893 123.517C137.407 123.517 145.93 114.994 145.93 104.48C145.93 93.9657 137.407 85.4424 126.893 85.4424C116.379 85.4424 107.855 93.9657 107.855 104.48C107.855 114.994 116.379 123.517 126.893 123.517Z" fill="white" stroke="#F26724" stroke-miterlimit="10"/>
<path d="M158.105 154.828V199.02H95.6799V154.828C95.6799 140.751 107.189 129.242 121.246 129.242H132.519C146.597 129.242 158.105 140.751 158.105 154.828Z" fill="white" stroke="#145A35" stroke-miterlimit="10"/>
<path d="M263.271 199.02H181.005H176.79H176.711H151.184H140.617H140.225H140.185H112.776H95.1897H59.4285H58.2914H44.7829H10.3745" stroke="#145A35" stroke-miterlimit="10"/>
<path d="M35.2153 63.8369C52.8434 63.8369 67.1337 49.5465 67.1337 31.9184C67.1337 14.2904 52.8434 0 35.2153 0C17.5872 0 3.29688 14.2904 3.29688 31.9184C3.29688 49.5465 17.5872 63.8369 35.2153 63.8369Z" fill="#F26724"/>
<path d="M26.4119 25.408L28.6619 29.0387H28.7301L30.9801 25.408H32.2244L29.4801 29.7716L32.2244 34.1353H30.9801L28.7301 30.5728H28.6619L26.4119 34.1353H25.1676L27.9801 29.7716L25.1676 25.408H26.4119Z" fill="#FBF7F4"/>
</g>
<defs>
<clipPath id="clip0_37_3867">
<rect width="262.543" height="200" fill="white" transform="translate(0.728516)"/>
</clipPath>
</defs>
</svg>
