<svg width="268" height="200" viewBox="0 0 268 200" fill="none" xmlns="http://www.w3.org/2000/svg">
<g clip-path="url(#clip0_37_4047)">
<path opacity="0.25" d="M62.7196 23.7791H50.2371C42.9913 23.7791 37.0629 29.7074 37.0629 36.9532V87.4267C16.6265 87.4267 0.0600586 70.8602 0.0600586 50.4238C0.0600586 29.9874 16.6265 13.4209 37.0629 13.4209C47.0259 13.4209 56.0666 17.3731 62.7196 23.7791Z" fill="#F26724"/>
<path d="M72.5344 199.176H88.1293H120.768H127.421H127.454H127.8H137.022H159.303H159.385H163.074H170.007H170.204H173.415H195.482H204.078H204.259H204.457H205.017H212.378H223.131H227.578H241.114H241.147H241.625H241.641H247.454H259.261" stroke="#145A35" stroke-miterlimit="10"/>
<path d="M172.674 23.8286H43.5676C39.9024 23.8286 36.9312 26.7999 36.9312 30.4651V153.462C36.9312 157.127 39.9024 160.099 43.5676 160.099H172.674C176.339 160.099 179.311 157.127 179.311 153.462V30.4651C179.311 26.7999 176.339 23.8286 172.674 23.8286Z" fill="white" stroke="#145A35" stroke-miterlimit="10"/>
<path d="M245.033 157.958L244.885 159.242L243.354 173.026L241.921 185.805L240.422 199.177H217.137C217.071 197.53 217.055 196.492 217.055 196.196C217.055 193.149 216.149 183.697 216.149 183.697C216.149 183.697 213.58 190.926 210.731 199.16H185.585C187.512 183.335 190.426 159.177 191.398 150.959C191.612 149.181 191.727 148.16 191.727 148.11L244.77 155.471L244.967 157.118L245.05 157.942L245.033 157.958Z" fill="white" stroke="#145A35" stroke-miterlimit="10"/>
<path d="M248.557 97.5381C241.542 84.8086 233.819 70.8934 230.328 64.4381C229.34 62.5937 228.665 61.3586 228.467 60.9304C227.66 59.3989 227.512 57.6204 227.94 55.9572C228.401 54.2281 229.043 52.5319 229.801 50.8851C230.048 50.3417 230.311 49.8147 230.591 49.2878C231.398 48.168 231.826 46.0436 232.024 44.8086C232.238 43.5735 232.238 43.9523 231.168 45.0227C230.838 45.2861 229.933 45.3355 229.504 43.4747C229.076 41.5974 223.477 38.9296 220.744 36.5747C220.744 36.5747 217.862 35.8337 214.914 34.8127L214.552 28.555C212.888 28.3903 213.745 26.5294 212.082 26.8094C212.032 26.8094 210.484 27.0235 210.451 27.0893C209.858 27.5669 207.454 32.0955 206.483 34.1705C205.083 37.0523 204.605 41.6632 204.819 44.578C205.626 54.9856 208.508 52.4496 213.103 55.3808C213.135 55.4138 213.168 55.4302 213.201 55.4632C213.646 55.7925 213.909 56.3854 214.058 57.1264C214.519 59.5965 213.613 63.5982 212.839 64.0922C212.641 64.224 211.604 64.9485 210.155 66.0189C208.508 67.2046 206.318 68.8349 204.012 70.5311C204.408 76.6571 204.111 83.7217 201.723 89.1725L248.508 97.5546L248.557 97.5381ZM249.677 97.6863L248.607 97.4887L250.105 100.206L249.677 97.6863ZM250.105 100.206L255.293 131.033L246.812 154.055C246.746 154.401 246.697 154.599 246.697 154.599L254.799 159.078L259.097 147.073L263 123.458C263 123.458 257.071 112.787 250.122 100.222L250.105 100.206Z" fill="white" stroke="#145A35" stroke-miterlimit="10"/>
<path d="M254.799 159.061L253.811 161.844C253.267 162.964 252.312 165.154 251.835 165.599L243.815 173.158C243.634 173.322 243.337 173.174 243.37 172.944L244.836 159.457L246.828 154.055C246.763 154.401 246.713 154.599 246.713 154.599L254.815 159.078L254.799 159.061Z" fill="white" stroke="#145A35" stroke-miterlimit="10"/>
<path d="M129.249 92.1694C128.376 92.894 128.755 99.7281 130.204 101.836L119.039 100.14C116.437 99.8104 112.139 95.0019 111.744 92.4C111.085 87.8384 109.488 83.0134 112.419 82.1077C113.984 81.6301 127.405 90.885 129.249 92.1694Z" fill="white" stroke="#145A35" stroke-miterlimit="10"/>
<path d="M266.672 125.516C266.03 129.469 254.914 159.127 254.914 159.127L254.799 159.061L246.697 154.582C246.697 154.582 246.746 154.384 246.812 154.039C247.668 150.234 252.839 127.344 252.839 124.512C252.839 121.416 247.224 103.137 245.89 101.111C244.72 99.2999 245.56 102.972 245.198 109.658C244.819 116.443 245.132 157.102 245.132 157.102L223.658 160.082C220.612 159.917 217.631 159.654 214.634 159.176C210.517 157.628 193.473 152.655 192.024 151.914C190.361 151.058 190.591 142.61 190.591 142.61C190.591 142.61 196.783 106.579 196.997 95.3806C199.121 93.8162 200.653 91.6425 201.756 89.1558C204.144 83.705 204.441 76.6404 204.045 70.5144C204.012 69.9051 203.963 69.3288 203.897 68.7359C203.765 67.3032 204.885 66.0517 206.334 66.0352C208.541 66.0023 210.138 65.9364 210.138 65.9364C210.138 65.9364 210.138 65.9364 210.188 66.0023C210.616 66.5622 214.239 70.712 222.275 66.1011C225.075 64.4873 227.742 64.1085 230.328 64.4214C235.466 64.9978 240.307 68.1925 245.247 69.6746C252.674 71.9307 253.679 76.2452 253.679 76.2452C253.679 76.2452 263.823 111.733 265.651 115.619C267.462 119.522 267.314 121.548 266.672 125.5V125.516Z" fill="white" stroke="#145A35" stroke-miterlimit="10"/>
<path d="M229.916 20.0081C230.871 20.7492 233.77 23.4334 234.774 24.2239C235.943 25.1296 236.586 26.4141 237.607 28.0773C238.133 28.9336 238.94 31.3379 239.319 32.293C241.46 37.7438 239.369 40.0987 237.722 43.9851C235.433 49.3206 230.245 50.1275 229.817 50.8686C225.7 49.5347 225.223 50.0123 223.411 50.6051C221.122 49.0571 220.101 46.9657 218.866 45.9118C219.607 44.8414 217.368 34.9608 215.721 40.1481C215.029 37.7932 212.889 32.8859 211.983 32.2436C211.077 31.6014 210.007 30.7945 210.105 30.4322C210.583 28.242 206.96 28.5549 210.155 26.2659C212.724 24.3885 213.728 20.074 217.104 19.7447C219.196 19.5306 221.863 19.3165 223.988 19.0036C225.486 18.7895 226.705 19.4812 227.989 19.6459C228.681 19.6953 229.323 19.9587 229.916 20.2881V20.0246V20.0081Z" fill="#145A35"/>
<path d="M203.699 94.8375C196.009 98.4275 184.169 101.326 181.534 101.737C178.092 102.314 165.676 104.389 160.208 104.85C157.738 105.064 149.867 104.438 148.895 104.306C143.444 103.664 130.682 102.479 130.221 101.886C130.221 101.886 130.204 101.869 130.204 101.836C128.771 99.7284 128.376 92.8943 129.249 92.1698C129.331 92.1039 129.414 92.0874 129.496 92.1203C131.653 92.7791 166.631 88.5469 175.194 85.3851C177.186 84.6605 182.275 81.7622 185.074 80.2471C188.516 78.3204 190.344 77.4806 192.551 75.0598L192.814 74.961C193.424 74.5823 194.049 74.1047 194.725 73.6107C195.844 72.7544 198.858 65.8215 206.845 66.052" fill="white"/>
<path d="M203.699 94.8375C196.009 98.4275 184.169 101.326 181.534 101.737C178.092 102.314 165.676 104.389 160.208 104.85C157.738 105.064 149.867 104.438 148.895 104.306C143.444 103.664 130.682 102.479 130.221 101.886C130.221 101.886 130.204 101.869 130.204 101.836C128.771 99.7284 128.376 92.8943 129.249 92.1698C129.331 92.1039 129.414 92.0874 129.496 92.1203C131.653 92.7791 166.631 88.5469 175.194 85.3851C177.186 84.6605 182.275 81.7622 185.074 80.2471C188.516 78.3204 190.344 77.4806 192.551 75.0598L192.814 74.961C193.424 74.5823 194.049 74.1047 194.725 73.6107C195.844 72.7544 198.858 65.8215 206.845 66.052" stroke="#145A35" stroke-miterlimit="10"/>
<path d="M205.149 47.2788C205.149 47.2788 206.45 49.6996 208.574 48.3821L205.149 47.2788Z" fill="white"/>
<path d="M205.149 47.2788C205.149 47.2788 206.45 49.6996 208.574 48.3821" stroke="#145A35" stroke-miterlimit="10"/>
<path d="M209.15 36.8214C209.66 36.8214 210.072 36.4086 210.072 35.8992C210.072 35.3899 209.66 34.9771 209.15 34.9771C208.641 34.9771 208.228 35.3899 208.228 35.8992C208.228 36.4086 208.641 36.8214 209.15 36.8214Z" fill="#145A35"/>
<path d="M205.313 37.9741C205.313 37.9741 202.382 40.5101 203.172 42.4039C203.963 44.2977 204.819 42.0087 204.819 42.0087" fill="#145A35"/>
<path d="M61.5175 48.7773L64.2017 54.6892L70.5912 55.8255L65.7991 60.1894L66.6883 66.6118L61.0399 63.4171L55.2104 66.2496L56.5113 59.893L52.0156 55.2162L58.471 54.4916L61.5175 48.7773Z" fill="#F26724"/>
<path d="M85.7909 48.7773L88.4587 54.6892L94.8481 55.8255L90.056 60.1894L90.9453 66.6118L85.3134 63.4171L79.4838 66.2496L80.7847 59.893L76.2891 55.2162L82.7279 54.4916L85.7909 48.7773Z" fill="#F26724"/>
<path d="M110.048 48.7773L112.732 54.6892L119.121 55.8255L114.329 60.1894L115.219 66.6118L109.57 63.4171L103.741 66.2496L105.042 59.893L100.546 55.2162L107.001 54.4916L110.048 48.7773Z" fill="#F26724"/>
<path d="M134.321 48.7773L136.989 54.6892L143.378 55.8255L138.586 60.1894L139.476 66.6118L133.844 63.4171L128.014 66.2496L129.315 59.893L124.819 55.2162L131.258 54.4916L134.321 48.7773Z" fill="#F26724"/>
<path d="M158.578 48.7773L161.262 54.6892L167.652 55.8255L162.86 60.1894L163.749 66.6118L158.1 63.4171L152.271 66.2496L153.572 59.893L149.076 55.2162L155.532 54.4916L158.578 48.7773Z" fill="#F26724"/>
<path d="M52.9048 82.0913H103.856" stroke="#145A35" stroke-miterlimit="10"/>
<path d="M52.9048 116.492H158.364" stroke="#F26724" stroke-miterlimit="10"/>
<path d="M52.9048 122.701H155.4" stroke="#F26724" stroke-miterlimit="10"/>
<path d="M52.9048 128.893H119.121" stroke="#F26724" stroke-miterlimit="10"/>
<path d="M52.9048 87.4268H85.8401" stroke="#145A35" stroke-miterlimit="10"/>
<path opacity="0.25" d="M157.919 138.971H55.8031C54.2024 138.971 52.9048 140.268 52.9048 141.869V141.885C52.9048 143.486 54.2024 144.784 55.8031 144.784H157.919C159.52 144.784 160.818 143.486 160.818 141.885V141.869C160.818 140.268 159.52 138.971 157.919 138.971Z" fill="#F26724" stroke="white" stroke-miterlimit="10"/>
<path d="M80.5871 44.9896C92.7833 44.9896 102.67 35.1026 102.67 22.9064C102.67 10.7102 92.7833 0.823242 80.5871 0.823242C68.3909 0.823242 58.5039 10.7102 58.5039 22.9064C58.5039 35.1026 68.3909 44.9896 80.5871 44.9896Z" fill="white" stroke="#145A35" stroke-miterlimit="10"/>
<path d="M70.0972 29.6089C72.3697 29.79 74.4446 29.2466 76.3549 27.8139C74.3623 27.5998 73.0449 26.6117 72.3368 24.7674C72.9625 24.8168 73.5224 24.8662 74.2141 24.685C73.1437 24.3721 72.3368 23.8616 71.7275 23.0712C71.1182 22.2807 70.8217 21.3915 70.8217 20.354C71.4146 20.601 71.958 20.8481 72.6826 20.8481C71.4969 19.9094 70.8876 18.7731 70.8547 17.3734C70.8218 16.5665 71.0194 15.8089 71.464 15.0679C72.0733 15.7595 72.6991 16.4018 73.4072 16.9617C75.3174 18.4602 77.4747 19.3166 79.8954 19.58C80.3895 19.6294 80.3895 19.6294 80.3565 19.1025C80.1589 16.5006 81.8386 14.4915 84.4405 14.261C85.6591 14.1622 86.7295 14.5574 87.6353 15.3808C87.8493 15.5784 88.014 15.6113 88.2775 15.5455C89.0844 15.3314 89.8584 15.0185 90.6488 14.5739C90.3359 15.5949 89.7266 16.303 88.8868 16.9452C89.7102 16.8629 90.4018 16.6159 91.1099 16.4347C90.6818 17.1593 90.1219 17.7686 89.4796 18.2626C89.1997 18.4767 89.0844 18.6908 89.0844 19.0695C89.0679 24.718 85.2639 30.3334 78.8909 31.3874C75.7785 31.8979 72.8308 31.3544 70.1301 29.7077C70.1301 29.7077 70.1301 29.6912 70.1301 29.6253L70.0972 29.6089Z" fill="#F26724"/>
<path d="M138.735 44.9896C150.931 44.9896 160.818 35.1026 160.818 22.9064C160.818 10.7102 150.931 0.823242 138.735 0.823242C126.538 0.823242 116.651 10.7102 116.651 22.9064C116.651 35.1026 126.538 44.9896 138.735 44.9896Z" fill="white" stroke="#145A35" stroke-miterlimit="10"/>
<path d="M146.639 14.7055C146.639 14.7055 141.056 9.25469 133.563 13.0587C133.563 13.0587 130.237 14.5573 128.294 18.526C128.294 18.526 125.857 23.351 128.376 28.8512C128.376 28.8512 130.715 34.2032 137.697 35.1419C144.679 36.0805 151.102 30.251 149.751 21.3584H138.784V25.7882H145.157C145.157 25.7882 145.684 30.8109 137.483 30.5474C137.483 30.5474 131.637 29.8393 131.95 22.9064C132.263 15.9735 140.529 14.8043 143.181 18.1637L146.639 14.689V14.7055Z" fill="#F26724"/>
</g>
<defs>
<clipPath id="clip0_37_4047">
<rect width="267.88" height="200" fill="white" transform="translate(0.0600586)"/>
</clipPath>
</defs>
</svg>
