<svg width="175" height="80" viewBox="0 0 175 80" fill="none" xmlns="http://www.w3.org/2000/svg">
<path d="M80.6173 39.0869L79.2501 57.8601L79.2027 58.5708C78.9297 59.9155 77.7001 60.8721 76.2833 60.7728L70.1308 60.3328C68.5922 60.2223 67.4551 58.9047 67.5566 57.3728L68.8967 38.7214C69.172 34.9357 66.5571 31.4003 62.7962 30.8972C58.7036 30.3422 55.0396 33.3654 54.7509 37.4264L53.3656 56.6463C53.1242 58.0226 51.8811 59.0311 50.4507 58.9273L44.2847 58.4828C42.8611 58.3836 41.7533 57.2104 41.7195 55.8003L42.7483 41.3792C42.7438 41.4852 42.7302 41.5912 42.7167 41.695L42.7799 41.0137L45.4917 3.16042C45.7015 1.74132 46.9695 0.698994 48.4247 0.802776L54.5862 1.24723C56.0165 1.34876 57.0972 2.50164 57.1514 3.89592L55.906 21.241C57.4672 20.4626 59.2225 19.418 60.892 18.9871C71.9944 16.0835 81.7025 24.007 80.6173 39.0869Z" fill="#F26522"/>
<path d="M79.25 58.2143C79.2433 58.3136 79.2365 58.4038 79.2139 58.4986C79.2072 58.5234 79.2071 58.546 79.2026 58.5685L79.25 57.8601C79.2545 57.8849 79.2545 57.9075 79.2545 57.9323C79.2613 58.0248 79.2545 58.1241 79.25 58.2143Z" fill="#F26522"/>
<path d="M123.705 37.4241C123.705 37.3136 123.698 37.2007 123.696 37.0992L123.741 37.7896L123.747 37.846L125.23 57.7946C125.223 57.7946 125.223 57.7946 125.23 57.7991L125.277 58.5279C125.205 59.8297 124.226 60.9239 122.913 61.0999L122.588 61.1224C122.579 61.1247 122.561 61.1269 122.552 61.1247L116.835 61.5533C116.828 61.5511 116.828 61.5533 116.828 61.5533L116.284 61.5917C114.976 61.5601 113.879 60.6261 113.633 59.3559C113.633 59.3559 113.633 59.3559 113.633 59.3491C113.627 59.3198 113.62 59.2859 113.617 59.2521L113.584 58.8257L113.401 56.3485C111.499 59.7981 109.132 61.5737 107.564 62.2369C96.9966 66.7289 87.6992 60.2809 86.5756 45.1919L85.2016 26.3826L85.1565 25.7554C85.2061 24.3905 86.2733 23.2353 87.6698 23.1158L87.7488 23.1067L93.4838 22.6826C93.4861 22.6736 93.4861 22.6736 93.4974 22.6826L94.2374 22.6217H94.2442H94.2554C95.5053 22.7097 96.5612 23.646 96.7823 24.8913C96.8003 24.9816 96.8116 25.0763 96.8184 25.1711L98.2149 43.8563C98.4992 47.6398 101.604 50.7555 105.392 50.7104C109.534 50.663 112.708 47.1367 112.404 43.0779L112.083 38.7236L111.014 24.4672C111.014 24.4672 111.014 24.4672 111.012 24.4649L110.967 23.8535C110.969 23.8422 110.969 23.8332 110.969 23.8264C111.016 22.4592 112.092 21.3064 113.487 21.1868L113.559 21.1823L119.312 20.7536L120.041 20.6949H120.052C121.315 20.7694 122.376 21.7102 122.604 22.9624C122.624 23.0616 122.628 23.1586 122.64 23.2511C122.642 23.2963 122.642 23.3459 122.642 23.3933L123.666 37.0315L123.705 37.4241Z" fill="#F26522"/>
<path d="M173.017 32.4246C171.825 29.7895 170.068 27.4386 167.99 25.487C165.885 23.5377 163.426 22.0058 160.743 21.0267C158.07 20.0385 155.205 19.6256 152.414 19.7858C148.328 19.9889 144.391 21.4395 141.106 23.7543L141.099 23.725C140.874 22.5653 139.924 21.6561 138.719 21.514H138.715C138.609 21.5027 138.525 21.4959 138.426 21.4959L132.073 21.593C130.696 21.6561 129.589 22.73 129.458 24.0702C129.458 24.0747 129.458 24.0815 129.451 24.0882C129.44 24.192 129.428 24.2913 129.433 24.3973L130.22 76.683C130.225 76.7913 130.232 76.8905 130.254 76.9966C130.254 77.0011 130.254 77.0011 130.25 77.0079C130.432 78.3818 131.621 79.4287 133.029 79.4061L139.182 79.3181C140.619 79.3001 141.781 78.1946 141.896 76.7913C141.896 76.7732 141.9 76.7416 141.9 76.7236L141.643 59.2116C142.665 59.8929 143.743 60.4908 144.867 60.9939C147.428 62.14 150.228 62.8191 153.061 62.9071C155.895 62.9973 158.817 62.5326 161.515 61.4654C164.22 60.396 166.686 58.7491 168.737 56.6779C170.788 54.6136 172.421 52.1251 173.493 49.4042C174.567 46.6743 175.054 43.7346 174.995 40.8467C174.903 37.9589 174.249 35.053 173.017 32.4246ZM161.849 41.0475C161.811 43.5383 160.951 45.9298 159.367 47.861C157.768 49.7561 155.518 51.1121 152.897 51.4528C151.574 51.6062 150.219 51.5024 148.939 51.067C147.656 50.6338 146.44 49.9028 145.449 48.9078C144.45 47.9219 143.721 46.6923 143.256 45.3973C142.782 44.082 142.532 42.7238 142.494 41.334C142.471 39.9443 142.618 38.559 143.013 37.2076C143.407 35.8629 144.093 34.5702 145.066 33.5279C146.038 32.4765 147.254 31.6778 148.536 31.1837C149.842 30.6874 151.216 30.4934 152.576 30.5768C155.288 30.7754 157.759 32.0433 159.428 34.0287C161.129 36.0344 161.876 38.559 161.849 41.0475Z" fill="#F26522"/>
<path d="M36.2866 57.6322C36.2641 57.7247 36.2438 57.8353 36.2212 57.9346C36.0678 58.4828 35.7835 58.9566 35.3932 59.3288C35.3864 59.3333 35.3819 59.3356 35.3819 59.3356C35.1247 59.5229 34.8653 59.6921 34.5968 59.8658C34.5968 59.868 34.5968 59.868 34.5923 59.868C31.0276 62.1806 26.75 63.5162 22.1768 63.4711C9.79298 63.3289 -0.13621 53.1809 0.00141353 40.797C0.139037 28.4199 10.2871 18.4975 22.6664 18.6306C27.2035 18.6803 31.4134 20.0745 34.9127 22.4345C34.9172 22.4345 34.9172 22.4345 34.9239 22.4412C35.233 22.651 35.5444 22.8721 35.849 23.0932C35.8557 23.1045 35.8557 23.1045 35.8602 23.1135C35.9234 23.1722 35.9798 23.2354 36.0317 23.3053C36.8958 24.404 36.8913 25.9427 36.0407 27.0279L35.4699 27.5829L31.3277 31.6462L30.8381 32.1155C30.8313 32.1222 30.8246 32.1268 30.8155 32.1403C29.9176 32.8149 28.7331 32.9232 27.7404 32.4742C27.569 32.3636 27.3885 32.2554 27.2035 32.1561C27.2035 32.1516 27.199 32.1516 27.1945 32.1493C25.8024 31.3935 24.2209 30.9603 22.5333 30.9445C16.9629 30.8814 12.3808 35.3643 12.3221 40.9324C12.2522 46.5005 16.7441 51.0895 22.3054 51.1459C23.9727 51.1639 25.552 50.7736 26.9531 50.0607C27.1674 49.9546 27.3885 49.8396 27.5938 49.7087C28.0856 49.5102 28.6361 49.429 29.2092 49.526C29.8635 49.6365 30.4343 49.9366 30.8697 50.3991C30.8877 50.4149 30.899 50.4307 30.9171 50.4442L35.0886 54.7106C35.0886 54.7151 35.0932 54.7151 35.0999 54.7218L35.7835 55.4257C35.788 55.428 35.7948 55.4303 35.7948 55.4348C36.1671 55.9785 36.3633 56.626 36.325 57.3231C36.3115 57.4156 36.3024 57.5217 36.2866 57.6322Z" fill="#F26522"/>
</svg>
