<svg width="276" height="91" viewBox="0 0 276 91" fill="none" xmlns="http://www.w3.org/2000/svg">
<path d="M22.8793 67.64C18.8259 67.64 15.3486 66.9787 12.4473 65.656C9.58858 64.3333 7.34858 62.392 5.72725 59.832C4.14858 57.272 3.27392 54.0933 3.10325 50.296C3.06058 48.5467 3.03925 46.6693 3.03925 44.664C3.03925 42.6587 3.06058 40.7387 3.10325 38.904C3.27392 35.192 4.16992 32.056 5.79125 29.496C7.41258 26.8933 9.67392 24.9307 12.5753 23.608C15.4766 22.2427 18.9113 21.56 22.8793 21.56C25.6953 21.56 28.2979 21.9227 30.6873 22.648C33.0766 23.3307 35.1673 24.3547 36.9593 25.72C38.7513 27.0427 40.1379 28.664 41.1193 30.584C42.1433 32.4613 42.6766 34.5947 42.7193 36.984C42.7619 37.368 42.6339 37.688 42.3353 37.944C42.0793 38.2 41.7593 38.328 41.3753 38.328H32.7353C32.1806 38.328 31.7539 38.2213 31.4553 38.008C31.1566 37.752 30.9006 37.304 30.6873 36.664C30.0899 34.4027 29.1086 32.8667 27.7433 32.056C26.4206 31.2027 24.7779 30.776 22.8153 30.776C20.4686 30.776 18.6126 31.4373 17.2473 32.76C15.8819 34.04 15.1353 36.1947 15.0073 39.224C14.8793 42.7227 14.8793 46.3067 15.0073 49.976C15.1353 53.0053 15.8819 55.1813 17.2473 56.504C18.6126 57.784 20.4686 58.424 22.8153 58.424C24.7779 58.424 26.4419 57.9973 27.8073 57.144C29.1726 56.2907 30.1326 54.7547 30.6873 52.536C30.8579 51.896 31.0926 51.4693 31.3913 51.256C31.7326 51 32.1806 50.872 32.7353 50.872H41.3753C41.7593 50.872 42.0793 51 42.3353 51.256C42.6339 51.512 42.7619 51.832 42.7193 52.216C42.6766 54.6053 42.1433 56.76 41.1193 58.68C40.1379 60.5573 38.7513 62.1787 36.9593 63.544C35.1673 64.8667 33.0766 65.8907 30.6873 66.616C28.2979 67.2987 25.6953 67.64 22.8793 67.64Z" fill="#115934"/>
<path d="M47.7727 63.5887C47.3105 63.5072 46.9583 63.2934 46.716 62.9475C46.4737 62.6015 46.3934 62.1974 46.4749 61.7352L53.6986 20.7672C53.7801 20.305 53.9939 19.9527 54.3399 19.7105C54.6859 19.4682 55.09 19.3878 55.5522 19.4693L63.6827 20.9029C64.1449 20.9844 64.4972 21.1982 64.7394 21.5442C64.9817 21.8902 65.0621 22.2943 64.9806 22.7565L62.3022 37.9461L77.8701 40.6912L80.5484 25.5015C80.6299 25.0393 80.8437 24.6871 81.1897 24.4448C81.5357 24.2025 81.9398 24.1221 82.402 24.2036L90.5325 25.6373C90.9947 25.7188 91.347 25.9325 91.5892 26.2785C91.8315 26.6245 91.9119 27.0286 91.8304 27.4908L84.6066 68.4588C84.5251 68.921 84.3114 69.2733 83.9654 69.5155C83.6194 69.7578 83.2153 69.8382 82.7531 69.7567L74.6225 68.323C74.1603 68.2415 73.8081 68.0278 73.5658 67.6818C73.3235 67.3358 73.2432 66.9317 73.3247 66.4695L76.0919 50.7756L60.5241 48.0306L57.7568 63.7245C57.6753 64.1867 57.4616 64.5389 57.1156 64.7812C56.7696 65.0234 56.3655 65.1038 55.9033 65.0223L47.7727 63.5887Z" fill="#115934"/>
<path d="M116.003 67.64C112.077 67.64 108.664 67 105.763 65.72C102.861 64.44 100.6 62.52 98.9788 59.96C97.3574 57.3573 96.4614 54.1147 96.2908 50.232C96.2481 48.3973 96.2268 46.5627 96.2268 44.728C96.2268 42.8933 96.2481 41.0373 96.2908 39.16C96.4614 35.32 97.3574 32.0987 98.9788 29.496C100.643 26.8507 102.925 24.8667 105.827 23.544C108.728 22.2213 112.12 21.56 116.003 21.56C119.843 21.56 123.213 22.2213 126.115 23.544C129.059 24.8667 131.363 26.8507 133.027 29.496C134.691 32.0987 135.587 35.32 135.715 39.16C135.8 41.0373 135.843 42.8933 135.843 44.728C135.843 46.5627 135.8 48.3973 135.715 50.232C135.544 54.1147 134.648 57.3573 133.027 59.96C131.405 62.52 129.144 64.44 126.243 65.72C123.341 67 119.928 67.64 116.003 67.64ZM116.003 58.424C118.264 58.424 120.099 57.7413 121.507 56.376C122.957 55.0107 123.725 52.8347 123.811 49.848C123.896 47.9707 123.939 46.2 123.939 44.536C123.939 42.872 123.896 41.144 123.811 39.352C123.725 37.3467 123.341 35.7253 122.659 34.488C122.019 33.208 121.123 32.2693 119.971 31.672C118.819 31.0747 117.496 30.776 116.003 30.776C114.552 30.776 113.251 31.0747 112.099 31.672C110.947 32.2693 110.029 33.208 109.347 34.488C108.664 35.7253 108.28 37.3467 108.195 39.352C108.152 41.144 108.131 42.872 108.131 44.536C108.131 46.2 108.152 47.9707 108.195 49.848C108.323 52.8347 109.091 55.0107 110.499 56.376C111.907 57.7413 113.741 58.424 116.003 58.424Z" fill="#115934"/>
<path d="M165.847 67.3033C161.982 67.9849 158.509 67.9474 155.429 67.1906C152.35 66.4339 149.79 64.9357 147.748 62.6962C145.7 60.4146 144.254 57.3768 143.412 53.5827C143.051 51.7833 142.712 49.9802 142.393 48.1734C142.075 46.3666 141.773 44.5351 141.489 42.6789C140.991 38.8676 141.314 35.5396 142.458 32.695C143.638 29.8009 145.541 27.4506 148.169 25.6443C150.796 23.8379 154.022 22.5976 157.846 21.9233C161.627 21.2565 165.062 21.3225 168.149 22.1213C171.277 22.9126 173.891 24.4664 175.989 26.7826C178.08 29.0568 179.521 32.0736 180.314 35.833C180.724 37.667 181.089 39.4874 181.407 41.2942C181.726 43.101 182.002 44.9152 182.237 46.7368C182.743 50.5901 182.424 53.9391 181.279 56.7838C180.127 59.5864 178.233 61.8699 175.598 63.6343C172.963 65.3987 169.713 66.6217 165.847 67.3033ZM164.247 58.2273C166.474 57.8346 168.162 56.8437 169.312 55.2547C170.503 53.6582 170.882 51.3819 170.447 48.4257C170.205 46.5621 169.94 44.8109 169.651 43.1722C169.362 41.5335 169.02 39.8392 168.625 38.0892C168.192 36.1292 167.533 34.5991 166.645 33.4991C165.793 32.3497 164.747 31.5809 163.509 31.1927C162.271 30.8045 160.917 30.74 159.446 30.9993C158.017 31.2512 156.788 31.7713 155.757 32.5596C154.726 33.3479 153.986 34.4316 153.536 35.8107C153.078 37.1478 152.982 38.8112 153.246 40.8009C153.515 42.5731 153.794 44.2785 154.083 45.9172C154.372 47.556 154.7 49.296 155.068 51.1374C155.713 54.0565 156.847 56.0661 158.471 57.1662C160.095 58.2663 162.02 58.62 164.247 58.2273Z" fill="#115934"/>
<path d="M206.497 67.64C202.23 67.64 198.689 67.0427 195.873 65.848C193.057 64.6107 190.923 63.0107 189.473 61.048C188.022 59.0853 187.254 56.9947 187.169 54.776C187.169 54.4347 187.297 54.136 187.553 53.88C187.851 53.5813 188.193 53.432 188.577 53.432H196.641C197.238 53.432 197.686 53.5387 197.985 53.752C198.326 53.9653 198.625 54.2427 198.881 54.584C199.222 55.224 199.691 55.8427 200.289 56.44C200.929 57.0373 201.739 57.528 202.721 57.912C203.745 58.2533 205.003 58.424 206.497 58.424C208.971 58.424 210.827 58.04 212.065 57.272C213.345 56.504 213.985 55.4587 213.985 54.136C213.985 53.1973 213.643 52.4293 212.961 51.832C212.278 51.192 211.169 50.6373 209.633 50.168C208.139 49.656 206.134 49.144 203.617 48.632C200.374 47.9493 197.601 47.0747 195.297 46.008C193.035 44.8987 191.307 43.4693 190.113 41.72C188.918 39.928 188.321 37.7093 188.321 35.064C188.321 32.4613 189.046 30.136 190.497 28.088C191.99 26.04 194.059 24.44 196.705 23.288C199.35 22.136 202.486 21.56 206.113 21.56C209.057 21.56 211.638 21.944 213.857 22.712C216.118 23.48 218.017 24.504 219.553 25.784C221.089 27.064 222.241 28.4293 223.009 29.88C223.819 31.288 224.246 32.6747 224.289 34.04C224.289 34.3813 224.161 34.7013 223.905 35C223.649 35.256 223.329 35.384 222.944 35.384H214.497C214.027 35.384 213.622 35.2987 213.281 35.128C212.939 34.9573 212.641 34.68 212.385 34.296C212.129 33.3573 211.446 32.5467 210.337 31.864C209.27 31.1387 207.862 30.776 206.113 30.776C204.235 30.776 202.763 31.1173 201.697 31.8C200.673 32.44 200.161 33.4427 200.161 34.808C200.161 35.6613 200.438 36.408 200.993 37.048C201.59 37.688 202.55 38.2427 203.873 38.712C205.238 39.1813 207.094 39.672 209.441 40.184C213.323 40.9093 216.459 41.8267 218.849 42.936C221.238 44.0027 222.987 45.4107 224.097 47.16C225.206 48.8667 225.761 51.0213 225.761 53.624C225.761 56.5253 224.929 59.0427 223.265 61.176C221.643 63.2667 219.382 64.8667 216.481 65.976C213.579 67.0853 210.251 67.64 206.497 67.64Z" fill="#115934"/>
<path d="M230.627 64.1803C230.165 64.0988 229.813 63.8851 229.57 63.5391C229.328 63.1931 229.248 62.789 229.329 62.3268L236.553 21.3588C236.635 20.8966 236.848 20.5444 237.194 20.3021C237.54 20.0598 237.944 19.9794 238.407 20.0609L267.841 25.2509C268.303 25.3324 268.655 25.5462 268.897 25.8922C269.14 26.2382 269.22 26.6423 269.138 27.1045L268.094 33.0291C268.012 33.4913 267.798 33.8435 267.452 34.0858C267.107 34.328 266.702 34.4084 266.24 34.3269L246.134 30.7817L244.634 39.2905L263.353 42.5912C263.815 42.6727 264.164 42.9074 264.399 43.2954C264.641 43.6414 264.722 44.0455 264.64 44.5077L263.673 49.9911C263.599 50.4113 263.385 50.7635 263.032 51.0478C262.686 51.2901 262.282 51.3705 261.82 51.289L243.1 47.9883L241.556 56.7491L262.166 60.3832C262.628 60.4647 262.98 60.6785 263.222 61.0245C263.465 61.3705 263.545 61.7746 263.464 62.2368L262.419 68.1614C262.337 68.6236 262.124 68.9758 261.778 69.2181C261.432 69.4603 261.028 69.5407 260.565 69.4592L230.627 64.1803Z" fill="#115934"/>
</svg>
