<svg width="136" height="63" viewBox="0 0 136 63" fill="none" xmlns="http://www.w3.org/2000/svg">
<path d="M62.651 30.7248L61.5885 45.3143L61.5517 45.8666C61.3395 46.9116 60.384 47.655 59.2829 47.5778L54.5016 47.2359C53.3058 47.15 52.4221 46.1261 52.501 44.9356L53.5425 30.4408C53.7564 27.4987 51.7243 24.7512 48.8015 24.3602C45.6209 23.9289 42.7735 26.2784 42.5491 29.4344L41.4726 44.371C41.285 45.4405 40.3189 46.2243 39.2073 46.1436L34.4154 45.7982C33.3091 45.7211 32.4482 44.8093 32.4219 43.7135L33.2214 32.5062C33.2179 32.5886 33.2074 32.671 33.1968 32.7517L33.2459 32.2222L35.3534 2.8048C35.5165 1.70196 36.5019 0.891922 37.6328 0.972575L42.4211 1.31798C43.5327 1.39688 44.3726 2.29283 44.4147 3.37639L43.4468 16.856C44.6601 16.2511 46.0242 15.4393 47.3217 15.1044C55.9498 12.8479 63.4944 19.0056 62.651 30.7248Z" fill="#F26522"/>
<path d="M61.5883 45.5892C61.583 45.6663 61.5778 45.7364 61.5603 45.8099C61.555 45.8292 61.555 45.8467 61.5515 45.8642L61.5883 45.3142C61.5918 45.3335 61.5918 45.351 61.5918 45.3703C61.5971 45.4421 61.5918 45.5192 61.5883 45.5892Z" fill="#F26522"/>
<path d="M96.1361 29.4326C96.1361 29.3467 96.1308 29.259 96.1291 29.1801L96.1642 29.7166L96.1694 29.7605L97.3214 45.2634C97.3161 45.2634 97.3161 45.2634 97.3214 45.2669L97.3582 45.8332C97.3021 46.8449 96.5411 47.6953 95.5207 47.832L95.2682 47.8496C95.2612 47.8513 95.2472 47.8531 95.2402 47.8513L90.7972 48.1844C90.792 48.1827 90.792 48.1844 90.792 48.1844L90.3694 48.2142C89.3525 48.1897 88.5004 47.4638 88.3092 46.4767C88.3092 46.4767 88.3092 46.4767 88.3092 46.4714C88.304 46.4486 88.2987 46.4223 88.297 46.396L88.2707 46.0647L88.1287 44.1395C86.6506 46.8204 84.8114 48.2002 83.5928 48.7157C75.3802 52.2066 68.1547 47.1956 67.2816 35.4693L66.2138 20.8518L66.1787 20.3644C66.2173 19.3036 67.0466 18.4059 68.1319 18.313L68.1933 18.306L72.6503 17.9763C72.652 17.9693 72.652 17.9693 72.6608 17.9763L73.2359 17.929H73.2411H73.2499C74.2212 17.9974 75.0418 18.725 75.2136 19.6928C75.2276 19.763 75.2364 19.8366 75.2417 19.9102L76.327 34.4313C76.5479 37.3717 78.9605 39.793 81.9043 39.7579C85.1234 39.7211 87.5904 36.9807 87.3537 33.8264L87.1047 30.4425L86.2736 19.3632C86.2736 19.3632 86.2736 19.3632 86.2719 19.3615L86.2368 18.8863C86.2386 18.8775 86.2386 18.8705 86.2386 18.8653C86.2754 17.8027 87.1117 16.9068 88.1953 16.8139L88.2514 16.8104L92.7224 16.4772L93.2887 16.4316H93.2975C94.2793 16.4895 95.1034 17.2206 95.2805 18.1937C95.2963 18.2709 95.2998 18.3463 95.3085 18.4182C95.3103 18.4532 95.3103 18.4918 95.3103 18.5286L96.1063 29.1275L96.1361 29.4326Z" fill="#F26522"/>
<path d="M134.459 25.5472C133.533 23.4993 132.167 21.6724 130.552 20.1557C128.917 18.6409 127.005 17.4503 124.921 16.6894C122.843 15.9214 120.616 15.6006 118.447 15.7251C115.272 15.8829 112.213 17.0103 109.66 18.8092L109.654 18.7864C109.479 17.8852 108.741 17.1786 107.805 17.0681H107.801C107.719 17.0594 107.654 17.0541 107.577 17.0541L102.639 17.1295C101.57 17.1786 100.709 18.0132 100.607 19.0546C100.607 19.0581 100.607 19.0634 100.602 19.0687C100.593 19.1493 100.584 19.2265 100.588 19.3089L101.2 59.9423C101.203 60.0265 101.209 60.1036 101.226 60.186C101.226 60.1895 101.226 60.1895 101.223 60.1948C101.365 61.2626 102.289 62.0761 103.383 62.0586L108.164 61.9902C109.281 61.9762 110.184 61.117 110.273 60.0265C110.273 60.0124 110.277 59.9879 110.277 59.9739L110.077 46.3645C110.871 46.894 111.709 47.3586 112.582 47.7496C114.573 48.6403 116.748 49.1681 118.951 49.2365C121.153 49.3066 123.423 48.9454 125.52 48.1161C127.623 47.285 129.539 46.0051 131.133 44.3955C132.726 42.7912 133.996 40.8573 134.829 38.7428C135.663 36.6213 136.042 34.3367 135.996 32.0924C135.925 29.8481 135.416 27.5899 134.459 25.5472ZM125.78 32.2485C125.75 34.1841 125.082 36.0427 123.851 37.5435C122.608 39.0163 120.86 40.0701 118.823 40.3348C117.795 40.454 116.741 40.3734 115.747 40.035C114.75 39.6984 113.805 39.1303 113.035 38.3571C112.258 37.5908 111.692 36.6353 111.331 35.6289C110.962 34.6067 110.768 33.5512 110.738 32.4711C110.72 31.3911 110.834 30.3145 111.141 29.2643C111.448 28.2193 111.981 27.2146 112.737 26.4046C113.492 25.5876 114.438 24.9669 115.433 24.5829C116.449 24.1972 117.516 24.0464 118.574 24.1112C120.681 24.2655 122.601 25.2509 123.898 26.7938C125.22 28.3526 125.801 30.3145 125.78 32.2485Z" fill="#F26522"/>
<path d="M28.1999 45.1373C28.1824 45.2091 28.1666 45.2951 28.149 45.3722C28.0298 45.7983 27.8089 46.1665 27.5056 46.4558C27.5003 46.4593 27.4968 46.461 27.4968 46.461C27.2969 46.6065 27.0953 46.738 26.8867 46.8731C26.8867 46.8748 26.8866 46.8748 26.8831 46.8748C24.1129 48.672 20.7886 49.7099 17.2346 49.6749C7.61055 49.5644 -0.105855 41.6779 0.00109851 32.0539C0.108052 22.4351 7.99452 14.724 17.615 14.8274C21.141 14.866 24.4127 15.9496 27.1321 17.7836C27.1356 17.7836 27.1356 17.7836 27.1409 17.7888C27.3811 17.9519 27.6231 18.1237 27.8598 18.2955C27.865 18.3043 27.865 18.3043 27.8685 18.3113C27.9176 18.3569 27.9614 18.406 28.0018 18.4603C28.6733 19.3142 28.6698 20.51 28.0088 21.3533L27.5652 21.7847L24.3461 24.9424L23.9656 25.3071C23.9603 25.3124 23.9551 25.3159 23.9481 25.3264C23.2502 25.8506 22.3297 25.9348 21.5583 25.5859C21.425 25.5 21.2848 25.4158 21.141 25.3387C21.141 25.3352 21.1375 25.3351 21.134 25.3334C20.0522 24.746 18.8231 24.4094 17.5116 24.3971C13.1826 24.348 9.62162 27.8319 9.57603 32.1591C9.52168 36.4863 13.0126 40.0526 17.3345 40.0964C18.6302 40.1105 19.8576 39.8071 20.9464 39.2531C21.1129 39.1707 21.2848 39.0813 21.4443 38.9796C21.8265 38.8253 22.2544 38.7621 22.6997 38.8375C23.2082 38.9235 23.6518 39.1566 23.9902 39.5161C24.0042 39.5284 24.0129 39.5406 24.027 39.5511L27.2689 42.8667C27.2689 42.8702 27.2724 42.8702 27.2776 42.8755L27.8089 43.4225C27.8124 43.4243 27.8177 43.426 27.8177 43.4295C28.107 43.8521 28.2595 44.3553 28.2297 44.897C28.2192 44.9689 28.2122 45.0513 28.1999 45.1373Z" fill="#F26522"/>
</svg>
