<svg width="36" height="47" viewBox="0 0 36 47" fill="none" xmlns="http://www.w3.org/2000/svg">
<path d="M8.31894 44.9602C7.84936 44.8774 7.49141 44.6608 7.24509 44.3103C6.99877 43.9599 6.91686 43.5507 6.99936 43.0828L8.28191 35.8091C8.35692 35.3837 8.57008 35.0485 8.9214 34.8035C9.28023 34.5159 9.69443 34.4135 10.164 34.4963L18.3603 35.9415C18.8299 36.0243 19.1841 36.2622 19.4229 36.6552C19.7119 37.0131 19.8189 37.4048 19.7439 37.8302L18.4613 45.1039C18.3788 45.5718 18.1406 45.9245 17.7466 46.162C17.3952 46.4071 16.9848 46.4882 16.5152 46.4054L8.31894 44.9602Z" fill="#F26522"/>
<path d="M10.576 31.411C10.2344 31.3508 9.95437 31.1918 9.73574 30.9339C9.52461 30.6336 9.44905 30.3132 9.50905 29.9729C9.55405 29.7177 9.5953 29.4838 9.6328 29.2711C9.6778 29.0159 9.72281 28.7607 9.76781 28.5054C10.2865 27.0618 11.0136 25.8085 11.9494 24.7455C12.9353 23.6474 14.0091 22.6745 15.171 21.8267C16.3755 20.9865 17.5261 20.2026 18.6228 19.4749C19.7195 18.7473 20.663 18.0145 21.4533 17.2767C22.2938 16.5039 22.8142 15.6746 23.0144 14.7889C23.2648 13.8681 23.2114 13.0473 22.8544 12.3265C22.54 11.6132 22.0072 11.0149 21.2561 10.5315C20.5478 10.0558 19.7453 9.73884 18.8489 9.58077C17.1413 9.27968 15.7253 9.44667 14.601 10.0817C13.4766 10.7168 12.5623 11.7836 11.8579 13.2822C11.6046 13.72 11.3023 14.0614 10.951 14.3065C10.6072 14.509 10.1578 14.5613 9.60281 14.4635L1.79074 13.086C1.36385 13.0107 1.02724 12.7979 0.780924 12.4474C0.542104 12.0544 0.467695 11.6027 0.557699 11.0923C0.900399 9.39837 1.59846 7.81097 2.65187 6.33008C3.74797 4.85672 5.15933 3.59245 6.88595 2.53728C8.66276 1.4471 10.7499 0.718653 13.1474 0.351942C15.5525 -0.0573041 18.2277 -0.00223839 21.1733 0.517139C24.375 1.08168 26.9755 1.93496 28.9749 3.07697C30.9744 4.21898 32.463 5.51215 33.4408 6.95646C34.4613 8.4083 35.1039 9.88123 35.3686 11.3753C35.6409 12.8267 35.6293 14.1405 35.3339 15.3164C35.0212 16.8402 34.4787 18.1699 33.7062 19.3056C32.9337 20.4413 32.0269 21.4656 30.9856 22.3785C29.9945 23.2563 28.9431 24.1016 27.8314 24.9144C26.7699 25.6921 25.7688 26.5024 24.8279 27.3452C23.8944 28.1455 23.1419 29.0435 22.5702 30.0392C22.4323 30.3219 22.2944 30.6046 22.1565 30.8873C22.0262 31.1274 21.9134 31.3926 21.8182 31.6829C21.4219 32.1831 21.0694 32.5596 20.7607 32.8122C20.4596 33.0222 20.0529 33.0821 19.5406 32.9918L10.576 31.411Z" fill="#FBF7F4"/>
</svg>
