<svg width="139" height="91" viewBox="0 0 139 91" fill="none" xmlns="http://www.w3.org/2000/svg">
<path d="M6.08 67C5.61067 67 5.22667 66.8507 4.928 66.552C4.62933 66.2533 4.48 65.8693 4.48 65.4L4.48 23.8C4.48 23.3307 4.62933 22.9467 4.928 22.648C5.22667 22.3493 5.61067 22.2 6.08 22.2H35.456C35.9253 22.2 36.3093 22.3493 36.608 22.648C36.9493 22.9467 37.12 23.3307 37.12 23.8V30.264C37.12 30.7333 36.9493 31.1173 36.608 31.416C36.3093 31.7147 35.9253 31.864 35.456 31.864H15.744L15.744 41.272H34.176C34.6453 41.272 35.0293 41.4427 35.328 41.784C35.6693 42.0827 35.84 42.4667 35.84 42.936V49.336C35.84 49.7627 35.6693 50.1467 35.328 50.488C35.0293 50.7867 34.6453 50.936 34.176 50.936H15.744V65.4C15.744 65.8693 15.5947 66.2533 15.296 66.552C14.9973 66.8507 14.6133 67 14.144 67H6.08Z" fill="#FBF7F4"/>
<path d="M41.92 67C41.5787 67 41.2587 66.872 40.96 66.616C40.704 66.3173 40.576 65.9973 40.576 65.656C40.576 65.4427 40.5973 65.2507 40.64 65.08L55.68 23.992C55.808 23.5227 56.064 23.1173 56.448 22.776C56.8747 22.392 57.4507 22.2 58.176 22.2H67.648C68.3733 22.2 68.928 22.392 69.312 22.776C69.7387 23.1173 70.016 23.5227 70.144 23.992L85.12 65.08C85.2053 65.2507 85.248 65.4427 85.248 65.656C85.248 65.9973 85.0987 66.3173 84.8 66.616C84.544 66.872 84.224 67 83.84 67H75.968C75.328 67 74.8373 66.8507 74.496 66.552C74.1973 66.2107 74.0053 65.912 73.92 65.656L71.424 59.128H54.336L51.904 65.656C51.8187 65.912 51.6267 66.2107 51.328 66.552C51.0293 66.8507 50.5173 67 49.792 67H41.92ZM56.96 49.912H68.864L62.848 33.016L56.96 49.912Z" fill="#FBF7F4"/>
<path d="M123.328 69.0296C122.655 69.1482 122.097 69.0517 121.652 68.7402C121.256 68.4634 120.931 68.2174 120.677 68.0023L118.034 65.5439C116.491 66.3791 114.67 66.9819 112.569 67.3524C108.703 68.034 105.231 67.9965 102.151 67.2397C99.1135 66.4756 96.5531 64.9774 94.4699 62.7453C92.4212 60.4637 90.9968 57.4221 90.1965 53.6207C89.8359 51.8213 89.4963 50.0182 89.1777 48.2114C88.8591 46.4046 88.5578 44.5731 88.2739 42.7169C87.7331 38.913 88.0561 35.585 89.2429 32.733C90.4223 29.8389 92.3257 27.4886 94.9533 25.6822C97.5809 23.8759 100.785 22.6393 104.567 21.9724C108.391 21.2982 111.846 21.3605 114.933 22.1593C118.02 22.958 120.613 24.5155 122.711 26.8317C124.801 29.1059 126.243 32.1227 127.036 35.8821C127.446 37.7161 127.81 39.5365 128.129 41.3433C128.447 43.1501 128.724 44.9643 128.959 46.7859C129.625 52.0406 128.824 56.3411 126.554 59.6874L132.311 65.431C132.361 65.4656 132.417 65.5422 132.482 65.6609C132.546 65.7795 132.589 65.9019 132.611 66.0279C132.713 66.3567 132.659 66.6693 132.452 66.9659C132.252 67.3045 131.962 67.5071 131.584 67.5738L123.328 69.0296ZM110.969 58.2764C113.196 57.8837 114.884 56.8928 116.033 55.3038C117.225 53.7073 117.603 51.431 117.169 48.4748C116.927 46.6112 116.661 44.86 116.372 43.2213C116.083 41.5826 115.741 39.8883 115.346 38.1383C114.956 36.1708 114.317 34.6371 113.43 33.5371C112.535 32.3951 111.469 31.63 110.231 31.2418C108.993 30.8536 107.638 30.7891 106.168 31.0484C104.739 31.3003 103.509 31.8204 102.478 32.6087C101.448 33.397 100.707 34.4807 100.257 35.8598C99.7998 37.1969 99.7242 38.8566 100.03 40.8389C100.3 42.6111 100.579 44.3165 100.868 45.9552C101.156 47.594 101.485 49.334 101.853 51.1754C102.456 54.1019 103.569 56.1152 105.193 57.2153C106.858 58.308 108.784 58.6617 110.969 58.2764Z" fill="#FBF7F4"/>
</svg>
