<svg width="46" height="46" viewBox="0 0 46 46" fill="none" xmlns="http://www.w3.org/2000/svg">
<path d="M42.4034 34.1238C44.2983 30.81 45.3857 26.9698 45.3857 22.8734C45.3857 10.3756 35.3096 0.243801 22.8777 0.243801C10.4472 0.242401 0.369629 10.3742 0.369629 22.872C0.369629 29.417 3.13197 35.3124 7.55672 39.4466C7.67228 32.9982 7.87417 25.7854 8.21807 23.1002C8.86688 18.049 13.5812 16.1044 19.7965 10.8152C21.633 9.2472 24.5081 8.8468 28.2492 11.5096C32.2201 14.3376 36.1547 15.9756 37.4162 17.2692C39.0688 18.9646 38.3142 20.499 36.7492 20.499C35.1954 20.499 32.1936 18.4256 30.14 17.44C23.4471 14.2088 22.8763 13.9568 19.7519 17.5016C16.4341 21.269 14.464 24.9076 18.8107 27.1238C22.5352 29.0208 26.3431 24.986 28.7059 22.1524C30.7888 19.659 33.5205 19.8088 34.4686 21.0086C35.4168 22.2182 33.3116 22.9672 31.8121 24.5044C28.8562 27.5354 29.7459 28.2998 27.4389 32.2688C25.5509 35.5182 22.9584 35.2998 20.5609 37.7064C19.6461 38.6192 19.4512 41.9442 19.5055 45.2538C20.6054 45.426 21.7318 45.51 22.8763 45.51C26.9641 45.51 30.7943 44.404 34.1025 42.4888L41.7518 43.8062C41.7518 43.8062 44.1257 44.0792 43.5423 40.9362C43.2819 39.5222 42.7835 36.4758 42.4034 34.1238ZM33.9521 13.345L27.4403 9.7568C28.7908 9.901 29.3185 9.8954 30.3001 10.0676C31.1327 10.2146 33.8268 10.3014 34.4756 11.4634C35.1216 12.6156 33.9521 13.345 33.9521 13.345Z" fill="#F26522"/>
</svg>
