<svg width="92" height="94" viewBox="0 0 92 94" fill="none" xmlns="http://www.w3.org/2000/svg">
<path d="M47.885 11.2145C47.5949 12.7966 47.5817 14.4169 47.846 16.0035C48.1809 17.958 48.7727 19.0559 47.5034 22.6379C45.5178 28.26 39.81 24.1329 34.7719 28.9764C29.2432 34.3104 23.9949 36.4907 19.6031 36.5219C17.2562 36.5737 14.9482 35.9171 12.9799 34.6378C11.0117 33.3585 9.47462 31.5159 8.56908 29.3502C5.05721 21.4309 8.26538 19.017 15.2736 16.7276C22.2817 14.4383 19.1203 7.91291 22.8424 5.57685C26.5645 3.24079 31.0965 3.88709 32.8719 2.38423C34.6473 0.88136 40.0436 -1.16659 44.926 0.826852C49.0063 2.40759 48.8505 4.90718 47.885 11.2145Z" fill="#349362"/>
<path d="M41.126 32.753L40.3473 24.4834C40.3473 24.4834 55.0801 25.7682 61.5432 51.3247C63.7546 63.2464 60.1882 68.1755 54.387 69.289C48.5858 70.4026 33.2223 58.6989 41.126 32.753Z" fill="#115934" stroke="#349362" stroke-miterlimit="10"/>
<path d="M89.6225 40.0417C89.513 40.1639 89.3902 40.2736 89.2565 40.3687L89.1942 40.4076C88.7037 40.7191 88.1975 40.9994 87.7225 41.2408C86.4455 41.9027 85.3864 42.3154 85.3864 42.3154C85.3864 42.3154 79.0947 47.1511 78.1602 47.7195C77.8642 47.796 77.5557 47.812 77.2533 47.7665C76.951 47.721 76.6609 47.615 76.4004 47.4548C76.4004 46.4269 81.0725 39.154 81.9836 37.7523C82.6654 36.7757 83.4926 35.9091 84.4364 35.1826C84.4364 35.1826 89.5368 28.3302 91.0786 29.4827C91.7639 29.9966 88.945 33.2749 88.0106 34.6453C88.2218 34.6347 88.4315 34.6848 88.6151 34.7896C88.7986 34.8945 88.9483 35.0498 89.0463 35.2372C89.1297 35.4003 89.1597 35.5855 89.1319 35.7667C89.3698 35.8362 89.5849 35.9679 89.7549 36.1482C89.9573 36.4052 90.1131 36.9269 90.0118 37.0204C90.1301 37.0529 90.2389 37.1128 90.3296 37.1954C90.4202 37.2779 90.4901 37.3807 90.5336 37.4953C90.5897 37.8138 90.5404 38.1418 90.3934 38.4298C90.3973 38.5024 90.3973 38.5752 90.3934 38.6478C90.2948 39.1839 90.0241 39.6732 89.6225 40.0417Z" fill="#115934" stroke="#349362" stroke-miterlimit="10"/>
<path d="M79.5695 41.9809C79.2269 42.3468 59.97 54.0894 58.6384 55.0161C46.3975 63.5816 52.5413 69.889 52.5413 69.889C52.6632 69.945 52.7879 69.9944 52.9151 70.0369C63.077 73.0894 82.3962 44.387 82.3962 44.387C82.3962 44.387 79.9277 41.6071 79.5695 41.9809Z" fill="#115934" stroke="#349362" stroke-miterlimit="10"/>
<path d="M38.3694 25.2309C27.1407 22.8948 6.33421 34.396 11.1854 54.9144C12.517 69.2033 14.6117 78.6488 9.22314 93H57.821C55.7964 80.5877 56.396 65.9173 54.2935 49.7751" fill="#115934"/>
<path d="M38.3694 25.2309C27.1407 22.8948 6.33421 34.396 11.1854 54.9144C12.517 69.2033 14.6117 78.6488 9.22314 93H57.821C55.7964 80.5877 56.396 65.9173 54.2935 49.7751" stroke="#349362" stroke-miterlimit="10"/>
<path d="M29.4455 27.2868C29.0873 28.8441 29.5078 30.2146 33.5569 33.3761C35.2 34.7388 37.0455 35.5253 38.8442 35.2216C44.8401 34.2638 43.2827 29.8798 42.2393 26.9909C42.2129 26.8975 42.179 26.8063 42.1381 26.7183C41.1803 24.2654 41.5385 15.8634 41.5385 15.8634L35.3869 14.5708C35.3869 14.5708 35.7684 16.0425 34.1955 20.263C32.6225 24.4835 29.9438 25.0831 29.4455 27.2868Z" fill="#115934" stroke="#349362" stroke-miterlimit="10"/>
<path d="M45.7981 18.9467C43.61 22.0147 35.5195 19.3594 34.6084 15.4115L33.8297 12.032C33.2912 11.79 32.8413 11.3863 32.5427 10.877C32.2441 10.3676 32.1115 9.77792 32.1633 9.18977C32.3969 7.6324 33.674 8.62133 33.674 8.62133V6.90822L45.6813 5.42871C45.6813 5.42871 45.8682 6.30084 46.1174 7.64018C46.2342 8.32542 46.3432 9.19756 46.4678 10.0463C46.8571 13.2467 47.0285 17.257 45.7981 18.9467Z" fill="#115934" stroke="#349362" stroke-miterlimit="10"/>
<path opacity="0.5" d="M33.3936 9.01855C33.3936 9.01855 32.9576 8.54356 32.7551 8.90176C32.6494 9.28427 32.6493 9.68826 32.7549 10.0708C32.8605 10.4534 33.0678 10.8001 33.3547 11.0743C33.3547 11.0743 32.6617 9.85176 32.8641 9.43905C33.0666 9.02635 33.5883 9.36896 33.3936 9.01855Z" fill="#E9B1B1"/>
<path d="M45.9226 7.86626C45.8927 7.40735 45.705 6.97291 45.3913 6.63656C45.0777 6.30022 44.6574 6.08267 44.2017 6.02078C43.9759 5.97405 45.253 6.87733 45.362 8.18552C44.7079 8.63218 43.988 8.97373 43.2284 9.19781C40.3706 10.0544 33.4247 8.20109 33.4247 8.20109C32.5292 -1.43905 46.1952 1.0839 47.6279 4.51012C47.9394 5.25766 47.0128 6.84618 45.9226 7.86626Z" fill="#349362"/>
<path d="M21.612 29.3501C21.612 29.3501 -3.92113 42.2763 1.84894 70.0131C3.16492 76.3205 17.9288 67.5758 16.6985 64.5623C11.2477 64.4767 16.2547 54.4394 15.8497 52.4693" fill="#115934"/>
<path d="M21.612 29.3501C21.612 29.3501 -3.92113 42.2763 1.84894 70.0131C3.16492 76.3205 17.9288 67.5758 16.6985 64.5623C11.2477 64.4767 16.2547 54.4394 15.8497 52.4693" stroke="#349362" stroke-miterlimit="10"/>
<path d="M37.575 12.6785C37.8503 12.6785 38.0734 12.3334 38.0734 11.9076C38.0734 11.4819 37.8503 11.1367 37.575 11.1367C37.2998 11.1367 37.0767 11.4819 37.0767 11.9076C37.0767 12.3334 37.2998 12.6785 37.575 12.6785Z" fill="#349362"/>
<path d="M43.5941 12.6785C43.8693 12.6785 44.0924 12.3334 44.0924 11.9076C44.0924 11.4819 43.8693 11.1367 43.5941 11.1367C43.3188 11.1367 43.0957 11.4819 43.0957 11.9076C43.0957 12.3334 43.3188 12.6785 43.5941 12.6785Z" fill="#349362"/>
<path d="M40.7832 12.5854C40.7832 12.5854 43.1193 16.4322 40.4951 15.2641" stroke="#349362" stroke-miterlimit="10"/>
<path d="M39.1714 17.0705C39.1714 17.0705 41.1103 19.3209 43.3218 16.8213" stroke="#349362" stroke-miterlimit="10"/>
<path d="M39.0623 60.583C37.6918 60.9646 31.7193 60.801 31.1197 61.5564C31.1197 61.5564 30.8316 65.4965 31.6648 66.1662C32.5681 66.4154 39.4127 65.4965 39.4127 65.4965C40.1423 66.1632 41.0335 66.6276 41.9979 66.8436C42.4571 66.9685 42.926 67.0545 43.3996 67.1006L43.7111 67.1629C44.3262 67.2797 45.65 67.4977 45.8602 67.2018C46.004 67.0418 46.0934 66.8403 46.1158 66.6264C46.1382 66.4124 46.0923 66.1968 45.9848 66.0104C45.9823 65.9924 45.9823 65.974 45.9848 65.9559C46.138 65.9414 46.2849 65.888 46.4116 65.8008C46.5384 65.7136 46.6407 65.5954 46.709 65.4576C46.7594 65.3284 46.7745 65.1882 46.7526 65.0513C46.7307 64.9144 46.6726 64.7858 46.5844 64.6789C46.581 64.6609 46.581 64.6424 46.5844 64.6244C46.7168 64.6244 47.0127 64.5621 47.0828 64.3363C47.1529 64.1104 47.2619 63.5576 46.8881 63.285" stroke="#349362" stroke-miterlimit="10"/>
<path d="M82.7389 36.7866C82.6301 36.086 82.6091 35.3744 82.6766 34.6686C82.7018 34.235 82.8474 33.8171 83.0971 33.4616C83.2534 33.1781 83.5151 32.9676 83.8256 32.8757C84.1361 32.7839 84.4703 32.8181 84.7557 32.9711C85.2093 33.2397 85.5633 33.6485 85.7642 34.1359C85.965 34.6234 86.0019 35.1629 85.8692 35.6731C85.6667 35.8834 85.4643 36.1403 84.8803 35.6731C84.2963 35.2059 84.1483 35.3305 84.1483 35.3305L82.7389 36.7866Z" fill="#115934" stroke="#349362" stroke-miterlimit="10"/>
<path d="M36.1113 60.9729C36.1113 60.9729 37.2248 64.8663 36.1113 66.3459C34.9977 67.8254 13.8097 76.5622 7.86829 75.0827C-2.70628 72.4352 0.82117 62.1487 10.3445 60.1631C19.8678 58.1774 36.1113 60.9729 36.1113 60.9729Z" fill="#115934" stroke="#349362" stroke-miterlimit="10"/>
</svg>
