<svg width="160" height="145" viewBox="0 0 160 145" fill="none" xmlns="http://www.w3.org/2000/svg">
<g clip-path="url(#clip0_87_963)">
<path d="M159.185 45.7416C159.198 51.6438 158.046 57.4907 155.794 62.9466C153.542 68.4025 150.235 73.36 146.062 77.5347C146.062 77.5347 81.4857 141.949 80.089 143.052C77.606 141.414 16.4263 80.6899 16.4263 80.6899C17.686 79.0084 19.0632 77.4183 20.5475 75.9313L82.5031 13.983C88.7699 7.65823 96.7782 3.34257 105.507 1.58612C114.237 -0.170322 123.291 0.712012 131.517 4.12066C139.743 7.52931 146.767 13.3099 151.695 20.7255C156.622 28.1411 159.23 36.8559 159.185 45.7589V45.7416Z" fill="#115934" stroke="#115934" stroke-miterlimit="10"/>
<path d="M94.5564 32.3277L136.63 73.707C138.85 75.9215 140.827 78.3664 142.528 81.0001L84.1069 139.483C82.843 140.749 81.5012 141.936 80.0892 143.035C77.5687 141.374 75.2231 139.462 73.0884 137.328L16.4264 80.6726L13.2882 77.5346C5.04966 69.0676 0.475875 57.6981 0.556217 45.8853C0.636558 34.0726 5.36455 22.7662 13.7175 14.412C22.0704 6.05782 33.3767 1.32734 45.1909 1.2438C57.005 1.16027 68.3772 5.73041 76.8474 13.9657L78.2786 15.3967" fill="#349362"/>
<path d="M94.5564 32.3277L136.63 73.707C138.85 75.9215 140.827 78.3664 142.528 81.0001L84.1069 139.483C82.843 140.749 81.5012 141.936 80.0892 143.035C77.5687 141.374 75.2231 139.462 73.0884 137.328L16.4264 80.6726L13.2882 77.5346C5.04966 69.0676 0.475875 57.6981 0.556217 45.8853C0.636558 34.0726 5.36455 22.7662 13.7175 14.412C22.0704 6.05782 33.3767 1.32734 45.1909 1.2438C57.005 1.16027 68.3772 5.73041 76.8474 13.9657L78.2786 15.3967" stroke="#115934" stroke-miterlimit="10"/>
<path d="M123.801 61.5347L140.803 78.5519C142.882 80.6476 144.048 83.4797 144.048 86.4312C144.048 89.3828 142.882 92.2148 140.803 94.3105C138.707 96.3889 135.875 97.5551 132.923 97.5551C129.971 97.5551 127.139 96.3889 125.043 94.3105L112.317 81.9657" fill="#349362"/>
<path d="M123.801 61.5347L140.803 78.5519C142.882 80.6476 144.048 83.4797 144.048 86.4312C144.048 89.3828 142.882 92.2148 140.803 94.3105V94.3105C138.707 96.3889 135.875 97.5551 132.923 97.5551C129.971 97.5551 127.139 96.3889 125.043 94.3105L112.317 81.9657" stroke="#115934" stroke-miterlimit="10"/>
<path d="M112.179 81.6553L124.905 94.0001C126.983 96.0958 128.15 98.9278 128.15 101.879C128.15 104.831 126.983 107.663 124.905 109.759C122.813 111.845 119.979 113.017 117.025 113.017C114.07 113.017 111.236 111.845 109.144 109.759L96.4187 97.3621" fill="#349362"/>
<path d="M112.179 81.6553L124.905 94.0001C126.983 96.0958 128.15 98.9278 128.15 101.879C128.15 104.831 126.983 107.663 124.905 109.759V109.759C122.813 111.845 119.979 113.017 117.025 113.017C114.07 113.017 111.236 111.845 109.144 109.759L96.4187 97.3621" stroke="#115934" stroke-miterlimit="10"/>
<path d="M96.2807 97.5518L108.989 109.897C111.077 111.991 112.25 114.827 112.25 117.785C112.25 120.742 111.077 123.578 108.989 125.672C106.893 127.751 104.061 128.917 101.109 128.917C98.157 128.917 95.3246 127.751 93.2287 125.672L80.5203 113.31" fill="#349362"/>
<path d="M96.2807 97.5518L108.989 109.897C111.077 111.991 112.25 114.827 112.25 117.785C112.25 120.742 111.077 123.578 108.989 125.672V125.672C106.893 127.751 104.061 128.917 101.109 128.917C98.157 128.917 95.3246 127.751 93.2287 125.672L80.5203 113.31" stroke="#115934" stroke-miterlimit="10"/>
<path d="M80.365 113.465L93.0733 125.81C95.1603 127.902 96.3324 130.735 96.3324 133.69C96.3324 136.644 95.1603 139.478 93.0733 141.569C90.9774 143.647 88.145 144.813 85.1931 144.813C82.2412 144.813 79.4088 143.647 77.3128 141.569L60.3108 124.552C58.2238 122.46 57.0518 119.627 57.0518 116.672C57.0518 113.718 58.2238 110.884 60.3108 108.793" fill="#349362"/>
<path d="M80.365 113.465L93.0733 125.81C95.1603 127.901 96.3324 130.735 96.3324 133.69C96.3324 136.644 95.1603 139.478 93.0733 141.569V141.569C90.9774 143.647 88.145 144.813 85.1931 144.813C82.2412 144.813 79.4088 143.647 77.3128 141.569L60.3108 124.552C58.2238 122.46 57.0518 119.627 57.0518 116.672C57.0518 113.718 58.2238 110.884 60.3108 108.793V108.793" stroke="#115934" stroke-miterlimit="10"/>
<path d="M73.9089 119.47L73.8966 119.458C69.5465 115.108 62.4935 115.108 58.1434 119.458L51.7787 125.822C47.4285 130.171 47.4285 137.223 51.7787 141.573L51.7909 141.585C56.141 145.935 63.194 145.935 67.5441 141.585L73.9089 135.221C78.259 130.872 78.259 123.82 73.9089 119.47Z" fill="#115934" stroke="#115934" stroke-miterlimit="10"/>
<path d="M58.0104 103.55L57.9982 103.538C53.6481 99.1887 46.5951 99.1887 42.2449 103.538L35.8802 109.902C31.5301 114.252 31.53 121.304 35.8802 125.654L35.8924 125.666C40.2426 130.016 47.2956 130.015 51.6457 125.666L58.0104 119.302C62.3605 114.952 62.3606 107.9 58.0104 103.55Z" fill="#115934" stroke="#115934" stroke-miterlimit="10"/>
<path d="M42.112 87.656L42.0998 87.6438C37.7496 83.2941 30.6966 83.2942 26.3465 87.6438L19.9818 94.0078C15.6316 98.3574 15.6316 105.41 19.9818 109.759L19.994 109.771C24.3441 114.121 31.3971 114.121 35.7472 109.771L42.1119 103.407C46.4621 99.0578 46.4621 92.0056 42.112 87.656Z" fill="#115934" stroke="#115934" stroke-miterlimit="10"/>
<path d="M26.2135 71.7609L26.2013 71.7487C21.8512 67.3991 14.7982 67.3991 10.448 71.7488L4.08332 78.1127C-0.266826 82.4624 -0.266825 89.5145 4.08332 93.8641L4.09553 93.8763C8.44568 98.226 15.4986 98.226 19.8488 93.8763L26.2135 87.5124C30.5637 83.1627 30.5637 76.1106 26.2135 71.7609Z" fill="#115934" stroke="#115934" stroke-miterlimit="10"/>
<path d="M83.9171 12.5688L62.0352 34.4654C64.0116 36.4458 66.3593 38.0171 68.9439 39.0892C71.5285 40.1612 74.2991 40.713 77.0973 40.713C79.8954 40.713 82.6661 40.1612 85.2506 39.0892C87.8352 38.0171 90.1829 36.4458 92.1594 34.4654L100.229 27.3447" fill="#115934"/>
<path d="M83.9171 12.5688L62.0352 34.4654C64.0116 36.4458 66.3593 38.0171 68.9439 39.0892C71.5285 40.1612 74.2991 40.713 77.0973 40.713C79.8954 40.713 82.6661 40.1612 85.2506 39.0892C87.8352 38.0171 90.1829 36.4458 92.1594 34.4654L100.229 27.3447" stroke="#115934" stroke-miterlimit="10"/>
</g>
<defs>
<clipPath id="clip0_87_963">
<rect width="160" height="145" fill="white"/>
</clipPath>
</defs>
</svg>
