<svg width="107" height="96" viewBox="0 0 107 96" fill="none" xmlns="http://www.w3.org/2000/svg">
<path d="M88.9696 90.5437H12.7239V35.4612L50.841 8.56934L88.9696 35.4612V90.5437Z" fill="#115934" stroke="#349362" stroke-miterlimit="10"/>
<path d="M98.4671 32.3074L53.6706 1.87864C52.8337 1.30627 51.8434 1 50.8295 1C49.8156 1 48.8253 1.30627 47.9884 1.87864L3.21501 32.3074C2.10653 33.0623 1.34253 34.2259 1.09039 35.5431C0.838247 36.8603 1.11852 38.2238 1.86984 39.3347C2.24354 39.8839 2.72182 40.3541 3.2773 40.7183C3.83278 41.0826 4.45458 41.3338 5.1072 41.4576C5.75982 41.5815 6.43044 41.5755 7.08074 41.4401C7.73105 41.3046 8.34829 41.0424 8.8972 40.6683L48 14.1011C48.8369 13.5288 49.8272 13.2225 50.8411 13.2225C51.855 13.2225 52.8453 13.5288 53.6822 14.1011L92.785 40.6683C93.3339 41.0424 93.9511 41.3046 94.6014 41.4401C95.2517 41.5755 95.9223 41.5815 96.575 41.4576C97.2276 41.3338 97.8494 41.0826 98.4049 40.7183C98.9603 40.3541 99.4386 39.8839 99.8123 39.3347C100.564 38.2238 100.844 36.8603 100.592 35.5431C100.34 34.2259 99.5756 33.0623 98.4671 32.3074Z" fill="#115934" stroke="#349362" stroke-miterlimit="10"/>
<path d="M25.596 46.7444H47.8146C47.9511 46.7412 48.0833 46.7916 48.183 46.8849C48.2828 46.9781 48.342 47.1067 48.348 47.243V90.5205H25.0742V47.243C25.0742 47.1046 25.1292 46.9719 25.2271 46.874C25.3249 46.7762 25.4577 46.7212 25.596 46.7212V46.7444Z" fill="#115934" stroke="#349362" stroke-miterlimit="10"/>
<path d="M44.2195 66.5508H42.7932C42.1655 66.5508 41.6567 67.0596 41.6567 67.6872V69.1136C41.6567 69.7412 42.1655 70.25 42.7932 70.25H44.2195C44.8472 70.25 45.356 69.7412 45.356 69.1136V67.6872C45.356 67.0596 44.8472 66.5508 44.2195 66.5508Z" fill="#115934" stroke="#349362" stroke-miterlimit="10"/>
<path d="M51.8035 50.8495H21.6531L23.5317 46.3965C23.6917 46.015 23.9609 45.6893 24.3055 45.4603C24.65 45.2312 25.0545 45.1092 25.4683 45.1094H48.0347C48.4494 45.1114 48.8545 45.2342 49.2005 45.4628C49.5465 45.6914 49.8184 46.0159 49.9829 46.3965L51.8035 50.8495Z" fill="#349362"/>
<path d="M94.71 90.4282H6.96069V95.4378H94.71V90.4282Z" fill="#115934" stroke="#349362" stroke-miterlimit="10"/>
<path d="M79.6463 56.1494H58.2395V75.7936H79.6463V56.1494Z" fill="#115934" stroke="#349362" stroke-miterlimit="10"/>
<path d="M68.9429 56.1494H58.2395V65.9715H68.9429V56.1494Z" fill="#115934" stroke="#349362" stroke-miterlimit="10"/>
<path d="M79.6463 65.9712H68.9429V75.7933H79.6463V65.9712Z" fill="#115934" stroke="#349362" stroke-miterlimit="10"/>
<path d="M51.3049 33.8725C53.95 33.8725 56.0942 31.7283 56.0942 29.0832C56.0942 26.4382 53.95 24.2939 51.3049 24.2939C48.6599 24.2939 46.5156 26.4382 46.5156 29.0832C46.5156 31.7283 48.6599 33.8725 51.3049 33.8725Z" fill="#349362" stroke="#115934" stroke-miterlimit="10"/>
<path d="M94.8027 45.3067C101.021 45.3067 106.063 40.2654 106.063 34.0466C106.063 27.8279 101.021 22.7866 94.8027 22.7866C88.584 22.7866 83.5427 27.8279 83.5427 34.0466C83.5427 40.2654 88.584 45.3067 94.8027 45.3067Z" fill="#349362" stroke="#349362" stroke-miterlimit="10"/>
<path d="M90.6396 34.7887L93.0401 37.3631L98.9658 31.4258" stroke="#115934" stroke-miterlimit="10"/>
</svg>
