<svg width="159" height="73" viewBox="0 0 159 73" fill="none" xmlns="http://www.w3.org/2000/svg">
<path d="M7.87016 48.2897C7.24016 42.7697 8.14018 30.5497 10.8202 22.4197C12.5802 17.0597 14.2302 9.77969 21.4902 5.69969C27.4902 2.33969 66.2502 -0.41031 87.9602 1.78969C99.3002 2.93969 108.83 13.4497 115.13 22.8697C115.53 23.4669 116.046 23.9775 116.647 24.3709C117.248 24.7643 117.923 25.0326 118.63 25.1597C137 28.5297 137.63 28.5797 142.31 29.9997C147.14 31.4697 151.87 35.1597 151.87 40.7297V54.2297H8.45015C8.24015 50.8297 8.08016 51.6597 7.87016 48.2897Z" fill="#115934" stroke="#349362" stroke-miterlimit="10"/>
<path d="M85.9297 24.8497C83.6206 17.827 80.248 11.1999 75.9297 5.19971C80.2997 5.37971 84.1997 5.65969 87.5397 6.05969C97.5997 7.24969 105.92 16.7597 111.46 25.2797L85.9697 24.8497H85.9297Z" fill="#349362"/>
<path d="M41.6899 24.5195L43.1399 6.41949C51.0699 5.84949 59.7899 5.56947 67.8299 5.61947C68.6699 5.61947 69.5099 5.61947 70.3399 5.61947C75.0053 11.3636 78.7192 17.819 81.3399 24.7395L41.6899 24.5195Z" fill="#349362" stroke="#115934" stroke-miterlimit="10"/>
<path d="M32.12 58.7097H7.12C5.49687 58.7097 3.94023 58.065 2.79251 56.9172C1.64479 55.7695 1 54.2128 1 52.5897C1 50.9666 1.64479 49.41 2.79251 48.2622C3.94023 47.1145 5.49687 46.4697 7.12 46.4697H32.12V58.7097Z" fill="#115934" stroke="#349362" stroke-miterlimit="10"/>
<path d="M152.89 58.7097H132.43V48.5098H152.89C153.559 48.5098 154.223 48.6417 154.841 48.898C155.46 49.1543 156.022 49.5299 156.496 50.0035C156.97 50.4771 157.345 51.0393 157.601 51.6581C157.858 52.2768 157.99 52.94 157.99 53.6098C157.99 54.2795 157.858 54.9427 157.601 55.5615C157.345 56.1802 156.97 56.7424 156.496 57.216C156.022 57.6896 155.46 58.0652 154.841 58.3215C154.223 58.5778 153.559 58.7097 152.89 58.7097Z" fill="#115934" stroke="#349362" stroke-miterlimit="10"/>
<path d="M43.3701 53.2695H112.61V58.7095H43.3701V53.2695Z" fill="#115934" stroke="#349362" stroke-miterlimit="10"/>
<path d="M121.71 72.5896C130.071 72.5896 136.85 65.8112 136.85 57.4496C136.85 49.088 130.071 42.3096 121.71 42.3096C113.348 42.3096 106.57 49.088 106.57 57.4496C106.57 65.8112 113.348 72.5896 121.71 72.5896Z" fill="#349362"/>
<path d="M121.71 65.6495C126.239 65.6495 129.91 61.9783 129.91 57.4495C129.91 52.9208 126.239 49.2495 121.71 49.2495C117.181 49.2495 113.51 52.9208 113.51 57.4495C113.51 61.9783 117.181 65.6495 121.71 65.6495Z" fill="#115934" stroke="#349362" stroke-miterlimit="10"/>
<path d="M121.71 59.9697C123.102 59.9697 124.23 58.8414 124.23 57.4497C124.23 56.0579 123.102 54.9297 121.71 54.9297C120.318 54.9297 119.19 56.0579 119.19 57.4497C119.19 58.8414 120.318 59.9697 121.71 59.9697Z" fill="#115934" stroke="#349362" stroke-miterlimit="10"/>
<path d="M34.0101 72.5896C42.3717 72.5896 49.1501 65.8112 49.1501 57.4496C49.1501 49.088 42.3717 42.3096 34.0101 42.3096C25.6485 42.3096 18.8701 49.088 18.8701 57.4496C18.8701 65.8112 25.6485 72.5896 34.0101 72.5896Z" fill="#349362"/>
<path d="M34.0101 65.6495C38.5388 65.6495 42.2101 61.9783 42.2101 57.4495C42.2101 52.9208 38.5388 49.2495 34.0101 49.2495C29.4813 49.2495 25.8101 52.9208 25.8101 57.4495C25.8101 61.9783 29.4813 65.6495 34.0101 65.6495Z" fill="#115934" stroke="#349362" stroke-miterlimit="10"/>
<path d="M34.0102 59.9697C35.402 59.9697 36.5302 58.8414 36.5302 57.4497C36.5302 56.0579 35.402 54.9297 34.0102 54.9297C32.6185 54.9297 31.4902 56.0579 31.4902 57.4497C31.4902 58.8414 32.6185 59.9697 34.0102 59.9697Z" fill="#115934" stroke="#349362" stroke-miterlimit="10"/>
<path d="M38.9099 6.08984C29.9099 7.08984 25.2699 8.20985 23.9099 9.02985C18.5599 12.2798 16.9099 17.7898 15.5299 22.6498C15.3799 23.1798 15.2299 23.6998 15.0699 24.2198C15.0699 24.3598 14.9799 24.4999 14.9399 24.6399H37.7199L38.9099 6.08984Z" fill="#349362" stroke="#115934" stroke-miterlimit="10"/>
<path d="M154.63 37.9597C155.01 40.2797 152.85 42.1898 149.45 42.4898C146.22 42.7998 142.51 41.3498 141.91 39.0398C141.55 36.7098 145.41 34.6498 148.67 34.3598C151.93 34.0698 154.17 35.6397 154.67 37.9597H154.63ZM95.7599 30.7598H89.2999H95.7599ZM49.1599 30.7598H42.3599H49.1599Z" fill="#115934"/>
<path d="M95.7599 30.7598H89.2999M49.1599 30.7598H42.3599M154.63 37.9597C155.01 40.2797 152.85 42.1898 149.45 42.4898C146.22 42.7998 142.51 41.3498 141.91 39.0398C141.55 36.7098 145.41 34.6498 148.67 34.3598C151.93 34.0698 154.17 35.6397 154.67 37.9597H154.63Z" stroke="#349362" stroke-miterlimit="10"/>
<path d="M110.77 8.37988H110.49C110.49 8.37988 110.49 8.37988 110.49 8.46988C110.49 8.51988 110.49 8.55988 110.49 8.55988H110.77C110.77 8.55988 110.77 8.55988 110.77 8.46988C110.79 8.41988 110.78 8.37988 110.77 8.37988Z" fill="#349362"/>
</svg>
