<svg width="181" height="56" viewBox="0 0 181 56" fill="none" xmlns="http://www.w3.org/2000/svg">
<path d="M44.4034 37.1238C46.2983 33.81 47.3857 29.9698 47.3857 25.8734C47.3857 13.3756 37.3096 3.2438 24.8777 3.2438C12.4472 3.2424 2.36963 13.3742 2.36963 25.872C2.36963 32.417 5.13197 38.3124 9.55672 42.4466C9.67228 35.9982 9.87417 28.7854 10.2181 26.1002C10.8669 21.049 15.5812 19.1044 21.7965 13.8152C23.633 12.2472 26.5081 11.8468 30.2492 14.5096C34.2201 17.3376 38.1547 18.9756 39.4162 20.2692C41.0688 21.9646 40.3142 23.499 38.7492 23.499C37.1954 23.499 34.1936 21.4256 32.14 20.44C25.4471 17.2088 24.8763 16.9568 21.7519 20.5016C18.4341 24.269 16.464 27.9076 20.8107 30.1238C24.5352 32.0208 28.3431 27.986 30.7059 25.1524C32.7888 22.659 35.5205 22.8088 36.4686 24.0086C37.4168 25.2182 35.3116 25.9672 33.8121 27.5044C30.8562 30.5354 31.7459 31.2998 29.4389 35.2688C27.5509 38.5182 24.9584 38.2998 22.5609 40.7064C21.6461 41.6192 21.4512 44.9442 21.5055 48.2538C22.6054 48.426 23.7318 48.51 24.8763 48.51C28.9641 48.51 32.7943 47.404 36.1025 45.4888L43.7518 46.8062C43.7518 46.8062 46.1257 47.0792 45.5423 43.9362C45.2819 42.5222 44.7835 39.4758 44.4034 37.1238ZM35.9521 16.345L29.4403 12.7568C30.7908 12.901 31.3185 12.8954 32.3001 13.0676C33.1327 13.2146 35.8268 13.3014 36.4756 14.4634C37.1216 15.6156 35.9521 16.345 35.9521 16.345Z" fill="#F26522"/>
<path d="M100.334 28.2352L99.4901 39.8846L99.4609 40.3256C99.2924 41.16 98.5336 41.7536 97.6593 41.692L93.8624 41.419C92.9129 41.3504 92.2112 40.5328 92.2738 39.5822L93.1008 28.0084C93.2707 25.6592 91.657 23.4654 89.336 23.1532C86.8104 22.8088 84.5493 24.6848 84.3711 27.2048L83.5162 39.1314C83.3672 39.9854 82.6001 40.6112 81.7173 40.5468L77.9122 40.271C77.0336 40.2094 76.35 39.4814 76.3291 38.6064L76.964 29.6576C76.9612 29.7234 76.9529 29.7892 76.9445 29.8536L76.9835 29.4308L78.657 5.9416C78.7865 5.061 79.569 4.4142 80.467 4.4786L84.2694 4.7544C85.1522 4.8174 85.8191 5.5328 85.8525 6.398L85.0839 17.1612C86.0474 16.6782 87.1306 16.03 88.1609 15.7626C95.0125 13.9608 101.004 18.8776 100.334 28.2352Z" fill="#115934"/>
<path d="M99.4906 40.1044C99.4863 40.166 99.4821 40.222 99.468 40.2808C99.4638 40.2962 99.4638 40.3102 99.4609 40.3242L99.4906 39.8846C99.4934 39.9 99.4934 39.914 99.4934 39.9294C99.4976 39.9868 99.4934 40.0484 99.4906 40.1044Z" fill="#115934"/>
<path d="M126.924 27.2034C126.924 27.1348 126.92 27.0648 126.918 27.0018L126.946 27.4302L126.95 27.4652L127.865 39.844C127.861 39.844 127.861 39.844 127.865 39.8468L127.894 40.299C127.85 41.1068 127.246 41.7858 126.435 41.895L126.235 41.909C126.229 41.9104 126.218 41.9118 126.213 41.9104L122.684 42.1764C122.68 42.175 122.68 42.1764 122.68 42.1764L122.345 42.2002C121.537 42.1806 120.86 41.601 120.709 40.8128C120.709 40.8128 120.709 40.8128 120.709 40.8086C120.705 40.7904 120.7 40.7694 120.699 40.7484L120.678 40.4838L120.565 38.9466C119.392 41.0872 117.931 42.189 116.963 42.6006C110.442 45.388 104.704 41.3868 104.011 32.0236L103.163 20.3518L103.135 19.9626C103.166 19.1156 103.824 18.3988 104.686 18.3246L104.735 18.319L108.274 18.0558C108.275 18.0502 108.275 18.0502 108.282 18.0558L108.739 18.018H108.743H108.75C109.522 18.0726 110.173 18.6536 110.31 19.4264C110.321 19.4824 110.328 19.5412 110.332 19.6L111.194 31.1948C111.369 33.5426 113.285 35.476 115.623 35.448C118.179 35.4186 120.138 33.2304 119.95 30.7118L119.752 28.0098L119.092 19.1632C119.092 19.1632 119.092 19.1632 119.091 19.1618L119.063 18.7824C119.064 18.7754 119.064 18.7698 119.064 18.7656C119.094 17.9172 119.758 17.2018 120.618 17.1276L120.663 17.1248L124.213 16.8588L124.663 16.8224H124.67C125.45 16.8686 126.104 17.4524 126.245 18.2294C126.257 18.291 126.26 18.3512 126.267 18.4086C126.268 18.4366 126.268 18.4674 126.268 18.4968L126.9 26.9598L126.924 27.2034Z" fill="#115934"/>
<path d="M157.356 24.101C156.621 22.4658 155.536 21.007 154.254 19.796C152.955 18.5864 151.437 17.6358 149.782 17.0282C148.132 16.415 146.363 16.1588 144.641 16.2582C142.12 16.3842 139.69 17.2844 137.663 18.7208L137.659 18.7026C137.52 17.983 136.933 17.4188 136.19 17.3306H136.187C136.122 17.3236 136.07 17.3194 136.009 17.3194L132.088 17.3796C131.239 17.4188 130.555 18.0852 130.474 18.9168C130.474 18.9196 130.474 18.9238 130.47 18.928C130.463 18.9924 130.456 19.054 130.459 19.1198L130.945 51.5648C130.948 51.632 130.952 51.6936 130.966 51.7594C130.966 51.7622 130.966 51.7622 130.963 51.7664C131.076 52.619 131.81 53.2686 132.678 53.2546L136.475 53.2C137.362 53.1888 138.079 52.5028 138.15 51.632C138.15 51.6208 138.153 51.6012 138.153 51.59L137.994 40.7232C138.625 41.146 139.291 41.517 139.984 41.8292C141.564 42.5404 143.292 42.9618 145.041 43.0164C146.79 43.0724 148.593 42.784 150.258 42.1218C151.927 41.4582 153.449 40.4362 154.715 39.151C155.98 37.87 156.988 36.3258 157.65 34.6374C158.312 32.9434 158.613 31.1192 158.577 29.3272C158.52 27.5352 158.116 25.732 157.356 24.101ZM150.464 29.4518C150.44 30.9974 149.91 32.4814 148.932 33.6798C147.945 34.8558 146.557 35.6972 144.939 35.9086C144.123 36.0038 143.286 35.9394 142.497 35.6692C141.705 35.4004 140.954 34.9468 140.343 34.3294C139.726 33.7176 139.277 32.9546 138.99 32.151C138.697 31.3348 138.543 30.492 138.519 29.6296C138.505 28.7672 138.596 27.9076 138.839 27.069C139.083 26.2346 139.506 25.4324 140.106 24.7856C140.707 24.1332 141.457 23.6376 142.248 23.331C143.054 23.023 143.902 22.9026 144.741 22.9544C146.415 23.0776 147.94 23.8644 148.97 25.0964C150.02 26.341 150.481 27.9076 150.464 29.4518Z" fill="#115934"/>
<path d="M72.9764 39.7432C72.9624 39.8006 72.9499 39.8692 72.936 39.9308C72.8413 40.271 72.6659 40.565 72.425 40.796C72.4208 40.7988 72.418 40.8002 72.418 40.8002C72.2593 40.9164 72.0992 41.0214 71.9335 41.1292C71.9335 41.1306 71.9335 41.1306 71.9307 41.1306C69.7309 42.5656 67.0911 43.3944 64.2689 43.3664C56.6265 43.2782 50.4989 36.981 50.5839 29.2964C50.6688 21.616 56.9314 15.4588 64.571 15.5414C67.3709 15.5722 69.969 16.4374 72.1284 17.9018C72.1312 17.9018 72.1312 17.9018 72.1354 17.906C72.3262 18.0362 72.5183 18.1734 72.7063 18.3106C72.7104 18.3176 72.7104 18.3176 72.7132 18.3232C72.7522 18.3596 72.787 18.3988 72.819 18.4422C73.3523 19.124 73.3495 20.0788 72.8246 20.7522L72.4723 21.0966L69.9161 23.618L69.6139 23.9092C69.6098 23.9134 69.6056 23.9162 69.6 23.9246C69.0459 24.3432 68.3149 24.4104 67.7023 24.1318C67.5965 24.0632 67.4851 23.996 67.3709 23.9344C67.3709 23.9316 67.3681 23.9316 67.3654 23.9302C66.5063 23.4612 65.5303 23.1924 64.4889 23.1826C61.0512 23.1434 58.2235 25.9252 58.1873 29.3804C58.1441 32.8356 60.9162 35.6832 64.3482 35.7182C65.3771 35.7294 66.3518 35.4872 67.2164 35.0448C67.3487 34.979 67.4851 34.9076 67.6118 34.8264C67.9153 34.7032 68.255 34.6528 68.6087 34.713C69.0125 34.7816 69.3647 34.9678 69.6334 35.2548C69.6446 35.2646 69.6515 35.2744 69.6627 35.2828L72.237 37.9302C72.237 37.933 72.2398 37.933 72.244 37.9372L72.6659 38.374C72.6687 38.3754 72.6728 38.3768 72.6728 38.3796C72.9026 38.717 73.0237 39.1188 73 39.5514C72.9917 39.6088 72.9861 39.6746 72.9764 39.7432Z" fill="#115934"/>
<path d="M175.129 40.2262H174.327V42.6118H173.761V40.2262H172.975V39.7894H175.13V40.2262H175.129Z" fill="#115934"/>
<path d="M176.887 41.8726H176.902L177.625 39.7908H178.357V42.6132H177.792V40.6896L177.781 40.6826L177.09 42.6132H176.706L176.011 40.6784L176 40.6798V42.6132H175.439V39.7908H176.178L176.887 41.8726Z" fill="#115934"/>
<path d="M171.644 12.3606C171.644 12.3606 171.637 12.3606 171.635 12.3606C171.581 12.3452 171.523 12.334 171.468 12.3284L165.704 11.8636C164.844 11.8048 164.082 12.397 163.902 13.2286C163.902 13.2328 163.902 13.2356 163.896 13.237C163.882 13.2972 163.868 13.363 163.861 13.4246L163.165 37.7258C163.954 37.5102 164.795 37.4318 165.651 37.5312C166.502 37.625 167.3 37.884 168.017 38.2606L172.973 13.9412V13.9216C172.915 13.1768 172.376 12.5412 171.644 12.3606Z" fill="#115934"/>
<path d="M165.399 39.8174C162.949 39.5444 160.742 41.3196 160.476 43.7808C160.197 46.2392 161.962 48.4582 164.411 48.7326C166.86 49.0056 169.069 47.2374 169.341 44.7762C169.611 42.315 167.85 40.0946 165.399 39.8174Z" fill="#F26522"/>
</svg>
