<svg width="456" height="162" viewBox="0 0 456 162" fill="none" xmlns="http://www.w3.org/2000/svg">
<path d="M2.36625 116.46C1.67215 116.46 1.10425 116.237 0.662552 115.789C0.220851 115.342 0 114.767 0 114.064V51.7518C0 51.0488 0.220851 50.4736 0.662552 50.0263C1.10425 49.5789 1.67215 49.3552 2.36625 49.3552H12.3992C13.4719 49.3552 14.2291 49.6109 14.6708 50.1221C15.1756 50.5695 15.4911 50.921 15.6173 51.1766L38.7119 88.0844V51.7518C38.7119 51.0488 38.9328 50.4736 39.3745 50.0263C39.8162 49.5789 40.3841 49.3552 41.0782 49.3552H52.4362C53.1303 49.3552 53.6982 49.5789 54.1399 50.0263C54.5816 50.4736 54.8025 51.0488 54.8025 51.7518V114.064C54.8025 114.703 54.5816 115.278 54.1399 115.789C53.6982 116.237 53.1303 116.46 52.4362 116.46H42.3086C41.299 116.46 40.5418 116.205 40.037 115.693C39.5953 115.182 39.3114 114.831 39.1852 114.639L16.0905 79.169V114.064C16.0905 114.767 15.8697 115.342 15.428 115.789C14.9863 116.237 14.4184 116.46 13.7243 116.46H2.36625Z" fill="#FBF7F4"/>
<path d="M85.519 117.18C80.2919 116.258 76.0226 114.635 72.7112 112.309C69.4621 109.995 67.1487 107.104 65.7711 103.636C64.4668 100.117 64.0762 96.1464 64.5993 91.724C64.7577 90.462 64.9747 89.0491 65.2504 87.4854C65.5372 85.8591 65.8165 84.4572 66.0882 83.2797C67.1202 78.8825 68.9076 75.2958 71.4503 72.5194C73.9931 69.743 77.1868 67.8231 81.0316 66.7596C84.9386 65.7072 89.4123 65.6253 94.4527 66.5141C99.5554 67.4138 103.731 69.0209 106.98 71.3351C110.292 73.6604 112.667 76.5623 114.107 80.0409C115.547 83.5196 116 87.5013 115.466 91.9863C115.318 93.1857 115.101 94.5986 114.815 96.2249C114.539 97.7886 114.26 99.1905 113.977 100.431C112.956 104.765 111.2 108.357 108.708 111.207C106.29 114.006 103.127 115.931 99.2201 116.984C95.3754 118.047 90.8083 118.112 85.519 117.18ZM87.5373 105.733C90.3376 106.227 92.5089 105.739 94.0512 104.27C95.6558 102.811 96.8492 100.41 97.6315 97.0647C97.8591 96.1374 98.1108 94.8919 98.3866 93.3282C98.6623 91.7644 98.8518 90.5079 98.955 89.5587C99.3528 86.2106 99.0473 83.577 98.0383 81.6577C97.1026 79.6868 95.2346 78.4545 92.4343 77.9608C89.6963 77.478 87.5195 77.9971 85.9039 79.5181C84.2994 80.9765 83.1426 83.3523 82.4336 86.6455C82.2059 87.5728 81.9542 88.8183 81.6785 90.3821C81.4027 91.9458 81.2133 93.2023 81.1101 94.1516C80.6389 97.5512 80.9079 100.211 81.9169 102.13C82.9258 104.049 84.7993 105.25 87.5373 105.733Z" fill="#FBF7F4"/>
<path d="M152.239 118.788C151.565 118.907 150.974 118.787 150.468 118.428C149.962 118.069 149.649 117.547 149.528 116.864L141.804 73.061C141.695 72.4397 141.816 71.8737 142.169 71.3631C142.511 70.7903 143.019 70.4444 143.694 70.3254L154.277 68.4594C154.952 68.3404 155.548 68.4915 156.065 68.9129C156.571 69.2721 156.879 69.7623 156.989 70.3836L157.646 74.1115C158.963 71.8934 160.663 70.0561 162.747 68.5996C164.892 67.1323 167.406 66.1444 170.289 65.636L174.339 64.922C174.952 64.8138 175.512 64.9393 176.018 65.2985C176.586 65.6469 176.93 66.1628 177.05 66.8463L178.743 76.4456C178.852 77.0669 178.705 77.6694 178.302 78.253C177.949 78.7636 177.466 79.073 176.853 79.1812L167.926 80.7552C165.411 81.1987 163.574 82.2594 162.415 83.9372C161.306 85.5421 160.976 87.6183 161.426 90.1657L165.632 114.024C165.753 114.708 165.606 115.31 165.192 115.832C164.839 116.342 164.325 116.657 163.651 116.776L152.239 118.788Z" fill="#FBF7F4"/>
<path d="M191.407 116.46C190.732 116.46 190.179 116.237 189.749 115.789C189.319 115.342 189.105 114.767 189.105 114.064V69.0074C189.105 68.3044 189.319 67.7292 189.749 67.2819C190.179 66.8345 190.732 66.6108 191.407 66.6108H202.276C202.89 66.6108 203.412 66.8345 203.841 67.2819C204.333 67.7292 204.578 68.3044 204.578 69.0074V114.064C204.578 114.767 204.333 115.342 203.841 115.789C203.412 116.237 202.89 116.46 202.276 116.46H191.407ZM191.315 59.421C190.64 59.421 190.087 59.1973 189.657 58.75C189.227 58.3026 189.012 57.7274 189.012 57.0244V48.4925C189.012 47.7895 189.227 47.2143 189.657 46.7669C190.087 46.2556 190.64 46 191.315 46H202.276C202.951 46 203.504 46.2556 203.933 46.7669C204.425 47.2143 204.67 47.7895 204.67 48.4925V57.0244C204.67 57.7274 204.425 58.3026 203.933 58.75C203.504 59.1973 202.951 59.421 202.276 59.421H191.315Z" fill="#FBF7F4"/>
<path d="M232.313 117.131C228.231 116.411 224.823 115.359 222.089 113.974C219.429 112.537 217.304 111.002 215.714 109.367C214.188 107.743 213.106 106.166 212.47 104.635C211.844 103.041 211.588 101.738 211.702 100.726C211.76 100.027 212.08 99.5032 212.659 99.1539C213.25 98.7421 213.828 98.586 214.393 98.6857L225.131 100.579C225.319 100.612 225.471 100.671 225.585 100.756C225.7 100.841 225.866 100.999 226.084 101.231C226.823 101.813 227.541 102.52 228.236 103.352C228.942 104.121 229.784 104.85 230.764 105.539C231.743 106.227 232.986 106.705 234.493 106.97C236.252 107.28 237.788 107.197 239.102 106.719C240.417 106.241 241.195 105.314 241.438 103.938C241.614 102.937 241.475 102.074 241.02 101.349C240.577 100.562 239.531 99.6999 237.883 98.7644C236.297 97.8399 233.833 96.7604 230.49 95.5259C227.357 94.1995 224.67 92.7262 222.431 91.1059C220.202 89.4231 218.6 87.4959 217.623 85.3243C216.657 83.0902 216.422 80.5657 216.919 77.751C217.36 75.249 218.601 72.9847 220.642 70.9583C222.682 68.9318 225.399 67.4761 228.793 66.591C232.197 65.6435 236.192 65.5738 240.776 66.3821C244.418 67.0244 247.481 68.0158 249.964 69.3566C252.521 70.6459 254.594 72.1078 256.183 73.7425C257.836 75.3882 259.011 76.9822 259.711 78.5244C260.41 80.0666 260.692 81.4062 260.556 82.5431C260.508 83.1797 260.221 83.7095 259.693 84.1323C259.176 84.4927 258.635 84.623 258.07 84.5234L248.274 82.796C248.023 82.7518 247.777 82.6762 247.537 82.5693C247.308 82.4 247.11 82.2361 246.944 82.0778C246.256 81.5696 245.591 80.9363 244.948 80.178C244.304 79.4196 243.525 78.7016 242.608 78.0241C241.692 77.3465 240.48 76.8748 238.973 76.6091C237.277 76.3101 235.892 76.4529 234.818 77.0374C233.744 77.6219 233.102 78.5084 232.892 79.6969C232.749 80.51 232.868 81.3049 233.249 82.0815C233.693 82.8692 234.681 83.6885 236.215 84.5394C237.811 85.4013 240.307 86.4863 243.702 87.7944C247.913 89.2465 251.169 90.9814 253.468 92.9991C255.778 94.9543 257.284 97.0581 257.988 99.3105C258.703 101.5 258.861 103.721 258.464 105.973C257.935 108.975 256.556 111.473 254.326 113.466C252.16 115.471 249.203 116.82 245.455 117.513C241.717 118.144 237.337 118.017 232.313 117.131Z" fill="#FBF7F4"/>
<path d="M271.909 116.46C271.214 116.46 270.645 116.236 270.202 115.788C269.76 115.339 269.539 114.763 269.539 114.058V50.6392C269.539 49.9345 269.76 49.358 270.202 48.9096C270.645 48.4611 271.214 48.2369 271.909 48.2369H282.908C283.54 48.2369 284.077 48.4611 284.52 48.9096C285.025 49.358 285.278 49.9345 285.278 50.6392V82.8291L298.458 68.1274C298.837 67.679 299.248 67.2947 299.691 66.9744C300.133 66.6541 300.765 66.4939 301.587 66.4939H314.293C314.861 66.4939 315.335 66.7181 315.715 67.1665C316.157 67.5509 316.378 68.0313 316.378 68.6079C316.378 68.8641 316.315 69.1524 316.189 69.4727C316.062 69.793 315.873 70.0492 315.62 70.2414L298.553 88.8827L317.99 112.809C318.496 113.321 318.749 113.834 318.749 114.346C318.749 114.923 318.528 115.435 318.085 115.884C317.706 116.268 317.2 116.46 316.568 116.46H303.578C302.63 116.46 301.935 116.3 301.492 115.98C301.05 115.596 300.639 115.211 300.259 114.827L285.278 96.5699V114.058C285.278 114.763 285.025 115.339 284.52 115.788C284.077 116.236 283.54 116.46 282.908 116.46H271.909Z" fill="#FBF7F4"/>
<rect width="132" height="132" rx="66" transform="matrix(-0.965926 0.258819 0.258819 0.965926 421.502 0)" fill="#115934"/>
<path d="M395.252 68.3102C396.858 72.2344 400.087 83.0665 402.875 92.7769C403.235 94.0294 403.763 95.1625 397.123 101.05C389.511 107.8 387.454 107.245 387.238 106.384C385.978 101.355 384.337 96.4025 382.589 95.3904C378.003 92.7163 374.189 94.0927 370.028 89.9377C364.946 84.8631 365.975 83.3475 360.296 79.9539C357.415 78.2329 353.941 77.949 354.879 75.7362C355.82 73.5382 359.872 72.2095 364.019 75.1419C368.726 78.4761 376.095 83.0448 380.934 78.6719C386.58 73.5648 382.139 68.8541 375.616 64.4923C369.474 60.3892 368.717 61.0008 359.949 68.5902C357.257 70.91 353.578 75.2583 351.238 75.8852C348.882 76.5166 347.123 74.4994 348.924 71.2673C350.299 68.801 355.56 64.7352 360.392 58.8541C364.945 53.3157 369.437 52.7616 372.838 54.3932C384.34 59.8887 392.227 60.929 395.252 68.3102Z" fill="#FBF7F4"/>
</svg>
