<svg width="181" height="56" viewBox="0 0 181 56" fill="none" xmlns="http://www.w3.org/2000/svg">
<path d="M44.4034 37.1241C46.2983 33.8103 47.3857 29.9701 47.3857 25.8737C47.3857 13.3759 37.3096 3.24414 24.8777 3.24414C12.4472 3.24274 2.36963 13.3745 2.36963 25.8723C2.36963 32.4173 5.13197 38.3127 9.55672 42.4469C9.67228 35.9985 9.87417 28.7857 10.2181 26.1005C10.8669 21.0493 15.5812 19.1047 21.7965 13.8155C23.633 12.2475 26.5081 11.8471 30.2492 14.5099C34.2201 17.3379 38.1547 18.9759 39.4162 20.2695C41.0688 21.9649 40.3142 23.4993 38.7492 23.4993C37.1954 23.4993 34.1936 21.4259 32.14 20.4403C25.4471 17.2091 24.8763 16.9571 21.7519 20.5019C18.4341 24.2693 16.464 27.9079 20.8107 30.1241C24.5352 32.0211 28.3431 27.9863 30.7059 25.1527C32.7888 22.6593 35.5205 22.8091 36.4686 24.0089C37.4168 25.2185 35.3116 25.9675 33.8121 27.5047C30.8562 30.5357 31.7459 31.3001 29.4389 35.2691C27.5509 38.5185 24.9584 38.3001 22.5609 40.7067C21.6461 41.6195 21.4512 44.9445 21.5055 48.2541C22.6054 48.4263 23.7318 48.5103 24.8763 48.5103C28.9641 48.5103 32.7943 47.4043 36.1025 45.4891L43.7518 46.8065C43.7518 46.8065 46.1257 47.0795 45.5423 43.9365C45.2819 42.5225 44.7835 39.4761 44.4034 37.1241ZM35.9521 16.3453L29.4403 12.7571C30.7908 12.9013 31.3185 12.8957 32.3001 13.0679C33.1327 13.2149 35.8268 13.3017 36.4756 14.4637C37.1216 15.6159 35.9521 16.3453 35.9521 16.3453Z" fill="#FBF7F4"/>
<path d="M100.334 28.2356L99.4901 39.885L99.4609 40.326C99.2924 41.1604 98.5336 41.754 97.6593 41.6924L93.8624 41.4194C92.9129 41.3508 92.2112 40.5332 92.2738 39.5826L93.1008 28.0088C93.2707 25.6596 91.657 23.4658 89.336 23.1536C86.8104 22.8092 84.5493 24.6852 84.3711 27.2052L83.5162 39.1318C83.3672 39.9858 82.6001 40.6116 81.7173 40.5472L77.9122 40.2714C77.0336 40.2098 76.35 39.4818 76.3291 38.6068L76.964 29.658C76.9612 29.7238 76.9529 29.7896 76.9445 29.854L76.9835 29.4312L78.657 5.94203C78.7865 5.06143 79.569 4.41463 80.467 4.47903L84.2694 4.75483C85.1522 4.81783 85.8191 5.53323 85.8525 6.39843L85.0839 17.1616C86.0474 16.6786 87.1306 16.0304 88.1609 15.763C95.0125 13.9612 101.004 18.878 100.334 28.2356Z" fill="#FBF7F4"/>
<path d="M99.4906 40.1046C99.4863 40.1662 99.4821 40.2222 99.468 40.281C99.4638 40.2964 99.4638 40.3104 99.4609 40.3244L99.4906 39.8848C99.4934 39.9002 99.4934 39.9142 99.4934 39.9296C99.4976 39.987 99.4934 40.0486 99.4906 40.1046Z" fill="#FBF7F4"/>
<path d="M126.924 27.2033C126.924 27.1347 126.92 27.0647 126.918 27.0017L126.946 27.4301L126.95 27.4651L127.865 39.8439C127.861 39.8439 127.861 39.8439 127.865 39.8467L127.894 40.2989C127.85 41.1067 127.246 41.7857 126.435 41.8949L126.235 41.9089C126.229 41.9103 126.218 41.9117 126.213 41.9103L122.684 42.1763C122.68 42.1749 122.68 42.1763 122.68 42.1763L122.345 42.2001C121.537 42.1805 120.86 41.6009 120.709 40.8127C120.709 40.8127 120.709 40.8127 120.709 40.8085C120.705 40.7903 120.7 40.7693 120.699 40.7483L120.678 40.4837L120.565 38.9465C119.392 41.0871 117.931 42.1889 116.963 42.6005C110.442 45.3879 104.704 41.3867 104.011 32.0235L103.163 20.3517L103.135 19.9625C103.166 19.1155 103.824 18.3987 104.686 18.3245L104.735 18.3189L108.274 18.0557C108.275 18.0501 108.275 18.0501 108.282 18.0557L108.739 18.0179H108.743H108.75C109.522 18.0725 110.173 18.6535 110.31 19.4263C110.321 19.4823 110.328 19.5411 110.332 19.5999L111.194 31.1947C111.369 33.5425 113.285 35.4759 115.623 35.4479C118.179 35.4185 120.138 33.2303 119.95 30.7117L119.752 28.0097L119.092 19.1631C119.092 19.1631 119.092 19.1631 119.091 19.1617L119.063 18.7823C119.064 18.7753 119.064 18.7697 119.064 18.7655C119.094 17.9171 119.758 17.2017 120.618 17.1275L120.663 17.1247L124.213 16.8587L124.663 16.8223H124.67C125.45 16.8685 126.104 17.4523 126.245 18.2293C126.257 18.2909 126.26 18.3511 126.267 18.4085C126.268 18.4365 126.268 18.4673 126.268 18.4967L126.9 26.9597L126.924 27.2033Z" fill="#FBF7F4"/>
<path d="M157.356 24.1009C156.621 22.4657 155.536 21.0069 154.254 19.7959C152.955 18.5863 151.437 17.6357 149.782 17.0281C148.132 16.4149 146.363 16.1587 144.641 16.2581C142.12 16.3841 139.69 17.2843 137.663 18.7207L137.659 18.7025C137.52 17.9829 136.933 17.4187 136.19 17.3305H136.187C136.122 17.3235 136.07 17.3193 136.009 17.3193L132.088 17.3795C131.239 17.4187 130.555 18.0851 130.474 18.9167C130.474 18.9195 130.474 18.9237 130.47 18.9279C130.463 18.9923 130.456 19.0539 130.459 19.1197L130.945 51.5647C130.948 51.6319 130.952 51.6935 130.966 51.7593C130.966 51.7621 130.966 51.7621 130.963 51.7663C131.076 52.6189 131.81 53.2685 132.678 53.2545L136.475 53.1999C137.362 53.1887 138.079 52.5027 138.15 51.6319C138.15 51.6207 138.153 51.6011 138.153 51.5899L137.994 40.7231C138.625 41.1459 139.291 41.5169 139.984 41.8291C141.564 42.5403 143.292 42.9617 145.041 43.0163C146.79 43.0723 148.593 42.7839 150.258 42.1217C151.927 41.4581 153.449 40.4361 154.715 39.1509C155.98 37.8699 156.988 36.3257 157.65 34.6373C158.312 32.9433 158.613 31.1191 158.577 29.3271C158.52 27.5351 158.116 25.7319 157.356 24.1009ZM150.464 29.4517C150.44 30.9973 149.91 32.4813 148.932 33.6797C147.945 34.8557 146.557 35.6971 144.939 35.9085C144.123 36.0037 143.286 35.9393 142.497 35.6691C141.705 35.4003 140.954 34.9467 140.343 34.3293C139.726 33.7175 139.277 32.9545 138.99 32.1509C138.697 31.3347 138.543 30.4919 138.519 29.6295C138.505 28.7671 138.596 27.9075 138.839 27.0689C139.083 26.2345 139.506 25.4323 140.106 24.7855C140.707 24.1331 141.457 23.6375 142.248 23.3309C143.054 23.0229 143.902 22.9025 144.741 22.9543C146.415 23.0775 147.94 23.8643 148.97 25.0963C150.02 26.3409 150.481 27.9075 150.464 29.4517Z" fill="#FBF7F4"/>
<path d="M72.9764 39.7436C72.9624 39.801 72.9499 39.8696 72.936 39.9312C72.8413 40.2714 72.6659 40.5654 72.425 40.7964C72.4208 40.7992 72.418 40.8006 72.418 40.8006C72.2593 40.9168 72.0992 41.0218 71.9335 41.1296C71.9335 41.131 71.9335 41.131 71.9307 41.131C69.7309 42.566 67.0911 43.3948 64.2689 43.3668C56.6265 43.2786 50.4989 36.9814 50.5839 29.2968C50.6688 21.6164 56.9314 15.4592 64.571 15.5418C67.3709 15.5726 69.969 16.4378 72.1284 17.9022C72.1312 17.9022 72.1312 17.9022 72.1354 17.9064C72.3262 18.0366 72.5183 18.1738 72.7063 18.311C72.7104 18.318 72.7104 18.318 72.7132 18.3236C72.7522 18.36 72.787 18.3992 72.819 18.4426C73.3523 19.1244 73.3495 20.0792 72.8246 20.7526L72.4723 21.097L69.9161 23.6184L69.6139 23.9096C69.6098 23.9138 69.6056 23.9166 69.6 23.925C69.0459 24.3436 68.3149 24.4108 67.7023 24.1322C67.5965 24.0636 67.4851 23.9964 67.3709 23.9348C67.3709 23.932 67.3681 23.932 67.3654 23.9306C66.5063 23.4616 65.5303 23.1928 64.4889 23.183C61.0512 23.1438 58.2235 25.9256 58.1873 29.3808C58.1441 32.836 60.9162 35.6836 64.3482 35.7186C65.3771 35.7298 66.3518 35.4876 67.2164 35.0452C67.3487 34.9794 67.4851 34.908 67.6118 34.8268C67.9153 34.7036 68.255 34.6532 68.6087 34.7134C69.0125 34.782 69.3647 34.9682 69.6334 35.2552C69.6446 35.265 69.6515 35.2748 69.6627 35.2832L72.237 37.9306C72.237 37.9334 72.2398 37.9334 72.244 37.9376L72.6659 38.3744C72.6687 38.3758 72.6728 38.3772 72.6728 38.38C72.9026 38.7174 73.0237 39.1192 73 39.5518C72.9917 39.6092 72.9861 39.675 72.9764 39.7436Z" fill="#FBF7F4"/>
<path d="M175.129 40.2268H174.327V42.6124H173.761V40.2268H172.975V39.79H175.13V40.2268H175.129Z" fill="#FBF7F4"/>
<path d="M176.887 41.8728H176.902L177.625 39.791H178.357V42.6134H177.792V40.6898L177.781 40.6828L177.09 42.6134H176.706L176.011 40.6786L176 40.68V42.6134H175.439V39.791H176.178L176.887 41.8728Z" fill="#FBF7F4"/>
<path d="M171.644 12.3614C171.644 12.3614 171.637 12.3614 171.635 12.3614C171.581 12.346 171.523 12.3348 171.468 12.3292L165.704 11.8644C164.844 11.8056 164.082 12.3978 163.902 13.2294C163.902 13.2336 163.902 13.2364 163.896 13.2378C163.882 13.298 163.868 13.3638 163.861 13.4254L163.165 37.7266C163.954 37.511 164.795 37.4326 165.651 37.532C166.502 37.6258 167.3 37.8848 168.017 38.2614L172.973 13.942V13.9224C172.915 13.1776 172.376 12.542 171.644 12.3614Z" fill="#FBF7F4"/>
<path d="M165.399 39.8177C162.949 39.5447 160.742 41.3199 160.476 43.7811C160.197 46.2395 161.962 48.4585 164.411 48.7329C166.86 49.0059 169.069 47.2377 169.341 44.7765C169.611 42.3153 167.85 40.0949 165.399 39.8177Z" fill="#FBF7F4"/>
</svg>
