<svg width="205" height="205" viewBox="0 0 205 205" fill="none" xmlns="http://www.w3.org/2000/svg">
<g filter="url(#filter0_d_87_1218)">
<path d="M181 94.4879C181 108.696 177.208 122.015 170.599 133.508C171.924 141.666 173.663 152.232 174.571 157.136C176.605 168.037 168.326 167.091 168.326 167.091L141.648 162.521C130.11 169.164 116.752 173 102.495 173C98.5036 173 94.5752 172.709 90.7391 172.111C70.4669 168.955 62.847 164.775 49.066 151.97C33.634 137.631 24 117.183 24 94.483C24 51.136 59.1468 15.9951 102.5 16C145.858 16 181 51.1409 181 94.4879Z" fill="#F26522"/>
<path d="M167.131 131.515L166.423 132.747L166.651 134.15C167.974 142.291 169.72 152.907 170.638 157.865L170.639 157.87C171.065 160.156 170.87 161.404 170.666 162.005C170.489 162.525 170.266 162.701 170.103 162.802C169.865 162.95 169.527 163.051 169.152 163.092C168.998 163.109 168.87 163.112 168.787 163.111L142.323 158.579L140.902 158.335L139.652 159.055C128.698 165.362 116.024 169 102.495 169C98.6981 169 94.9759 168.723 91.3544 168.159C81.3853 166.607 74.8712 164.851 69.2383 162.072C63.6024 159.291 58.591 155.36 51.7887 149.04C37.1375 135.426 28 116.026 28 94.483C28 53.3456 61.3553 19.9954 102.5 20H102.5C143.649 20 177 53.3504 177 94.4879C177 107.975 173.402 120.609 167.131 131.515Z" stroke="#FBF7F4" stroke-width="8"/>
</g>
<defs>
<filter id="filter0_d_87_1218" x="0" y="0" width="205" height="205" filterUnits="userSpaceOnUse" color-interpolation-filters="sRGB">
<feFlood flood-opacity="0" result="BackgroundImageFix"/>
<feColorMatrix in="SourceAlpha" type="matrix" values="0 0 0 0 0 0 0 0 0 0 0 0 0 0 0 0 0 0 127 0" result="hardAlpha"/>
<feOffset dy="8"/>
<feGaussianBlur stdDeviation="12"/>
<feComposite in2="hardAlpha" operator="out"/>
<feColorMatrix type="matrix" values="0 0 0 0 0.94902 0 0 0 0 0.396078 0 0 0 0 0.133333 0 0 0 0.08 0"/>
<feBlend mode="normal" in2="BackgroundImageFix" result="effect1_dropShadow_87_1218"/>
<feBlend mode="normal" in="SourceGraphic" in2="effect1_dropShadow_87_1218" result="shape"/>
</filter>
</defs>
</svg>
