<svg width="36" height="47" viewBox="0 0 36 47" fill="none" xmlns="http://www.w3.org/2000/svg">
<path d="M8.59091 44.9602C8.12133 44.8774 7.76338 44.6608 7.51706 44.3103C7.27074 43.9599 7.18883 43.5507 7.27134 43.0828L8.55389 35.8091C8.62889 35.3837 8.84205 35.0485 9.19338 34.8035C9.5522 34.5159 9.9664 34.4135 10.436 34.4963L18.6323 35.9415C19.1018 36.0243 19.456 36.2622 19.6949 36.6552C19.9839 37.0131 20.0909 37.4048 20.0159 37.8302L18.7333 45.1039C18.6508 45.5718 18.4126 45.9245 18.0185 46.162C17.6672 46.4071 17.2568 46.4882 16.7872 46.4054L8.59091 44.9602Z" fill="#F26522"/>
<path d="M10.8479 31.411C10.5064 31.3508 10.2263 31.1918 10.0077 30.9339C9.79658 30.6336 9.72102 30.3132 9.78102 29.9729C9.82602 29.7177 9.86727 29.4838 9.90478 29.2711C9.94978 29.0159 9.99478 28.7607 10.0398 28.5054C10.5584 27.0618 11.2856 25.8085 12.2213 24.7455C13.2072 23.6474 14.2811 22.6745 15.443 21.8267C16.6475 20.9865 17.7981 20.2026 18.8948 19.4749C19.9914 18.7473 20.9349 18.0145 21.7253 17.2767C22.5658 16.5039 23.0862 15.6746 23.2864 14.7889C23.5368 13.8681 23.4834 13.0473 23.1263 12.3265C22.8119 11.6132 22.2792 11.0149 21.5281 10.5315C20.8197 10.0558 20.0173 9.73884 19.1208 9.58077C17.4133 9.27968 15.9973 9.44667 14.873 10.0817C13.7486 10.7168 12.8342 11.7836 12.1298 13.2822C11.8766 13.72 11.5743 14.0614 11.223 14.3065C10.8791 14.509 10.4297 14.5613 9.87479 14.4635L2.06271 13.086C1.63582 13.0107 1.29922 12.7979 1.0529 12.4474C0.814076 12.0544 0.739668 11.6027 0.829671 11.0923C1.17237 9.39837 1.87043 7.81097 2.92384 6.33008C4.01994 4.85672 5.4313 3.59245 7.15792 2.53728C8.93474 1.4471 11.0219 0.718653 13.4194 0.351942C15.8244 -0.0573041 18.4997 -0.00223839 21.4453 0.517139C24.6469 1.08168 27.2475 1.93496 29.2469 3.07697C31.2464 4.21898 32.735 5.51215 33.7128 6.95646C34.7332 8.4083 35.3758 9.88123 35.6406 11.3753C35.9129 12.8267 35.9013 14.1405 35.6059 15.3164C35.2932 16.8402 34.7506 18.1699 33.9782 19.3056C33.2057 20.4413 32.2988 21.4656 31.2575 22.3785C30.2664 23.2563 29.2151 24.1016 28.1034 24.9144C27.0419 25.6921 26.0407 26.5024 25.0998 27.3452C24.1664 28.1455 23.4139 29.0435 22.8422 30.0392C22.7043 30.3219 22.5664 30.6046 22.4285 30.8873C22.2981 31.1274 22.1853 31.3926 22.0902 31.6829C21.6938 32.1831 21.3413 32.5596 21.0327 32.8122C20.7316 33.0222 20.3249 33.0821 19.8126 32.9918L10.8479 31.411Z" fill="#115934"/>
</svg>
