<svg width="20" height="24" viewBox="0 0 20 24" fill="none" xmlns="http://www.w3.org/2000/svg">
<path d="M0.431639 8.97253C0.208274 10.7537 0.0771491 15.5383 0.00209128 19.8158C-0.00758606 20.3675 -0.0979511 20.8888 3.20922 22.5694C7.0007 24.496 7.76892 24.0436 7.76289 23.6679C7.72762 21.4725 7.85422 19.2669 8.44836 18.6614C10.0056 17.065 11.6894 17.2099 12.9156 15.0544C14.4141 12.4216 13.8362 11.9146 15.7561 9.90399C16.73 8.8843 18.0973 8.38746 17.4815 7.58508C16.8657 6.78921 15.0914 6.68984 13.7386 8.34381C12.204 10.2235 9.73067 12.8999 7.31164 11.6415C4.48838 10.1715 5.76798 7.75782 7.92295 5.25875C9.95222 2.90734 10.323 3.0745 14.67 5.21789C16.0039 5.87168 17.9536 7.24705 18.9628 7.24705C19.9792 7.24705 20.4694 6.22922 19.3959 5.10459C18.5766 4.24649 16.0211 3.15994 13.442 1.28401C11.0121 -0.482331 9.14467 -0.21673 7.95189 0.823388C3.91504 4.33193 0.853048 5.62186 0.431639 8.97253Z" fill="#F26522"/>
</svg>
