<svg width="252" height="201" viewBox="0 0 252 201" fill="none" xmlns="http://www.w3.org/2000/svg">
<path opacity="0.25" d="M173.861 191.84C194.361 191.84 210.98 175.221 210.98 154.721C210.98 134.221 194.361 117.603 173.861 117.603C153.361 117.603 136.743 134.221 136.743 154.721C136.743 175.221 153.361 191.84 173.861 191.84Z" fill="#F26522"/>
<path d="M63.0012 200H78.0502H109.552H115.978H116.011H116.342H125.229H146.737H146.803H150.371H157.061H157.26H160.365H181.642H189.951H190.116H190.314H190.86H197.946H208.337H212.615H225.682H225.715H226.178H226.194H231.811H243.192" stroke="#115934" stroke-miterlimit="10"/>
<path d="M103.936 63.9316H5.6961C3.26931 63.9316 1.302 65.8989 1.302 68.3257V82.5157C1.302 84.9425 3.26931 86.9098 5.6961 86.9098H103.936C106.362 86.9098 108.33 84.9425 108.33 82.5157V68.3257C108.33 65.8989 106.362 63.9316 103.936 63.9316Z" fill="#FBF7F4" stroke="#F26522" stroke-miterlimit="10"/>
<path d="M23.8342 70.2749L24.8088 73.2979C24.8557 73.4271 24.941 73.5391 25.0531 73.6188C25.1653 73.6985 25.299 73.7421 25.4365 73.7439H28.6247C28.7664 73.7425 28.9048 73.7866 29.0194 73.8698C29.1341 73.953 29.2189 74.0709 29.2615 74.206C29.3041 74.3412 29.3021 74.4864 29.2559 74.6203C29.2096 74.7542 29.1215 74.8697 29.0047 74.9498L26.4277 76.8164C26.3168 76.8972 26.2345 77.0112 26.1929 77.142C26.1513 77.2727 26.1525 77.4133 26.1964 77.5433L27.1711 80.5663C27.2133 80.6979 27.2131 80.8396 27.1706 80.9711C27.128 81.1027 27.0453 81.2176 26.9341 81.2997C26.8228 81.3818 26.6886 81.427 26.5503 81.4287C26.4121 81.4305 26.2767 81.3889 26.1634 81.3097L23.5864 79.443C23.4726 79.3634 23.3371 79.3207 23.1982 79.3207C23.0593 79.3207 22.9238 79.3634 22.81 79.443L20.2495 81.3097C20.1365 81.3957 19.9988 81.443 19.8568 81.4447C19.7148 81.4463 19.576 81.4021 19.4611 81.3187C19.3461 81.2353 19.2612 81.117 19.2187 80.9815C19.1762 80.846 19.1786 80.7004 19.2253 80.5663L20.2165 77.5433C20.256 77.4114 20.2534 77.2705 20.209 77.1402C20.1646 77.0099 20.0806 76.8967 19.9687 76.8164L17.3421 74.9498C17.2342 74.8635 17.1553 74.7464 17.1158 74.614C17.0764 74.4816 17.0784 74.3403 17.1215 74.2091C17.1647 74.0779 17.2469 73.963 17.3572 73.8799C17.4675 73.7967 17.6005 73.7493 17.7386 73.7439H20.9103C21.049 73.7471 21.185 73.7053 21.2981 73.625C21.4112 73.5446 21.4954 73.4299 21.538 73.2979L22.5292 70.2749C22.554 70.1196 22.6332 69.9783 22.7528 69.8763C22.8724 69.7743 23.0245 69.7183 23.1817 69.7183C23.3389 69.7183 23.4909 69.7743 23.6105 69.8763C23.7301 69.9783 23.8094 70.1196 23.8342 70.2749Z" fill="#FBF7F4" stroke="#115934" stroke-miterlimit="10"/>
<path d="M39.6268 70.2748L40.6179 73.2978C40.6628 73.4284 40.7475 73.5417 40.8601 73.6217C40.9727 73.7017 41.1075 73.7444 41.2457 73.7438H44.4174C44.5554 73.7492 44.6884 73.7966 44.7987 73.8798C44.909 73.9629 44.9913 74.0778 45.0344 74.209C45.0775 74.3402 45.0795 74.4816 45.0401 74.6139C45.0007 74.7463 44.9217 74.8635 44.8138 74.9497L42.2368 76.8164C42.1238 76.8953 42.0399 77.0092 41.9981 77.1406C41.9563 77.272 41.9589 77.4135 42.0055 77.5432L42.9801 80.5662C43.0269 80.7003 43.0293 80.8459 42.9868 80.9814C42.9443 81.117 42.8594 81.2352 42.7444 81.3186C42.6295 81.402 42.4907 81.4462 42.3487 81.4446C42.2067 81.4429 42.069 81.3956 41.956 81.3096L39.3955 79.4429C39.2817 79.3633 39.1462 79.3206 39.0073 79.3206C38.8684 79.3206 38.7329 79.3633 38.6191 79.4429L36.0421 81.3096C35.9288 81.3888 35.7934 81.4304 35.6552 81.4286C35.5169 81.4269 35.3827 81.3817 35.2714 81.2996C35.1601 81.2176 35.0774 81.1026 35.0349 80.9711C34.9924 80.8395 34.9922 80.6979 35.0344 80.5662L36.0091 77.5432C36.0557 77.4135 36.0583 77.272 36.0165 77.1406C35.9747 77.0092 35.8908 76.8953 35.7778 76.8164L33.2008 74.9497C33.0929 74.8635 33.0139 74.7463 32.9745 74.6139C32.935 74.4816 32.937 74.3402 32.9802 74.209C33.0233 74.0778 33.1056 73.9629 33.2158 73.8798C33.3261 73.7966 33.4592 73.7492 33.5973 73.7438H36.769C36.9071 73.7444 37.0419 73.7017 37.1545 73.6217C37.2671 73.5417 37.3518 73.4284 37.3967 73.2978L38.3713 70.2748C38.4148 70.1426 38.4988 70.0275 38.6115 69.9459C38.7243 69.8643 38.8599 69.8203 38.999 69.8203C39.1382 69.8203 39.2738 69.8643 39.3865 69.9459C39.4993 70.0275 39.5833 70.1426 39.6268 70.2748Z" fill="#FBF7F4" stroke="#115934" stroke-miterlimit="10"/>
<path d="M55.4354 70.2751L56.41 73.2981C56.457 73.4274 56.5422 73.5393 56.6543 73.619C56.7664 73.6987 56.9002 73.7423 57.0377 73.7441H60.292C60.4337 73.7427 60.572 73.7868 60.6867 73.8701C60.8013 73.9533 60.8862 74.0711 60.9288 74.2063C60.9714 74.3414 60.9694 74.4866 60.9231 74.6206C60.8769 74.7545 60.7889 74.8699 60.672 74.95L58.1115 76.8167C57.9996 76.8969 57.9156 77.0101 57.8712 77.1404C57.8267 77.2707 57.8241 77.4116 57.8637 77.5435L58.8549 80.5665C58.9016 80.7006 58.904 80.8462 58.8615 80.9817C58.819 81.1173 58.734 81.2355 58.6191 81.3189C58.5041 81.4023 58.3654 81.4465 58.2234 81.4449C58.0814 81.4433 57.9437 81.3959 57.8307 81.3099L55.2537 79.4432C55.1399 79.3636 55.0043 79.3209 54.8655 79.3209C54.7266 79.3209 54.5911 79.3636 54.4773 79.4432L51.9168 81.3099C51.8038 81.3959 51.6661 81.4433 51.5241 81.4449C51.3821 81.4465 51.2433 81.4023 51.1284 81.3189C51.0134 81.2355 50.9284 81.1173 50.8859 80.9817C50.8435 80.8462 50.8458 80.7006 50.8926 80.5665L51.8838 77.5435C51.9233 77.4116 51.9207 77.2707 51.8763 77.1404C51.8319 77.0101 51.7479 76.8969 51.636 76.8167L49.0755 74.95C48.9586 74.8699 48.8705 74.7545 48.8243 74.6206C48.778 74.4866 48.7761 74.3414 48.8186 74.2063C48.8612 74.0711 48.9461 73.9533 49.0608 73.8701C49.1754 73.7868 49.3138 73.7427 49.4554 73.7441H52.6436C52.7812 73.7423 52.9149 73.6987 53.0271 73.619C53.1392 73.5393 53.2244 73.4274 53.2714 73.2981L54.246 70.2751C54.3001 70.1634 54.3846 70.0691 54.4898 70.0032C54.595 69.9373 54.7166 69.9023 54.8407 69.9023C54.9648 69.9023 55.0865 69.9373 55.1916 70.0032C55.2968 70.0691 55.3813 70.1634 55.4354 70.2751Z" fill="#FBF7F4" stroke="#115934" stroke-miterlimit="10"/>
<path d="M71.2441 70.2748L72.2187 73.2978C72.2636 73.4284 72.3483 73.5417 72.4609 73.6217C72.5735 73.7017 72.7084 73.7444 72.8465 73.7438H76.0181C76.1562 73.7492 76.2893 73.7966 76.3996 73.8798C76.5099 73.9629 76.5921 74.0778 76.6352 74.209C76.6784 74.3402 76.6804 74.4816 76.6409 74.6139C76.6015 74.7463 76.5225 74.8635 76.4146 74.9497L73.8376 76.8164C73.7246 76.8953 73.6407 77.0092 73.5989 77.1406C73.5571 77.272 73.5597 77.4135 73.6063 77.5432L74.581 80.5662C74.6232 80.6979 74.623 80.8395 74.5805 80.9711C74.538 81.1026 74.4553 81.2176 74.344 81.2996C74.2328 81.3817 74.0985 81.4269 73.9602 81.4286C73.822 81.4304 73.6867 81.3888 73.5733 81.3096L70.9963 79.4429C70.8825 79.3633 70.747 79.3206 70.6081 79.3206C70.4692 79.3206 70.3337 79.3633 70.2199 79.4429L67.6594 81.3096C67.5464 81.3956 67.4087 81.4429 67.2667 81.4446C67.1247 81.4462 66.986 81.402 66.871 81.3186C66.7561 81.2352 66.6711 81.117 66.6286 80.9814C66.5861 80.8459 66.5885 80.7003 66.6353 80.5662L67.6099 77.5432C67.6565 77.4135 67.6591 77.272 67.6173 77.1406C67.5755 77.0092 67.4917 76.8953 67.3786 76.8164L64.8017 74.9497C64.6937 74.8635 64.6147 74.7463 64.5753 74.6139C64.5359 74.4816 64.5379 74.3402 64.581 74.209C64.6241 74.0778 64.7064 73.9629 64.8167 73.8798C64.927 73.7966 65.0601 73.7492 65.1981 73.7438H68.3698C68.5079 73.7444 68.6427 73.7017 68.7553 73.6217C68.8679 73.5417 68.9526 73.4284 68.9975 73.2978L69.9886 70.2748C70.0321 70.1426 70.1162 70.0275 70.2289 69.9459C70.3416 69.8643 70.4772 69.8203 70.6164 69.8203C70.7555 69.8203 70.8911 69.8643 71.0039 69.9459C71.1166 70.0275 71.2007 70.1426 71.2441 70.2748Z" fill="#FBF7F4" stroke="#115934" stroke-miterlimit="10"/>
<path d="M87.0364 70.2748L88.0275 73.2978C88.0702 73.4299 88.1543 73.5446 88.2674 73.625C88.3805 73.7053 88.5165 73.747 88.6552 73.7439H91.8269C91.9649 73.7492 92.098 73.7967 92.2083 73.8798C92.3186 73.963 92.4009 74.0779 92.444 74.2091C92.4871 74.3403 92.4891 74.4816 92.4497 74.614C92.4103 74.7464 92.3313 74.8635 92.2233 74.9497L89.6464 76.8164C89.5345 76.8967 89.4505 77.0099 89.406 77.1402C89.3616 77.2705 89.359 77.4114 89.3986 77.5433L90.3897 80.5662C90.4365 80.7003 90.4389 80.846 90.3964 80.9815C90.3539 81.117 90.2689 81.2352 90.154 81.3187C90.039 81.4021 89.9003 81.4463 89.7583 81.4446C89.6163 81.443 89.4786 81.3957 89.3656 81.3096L86.8051 79.443C86.6913 79.3634 86.5558 79.3207 86.4169 79.3207C86.278 79.3207 86.1425 79.3634 86.0287 79.443L83.4187 81.3096C83.3053 81.3888 83.1699 81.4305 83.0317 81.4287C82.8934 81.4269 82.7592 81.3818 82.6479 81.2997C82.5367 81.2176 82.454 81.1027 82.4115 80.9711C82.3689 80.8395 82.3688 80.6979 82.411 80.5662L83.4187 77.4937C83.4625 77.3637 83.4637 77.2231 83.4221 77.0924C83.3805 76.9616 83.2983 76.8476 83.1874 76.7669L80.6104 74.9002C80.4935 74.8201 80.4055 74.7047 80.3592 74.5707C80.313 74.4368 80.3109 74.2916 80.3535 74.1565C80.3961 74.0213 80.481 73.9035 80.5957 73.8203C80.7103 73.737 80.8487 73.6929 80.9903 73.6943H84.1785C84.3161 73.6925 84.4498 73.6489 84.562 73.5692C84.6741 73.4895 84.7593 73.3776 84.8063 73.2483L85.7809 70.2253C85.8293 70.0945 85.9178 69.9824 86.0338 69.9051C86.1498 69.8277 86.2873 69.789 86.4266 69.7945C86.5659 69.8 86.6999 69.8494 86.8094 69.9357C86.919 70.0219 86.9984 70.1407 87.0364 70.2748Z" fill="#FBF7F4" stroke="#115934" stroke-miterlimit="10"/>
<g style="mix-blend-mode:multiply" opacity="0.12">
<path d="M116.11 93.8974C126.429 93.8974 134.793 85.5326 134.793 75.2142C134.793 64.8958 126.429 56.531 116.11 56.531C105.792 56.531 97.427 64.8958 97.427 75.2142C97.427 85.5326 105.792 93.8974 116.11 93.8974Z" fill="black"/>
<path d="M116.11 93.8974C126.429 93.8974 134.793 85.5326 134.793 75.2142C134.793 64.8958 126.429 56.531 116.11 56.531C105.792 56.531 97.427 64.8958 97.427 75.2142C97.427 85.5326 105.792 93.8974 116.11 93.8974Z" stroke="black" stroke-miterlimit="10"/>
</g>
<path d="M116.11 90.5934C126.429 90.5934 134.793 82.2287 134.793 71.9102C134.793 61.5918 126.429 53.2271 116.11 53.2271C105.792 53.2271 97.427 61.5918 97.427 71.9102C97.427 82.2287 105.792 90.5934 116.11 90.5934Z" fill="#FBF7F4"/>
<path d="M116.11 90.5934C126.429 90.5934 134.793 82.2287 134.793 71.9102C134.793 61.5918 126.429 53.2271 116.11 53.2271C105.792 53.2271 97.427 61.5918 97.427 71.9102C97.427 82.2287 105.792 90.5934 116.11 90.5934Z" stroke="#F26522" stroke-miterlimit="10"/>
<g style="mix-blend-mode:multiply" opacity="0.07">
<path d="M125.345 69.3996H119.332C119.296 69.398 119.261 69.3886 119.229 69.3721C119.197 69.3556 119.17 69.3325 119.148 69.3042C119.126 69.2759 119.11 69.2433 119.102 69.2084C119.094 69.1735 119.093 69.1374 119.1 69.1023C119.312 68.2155 119.401 67.304 119.365 66.3931C119.365 65.9141 119.365 65.3524 119.365 64.7412C119.33 64.2062 119.147 63.6915 118.836 63.2545C118.67 63.0151 118.451 62.8174 118.196 62.6769C117.941 62.5365 117.657 62.4571 117.366 62.4451C115.978 62.4451 115.714 63.7996 115.714 64.8899C115.657 66.1786 115.395 67.45 114.938 68.6562C114.586 69.4891 113.931 70.1567 113.104 70.5229C112.499 70.7907 111.868 70.9955 111.221 71.1341C111.168 71.1456 111.122 71.175 111.088 71.2171C111.055 71.2593 111.038 71.3118 111.039 71.3654V80.2692C111.039 80.3305 111.064 80.3894 111.107 80.4328C111.15 80.4761 111.209 80.5005 111.27 80.5005H113.732C113.769 80.4966 113.806 80.5039 113.838 80.5216C113.871 80.5393 113.897 80.5666 113.913 80.5996C114.165 80.9316 114.489 81.2011 114.862 81.3874C115.234 81.5736 115.645 81.6715 116.061 81.6734H123.775C124.317 81.669 124.836 81.4518 125.219 81.0686C125.602 80.6854 125.819 80.1669 125.824 79.625C125.819 79.3438 125.751 79.0671 125.626 78.8155C125.592 78.7765 125.573 78.7267 125.573 78.6751C125.573 78.6236 125.592 78.5737 125.626 78.5347C126.056 78.0919 126.298 77.5001 126.303 76.8828V76.6515C126.307 76.3692 126.239 76.0905 126.105 75.8421C126.075 75.7982 126.059 75.7465 126.059 75.6934C126.059 75.6404 126.075 75.5886 126.105 75.5448C126.318 75.3773 126.49 75.1642 126.611 74.9213C126.731 74.6783 126.795 74.4116 126.798 74.1406V73.9093C126.793 73.6228 126.726 73.3409 126.6 73.0834C126.569 73.043 126.553 72.9937 126.553 72.943C126.553 72.8922 126.569 72.8429 126.6 72.8026C126.811 72.6342 126.981 72.4206 127.099 72.1776C127.216 71.9346 127.277 71.6683 127.277 71.3984C127.27 70.882 127.066 70.388 126.707 70.0167C126.348 69.6454 125.861 69.4248 125.345 69.3996Z" fill="black"/>
<path d="M125.345 69.3996H119.332C119.296 69.398 119.261 69.3886 119.229 69.3721C119.197 69.3556 119.17 69.3325 119.148 69.3042C119.126 69.2759 119.11 69.2433 119.102 69.2084C119.094 69.1735 119.093 69.1374 119.1 69.1023C119.312 68.2155 119.401 67.304 119.365 66.3931C119.365 65.9141 119.365 65.3524 119.365 64.7412C119.33 64.2062 119.147 63.6915 118.836 63.2545C118.67 63.0151 118.451 62.8174 118.196 62.6769C117.941 62.5365 117.657 62.4571 117.366 62.4451C115.978 62.4451 115.714 63.7996 115.714 64.8899C115.657 66.1786 115.395 67.45 114.938 68.6562C114.586 69.4891 113.931 70.1567 113.104 70.5229C112.499 70.7907 111.868 70.9955 111.221 71.1341C111.168 71.1456 111.122 71.175 111.088 71.2171C111.055 71.2593 111.038 71.3118 111.039 71.3654V80.2692C111.039 80.3305 111.064 80.3894 111.107 80.4328C111.15 80.4761 111.209 80.5005 111.27 80.5005H113.732C113.769 80.4966 113.806 80.5039 113.838 80.5216C113.871 80.5393 113.897 80.5666 113.913 80.5996C114.165 80.9316 114.489 81.2011 114.862 81.3874C115.234 81.5736 115.645 81.6715 116.061 81.6734H123.775C124.317 81.669 124.836 81.4518 125.219 81.0686C125.602 80.6854 125.819 80.1669 125.824 79.625V79.625C125.819 79.3438 125.751 79.0671 125.626 78.8155C125.592 78.7765 125.573 78.7267 125.573 78.6751C125.573 78.6236 125.592 78.5737 125.626 78.5347C126.056 78.0919 126.298 77.5001 126.303 76.8828V76.6515C126.307 76.3692 126.239 76.0905 126.105 75.8421C126.075 75.7982 126.059 75.7465 126.059 75.6934C126.059 75.6404 126.075 75.5886 126.105 75.5448C126.318 75.3773 126.49 75.1642 126.611 74.9213C126.731 74.6783 126.795 74.4116 126.798 74.1406V73.9093C126.793 73.6228 126.726 73.3409 126.6 73.0834C126.569 73.043 126.553 72.9937 126.553 72.943C126.553 72.8922 126.569 72.8429 126.6 72.8026C126.811 72.6342 126.981 72.4206 127.099 72.1776C127.216 71.9346 127.277 71.6683 127.277 71.3984V71.3984C127.27 70.882 127.066 70.388 126.707 70.0167C126.348 69.6454 125.861 69.4248 125.345 69.3996V69.3996Z" stroke="black" stroke-miterlimit="10"/>
</g>
<path d="M125.345 67.748H119.332C119.296 67.7464 119.261 67.737 119.229 67.7205C119.197 67.704 119.17 67.6808 119.148 67.6526C119.126 67.6243 119.11 67.5917 119.102 67.5568C119.094 67.5219 119.093 67.4857 119.1 67.4507C119.312 66.5639 119.401 65.6524 119.365 64.7415C119.365 64.2625 119.365 63.7008 119.365 63.0896C119.33 62.5546 119.147 62.0398 118.836 61.6029C118.67 61.3635 118.451 61.1658 118.196 61.0253C117.941 60.8849 117.657 60.8055 117.366 60.7935C115.978 60.7935 115.714 62.148 115.714 63.2383C115.657 64.527 115.395 65.7984 114.938 67.0046C114.586 67.8375 113.931 68.5051 113.104 68.8713C112.499 69.1391 111.868 69.3439 111.221 69.4825C111.168 69.494 111.122 69.5233 111.088 69.5655C111.055 69.6077 111.038 69.6602 111.039 69.7138V78.6176C111.039 78.6789 111.064 78.7378 111.107 78.7811C111.15 78.8245 111.209 78.8489 111.27 78.8489H113.732C113.769 78.845 113.806 78.8523 113.838 78.87C113.871 78.8877 113.897 78.915 113.913 78.948C114.165 79.28 114.489 79.5495 114.862 79.7358C115.234 79.922 115.645 80.0198 116.061 80.0217H123.775C124.317 80.0174 124.836 79.8002 125.219 79.417C125.602 79.0338 125.819 78.5153 125.824 77.9734C125.819 77.6922 125.751 77.4155 125.626 77.1639C125.592 77.1249 125.573 77.0751 125.573 77.0235C125.573 76.9719 125.592 76.9221 125.626 76.8831C126.056 76.4403 126.298 75.8485 126.303 75.2312V74.9999C126.307 74.7176 126.239 74.4389 126.105 74.1905C126.075 74.1466 126.059 74.0948 126.059 74.0418C126.059 73.9888 126.075 73.937 126.105 73.8931C126.318 73.7256 126.49 73.5126 126.611 73.2696C126.731 73.0267 126.795 72.76 126.798 72.489V72.2577C126.793 71.9712 126.726 71.6893 126.6 71.4318C126.569 71.3914 126.553 71.3421 126.553 71.2914C126.553 71.2406 126.569 71.1913 126.6 71.151C126.811 70.9826 126.981 70.769 127.099 70.526C127.216 70.283 127.277 70.0167 127.277 69.7468C127.27 69.2304 127.066 68.7363 126.707 68.3651C126.348 67.9938 125.861 67.7731 125.345 67.748Z" fill="#FBF7F4"/>
<path d="M125.345 67.748H119.332C119.296 67.7464 119.261 67.737 119.229 67.7205C119.197 67.704 119.17 67.6808 119.148 67.6526C119.126 67.6243 119.11 67.5917 119.102 67.5568C119.094 67.5219 119.093 67.4857 119.1 67.4507C119.312 66.5639 119.401 65.6524 119.365 64.7415C119.365 64.2625 119.365 63.7008 119.365 63.0896C119.33 62.5546 119.147 62.0398 118.836 61.6029C118.67 61.3635 118.451 61.1658 118.196 61.0253C117.941 60.8849 117.657 60.8055 117.366 60.7935C115.978 60.7935 115.714 62.148 115.714 63.2383C115.657 64.527 115.395 65.7984 114.938 67.0046C114.586 67.8375 113.931 68.5051 113.104 68.8713C112.499 69.1391 111.868 69.3439 111.221 69.4825C111.168 69.494 111.122 69.5233 111.088 69.5655C111.055 69.6077 111.038 69.6602 111.039 69.7138V78.6176C111.039 78.6789 111.064 78.7378 111.107 78.7811C111.15 78.8245 111.209 78.8489 111.27 78.8489H113.732C113.769 78.845 113.806 78.8523 113.838 78.87C113.871 78.8877 113.897 78.915 113.913 78.948C114.165 79.28 114.489 79.5495 114.862 79.7358C115.234 79.922 115.645 80.0198 116.061 80.0217H123.775C124.317 80.0174 124.836 79.8002 125.219 79.417C125.602 79.0338 125.819 78.5153 125.824 77.9734V77.9734C125.819 77.6921 125.751 77.4155 125.626 77.1639C125.592 77.1249 125.573 77.0751 125.573 77.0235C125.573 76.9719 125.592 76.9221 125.626 76.8831C126.056 76.4403 126.298 75.8485 126.303 75.2312V74.9999C126.307 74.7176 126.239 74.4389 126.105 74.1905C126.075 74.1466 126.059 74.0948 126.059 74.0418C126.059 73.9888 126.075 73.937 126.105 73.8931C126.318 73.7256 126.49 73.5126 126.611 73.2696C126.731 73.0267 126.795 72.76 126.798 72.489V72.2577C126.793 71.9712 126.726 71.6893 126.6 71.4318C126.569 71.3914 126.553 71.3421 126.553 71.2914C126.553 71.2406 126.569 71.1913 126.6 71.151C126.811 70.9826 126.981 70.769 127.099 70.526C127.216 70.283 127.277 70.0167 127.277 69.7468C127.27 69.2304 127.066 68.7363 126.707 68.3651C126.348 67.9938 125.861 67.7731 125.345 67.748V67.748Z" stroke="#115934" stroke-miterlimit="10"/>
<g style="mix-blend-mode:multiply" opacity="0.07">
<path d="M110.361 70.1924H106.744C106.434 70.1924 106.182 70.4438 106.182 70.754V80.9133C106.182 81.2235 106.434 81.475 106.744 81.475H110.361C110.672 81.475 110.923 81.2235 110.923 80.9133V70.754C110.923 70.4438 110.672 70.1924 110.361 70.1924Z" fill="black"/>
<path d="M110.361 70.1924H106.744C106.434 70.1924 106.182 70.4438 106.182 70.754V80.9133C106.182 81.2235 106.434 81.475 106.744 81.475H110.361C110.672 81.475 110.923 81.2235 110.923 80.9133V70.754C110.923 70.4438 110.672 70.1924 110.361 70.1924Z" stroke="black" stroke-miterlimit="10"/>
</g>
<path d="M110.361 68.5403H106.744C106.434 68.5403 106.182 68.7917 106.182 69.1019V79.2612C106.182 79.5714 106.434 79.8229 106.744 79.8229H110.361C110.672 79.8229 110.923 79.5714 110.923 79.2612V69.1019C110.923 68.7917 110.672 68.5403 110.361 68.5403Z" fill="#FBF7F4"/>
<path d="M110.361 68.5403H106.744C106.434 68.5403 106.182 68.7917 106.182 69.1019V79.2612C106.182 79.5714 106.434 79.8229 106.744 79.8229H110.361C110.672 79.8229 110.923 79.5714 110.923 79.2612V69.1019C110.923 68.7917 110.672 68.5403 110.361 68.5403Z" stroke="#115934" stroke-miterlimit="10"/>
<path d="M228.474 158.636L228.325 159.925L226.789 173.768L225.352 186.57L223.848 199.984H200.474C200.474 198.332 200.391 197.308 200.391 197.01C200.391 193.954 199.483 184.472 199.483 184.472C199.483 184.472 196.905 191.741 194.048 199.984H168.806C170.739 184.125 173.68 159.892 174.654 151.649C174.869 149.864 174.985 148.84 174.985 148.774L228.193 156.175L228.391 157.827L228.474 158.636Z" fill="#FBF7F4" stroke="#115934" stroke-miterlimit="10"/>
<path d="M232.091 98.0441C225.037 85.2747 217.306 71.316 213.804 64.824C212.797 62.9738 212.152 61.7349 211.938 61.3219C211.157 59.7916 210.969 58.0268 211.409 56.3662C211.886 54.6203 212.51 52.9182 213.276 51.2783C213.524 50.7332 213.788 50.2046 214.069 49.6264C214.84 48.2382 215.328 46.7111 215.506 45.1332C215.721 43.8942 215.721 44.2907 214.647 45.3644C214.333 45.6287 213.424 45.6618 212.995 43.7125C212.565 41.7633 206.932 39.1532 204.207 36.791C204.207 36.791 201.316 36.0476 198.359 35.04L197.996 28.7627C196.344 28.5975 197.186 26.7308 195.518 27.0116C194.962 27.071 194.41 27.1648 193.866 27.2925C192.342 29.5419 191.005 31.912 189.868 34.3792C188.532 37.6945 187.968 41.2701 188.216 44.8358C189.026 55.2759 191.916 52.732 196.476 55.6559C196.476 55.6559 196.476 55.6559 196.575 55.755C197.044 56.1876 197.342 56.7734 197.417 57.4069C197.896 59.9013 196.988 63.8989 196.211 64.3945C195.997 64.5267 194.973 65.237 193.519 66.3107C192.065 67.3845 189.67 69.1355 187.357 70.837C187.754 76.9821 187.456 84.0523 185.061 89.5367L232.091 98.0441ZM233.214 98.1927L232.141 97.978L233.644 100.72L233.214 98.1927ZM233.644 100.72L238.699 131.628L230.191 154.754C230.109 155.101 230.076 155.299 230.076 155.299L238.187 159.793L242.498 147.734L246.413 124.045C246.413 124.045 240.516 113.308 233.561 100.72H233.644Z" fill="#FBF7F4" stroke="#115934" stroke-miterlimit="10"/>
<path d="M238.253 159.76L237.262 162.551C236.718 163.865 236.054 165.125 235.28 166.318L227.235 173.883C227.196 173.921 227.146 173.945 227.093 173.954C227.04 173.962 226.986 173.954 226.937 173.931C226.889 173.907 226.849 173.87 226.822 173.823C226.795 173.776 226.784 173.722 226.789 173.669L228.259 160.139L230.258 154.721C230.175 155.068 230.142 155.266 230.142 155.266L238.253 159.76Z" fill="#FBF7F4" stroke="#115934" stroke-miterlimit="10"/>
<path d="M112.328 92.6418C111.436 93.3852 111.832 100.224 113.286 102.339L102.086 100.687C99.4756 100.356 95.1641 95.5326 94.7677 92.9226C94.1069 88.3303 92.5045 83.5067 95.445 82.5981C97.0308 82.0695 110.477 91.3533 112.328 92.6418Z" fill="#FBF7F4" stroke="#115934" stroke-miterlimit="10"/>
<path d="M250.263 126.11C249.618 130.074 238.468 159.809 238.468 159.809H238.336L230.225 155.316C230.225 155.316 230.225 155.117 230.34 154.77C231.199 150.938 236.37 127.993 236.37 125.135C236.37 122.277 230.753 103.66 229.415 101.678C228.077 99.6956 229.085 103.545 228.722 110.235C228.358 116.925 228.722 157.843 228.722 157.843L207.247 160.833C204.215 160.688 201.194 160.385 198.194 159.924C194.064 158.372 176.967 153.317 175.53 152.639C174.093 151.962 174.076 143.306 174.076 143.306C174.076 143.306 180.304 107.146 180.502 95.9292C182.617 94.3064 184.265 92.1518 185.276 89.685C187.671 84.2171 187.969 77.1304 187.572 70.9853C187.572 70.3906 187.49 69.7959 187.424 69.2177C187.392 68.8762 187.431 68.5317 187.539 68.2061C187.647 67.8805 187.821 67.5809 188.051 67.3263C188.281 67.0716 188.561 66.8674 188.874 66.7267C189.187 66.5859 189.525 66.5117 189.868 66.5086C192.082 66.5086 193.684 66.4095 193.684 66.4095C194.114 66.9711 197.732 71.1339 205.809 66.5251C208.243 65.0904 211.086 64.5091 213.887 64.8732C219.041 65.4513 223.898 68.6561 228.837 70.1593C236.304 72.4224 237.312 76.767 237.312 76.767C237.312 76.767 247.487 112.366 249.321 116.264C251.155 120.163 250.808 122.096 250.263 126.11Z" fill="#FBF7F4" stroke="#115934" stroke-miterlimit="10"/>
<path d="M213.309 20.2711C214.267 21.0145 217.158 23.7071 218.182 24.5C219.353 25.6082 220.315 26.9174 221.023 28.3655C221.654 29.7424 222.206 31.1544 222.675 32.5944C224.806 38.0622 222.675 40.4245 221.023 44.3395C218.727 49.6917 213.524 50.5012 213.094 51.2445C208.964 49.9065 208.485 50.3855 206.668 50.9802C204.356 49.4274 203.364 47.3295 202.109 46.2557C202.869 45.182 200.606 35.2705 198.954 40.474C198.26 38.1118 196.113 33.1891 195.204 32.5448C194.295 31.9006 193.222 31.0911 193.321 30.7277C193.8 28.5307 190.166 28.8445 193.321 26.5318C195.898 24.6652 196.922 20.3206 200.292 19.9242C202.39 19.7094 205.066 19.4947 207.213 19.1643C208.576 19.1769 209.929 19.3941 211.228 19.8086C211.909 19.8871 212.568 20.1065 213.16 20.4528L213.309 20.2711Z" fill="#115934"/>
<path d="M187.011 95.3183C179.856 98.3885 172.405 100.719 164.776 102.273C161.323 102.851 148.868 104.949 143.384 105.395C139.593 105.425 135.805 105.243 132.035 104.85C126.567 104.206 113.765 103.016 113.302 102.422C111.849 100.307 111.452 93.4681 112.344 92.7248C112.381 92.7013 112.424 92.6888 112.468 92.6888C112.512 92.6888 112.555 92.7013 112.592 92.7248C114.772 93.3855 149.843 89.1567 158.449 85.985C160.448 85.2416 165.536 82.3342 168.361 80.8309C171.83 78.8982 173.647 78.0557 175.877 75.6274L176.141 75.5283C176.736 75.1319 177.38 74.6693 178.057 74.1572C179.181 73.2982 182.204 66.3602 190.215 66.5749" fill="#FBF7F4"/>
<path d="M187.011 95.3183C179.856 98.3885 172.405 100.719 164.776 102.273C161.323 102.851 148.868 104.949 143.384 105.395C139.593 105.425 135.805 105.243 132.035 104.85C126.567 104.206 113.765 103.016 113.302 102.422C111.849 100.307 111.452 93.4681 112.344 92.7248C112.381 92.7013 112.424 92.6888 112.468 92.6888C112.512 92.6888 112.555 92.7013 112.592 92.7248C114.772 93.3855 149.843 89.1567 158.449 85.985C160.448 85.2416 165.536 82.3342 168.361 80.8309C171.83 78.8982 173.647 78.0557 175.877 75.6274L176.141 75.5283C176.736 75.1319 177.38 74.6693 178.057 74.1572C179.181 73.2982 182.204 66.3602 190.215 66.5749" stroke="#115934" stroke-miterlimit="10"/>
<path d="M188.464 47.6274C188.464 47.6274 189.769 50.0558 191.9 48.7177L188.464 47.6274Z" fill="#FBF7F4"/>
<path d="M188.464 47.6274C188.464 47.6274 189.769 50.0558 191.9 48.7177" stroke="#115934" stroke-miterlimit="10"/>
<path d="M192.478 37.1209C192.989 37.1209 193.403 36.7067 193.403 36.1958C193.403 35.6849 192.989 35.2708 192.478 35.2708C191.967 35.2708 191.553 35.6849 191.553 36.1958C191.553 36.7067 191.967 37.1209 192.478 37.1209Z" fill="#115934"/>
<path d="M188.629 38.2773C188.629 38.2773 185.689 40.8213 186.482 42.721C187.275 44.6207 188.134 42.3246 188.134 42.3246" fill="#115934"/>
<path d="M113.021 0.0189846H43.7731C42.7434 -0.0736818 41.7185 0.241209 40.9185 0.896036C40.1185 1.55086 39.6073 2.49337 39.4946 3.52104V39.285C39.6032 40.3157 40.1127 41.2623 40.9132 41.9206C41.7136 42.5789 42.7408 42.896 43.7731 42.8036H90.3572L100.698 54.1193L104.365 42.8036H113.054C114.084 42.8963 115.109 42.5814 115.909 41.9265C116.709 41.2717 117.22 40.3292 117.333 39.3016V3.52104C117.22 2.48709 116.704 1.53929 115.897 0.883559C115.09 0.227827 114.057 -0.0828543 113.021 0.0189846Z" fill="#F26522"/>
<path d="M50.3308 14.1924H99.211" stroke="#FAF6F3" stroke-miterlimit="10"/>
<path d="M50.3308 20.354H99.211" stroke="#FAF6F3" stroke-miterlimit="10"/>
<path d="M50.3308 26.5322H84.3933" stroke="#FAF6F3" stroke-miterlimit="10"/>
</svg>
