<svg width="353" height="200" viewBox="0 0 353 200" fill="none" xmlns="http://www.w3.org/2000/svg">
<g clip-path="url(#clip0_37_2497)">
<path d="M368.516 199.408H378.082H272.299H259.082H222.364H209.371H208.878H208.833H153.433H23.8359" stroke="#115934" stroke-miterlimit="10"/>
<path opacity="0.25" d="M251.174 100.814C278.975 100.814 301.511 78.4797 301.511 50.9288C301.511 23.3779 278.975 1.04346 251.174 1.04346C223.373 1.04346 200.836 23.3779 200.836 50.9288C200.836 78.4797 223.373 100.814 251.174 100.814Z" fill="#F26522"/>
<path d="M16.5329 144.616C15.1216 132.361 17.1378 105.232 23.1416 87.1827C27.0844 75.2831 30.7807 59.1208 47.0447 50.0629C60.486 42.6034 147.317 36.4981 195.952 41.3823C221.356 43.9354 242.706 67.2685 256.819 88.1817C257.714 89.5076 258.87 90.6411 260.217 91.5146C261.564 92.3881 263.075 92.9836 264.66 93.2657C305.813 100.747 307.224 100.858 317.708 104.011C328.529 107.274 339.125 115.467 339.125 127.833V157.804H17.8322C17.3617 150.255 17.0033 152.098 16.5329 144.616Z" fill="#FBF7F4" stroke="#F26522" stroke-miterlimit="10"/>
<path d="M191.404 92.5776C186.231 76.9865 178.676 62.2739 169.002 48.9529C178.792 49.3525 187.529 49.9741 195.011 50.8621C217.548 53.504 236.186 74.6171 248.597 93.5322L191.494 92.5776H191.404Z" fill="#FBF7F4" stroke="#F26522" stroke-miterlimit="10"/>
<path opacity="0.25" d="M92.2971 91.8449L95.5454 51.6613C113.31 50.3959 132.845 49.7742 150.856 49.8852C152.738 49.8852 154.62 49.8852 156.479 49.8852C166.931 62.6378 175.251 76.9692 181.122 92.3333L92.2971 91.8449Z" fill="#F26522" stroke="#FBF7F4" stroke-miterlimit="10"/>
<path d="M70.8583 167.75H14.8527C11.2166 167.75 7.72935 166.318 5.1582 163.77C2.58705 161.222 1.14258 157.766 1.14258 154.163C1.14258 150.559 2.58705 147.104 5.1582 144.555C7.72935 142.007 11.2166 140.576 14.8527 140.576H70.8583V167.75Z" fill="#FBF7F4" stroke="#115934" stroke-miterlimit="10"/>
<path d="M341.41 167.75H295.575V145.105H341.41C342.91 145.105 344.396 145.398 345.782 145.967C347.168 146.536 348.428 147.37 349.488 148.421C350.549 149.473 351.391 150.721 351.965 152.095C352.539 153.468 352.835 154.941 352.835 156.427C352.835 157.914 352.539 159.387 351.965 160.76C351.391 162.134 350.549 163.382 349.488 164.434C348.428 165.485 347.168 166.319 345.782 166.888C344.396 167.457 342.91 167.75 341.41 167.75Z" fill="#FBF7F4" stroke="#115934" stroke-miterlimit="10"/>
<path d="M96.0608 155.673H251.174V167.75H96.0608V155.673Z" fill="#FBF7F4" stroke="#115934" stroke-miterlimit="10"/>
<path d="M271.56 198.565C290.291 198.565 305.476 183.516 305.476 164.952C305.476 146.389 290.291 131.34 271.56 131.34C252.828 131.34 237.643 146.389 237.643 164.952C237.643 183.516 252.828 198.565 271.56 198.565Z" fill="#F26522"/>
<path d="M271.56 183.157C281.705 183.157 289.93 175.007 289.93 164.953C289.93 154.898 281.705 146.748 271.56 146.748C261.414 146.748 253.19 154.898 253.19 164.953C253.19 175.007 261.414 183.157 271.56 183.157Z" fill="#FBF7F4" stroke="#F26522" stroke-miterlimit="10"/>
<path d="M271.56 170.547C274.678 170.547 277.205 168.042 277.205 164.953C277.205 161.863 274.678 159.358 271.56 159.358C268.442 159.358 265.914 161.863 265.914 164.953C265.914 168.042 268.442 170.547 271.56 170.547Z" fill="#FBF7F4" stroke="#115934" stroke-miterlimit="10"/>
<path d="M75.0923 198.565C93.8241 198.565 109.009 183.516 109.009 164.952C109.009 146.389 93.8241 131.34 75.0923 131.34C56.3604 131.34 41.1753 146.389 41.1753 164.952C41.1753 183.516 56.3604 198.565 75.0923 198.565Z" fill="#F26522"/>
<path d="M75.0922 183.157C85.2376 183.157 93.462 175.007 93.462 164.953C93.462 154.898 85.2376 146.748 75.0922 146.748C64.9469 146.748 56.7224 154.898 56.7224 164.953C56.7224 175.007 64.9469 183.157 75.0922 183.157Z" fill="#FBF7F4" stroke="#F26522" stroke-miterlimit="10"/>
<path d="M75.0921 170.547C78.21 170.547 80.7375 168.042 80.7375 164.953C80.7375 161.863 78.21 159.358 75.0921 159.358C71.9743 159.358 69.4468 161.863 69.4468 164.953C69.4468 168.042 71.9743 170.547 75.0921 170.547Z" fill="#FBF7F4" stroke="#115934" stroke-miterlimit="10"/>
<path opacity="0.25" d="M86.0692 50.9287C65.9072 53.1488 55.5126 55.6353 52.4659 57.4558C40.4807 64.6711 36.7843 76.9037 33.6928 87.6933C33.3568 88.87 33.0208 90.0245 32.6623 91.1789C32.6623 91.4897 32.4607 91.8005 32.3711 92.1114H83.4033L86.0692 50.9287Z" fill="#F26522" stroke="#FBF7F4" stroke-miterlimit="10"/>
<path d="M345.308 121.683C346.159 126.833 341.32 131.074 333.703 131.74C326.467 132.428 318.156 129.209 316.812 124.081C316.006 118.908 324.653 114.334 331.956 113.691C339.259 113.047 344.277 116.532 345.397 121.683H345.308ZM213.426 105.698H198.954H213.426ZM109.032 105.698H93.7981H109.032Z" fill="#FBF7F4"/>
<path d="M213.426 105.698H198.954M109.032 105.698H93.7981M345.308 121.683C346.159 126.833 341.32 131.074 333.703 131.74C326.467 132.428 318.156 129.209 316.812 124.081C316.006 118.908 324.653 114.334 331.956 113.691C339.259 113.047 344.277 116.532 345.397 121.683H345.308Z" stroke="#F26522" stroke-miterlimit="10"/>
<path d="M271.56 65.8922C271.553 81.5864 265.799 96.745 255.367 108.553C244.935 120.361 230.534 128.016 214.837 130.097C202.515 131.742 189.976 129.854 178.702 124.658C175.868 123.383 173.135 121.899 170.526 120.218C161.045 114.088 153.335 105.622 148.149 95.6505C142.963 85.6789 140.479 74.5433 140.942 63.3346C141.405 52.1259 144.798 41.2286 150.788 31.7102C156.779 22.1918 165.162 14.3787 175.115 9.03655C185.069 3.69435 196.253 1.0062 207.57 1.23545C218.888 1.4647 229.951 4.60349 239.676 10.3443C249.401 16.0852 257.455 24.2311 263.048 33.9842C268.641 43.7373 271.582 54.7629 271.582 65.9809L271.56 65.8922Z" fill="#FBF7F4" stroke="#F26522" stroke-miterlimit="10"/>
<path d="M181.413 54.1478C181.413 54.1478 182.332 43.0474 182.332 40.1169C182.332 37.1864 188.559 33.723 188.783 31.0367C189.007 28.3504 202.046 24.0435 202.046 24.0435C202.046 24.0435 200.164 25.1757 201.284 29.3717C202.606 34.2558 202.382 42.0706 196.445 44.9123C191.965 46.9769 194.205 57.1893 194.205 57.1893L181.413 54.1478Z" fill="#FBF7F4" stroke="#115934" stroke-miterlimit="10"/>
<path d="M241.698 79.257L209.035 107.119C204.129 108.451 206.369 98.9269 202.314 98.8825C194.093 98.8825 203.995 87.1383 203.995 87.1383C204.891 87.2493 236.366 72.4191 237.15 71.9751L241.787 79.257" fill="#FBF7F4"/>
<path d="M241.698 79.257L209.035 107.119C204.129 108.451 206.369 98.9269 202.314 98.8825C194.093 98.8825 203.995 87.1383 203.995 87.1383C204.891 87.2493 236.366 72.4191 237.15 71.9751L241.787 79.257" stroke="#115934" stroke-miterlimit="10"/>
<path d="M211.701 118.109C212.093 120.357 212.617 122.581 213.269 124.769L214.837 130.03C202.515 131.675 189.976 129.788 178.702 124.591L178.971 122.371L178.702 124.591C175.868 123.317 173.135 121.832 170.526 120.151C170.526 114.401 170.817 105.365 171.735 92.4444C173.46 67.2687 181.503 53.4597 181.503 53.4597C182.108 53.4597 184.953 53.5929 188.067 53.9037C189.166 53.8299 190.268 53.9899 191.3 54.3728C192.331 54.7557 193.268 55.3527 194.048 56.1238C195.03 57.0933 195.922 58.1484 196.714 59.2763C200.455 64.3825 204.286 70.0437 204.286 75.0167C204.278 76.1012 204.353 77.1847 204.51 78.258C205.169 83.4908 206.142 88.6801 207.422 93.7987C207.758 95.1973 208.094 96.818 208.385 98.6163L211.701 118.109Z" fill="#FBF7F4" stroke="#115934" stroke-miterlimit="10"/>
<path opacity="0.1" d="M195.818 45.4007C194.81 45.7289 193.744 45.8413 192.69 45.7303C191.636 45.6193 190.617 45.2875 189.702 44.7568C191.274 46.516 192.642 48.4448 193.779 50.5069C193.869 46.2221 195.818 45.4007 195.818 45.4007Z" fill="black"/>
<path d="M174.401 25.5753C180.36 14.8301 179.509 22.556 185.602 19.6699C186.764 18.9675 188.071 18.5365 189.426 18.4096C190.781 18.2826 192.147 18.4631 193.421 18.9372C196.762 19.9769 200.316 20.1603 203.748 19.4701C213.359 18.4044 205.495 26.3745 204.219 28.2172C202.942 30.0599 194.003 34.0338 192.726 34.0338C191.449 34.0338 189.075 33.279 187.798 34.0338C186.521 34.7887 186.7 38.474 186.7 39.7173C186.7 40.9605 181.772 40.5164 181.772 40.5164C181.772 40.5164 170.75 32.0802 174.401 25.5753Z" fill="#115934"/>
<path d="M185.602 73.396C185.602 73.396 177.246 111.648 178.882 122.349L185.602 73.396Z" fill="#FBF7F4"/>
<path d="M185.602 73.396C185.602 73.396 177.246 111.648 178.882 122.349" stroke="#115934" stroke-miterlimit="10"/>
<path d="M250.367 73.1519C249.023 76.9038 241.698 79.2571 241.698 79.2571L237.06 72.0418L237.531 71.8198C240.803 70.0049 244.329 68.6807 247.993 67.8903C251.644 67.6017 251.711 69.4221 250.367 73.1519Z" fill="#FBF7F4" stroke="#115934" stroke-miterlimit="10"/>
<path d="M248.844 55.0581H245.73C245.371 55.0581 245.08 55.9461 245.08 57.0562V76.3044C245.08 77.3922 245.371 78.2802 245.73 78.2802H248.844C249.202 78.2802 249.493 77.3922 249.493 76.3044V57.0562C249.493 55.9461 249.202 55.0581 248.844 55.0581Z" fill="#FBF7F4" stroke="#115934" stroke-miterlimit="10"/>
<path d="M247.052 56.0127H246.424C246.424 56.0127 246.424 56.0127 246.424 56.2125C246.424 56.3235 246.424 56.4123 246.424 56.4123H247.052C247.052 56.4123 247.052 56.4123 247.052 56.2125C247.096 56.1015 247.074 56.0127 247.052 56.0127Z" fill="#115934"/>
</g>
<defs>
<clipPath id="clip0_37_2497">
<rect width="353" height="200" fill="white"/>
</clipPath>
</defs>
</svg>
