<svg width="320" height="200" viewBox="0 0 320 200" fill="none" xmlns="http://www.w3.org/2000/svg">
<g clip-path="url(#clip0_37_1986)">
<path d="M15.1099 199.549H105.303H143.856H143.89H144.226H153.28H188.02H273.241" stroke="#115934" stroke-miterlimit="10"/>
<path opacity="0.25" d="M77.4504 192.566C98.2975 192.566 115.197 175.76 115.197 155.028C115.197 134.297 98.2975 117.491 77.4504 117.491C56.6033 117.491 39.7034 134.297 39.7034 155.028C39.7034 175.76 56.6033 192.566 77.4504 192.566Z" fill="#F26522"/>
<path d="M160.857 24.1062C160.231 27.5002 160.202 30.9765 160.773 34.3802C161.495 38.5733 162.772 40.9288 160.033 48.6134C155.75 60.6749 143.436 51.8209 132.567 62.2118C120.64 73.6552 109.318 78.3327 99.8432 78.3996C94.7802 78.5107 89.8011 77.1022 85.5549 74.3577C81.3088 71.6131 77.9928 67.66 76.0392 63.0137C68.463 46.024 75.3841 40.8453 90.503 35.9338C105.622 31.0224 98.8017 17.023 106.832 12.0113C114.861 6.99965 124.638 8.38621 128.468 5.16202C132.299 1.93783 143.94 -2.45575 154.473 1.82089C163.276 5.21214 162.94 10.5747 160.857 24.1062Z" fill="#115934"/>
<path d="M146.275 70.314L144.595 52.5726C144.595 52.5726 176.379 55.3291 190.322 110.157C195.093 135.733 187.399 146.308 174.884 148.697C162.369 151.086 129.224 125.977 146.275 70.314Z" fill="#FBF7F4" stroke="#115934" stroke-miterlimit="10"/>
<path d="M250.898 85.9505C250.662 86.2127 250.397 86.448 250.109 86.6522L249.975 86.7357C248.916 87.4039 247.824 88.0053 246.8 88.5232C244.045 89.9432 241.76 90.8286 241.76 90.8286C241.76 90.8286 228.186 101.203 226.171 102.422C225.532 102.586 224.866 102.621 224.214 102.523C223.562 102.425 222.936 102.198 222.374 101.854C222.374 99.6492 232.453 84.0461 234.419 81.0391C235.89 78.9439 237.674 77.0848 239.71 75.5262C239.71 75.5262 250.714 60.8253 254.04 63.2977C255.518 64.4003 249.437 71.4333 247.421 74.3735C247.877 74.3506 248.329 74.458 248.725 74.6831C249.121 74.9081 249.444 75.2413 249.655 75.6431C249.835 75.9931 249.9 76.3905 249.84 76.7791C250.353 76.9283 250.817 77.2109 251.184 77.5977C251.621 78.149 251.957 79.2683 251.738 79.4687C251.993 79.5385 252.228 79.6671 252.424 79.8442C252.619 80.0213 252.77 80.2418 252.864 80.4878C252.985 81.1709 252.879 81.8747 252.562 82.4925C252.57 82.6483 252.57 82.8044 252.562 82.9602C252.349 84.1103 251.765 85.16 250.898 85.9505Z" fill="#FBF7F4" stroke="#115934" stroke-miterlimit="10"/>
<path d="M229.211 90.1103C228.472 90.8955 186.928 116.088 184.056 118.076C157.648 136.452 170.902 149.983 170.902 149.983C171.165 150.104 171.434 150.209 171.709 150.301C193.631 156.849 235.309 95.2723 235.309 95.2723C235.309 95.2723 229.984 89.3084 229.211 90.1103Z" fill="#FBF7F4" stroke="#115934" stroke-miterlimit="10"/>
<path d="M140.329 54.1763C116.105 49.1646 71.218 73.8389 81.6837 117.858C84.5563 148.513 89.0752 168.777 77.4504 199.566H182.292C177.924 172.937 179.218 141.463 174.682 106.833" fill="#FBF7F4"/>
<path d="M140.329 54.1763C116.105 49.1646 71.218 73.8389 81.6837 117.858C84.5563 148.513 89.0752 168.777 77.4504 199.566H182.292C177.924 172.937 179.218 141.463 174.682 106.833" stroke="#115934" stroke-miterlimit="10"/>
<path d="M121.077 58.5867C120.304 61.9278 121.211 64.8681 129.947 71.6505C133.491 74.574 137.473 76.2613 141.353 75.6098C154.288 73.555 150.929 64.1497 148.678 57.9519C148.621 57.7515 148.547 57.556 148.459 57.3672C146.393 52.1049 147.166 34.0795 147.166 34.0795L133.895 31.3064C133.895 31.3064 134.718 34.4638 131.324 43.5182C127.931 52.5727 122.152 53.859 121.077 58.5867Z" fill="#FBF7F4" stroke="#115934" stroke-miterlimit="10"/>
<path d="M156.355 40.695C151.634 47.277 134.18 41.5804 132.215 33.1106L130.535 25.8604C129.373 25.3412 128.402 24.4752 127.758 23.3824C127.114 22.2897 126.828 21.0246 126.94 19.7628C127.444 16.4217 130.199 18.5433 130.199 18.5433V14.8681L156.103 11.694C156.103 11.694 156.506 13.565 157.043 16.4384C157.295 17.9085 157.53 19.7795 157.799 21.6004C158.639 28.4665 159.009 37.0698 156.355 40.695Z" fill="#FBF7F4" stroke="#115934" stroke-miterlimit="10"/>
<path opacity="0.5" d="M129.594 19.3953C129.594 19.3953 128.653 18.3763 128.217 19.1447C127.989 19.9653 127.988 20.8321 128.216 21.6528C128.444 22.4735 128.891 23.2174 129.51 23.8056C129.51 23.8056 128.015 21.1828 128.452 20.2974C128.889 19.412 130.014 20.1471 129.594 19.3953Z" fill="#E9B1B1"/>
<path d="M156.623 16.9228C156.559 15.9382 156.154 15.0062 155.477 14.2846C154.801 13.563 153.894 13.0963 152.911 12.9635C152.424 12.8633 155.179 14.8012 155.414 17.6077C154.003 18.5659 152.45 19.2987 150.811 19.7794C144.646 21.617 129.661 17.6411 129.661 17.6411C127.729 -3.0405 157.211 2.37215 160.302 9.72264C160.974 11.3264 158.975 14.7343 156.623 16.9228Z" fill="#115934"/>
<path d="M104.177 63.0137C104.177 63.0137 49.0939 90.745 61.5419 150.251C64.3809 163.782 96.2315 145.022 93.5773 138.557C81.8181 138.373 92.6198 116.839 91.7462 112.613" fill="#FBF7F4"/>
<path d="M104.177 63.0137C104.177 63.0137 49.0939 90.745 61.5419 150.251C64.3809 163.782 96.2315 145.022 93.5773 138.557C81.8181 138.373 92.6198 116.839 91.7462 112.613" stroke="#115934" stroke-miterlimit="10"/>
<path d="M138.615 27.2469C139.209 27.2469 139.69 26.5065 139.69 25.5931C139.69 24.6797 139.209 23.9392 138.615 23.9392C138.021 23.9392 137.54 24.6797 137.54 25.5931C137.54 26.5065 138.021 27.2469 138.615 27.2469Z" fill="#115934"/>
<path d="M151.601 27.2469C152.194 27.2469 152.676 26.5065 152.676 25.5931C152.676 24.6797 152.194 23.9392 151.601 23.9392C151.007 23.9392 150.525 24.6797 150.525 25.5931C150.525 26.5065 151.007 27.2469 151.601 27.2469Z" fill="#115934"/>
<path d="M145.536 27.0464C145.536 27.0464 150.576 35.299 144.915 32.7931" stroke="#115934" stroke-miterlimit="10"/>
<path d="M142.059 36.6688C142.059 36.6688 146.242 41.4968 151.013 36.1343" stroke="#115934" stroke-miterlimit="10"/>
<path d="M212.631 27.6979C212.604 27.8675 212.518 28.0222 212.387 28.1339C212.256 28.2456 212.089 28.307 211.917 28.307C211.744 28.307 211.577 28.2456 211.446 28.1339C211.315 28.0222 211.229 27.8675 211.203 27.6979C211.187 27.5956 211.194 27.491 211.222 27.3914C211.251 27.2918 211.301 27.1996 211.368 27.121C211.436 27.0424 211.52 26.9793 211.615 26.936C211.71 26.8927 211.813 26.8704 211.917 26.8704C212.021 26.8704 212.124 26.8927 212.218 26.936C212.313 26.9793 212.397 27.0424 212.465 27.121C212.533 27.1996 212.583 27.2918 212.611 27.3914C212.64 27.491 212.646 27.5956 212.631 27.6979Z" fill="#A5C1E5"/>
<path opacity="0.2" d="M202.988 23.5382C202.988 23.5382 203.963 24.2399 204.181 24.1564C204.399 24.0728 203.996 23.2877 203.627 23.1373C203.257 22.987 202.988 23.5382 202.988 23.5382Z" fill="#FBF7F4"/>
<path d="M244.666 16.4885V31.6572C244.666 32.3224 244.533 32.981 244.275 33.5946C244.016 34.2082 243.637 34.7644 243.16 35.2309C242.683 35.6974 242.118 36.0648 241.497 36.3117C240.876 36.5586 240.211 36.68 239.542 36.6689H238.215V38.8907L232.991 36.6689H198.604C197.267 36.6689 195.985 36.1409 195.04 35.201C194.095 34.2611 193.564 32.9864 193.564 31.6572V16.4885C193.564 15.1593 194.095 13.8846 195.04 12.9447C195.985 12.0048 197.267 11.4768 198.604 11.4768H239.542C240.211 11.4657 240.876 11.5871 241.497 11.834C242.118 12.0809 242.683 12.4483 243.16 12.9148C243.637 13.3813 244.016 13.9375 244.275 14.5511C244.533 15.1646 244.666 15.8232 244.666 16.4885Z" fill="#F26522"/>
<path d="M194.404 19.1446V16.4884C194.404 15.3808 194.847 14.3185 195.634 13.5353C196.422 12.752 197.49 12.312 198.604 12.312H239.543C240.658 12.312 241.728 12.7515 242.518 13.5342C243.308 14.317 243.755 15.3792 243.759 16.4884V19.1446H194.404Z" fill="#FAF6F3"/>
<path d="M203.627 16.4384L203.375 17.2068H202.535L203.627 14.2165H204.584L205.659 17.2068H204.803L204.551 16.4384H203.627ZM203.811 15.8203H204.366L204.097 14.9015L203.811 15.8203ZM208.616 15.1855C208.625 15.421 208.544 15.6513 208.387 15.8285C208.231 16.0058 208.012 16.1164 207.776 16.1377H206.97V17.1902H206.18V14.1998H207.306H207.776C207.897 14.2082 208.015 14.2405 208.123 14.2949C208.231 14.3493 208.327 14.4247 208.405 14.5165C208.483 14.6084 208.542 14.7149 208.578 14.8298C208.615 14.9447 208.627 15.0656 208.616 15.1855ZM207.793 15.1855C207.797 15.1411 207.793 15.0962 207.779 15.0537C207.765 15.0113 207.742 14.9722 207.712 14.9391C207.682 14.906 207.645 14.8796 207.604 14.8616C207.563 14.8436 207.518 14.8344 207.474 14.8346H206.97V15.553H207.474C207.52 15.5536 207.566 15.544 207.609 15.525C207.651 15.5061 207.689 15.4781 207.719 15.4431C207.75 15.4081 207.772 15.3669 207.785 15.3224C207.797 15.2779 207.8 15.2311 207.793 15.1855ZM211.64 15.1855C211.654 15.4194 211.576 15.6497 211.422 15.8274C211.268 16.0051 211.051 16.1164 210.817 16.1377H209.993V17.1902H209.221V14.1998H210.346H210.817C210.937 14.2081 211.054 14.2405 211.161 14.2951C211.268 14.3497 211.363 14.4253 211.44 14.5174C211.517 14.6096 211.575 14.7163 211.609 14.8311C211.643 14.946 211.654 15.0665 211.64 15.1855ZM210.833 15.1855C210.838 15.1411 210.833 15.0962 210.819 15.0537C210.805 15.0113 210.783 14.9722 210.753 14.9391C210.722 14.906 210.686 14.8796 210.645 14.8616C210.604 14.8436 210.559 14.8344 210.514 14.8346H209.993V15.553H210.514C210.561 15.5536 210.607 15.544 210.649 15.525C210.692 15.5061 210.729 15.4781 210.76 15.4431C210.79 15.4081 210.812 15.3669 210.825 15.3224C210.838 15.2779 210.841 15.2311 210.833 15.1855ZM215.201 15.72C215.194 16.0192 215.099 16.3098 214.927 16.5553C214.755 16.8009 214.514 16.9905 214.234 17.1005C213.955 17.2105 213.648 17.2358 213.354 17.1735C213.06 17.1111 212.79 16.9637 212.58 16.7498C212.37 16.536 212.227 16.2651 212.171 15.9711C212.115 15.6772 212.147 15.3732 212.263 15.0974C212.38 14.8216 212.576 14.5861 212.827 14.4205C213.077 14.2549 213.371 14.1665 213.672 14.1664C213.876 14.1583 214.079 14.1937 214.268 14.2701C214.456 14.3465 214.626 14.4621 214.766 14.6093C214.906 14.7565 215.013 14.9317 215.079 15.1233C215.146 15.3149 215.17 15.5184 215.151 15.72H215.201ZM214.411 15.72C214.411 15.0852 214.126 14.7344 213.672 14.7344C213.219 14.7344 212.933 15.0852 212.933 15.72C212.933 16.3549 213.219 16.689 213.672 16.689C214.126 16.689 214.411 16.3382 214.411 15.72ZM215.907 17.2068V14.2165H216.696V17.2068H215.907ZM219.367 17.2068L218.275 15.2356C218.275 15.5363 218.275 15.8036 218.275 15.9706V17.2068H217.502V14.2165H218.51L219.636 16.2713C219.636 15.9706 219.636 15.6699 219.636 15.5029V14.2165H220.409V17.2068H219.367ZM222.727 14.8346V17.2068H221.87V14.8346H220.896V14.2165H223.634V14.8346H222.727ZM227.666 17.2068H226.91V15.9539C226.91 15.6866 226.91 15.3024 226.91 15.0017C226.857 15.3232 226.784 15.6413 226.691 15.9539L226.372 17.2068H225.566L225.23 15.9539C225.23 15.6866 225.079 15.3024 225.028 15.0017V17.2068H224.256V14.2165H225.482L225.986 16.4551L226.49 14.2165H227.683V17.2068H227.666ZM230.79 17.2068H228.489V14.2165H230.74V14.8346H229.262V15.3525H230.656V15.9539H229.262V16.5553H230.79V17.2068ZM233.344 17.2068L232.252 15.2356C232.266 15.4804 232.266 15.7258 232.252 15.9706V17.2068H231.462V14.2165H232.437L233.579 16.2713C233.579 15.9706 233.579 15.6699 233.579 15.5029V14.2165H234.369V17.2068H233.344ZM236.704 14.8346V17.2068H235.931V14.8346H234.956V14.2165H237.678V14.8346H236.704Z" fill="#115934"/>
<path d="M208.582 24.7577H199.477C199.367 24.7518 199.259 24.7858 199.173 24.8534C199.086 24.9211 199.027 25.0177 199.007 25.1252C198.994 25.1888 198.996 25.2544 199.013 25.3172C199.029 25.38 199.059 25.4383 199.101 25.488C199.143 25.5376 199.195 25.5773 199.255 25.6042C199.314 25.631 199.379 25.6443 199.444 25.6431H208.582C208.7 25.6388 208.811 25.5894 208.892 25.5052C208.974 25.4211 209.019 25.3088 209.019 25.1921C209.019 25.0769 208.973 24.9664 208.891 24.8849C208.809 24.8035 208.698 24.7577 208.582 24.7577ZM225.969 24.7577H210.111C209.995 24.7577 209.884 24.8035 209.802 24.8849C209.72 24.9664 209.674 25.0769 209.674 25.1921C209.674 25.3088 209.72 25.4211 209.801 25.5052C209.883 25.5894 209.994 25.6388 210.111 25.6431H226.019C226.085 25.6443 226.149 25.631 226.209 25.6042C226.268 25.5773 226.32 25.5376 226.362 25.488C226.404 25.4383 226.434 25.38 226.451 25.3172C226.467 25.2544 226.469 25.1888 226.456 25.1252C226.436 25.0146 226.374 24.9155 226.284 24.8475C226.194 24.7796 226.082 24.7475 225.969 24.7577ZM212.53 26.9462H199.511C199.391 26.9462 199.275 26.9937 199.19 27.0783C199.105 27.1629 199.057 27.2776 199.057 27.3972C199.057 27.5168 199.105 27.6316 199.19 27.7162C199.275 27.8007 199.391 27.8482 199.511 27.8482H212.564C212.684 27.8482 212.799 27.8007 212.884 27.7162C212.969 27.6316 213.017 27.5168 213.017 27.3972C213.018 27.3319 213.004 27.2672 212.977 27.2076C212.951 27.1481 212.911 27.095 212.862 27.0521C212.812 27.0092 212.754 26.9775 212.691 26.9592C212.628 26.9409 212.561 26.9365 212.496 26.9462H212.53ZM212.53 29.1346H199.511C199.399 29.1328 199.291 29.1705 199.205 29.2408C199.119 29.3112 199.06 29.4097 199.041 29.5188C199.031 29.582 199.035 29.6465 199.052 29.708C199.07 29.7695 199.1 29.8267 199.142 29.8757C199.183 29.9246 199.234 29.9643 199.292 29.992C199.35 30.0198 199.413 30.035 199.477 30.0367H212.53C212.65 30.0367 212.766 29.9892 212.851 29.9046C212.936 29.82 212.984 29.7053 212.984 29.5856C212.984 29.5235 212.971 29.462 212.946 29.4049C212.921 29.3479 212.885 29.2966 212.839 29.2543C212.793 29.2119 212.739 29.1794 212.68 29.1588C212.621 29.1382 212.559 29.13 212.496 29.1346H212.53ZM225.969 26.9462H214.008C213.949 26.9462 213.89 26.9578 213.835 26.9805C213.78 27.0032 213.73 27.0364 213.688 27.0783C213.645 27.1202 213.612 27.1699 213.589 27.2246C213.566 27.2793 213.555 27.338 213.555 27.3972C213.555 27.5168 213.603 27.6316 213.688 27.7162C213.773 27.8007 213.888 27.8482 214.008 27.8482H225.986C226.106 27.8482 226.222 27.8007 226.307 27.7162C226.392 27.6316 226.439 27.5168 226.439 27.3972C226.439 27.2776 226.392 27.1629 226.307 27.0783C226.222 26.9937 226.106 26.9462 225.986 26.9462H225.969Z" fill="#FAF6F3"/>
<path d="M141.824 130.02C138.867 130.839 125.982 130.488 124.689 132.108C124.689 132.108 124.067 140.561 125.865 141.998C127.813 142.533 142.58 140.561 142.58 140.561C144.154 141.992 146.076 142.988 148.157 143.451C149.147 143.719 150.159 143.904 151.181 144.003L151.853 144.136C153.18 144.387 156.035 144.855 156.489 144.22C156.799 143.876 156.992 143.444 157.04 142.985C157.089 142.526 156.99 142.064 156.758 141.664C156.752 141.625 156.752 141.586 156.758 141.547C157.088 141.516 157.405 141.401 157.679 141.214C157.952 141.027 158.173 140.773 158.32 140.478C158.429 140.201 158.461 139.9 158.414 139.606C158.367 139.312 158.242 139.037 158.051 138.807C158.044 138.769 158.044 138.729 158.051 138.69C158.337 138.69 158.975 138.557 159.126 138.072C159.278 137.588 159.513 136.402 158.707 135.817" stroke="#115934" stroke-miterlimit="10"/>
<path d="M318.262 97.2101C316.296 96.1242 314.297 95.0718 312.281 94.0694L310.517 93.2007L309.812 92.8332C310.323 92.3795 310.735 91.8269 311.024 91.2094C311.313 90.5919 311.472 89.9223 311.492 89.2415V84.9983C311.492 83.6691 310.961 82.3943 310.016 81.4544C309.071 80.5146 307.789 79.9866 306.452 79.9866C305.116 79.9866 303.834 80.5146 302.889 81.4544C301.943 82.3943 301.412 83.6691 301.412 84.9983V89.2248C301.426 89.9067 301.583 90.5782 301.872 91.1966C302.161 91.8149 302.577 92.3666 303.092 92.8165C303.092 92.8165 303.21 92.8165 303.26 92.8165L301.9 93.5014L301.58 93.6518C301.407 93.732 301.271 93.8761 301.202 94.0537C301.133 94.2313 301.137 94.4286 301.211 94.604C301.247 94.6897 301.305 94.7645 301.379 94.8212L301.748 95.0217C301.884 95.0701 302.033 95.0701 302.168 95.0217L303.428 94.3868L303.848 94.1864L304.587 93.8188C305.146 94.1017 305.759 94.2612 306.385 94.2866H306.469C307.107 94.2267 307.732 94.063 308.317 93.8021L308.972 94.1195L309.762 94.5205L311.525 95.3892C312.987 96.1075 315.003 97.1432 317.422 98.4964C317.737 98.6932 317.99 98.9752 318.151 99.3094C318.311 99.6436 318.373 100.016 318.329 100.384V101.136C318.305 101.235 318.305 101.338 318.329 101.437H319.639C319.663 101.338 319.663 101.235 319.639 101.136V100.384C319.697 99.7826 319.601 99.1763 319.36 98.6215C319.119 98.0666 318.741 97.5812 318.262 97.2101ZM308.854 91.7306C308.212 92.3448 307.374 92.717 306.486 92.7831C305.613 92.7075 304.791 92.3428 304.151 91.7474C303.783 91.43 303.484 91.041 303.273 90.6042C303.062 90.1674 302.943 89.6922 302.924 89.2081V84.9815C302.92 84.5121 303.009 84.0463 303.185 83.6109C303.362 83.1755 303.623 82.7789 303.953 82.4438C304.284 82.1088 304.678 81.8417 305.113 81.658C305.547 81.4743 306.014 81.3775 306.486 81.3731C306.959 81.3687 307.429 81.4574 307.868 81.634C308.307 81.8107 308.706 82.0718 309.044 82.4024C309.381 82.7331 309.649 83.1267 309.833 83.5607C310.016 83.9947 310.112 84.4605 310.114 84.9314V89.2081C310.092 89.6974 309.969 90.177 309.753 90.6168C309.536 91.0566 309.23 91.4472 308.854 91.764V91.7306Z" fill="#115934"/>
<path d="M318.48 101.42H309.308C309.387 101.314 309.428 101.184 309.426 101.052V100.368H318.413V101.119C318.411 101.223 318.434 101.327 318.48 101.42Z" fill="#115934"/>
<path d="M309.426 100.368V101.052C309.428 101.184 309.387 101.314 309.308 101.42H294.29C294.313 101.321 294.313 101.218 294.29 101.119V100.368H309.426Z" fill="#F26522"/>
<path d="M319.858 100.368V101.42H318.48C318.457 101.321 318.457 101.218 318.48 101.119V100.368H319.858Z" fill="#115934"/>
<path d="M307.544 96.5754C306.2 95.8236 304.84 95.0886 303.479 94.3869C302.941 94.1029 302.421 93.8356 301.799 93.585C301.177 93.3345 300.841 93.0839 300.371 92.85L298.288 91.8142L297.431 91.3799H297.347H297.247C297.328 91.3282 297.406 91.2725 297.482 91.2129C298.084 90.6974 298.571 90.0626 298.912 89.3492C299.254 88.6359 299.441 87.8595 299.464 87.0699V82.0582C299.464 80.5074 298.845 79.0203 297.742 77.9238C296.639 76.8272 295.144 76.2112 293.584 76.2112C292.025 76.2112 290.529 76.8272 289.427 77.9238C288.324 79.0203 287.705 80.5074 287.705 82.0582V87.0699C287.729 87.8616 287.918 88.6399 288.259 89.3557C288.6 90.0715 289.086 90.7095 289.687 91.2296L290.006 91.4467H289.855C289.855 91.4467 288.007 92.3656 285.571 93.6185L285.303 93.7521C285.133 93.8409 285.007 93.9928 284.95 94.1744C284.893 94.3561 284.911 94.5527 285 94.7211C285.043 94.806 285.102 94.8814 285.175 94.9428C285.247 95.0043 285.332 95.0504 285.423 95.0786C285.514 95.1067 285.61 95.1161 285.704 95.1063C285.799 95.0966 285.891 95.0678 285.975 95.0218L287.167 94.4203C289.116 93.418 290.527 92.7498 290.527 92.7498L291.417 92.3154C292.08 92.6477 292.809 92.8303 293.551 92.85H293.685C293.845 92.8229 294.002 92.7838 294.156 92.7331C294.735 92.678 295.302 92.5314 295.835 92.2987H295.97L296.759 92.683C296.995 92.8333 297.247 92.9335 297.717 93.1674L299.8 94.2032L301.345 94.9716L301.715 95.1721C303.16 95.9071 304.873 96.8427 306.755 97.8784C307.155 98.1412 307.474 98.5109 307.673 98.9453C307.872 99.3797 307.944 99.861 307.88 100.334V101.136C307.878 101.268 307.919 101.397 307.998 101.504H309.207C309.286 101.397 309.327 101.268 309.325 101.136V100.334C309.389 99.607 309.258 98.8759 308.945 98.2156C308.632 97.5553 308.149 96.9893 307.544 96.5754ZM296.558 90.0435C295.773 90.794 294.753 91.254 293.668 91.3465C292.599 91.2473 291.593 90.7944 290.813 90.0602C290.362 89.6751 289.995 89.2021 289.735 88.6706C289.475 88.139 289.327 87.5601 289.301 86.9696V81.9579C289.296 81.3817 289.406 80.8104 289.624 80.2766C289.843 79.7428 290.165 79.257 290.572 78.8473C290.979 78.4375 291.464 78.1118 291.998 77.8888C292.533 77.6658 293.106 77.5498 293.685 77.5477C294.263 77.5455 294.836 77.6565 295.371 77.8744C295.906 78.0923 296.392 78.4129 296.802 78.8178C297.213 79.2226 297.539 79.7039 297.762 80.2341C297.985 80.7643 298.101 81.333 298.103 81.9078V86.9195C298.086 87.5132 297.945 88.097 297.691 88.6345C297.437 89.1719 297.074 89.6515 296.625 90.0435H296.558Z" fill="#F26522"/>
<path d="M292.761 97.2101C290.981 96.2078 289.166 95.2555 287.335 94.3534L286.781 94.0694L285.739 93.5515L285.017 93.2007L284.295 92.8332C284.805 92.3795 285.218 91.8269 285.507 91.2094C285.795 90.5919 285.955 89.9223 285.975 89.2415V84.9983C285.975 83.6691 285.444 82.3943 284.498 81.4544C283.553 80.5146 282.272 79.9866 280.935 79.9866C279.598 79.9866 278.316 80.5146 277.371 81.4544C276.426 82.3943 275.895 83.6691 275.895 84.9983V89.2248C275.909 89.9067 276.066 90.5782 276.355 91.1966C276.644 91.8149 277.06 92.3666 277.575 92.8165C277.575 92.8165 277.693 92.8165 277.743 92.8165C277.794 92.8165 273.543 94.888 269.797 96.9261C269.201 97.1833 268.688 97.601 268.317 98.1323C267.946 98.6635 267.731 99.2872 267.697 99.9331V100.986C267.694 101.115 267.729 101.243 267.798 101.353H269.041C269.11 101.243 269.145 101.115 269.142 100.986V99.9331C269.2 99.5694 269.349 99.2259 269.575 98.9341C269.801 98.6423 270.097 98.4114 270.436 98.2626C273.056 96.8593 275.699 95.495 278.365 94.1697L279.087 93.8021C279.658 94.0669 280.273 94.2255 280.901 94.2699H280.985C281.624 94.21 282.248 94.0464 282.833 93.7855L283.488 94.1029L284.278 94.5038L286.042 95.3725C287.503 96.0908 289.519 97.1266 291.938 98.463C292.252 98.6654 292.503 98.9508 292.664 99.2871C292.824 99.6235 292.887 99.9976 292.845 100.367H294.29C294.328 99.7552 294.207 99.1435 293.939 98.5908C293.672 98.0381 293.266 97.5627 292.761 97.2101ZM283.354 91.7306C282.712 92.3448 281.874 92.717 280.985 92.7831H280.901C280.034 92.7039 279.218 92.3394 278.583 91.7474C278.215 91.43 277.916 91.041 277.705 90.6042C277.494 90.1674 277.376 89.6922 277.357 89.2081V84.9815C277.352 84.5121 277.441 84.0463 277.618 83.6109C277.794 83.1755 278.055 82.7789 278.386 82.4438C278.717 82.1088 279.11 81.8417 279.545 81.658C279.979 81.4743 280.446 81.3775 280.918 81.3731C281.392 81.3687 281.861 81.4574 282.3 81.634C282.739 81.8107 283.139 82.0718 283.476 82.4024C283.813 82.7331 284.081 83.1267 284.265 83.5607C284.449 83.9947 284.544 84.4605 284.547 84.9314V89.2081C284.533 89.6924 284.421 90.169 284.216 90.6085C284.011 91.048 283.717 91.4412 283.354 91.764V91.7306Z" fill="#115934"/>
<path d="M294.357 100.368V101.119C294.381 101.218 294.381 101.321 294.357 101.42H267.731V100.368H294.357Z" fill="#115934"/>
<path d="M271.107 38.6736H245.355C242.358 38.6736 239.929 41.0894 239.929 44.0695V96.0241C239.929 99.0042 242.358 101.42 245.355 101.42H271.107C274.104 101.42 276.533 99.0042 276.533 96.0241V44.0695C276.533 41.0894 274.104 38.6736 271.107 38.6736Z" fill="#FBF7F4" stroke="#F26522" stroke-miterlimit="10"/>
<path d="M266.236 38.7404H250.932C250.109 38.7404 249.437 39.6592 249.437 40.7784C249.437 41.8977 250.109 42.8165 250.932 42.8165H266.236C267.059 42.8165 267.731 41.8977 267.731 40.7784C267.731 39.5923 267.059 38.7404 266.236 38.7404Z" fill="#FBF7F4" stroke="#F26522" stroke-miterlimit="10"/>
<path d="M261.952 40.0267H254.997C254.682 40.0267 254.426 40.2773 254.426 40.5864C254.426 40.8955 254.682 41.146 254.997 41.146H261.952C262.268 41.146 262.523 40.8955 262.523 40.5864C262.523 40.2773 262.268 40.0267 261.952 40.0267Z" fill="#115934"/>
<path d="M251.655 51.7374H246.564V56.7992H251.655V51.7374Z" fill="#115934"/>
<path d="M260.776 51.7374H255.686V56.7992H260.776V51.7374Z" fill="#115934"/>
<path d="M269.881 51.7374H264.791V56.7992H269.881V51.7374Z" fill="#115934"/>
<path d="M251.655 60.4911H246.564V65.5529H251.655V60.4911Z" fill="#115934"/>
<path d="M260.776 60.4911H255.686V65.5529H260.776V60.4911Z" fill="#115934"/>
<path d="M269.881 60.4911H264.791V65.5529H269.881V60.4911Z" fill="#115934"/>
<path d="M251.655 69.2281H246.564V74.29H251.655V69.2281Z" fill="#115934"/>
<path d="M260.776 69.2281H255.686V74.29H260.776V69.2281Z" fill="#115934"/>
<path d="M269.881 69.2281H264.791V74.29H269.881V69.2281Z" fill="#115934"/>
<path d="M236.048 78.9676C235.814 77.4644 235.768 75.9379 235.914 74.4236C235.968 73.4934 236.283 72.5968 236.821 71.8343C237.158 71.2259 237.723 70.7743 238.393 70.5773C239.063 70.3803 239.784 70.4537 240.399 70.7818C241.378 71.358 242.142 72.2352 242.575 73.2809C243.008 74.3266 243.088 75.4841 242.801 76.5787C242.365 77.0297 241.928 77.581 240.668 76.5787C239.408 75.5763 239.089 75.8436 239.089 75.8436L236.048 78.9676Z" fill="#FBF7F4" stroke="#115934" stroke-miterlimit="10"/>
<path d="M265.967 54.2934L266.807 55.3124L268.873 53.5416" stroke="#FBF7F4" stroke-width="0.5" stroke-miterlimit="10"/>
<path d="M267.546 79.9365H248.916V87.404H267.546V79.9365Z" fill="#F26522" stroke="#FBF7F4" stroke-miterlimit="10"/>
<path d="M254.026 82.1238V82.1683C254.029 82.3175 254.045 82.4226 254.074 82.4837C254.104 82.5439 254.167 82.574 254.263 82.574C254.358 82.574 254.421 82.5408 254.451 82.4745C254.469 82.4353 254.479 82.369 254.479 82.2756V80.9265H254.882V82.2691C254.882 82.4331 254.853 82.5631 254.797 82.6591C254.701 82.8213 254.527 82.9025 254.277 82.9025C254.027 82.9025 253.859 82.837 253.773 82.7062C253.688 82.5744 253.645 82.3952 253.645 82.1683V82.1238H254.026ZM255.892 82.5923C256.001 82.5923 256.085 82.5535 256.143 82.4759C256.202 82.3982 256.231 82.2879 256.231 82.1448C256.231 82.0017 256.202 81.8918 256.143 81.815C256.085 81.7374 256.001 81.6985 255.892 81.6985C255.783 81.6985 255.699 81.7374 255.639 81.815C255.581 81.8918 255.552 82.0017 255.552 82.1448C255.552 82.2879 255.581 82.3982 255.639 82.4759C255.699 82.5535 255.783 82.5923 255.892 82.5923ZM256.622 82.1448C256.622 82.3542 256.562 82.5334 256.442 82.6826C256.321 82.8309 256.138 82.9051 255.893 82.9051C255.648 82.9051 255.465 82.8309 255.345 82.6826C255.225 82.5334 255.164 82.3542 255.164 82.1448C255.164 81.9389 255.225 81.7605 255.345 81.6096C255.465 81.4586 255.648 81.3832 255.893 81.3832C256.138 81.3832 256.321 81.4586 256.442 81.6096C256.562 81.7605 256.622 81.9389 256.622 82.1448ZM257.274 81.2589H256.896V80.9147H257.274V81.2589ZM256.896 81.429H257.274V82.8553H256.896V81.429ZM258.427 81.395C258.574 81.395 258.694 81.4338 258.788 81.5114C258.882 81.5882 258.929 81.716 258.929 81.8948V82.8553H258.547V81.9877C258.547 81.9127 258.537 81.8551 258.517 81.815C258.48 81.7417 258.411 81.7051 258.308 81.7051C258.181 81.7051 258.094 81.7587 258.047 81.866C258.023 81.9228 258.011 81.9952 258.011 82.0833V82.8553H257.639V81.4316H257.999V81.6397C258.047 81.5664 258.092 81.5136 258.135 81.4813C258.212 81.4237 258.309 81.395 258.427 81.395Z" fill="#FAF6F3"/>
<path d="M135.457 130.855C135.457 130.855 137.859 139.208 135.457 142.382C133.055 145.556 87.3449 164.3 74.5274 161.126C51.7146 155.446 59.3244 133.378 79.8694 129.118C100.414 124.858 135.457 130.855 135.457 130.855Z" fill="#FBF7F4" stroke="#115934" stroke-miterlimit="10"/>
</g>
<defs>
<clipPath id="clip0_37_1986">
<rect width="319.178" height="200" fill="white" transform="translate(0.410889)"/>
</clipPath>
</defs>
</svg>
