<svg width="251" height="200" viewBox="0 0 251 200" fill="none" xmlns="http://www.w3.org/2000/svg">
<g clip-path="url(#clip0_37_2072)">
<g opacity="0.29">
<path opacity="0.59" d="M62.1199 69.5535C61.0846 69.5525 60.0648 69.8053 59.1492 70.2901C58.2542 69.0453 57.0807 68.0283 55.7229 67.3204C54.3651 66.6126 52.8609 66.2337 51.3308 66.2141C49.5423 66.2345 47.7936 66.7457 46.2743 67.6922C44.755 68.6387 43.5232 69.9844 42.7125 71.5833C41.9034 71.0811 40.9709 70.8147 40.0193 70.8139C38.5336 70.893 37.1347 71.5405 36.1109 72.6232C35.0871 73.7059 34.5164 75.1411 34.5164 76.6332C34.5164 78.1253 35.0871 79.5606 36.1109 80.6433C37.1347 81.7259 38.5336 82.3735 40.0193 82.4526C40.9062 82.4515 41.7778 82.2203 42.5493 81.7814C43.3313 83.4601 44.5708 84.8826 46.1247 85.8848C47.6785 86.887 49.4834 87.428 51.3308 87.4452C52.879 87.4266 54.4008 87.04 55.7713 86.3173C57.1417 85.5945 58.3217 84.5561 59.2145 83.2874C60.1108 83.7593 61.1077 84.0064 62.1199 84.0077C63.9718 83.9192 65.7187 83.1192 66.9982 81.7736C68.2776 80.4279 68.9914 78.64 68.9914 76.7806C68.9914 74.9212 68.2776 73.1333 66.9982 71.7876C65.7187 70.4419 63.9718 69.6419 62.1199 69.5535Z" fill="#F26522"/>
<path opacity="0.59" d="M188.929 55.4268C187.894 55.4257 186.874 55.6786 185.958 56.1634C185.063 54.9186 183.89 53.9015 182.532 53.1937C181.174 52.4859 179.67 52.107 178.14 52.0874C176.351 52.1078 174.603 52.619 173.083 53.5655C171.564 54.512 170.332 55.8577 169.522 57.4565C168.712 56.9543 167.78 56.6879 166.828 56.6872C165.343 56.7662 163.944 57.4139 162.92 58.4965C161.896 59.5792 161.325 61.0144 161.325 62.5065C161.325 63.9986 161.896 65.4339 162.92 66.5166C163.944 67.5992 165.343 68.2468 166.828 68.3259C167.715 68.3247 168.587 68.0935 169.358 67.6547C170.147 69.3241 171.39 70.7366 172.943 71.7297C174.497 72.7229 176.298 73.2565 178.14 73.2694C179.687 73.2561 181.208 72.8718 182.577 72.1485C183.946 71.4251 185.122 70.3838 186.007 69.1116C186.91 69.5811 187.912 69.828 188.929 69.8318C190.781 69.7434 192.528 68.9434 193.807 67.5978C195.087 66.2521 195.8 64.4641 195.8 62.6048C195.8 60.7454 195.087 58.9574 193.807 57.6118C192.528 56.2661 190.781 55.4661 188.929 55.3776V55.4268Z" fill="#F26522"/>
</g>
<path d="M64.4375 128.565L63.3113 200.051H6.31331L1.85726 199.478L1.10645 137.274L29.2627 98.3147L37.5545 98.7403L59.9325 128.434L63.9805 128.598L64.4375 128.565Z" fill="#F26522" stroke="#F26522" stroke-miterlimit="10"/>
<path d="M52.7344 199.478V200.1H57.8596V199.478H52.7344ZM27.353 199.478L28.3323 200.165H30.7807V199.478H27.353ZM25.7207 191.882V198.283H30.846V191.882H25.7207ZM32.5598 199.756V200.165H37.6851V199.756H32.5598ZM32.5598 191.931V198.332H37.6851V191.931H32.5598ZM45.9279 192.062V198.479H51.0532V192.062H45.9279ZM52.7344 192.062V198.463H57.8596V192.062H52.7344ZM46.0748 199.429V200.116H51.2001V199.478L46.0748 199.429ZM53.0772 168.229V174.629H58.2024V168.229H53.0772ZM46.2054 160.748V167.148H51.3306V160.748H46.2054ZM53.0119 160.748V167.148H58.1371V160.748H53.0119ZM46.3523 168.114V174.514H51.4775V168.114H46.3523ZM33.6371 167.967V174.367H38.7623V167.967H33.6371ZM26.7654 160.486V166.886H31.8906V160.486H26.7654ZM33.5718 160.486V166.903H38.6971V160.486H33.5718ZM26.9123 167.852V174.252H32.0375V167.852H26.9123ZM13.5605 167.77V174.171H18.6857V167.77H13.5605ZM6.68872 160.289V166.739H11.814V160.355L6.68872 160.289ZM13.4952 160.289V166.739H18.6204V160.338L13.4952 160.289ZM6.83562 167.656V174.056H11.9609V167.656H6.83562ZM26.4226 138.714V145.115H31.5478V138.911L26.4226 138.714ZM33.2127 138.714V145.115H38.3543V138.911L33.2127 138.714ZM41.5372 138.714V145.115H46.6624V138.911L41.5372 138.714ZM18.9306 138.714V145.115H24.0558V138.911L18.9306 138.714ZM26.4063 128.893V135.31H31.5315V129.089L26.4063 128.893ZM33.2127 128.893V135.293H38.338V129.089L33.2127 128.893ZM41.5208 128.893V135.293H46.6461V129.089L41.5208 128.893ZM18.9306 128.893V135.293H24.0558V129.089L18.9306 128.893Z" fill="#FAF6F3"/>
<g opacity="0.59">
<path d="M127.426 118.482L126.887 200.083H63.2461L63.9153 128.582V128.549L63.9316 126.879L64.0133 117.532L73.4803 112.654L73.5129 112.589L90.6678 82.3545L90.9779 70.2903H100.657L101.049 82.3545L117.371 113.195L117.616 113.325L123.411 116.37L124.733 117.074L124.765 117.09L127.41 118.465V118.482H127.426Z" fill="#FBF7F4" stroke="#F26522" stroke-miterlimit="10"/>
<path opacity="0.29" d="M97.4416 192.799V200.083H104.215V192.799H97.4416ZM88.8559 192.652V200.083H95.1891V192.652H88.8559ZM97.4252 166.28V174.563H104.183V166.28H97.4252ZM88.8233 166.133V174.563H95.1728V166.133H88.8233ZM97.5558 156.311V164.578H104.33V156.311H97.5558ZM74.1005 193.847V200.116H80.4499V193.847H74.1005ZM111.642 193.617V200.165H117.975V193.617H111.642ZM111.463 156.492V164.922H117.796V156.492H111.463ZM73.9209 156.115V164.545H80.254V156.115H73.9209ZM88.8559 156.115V164.545H95.1891V156.115H88.8559ZM97.1641 136.177V144.46H103.938V136.177H97.1641ZM88.5785 136.03V144.46H94.9116V136.03H88.5785ZM97.311 126.208V134.491H104.068V126.208H97.311ZM88.7254 126.061V134.491H95.0585V126.061H88.7254Z" fill="#F26522"/>
<path opacity="0.29" d="M77.5445 140.139C79.9874 140.139 81.9679 138.02 81.9679 135.408C81.9679 132.795 79.9874 130.677 77.5445 130.677C75.1015 130.677 73.1211 132.795 73.1211 135.408C73.1211 138.02 75.1015 140.139 77.5445 140.139Z" fill="#F26522"/>
<path opacity="0.29" d="M113.487 141.203C115.93 141.203 117.91 139.085 117.91 136.472C117.91 133.859 115.93 131.741 113.487 131.741C111.044 131.741 109.063 133.859 109.063 136.472C109.063 139.085 111.044 141.203 113.487 141.203Z" fill="#F26522"/>
<path opacity="0.29" d="M96.1521 115.093C100.362 115.093 103.775 111.451 103.775 106.958C103.775 102.465 100.362 98.8223 96.1521 98.8223C91.9423 98.8223 88.5295 102.465 88.5295 106.958C88.5295 111.451 91.9423 115.093 96.1521 115.093Z" fill="#F26522"/>
</g>
<path opacity="0.59" d="M192.83 98.4785C192.83 98.4785 206.361 75.4794 207.406 73.2368C208.451 70.9942 207.928 62.0729 207.928 62.0729H204.256C204.256 62.0729 207.39 52.5623 216.285 52.5623C225.181 52.5623 227.793 57.0311 228.837 59.2737C229.138 59.757 229.338 60.2955 229.428 60.8578C229.518 61.42 229.495 61.9945 229.36 62.5476H226.226V71.4853L241.389 98.3148H247.657L249.698 200.002C249.698 200.002 190.055 198.659 188.798 199.56C188.407 199.838 188.439 196.908 188.374 196.4C188.113 194.223 185.877 115.175 187.003 98.4948L192.814 98.3966L192.83 98.4785Z" fill="#F26522"/>
<path opacity="0.59" d="M232.151 180.489V191.669H239.463V180.489C239.463 180.489 235.807 174.334 232.151 180.489ZM214.653 180.145V191.293H221.982V180.113C221.982 180.113 218.309 174.007 214.653 180.145ZM197.156 179.818V190.998H204.484V179.834C204.484 179.834 200.828 173.663 197.156 179.834V179.818ZM231.678 152.874V164.054H239.006V152.874C239.006 152.874 235.35 146.735 231.678 152.874ZM214.213 152.547V163.71H221.525V152.547C221.525 152.547 217.869 146.392 214.213 152.547ZM196.715 152.203V163.465H204.044V152.285C204.044 152.285 200.387 146.064 196.715 152.203ZM196.715 123.36V134.524H204.044V123.36C204.044 123.36 200.387 117.205 196.715 123.36ZM231.89 122.46V133.623H239.202V122.541C239.202 122.541 235.546 116.305 231.89 122.541V122.46Z" fill="#FAF6F3"/>
<path opacity="0.59" d="M234.159 110.903C236.71 110.903 238.778 108.697 238.778 105.976C238.778 103.254 236.71 101.048 234.159 101.048C231.607 101.048 229.539 103.254 229.539 105.976C229.539 108.697 231.607 110.903 234.159 110.903Z" fill="#FAF6F3"/>
<path opacity="0.59" d="M201.154 110.15C203.706 110.15 205.774 107.944 205.774 105.223C205.774 102.501 203.706 100.295 201.154 100.295C198.603 100.295 196.535 102.501 196.535 105.223C196.535 107.944 198.603 110.15 201.154 110.15Z" fill="#FAF6F3"/>
<path opacity="0.59" d="M217.999 134.491C220.55 134.491 222.618 132.285 222.618 129.564C222.618 126.843 220.55 124.637 217.999 124.637C215.448 124.637 213.38 126.843 213.38 129.564C213.38 132.285 215.448 134.491 217.999 134.491Z" fill="#FAF6F3"/>
<path opacity="0.59" d="M217.656 88.5258C220.207 88.5258 222.276 86.3198 222.276 83.5986C222.276 80.8774 220.207 78.6714 217.656 78.6714C215.105 78.6714 213.037 80.8774 213.037 83.5986C213.037 86.3198 215.105 88.5258 217.656 88.5258Z" fill="#FAF6F3"/>
<path opacity="0.59" d="M209.985 102.014C210.003 100.749 210.433 99.5246 211.209 98.5276C211.913 97.5808 212.813 96.7979 213.847 96.2328C214.881 95.6677 216.025 95.3337 217.199 95.2537C218.922 95.2483 220.593 95.8452 221.925 96.9416C223.256 98.038 224.165 99.5655 224.496 101.261C224.936 103.962 224.838 117.631 224.838 117.631H209.805L209.887 113.587L209.985 102.014Z" fill="#FAF6F3"/>
<g opacity="0.59">
<path d="M188.243 199.691C187.182 199.691 184.75 199.854 181.404 200.083H125.255C124.782 187.135 123.966 161.746 123.966 161.746L123.411 118.907L123.721 118.482L124.733 117.074L127.246 113.587L151.551 79.981L159.842 80.4066L181.404 108.922L181.665 109.266L182.269 110.084L186.725 110.264H186.856L188.113 189.427L188.243 199.691Z" fill="#FAF6F3"/>
<path d="M123.411 118.891L151.583 81.0777L154.701 81.2086L158.259 81.4378L160.218 81.6506L182.237 110.052L186.807 110.248V108.611L182.4 108.431L161.311 80.8812L161.458 70.2248L151.24 69.6682L150.849 80.5702L123.427 113.473V118.957L123.411 118.891Z" fill="#F26522"/>
<path opacity="0.23" d="M175.642 182.519V188.936H180.768V182.519H175.642ZM168.771 175.055V181.471H173.896V175.071L168.771 175.055ZM175.577 175.055V181.471H180.702V175.071L175.577 175.055ZM168.918 182.421V188.821H174.043V182.421H168.918ZM156.202 182.257V188.674H161.328V182.257H156.202ZM149.331 174.924V181.324H154.456V174.924H149.331ZM156.137 174.924V181.324H161.262V174.924H156.137ZM149.477 182.29V188.69H154.603V182.29H149.477ZM136.126 182.192V188.592H141.251V182.192H136.126ZM129.254 174.711V181.128H134.379V174.711H129.254ZM136.06 174.711V181.128H141.186V174.711H136.06ZM129.401 182.093V188.494H134.526V182.093H129.401ZM175.495 154.429V160.83H180.621V154.429H175.495ZM168.624 146.948V153.349H173.749V146.948H168.624ZM175.43 146.948V153.349H180.555V147.096L175.43 146.948ZM168.771 154.315V160.715H173.896V154.315H168.771ZM156.055 154.167V160.568H161.181V154.167H156.055ZM149.184 146.686V153.087H154.309V146.686H149.184ZM155.99 146.686V153.087H161.115V146.686H155.99ZM149.331 154.053V160.453H154.456V154.053H149.331ZM135.979 153.971V160.371H141.104V153.971H135.979ZM129.172 146.605V153.005H134.298V146.605H129.172ZM135.979 146.605V153.005H141.104V146.605H135.979ZM129.319 153.971V160.371H134.445V153.971H129.319ZM148.906 120.43V126.83H154.031V120.43H148.906ZM155.696 120.43V126.83H160.838V120.43H155.696ZM164.021 120.43V126.83H169.146V120.43H164.021ZM141.414 120.43V126.847H146.539V120.43H141.414ZM148.89 110.608V117.009H154.015V110.608H148.89ZM155.696 110.608V117.009H160.822V110.608H155.696ZM164.004 110.608V117.009H169.13V110.755L164.004 110.608ZM141.398 110.608V117.025H146.523V110.608H141.398Z" fill="#F26522"/>
</g>
<path d="M250.905 158.186H249.681H239.643H234.093H234.077H216.449H212.972H199.179H198.461H181.404H165.996H165.8H159.189H155.664H155.598H134.347H126.887H125.565H125.255H125.239H125.19H118.857H118.041H111.707H104.215H97.4416H95.1891H88.856H87.7297H80.4499H74.1005H63.3113H63.246H57.8596H52.7344H51.1348H46.0095H37.6524H32.5272H30.7807H28.3323H6.31334H0.0944824" stroke="#115934" stroke-miterlimit="10"/>
<path d="M159.81 200.083H124.194L126.463 175.054L124.194 200.083H91.7288L91.8104 199.805L109.651 139.091H152.546L152.954 142.561L159.81 200.083Z" fill="#FBF7F4" stroke="#115934" stroke-miterlimit="10"/>
<path d="M155.892 167.066C155.892 167.066 159.94 177.215 163.335 180.62C166.73 184.025 168.444 182.175 170.305 177.215C172.166 172.255 166.779 163.58 166.779 163.58L155.892 167.066Z" fill="#FBF7F4" stroke="#115934" stroke-miterlimit="10"/>
<path d="M88.3663 142.578C88.3663 142.578 81.7231 151.253 80.5479 155.919C79.3726 160.584 81.8373 161.124 87.0768 160.191C92.3163 159.258 96.9682 150.206 96.9682 150.206L88.3663 142.578Z" fill="#FBF7F4" stroke="#115934" stroke-miterlimit="10"/>
<path d="M150.832 53.2988C150.832 53.2988 149.494 36.6347 149.494 32.3623C149.494 28.0899 140.321 22.8353 139.994 18.8248C139.668 14.8143 120.407 8.41382 120.407 8.41382C120.407 8.41382 123.166 10.0508 121.517 16.3366C119.575 23.621 119.885 35.2924 128.666 39.4502C135.195 42.5277 131.931 57.7676 131.931 57.7676L150.832 53.2988Z" fill="#FBF7F4" stroke="#115934" stroke-miterlimit="10"/>
<path d="M155.892 167.066H157.982L166.779 163.58C166.779 163.58 167.742 148.094 165.147 110.33C162.552 72.5657 150.734 52.2349 150.734 52.2349C149.853 52.2349 145.674 52.415 141.055 52.8733C136.86 53.3153 134.298 52.6769 128.324 60.9762C122.839 68.6043 117.159 77.0509 117.159 84.4499C117.159 88.9351 116.604 88.8533 115.641 102.702C115.641 103.897 89.1825 141.645 88.4316 142.578C84.9713 146.948 92.9366 147.358 96.9846 150.206C99.5309 152.006 109.634 139.091 109.634 139.091L108.835 141.808L103.938 158.652L154.538 155.068L155.892 167.066Z" fill="#FBF7F4" stroke="#115934" stroke-miterlimit="10"/>
<path opacity="0.29" d="M115.054 120.904C114.858 127.37 114.074 127.747 112.344 133.231C110.614 138.714 109.635 139.14 109.635 139.14L115.054 110.379C115.054 110.379 115.233 114.357 115.054 120.904Z" fill="#F26522"/>
<path d="M161.197 10.7057C152.383 -5.33633 153.656 6.18776 144.793 1.89897C141.251 0.262031 139.243 -0.785625 133.286 0.785839C125.435 2.89749 123.035 2.16087 118.073 1.60431C103.905 -0.0326314 115.494 11.868 117.388 14.618C119.281 17.3681 132.437 23.3265 134.314 23.3265C136.191 23.3265 139.684 22.197 141.578 23.3265C143.471 24.456 149.739 43.1172 149.739 44.9505C149.739 46.7839 150.441 32.9845 150.441 32.9845C150.441 32.9845 166.551 20.4782 161.197 10.7057Z" fill="#115934"/>
<path d="M144.679 81.9944C144.679 81.9944 156.986 139.025 154.472 154.969L144.679 81.9944Z" fill="#FBF7F4"/>
<path d="M144.679 81.9944C144.679 81.9944 156.986 139.025 154.472 154.969" stroke="#115934" stroke-miterlimit="10"/>
<path d="M115.641 102.702C116.829 115.164 114.742 127.722 109.585 139.124L115.641 102.702Z" fill="#FBF7F4"/>
<path d="M115.641 102.702C116.829 115.164 114.742 127.722 109.585 139.124" stroke="#115934" stroke-miterlimit="10"/>
<path d="M123.231 26.2075C123.7 26.2075 124.08 25.6945 124.08 25.0616C124.08 24.4288 123.7 23.9158 123.231 23.9158C122.762 23.9158 122.382 24.4288 122.382 25.0616C122.382 25.6945 122.762 26.2075 123.231 26.2075Z" fill="#115934"/>
<path d="M120.309 27.5007C120.309 27.5007 117.045 30.7746 120.979 31.2821L120.309 27.5007Z" fill="#115934"/>
<path d="M123.296 34.6704C123.296 34.6704 126.169 36.8639 128.356 34.6704H123.296Z" fill="#FBF7F4"/>
<path d="M123.296 34.6704C123.296 34.6704 126.169 36.8639 128.356 34.6704" stroke="#115934" stroke-miterlimit="10"/>
</g>
<defs>
<clipPath id="clip0_37_2072">
<rect width="250.811" height="200" fill="white" transform="translate(0.0944824)"/>
</clipPath>
</defs>
</svg>
