<svg width="258" height="200" viewBox="0 0 258 200" fill="none" xmlns="http://www.w3.org/2000/svg">
<g clip-path="url(#clip0_37_1949)">
<path opacity="0.25" d="M218.808 193.211C239.697 193.211 256.631 176.243 256.631 155.311C256.631 134.379 239.697 117.411 218.808 117.411C197.92 117.411 180.986 134.379 180.986 155.311C180.986 176.243 197.92 193.211 218.808 193.211Z" fill="#F26522"/>
<path d="M232.342 192.857H121.669V112.739L176.997 73.6243L232.342 112.739V192.857Z" fill="#FBF7F4" stroke="#115934" stroke-miterlimit="10"/>
<path d="M246.127 108.151L181.104 63.892C179.889 63.0595 178.452 62.614 176.98 62.614C175.509 62.614 174.071 63.0595 172.856 63.892L107.867 108.151C106.258 109.249 105.149 110.941 104.783 112.857C104.417 114.773 104.824 116.756 105.914 118.372C106.457 119.171 107.151 119.855 107.957 120.385C108.764 120.915 109.666 121.28 110.614 121.46C111.561 121.64 112.534 121.631 113.478 121.434C114.422 121.237 115.318 120.856 116.115 120.312L172.873 81.6697C174.088 80.8372 175.525 80.3918 176.997 80.3918C178.469 80.3918 179.906 80.8372 181.121 81.6697L237.879 120.312C238.676 120.856 239.572 121.237 240.516 121.434C241.46 121.631 242.433 121.64 243.381 121.46C244.328 121.28 245.231 120.915 246.037 120.385C246.843 119.855 247.537 119.171 248.08 118.372C249.17 116.756 249.577 114.773 249.211 112.857C248.845 110.941 247.736 109.249 246.127 108.151Z" fill="#FBF7F4" stroke="#115934" stroke-miterlimit="10"/>
<path d="M140.353 129.15H172.604C172.802 129.146 172.994 129.219 173.139 129.355C173.284 129.49 173.37 129.677 173.378 129.875V192.823H139.596V129.875C139.596 129.674 139.676 129.481 139.818 129.339C139.96 129.196 140.153 129.116 140.353 129.116V129.15Z" fill="#FBF7F4" stroke="#115934" stroke-miterlimit="10"/>
<path d="M167.386 157.959H165.316C164.405 157.959 163.666 158.699 163.666 159.612V161.687C163.666 162.599 164.405 163.34 165.316 163.34H167.386C168.297 163.34 169.035 162.599 169.035 161.687V159.612C169.035 158.699 168.297 157.959 167.386 157.959Z" fill="#FBF7F4" stroke="#115934" stroke-miterlimit="10"/>
<path d="M178.394 135.121H134.63L137.357 128.644C137.589 128.089 137.98 127.615 138.48 127.282C138.98 126.949 139.568 126.772 140.168 126.772H172.924C173.526 126.775 174.114 126.954 174.616 127.286C175.118 127.619 175.513 128.091 175.752 128.644L178.394 135.121Z" fill="#115934"/>
<path d="M240.674 192.688H113.304V199.975H240.674V192.688Z" fill="#FBF7F4" stroke="#115934" stroke-miterlimit="10"/>
<path d="M218.808 142.829H187.736V171.402H218.808V142.829Z" fill="#FBF7F4" stroke="#115934" stroke-miterlimit="10"/>
<path d="M203.272 142.829H187.736V157.116H203.272V142.829Z" fill="#FBF7F4" stroke="#115934" stroke-miterlimit="10"/>
<path d="M218.808 157.116H203.272V171.402H218.808V157.116Z" fill="#FBF7F4" stroke="#115934" stroke-miterlimit="10"/>
<path opacity="0.25" d="M177.67 110.428C181.51 110.428 184.622 107.309 184.622 103.462C184.622 99.6147 181.51 96.4958 177.67 96.4958C173.831 96.4958 170.719 99.6147 170.719 103.462C170.719 107.309 173.831 110.428 177.67 110.428Z" fill="#F26522" stroke="#FBF7F4" stroke-miterlimit="10"/>
<path d="M196.085 11.5201C193.947 5.24558 189.218 -0.286785 179.169 0.0168199C169.12 0.320425 164.02 5.98772 161.646 12.0598C160.312 15.6006 159.797 19.3988 160.141 23.168C160.485 26.9371 161.679 30.5787 163.632 33.8182L178.344 58.8825L191.709 35.2687C194.974 28.6232 198.879 19.65 196.085 11.5201ZM178.529 27.1726C176.888 27.1726 175.283 26.6849 173.919 25.7712C172.554 24.8575 171.49 23.5588 170.862 22.0394C170.234 20.5199 170.07 18.848 170.39 17.2349C170.71 15.6219 171.501 14.1402 172.661 12.9773C173.822 11.8144 175.3 11.0224 176.91 10.7016C178.52 10.3807 180.188 10.5454 181.705 11.1748C183.221 11.8041 184.517 12.87 185.429 14.2374C186.341 15.6049 186.827 17.2126 186.827 18.8572C186.823 21.0597 185.947 23.1704 184.391 24.7262C182.835 26.282 180.727 27.1557 178.529 27.1557V27.1726Z" fill="#F26522"/>
<path d="M240.808 127.059C249.835 127.059 257.152 119.726 257.152 110.681C257.152 101.636 249.835 94.303 240.808 94.303C231.782 94.303 224.464 101.636 224.464 110.681C224.464 119.726 231.782 127.059 240.808 127.059Z" fill="#FBF7F4" stroke="#115934" stroke-miterlimit="10"/>
<path d="M234.765 111.76L238.25 115.505L246.851 106.869" fill="#FBF7F4"/>
<path d="M234.765 111.76L238.25 115.505L246.851 106.869" stroke="#F26522" stroke-miterlimit="10"/>
<path d="M34.0576 41.7119H94.0815C97.5583 41.8394 100.843 43.3445 103.213 45.8967C105.583 48.4488 106.845 51.8394 106.723 55.3235V186.363C106.841 189.846 105.577 193.234 103.208 195.785C100.838 198.336 97.5568 199.843 94.0815 199.974H34.0576C30.5823 199.843 27.3008 198.336 24.9315 195.785C22.5622 193.234 21.2984 189.846 21.4166 186.363V55.3235C21.2939 51.8394 22.5562 48.4488 24.9264 45.8967C27.2966 43.3445 30.5808 41.8394 34.0576 41.7119Z" fill="#FBF7F4" stroke="#F26522" stroke-miterlimit="10"/>
<path d="M45.4025 41.7119H81.1037C83.0058 41.7119 84.5712 44.0058 84.5712 46.772C84.5712 49.6056 83.0058 51.8321 81.1037 51.8321H45.4025C43.4836 51.8321 41.9351 49.5382 41.9351 46.772C41.9351 44.0058 43.4836 41.7119 45.4025 41.7119Z" fill="#FBF7F4" stroke="#F26522" stroke-miterlimit="10"/>
<path d="M55.384 45.1528H71.6271C71.8062 45.1594 71.9822 45.2012 72.1452 45.2759C72.3081 45.3507 72.4547 45.4569 72.5767 45.5885C72.6986 45.7201 72.7935 45.8745 72.8558 46.0428C72.9181 46.2112 72.9468 46.3902 72.94 46.5696C72.9468 46.7491 72.9181 46.9281 72.8558 47.0965C72.7935 47.2648 72.6986 47.4192 72.5767 47.5508C72.4547 47.6824 72.3081 47.7886 72.1452 47.8633C71.9822 47.9381 71.8062 47.9799 71.6271 47.9865H55.384C55.2049 47.9799 55.0288 47.9381 54.8659 47.8633C54.703 47.7886 54.5563 47.6824 54.4344 47.5508C54.3124 47.4192 54.2176 47.2648 54.1552 47.0965C54.0929 46.9281 54.0643 46.7491 54.071 46.5696C54.0643 46.3902 54.0929 46.2112 54.1552 46.0428C54.2176 45.8745 54.3124 45.7201 54.4344 45.5885C54.5563 45.4569 54.703 45.3507 54.8659 45.2759C55.0288 45.2012 55.2049 45.1594 55.384 45.1528Z" fill="#115934"/>
<path d="M27.1562 76.2554C41.6862 76.2554 53.4651 64.4522 53.4651 49.8923C53.4651 35.3324 41.6862 23.5293 27.1562 23.5293C12.6263 23.5293 0.847412 35.3324 0.847412 49.8923C0.847412 64.4522 12.6263 76.2554 27.1562 76.2554Z" fill="#FBF7F4" stroke="#F26522" stroke-miterlimit="10"/>
<path d="M27.6613 31.187C26.795 31.1871 25.9482 31.4447 25.2281 31.9273C24.5081 32.4099 23.9472 33.0959 23.6164 33.8982C23.2857 34.7005 23.2 35.5831 23.3702 36.4342C23.5405 37.2854 23.959 38.0667 24.5727 38.6794C25.1864 39.292 25.9678 39.7083 26.8179 39.8756C27.6679 40.0429 28.5483 39.9537 29.3477 39.6192C30.1471 39.2847 30.8294 38.72 31.3083 37.9966C31.7871 37.2732 32.041 36.4237 32.0377 35.5556C32.0377 34.9805 31.9243 34.411 31.7042 33.8799C31.484 33.3488 31.1614 32.8665 30.7548 32.4606C30.3482 32.0547 29.8657 31.7333 29.3348 31.5147C28.8039 31.2962 28.2352 31.1848 27.6613 31.187ZM27.6613 37.9338C27.1945 37.9372 26.7372 37.8015 26.3475 37.5441C25.9577 37.2867 25.6531 36.9191 25.4722 36.4879C25.2912 36.0567 25.2421 35.5814 25.3312 35.1222C25.4202 34.6631 25.6433 34.2407 25.9722 33.9088C26.3011 33.5768 26.7209 33.3503 27.1785 33.2578C27.636 33.1653 28.1107 33.2111 28.5423 33.3893C28.9739 33.5675 29.3429 33.8701 29.6026 34.2588C29.8623 34.6475 30.001 35.1047 30.001 35.5725C29.9972 36.1787 29.7609 36.7602 29.341 37.1966C28.9211 37.6331 28.3498 37.891 27.7454 37.917L27.6613 37.9338Z" fill="#F26522"/>
<path d="M27.0722 66.1185C29.4521 66.1185 31.3813 64.1853 31.3813 61.8006C31.3813 59.4159 29.4521 57.4827 27.0722 57.4827C24.6924 57.4827 22.7632 59.4159 22.7632 61.8006C22.7632 64.1853 24.6924 66.1185 27.0722 66.1185Z" fill="#F26522" stroke="#FBF7F4" stroke-miterlimit="10"/>
<path d="M39.9489 54.0586C38.6532 52.9499 37.6623 51.5273 37.0706 49.9262C36.5442 46.7842 35.836 43.6754 34.9497 40.6157C34.4748 38.8942 33.4496 37.3764 32.0313 36.2948C30.613 35.2131 28.8798 34.6274 27.0975 34.6274C25.3152 34.6274 23.582 35.2131 22.1637 36.2948C20.7454 37.3764 19.7202 38.8942 19.2452 40.6157C18.3844 43.6843 17.6932 46.7982 17.1748 49.9431C16.5917 51.5491 15.6064 52.9779 14.3134 54.0924C13.3764 55.0942 12.7862 56.3716 12.6302 57.7356C12.5854 58.0627 12.6091 58.3954 12.6997 58.7128C12.7903 59.0302 12.9458 59.3252 13.1564 59.579C13.367 59.8329 13.628 60.04 13.9228 60.1873C14.2176 60.3345 14.5398 60.4186 14.8688 60.4343C18.9422 60.6536 23.083 60.6536 27.1732 60.6368C31.2635 60.6199 35.4379 60.6367 39.4608 60.3837C39.7906 60.3658 40.1131 60.2795 40.4079 60.1305C40.7028 59.9814 40.9637 59.7727 41.174 59.5176C41.3844 59.2624 41.5396 58.9663 41.6301 58.648C41.7205 58.3297 41.7442 57.9961 41.6995 57.6682C41.5298 56.313 40.9412 55.045 40.0162 54.0418L39.9489 54.0586Z" fill="#F26522"/>
<path d="M14.8183 53.6032L14.3134 54.126C13.3764 55.1278 12.7862 56.4053 12.6302 57.7693C12.5854 58.0963 12.6091 58.4291 12.6997 58.7465C12.7903 59.0639 12.9458 59.3589 13.1564 59.6127C13.367 59.8666 13.628 60.0737 13.9228 60.221C14.2176 60.3682 14.5398 60.4524 14.8688 60.468C18.9422 60.6873 23.083 60.6873 27.1732 60.6704C31.2635 60.6536 35.4547 60.6704 39.4608 60.4174C39.7906 60.3995 40.1131 60.3133 40.4079 60.1642C40.7028 60.0151 40.9637 59.8064 41.174 59.5512C41.3844 59.2961 41.5396 59 41.6301 58.6817C41.7205 58.3634 41.7442 58.0297 41.6995 57.7018C41.5298 56.3466 40.9412 55.0786 40.0162 54.0754L39.5281 53.5695C34.8992 53.4345 29.5971 53.3164 26.9376 53.3164C24.2781 53.3164 19.3631 53.4682 14.8857 53.6201L14.8183 53.6032Z" fill="#F26522" stroke="#FBF7F4" stroke-miterlimit="10"/>
<path d="M23.1838 69.9135L24.5977 67.822" stroke="#F26522" stroke-miterlimit="10"/>
<path d="M27.1564 70.9762L27.0049 68.345" stroke="#F26522" stroke-miterlimit="10"/>
<path d="M30.7247 69.8967L29.2603 67.7883" stroke="#F26522" stroke-miterlimit="10"/>
<path d="M10.3745 199.958H83.1909H121.838H121.871H122.208H131.264H153.179H153.247H156.883H166.09H176.896H222.242H239.866H251.463" stroke="#115934" stroke-miterlimit="10"/>
<path opacity="0.25" d="M86.4395 92.802H40.0666C38.8395 92.802 37.8447 93.7988 37.8447 95.0284C37.8447 96.2581 38.8395 97.2549 40.0666 97.2549H86.4395C87.6666 97.2549 88.6613 96.2581 88.6613 95.0284C88.6613 93.7988 87.6666 92.802 86.4395 92.802Z" fill="#F26522"/>
<path opacity="0.25" d="M86.4395 104.643H40.0666C38.8395 104.643 37.8447 105.639 37.8447 106.869C37.8447 108.099 38.8395 109.095 40.0666 109.095H86.4395C87.6666 109.095 88.6613 108.099 88.6613 106.869C88.6613 105.639 87.6666 104.643 86.4395 104.643Z" fill="#F26522"/>
<path opacity="0.25" d="M86.4395 116.483H40.0666C38.8395 116.483 37.8447 117.48 37.8447 118.71C37.8447 119.939 38.8395 120.936 40.0666 120.936H86.4395C87.6666 120.936 88.6613 119.939 88.6613 118.71C88.6613 117.48 87.6666 116.483 86.4395 116.483Z" fill="#F26522"/>
<path opacity="0.25" d="M86.4395 128.324H40.0666C38.8395 128.324 37.8447 129.321 37.8447 130.55C37.8447 131.78 38.8395 132.777 40.0666 132.777H86.4395C87.6666 132.777 88.6613 131.78 88.6613 130.55C88.6613 129.321 87.6666 128.324 86.4395 128.324Z" fill="#F26522"/>
</g>
<defs>
<clipPath id="clip0_37_1949">
<rect width="257.988" height="200" fill="white" transform="translate(0.00585938)"/>
</clipPath>
</defs>
</svg>
