<svg width="207" height="53" viewBox="0 0 207 53" fill="none" xmlns="http://www.w3.org/2000/svg">
<path d="M177.319 47.9602C176.849 47.8774 176.491 47.6608 176.245 47.3103C175.999 46.9599 175.917 46.5507 175.999 46.0828L177.282 38.8091C177.357 38.3837 177.57 38.0485 177.921 37.8035C178.28 37.5159 178.694 37.4135 179.164 37.4963L187.36 38.9415C187.83 39.0243 188.184 39.2622 188.423 39.6552C188.712 40.0131 188.819 40.4048 188.744 40.8302L187.461 48.1039C187.379 48.5718 187.141 48.9245 186.747 49.162C186.395 49.4071 185.985 49.4882 185.515 49.4054L177.319 47.9602Z" fill="#F26522"/>
<path d="M179.576 34.411C179.234 34.3508 178.954 34.1918 178.736 33.9339C178.525 33.6336 178.449 33.3132 178.509 32.9729C178.554 32.7177 178.595 32.4838 178.633 32.2711C178.678 32.0159 178.723 31.7607 178.768 31.5054C179.286 30.0618 180.014 28.8085 180.949 27.7455C181.935 26.6474 183.009 25.6745 184.171 24.8267C185.376 23.9865 186.526 23.2026 187.623 22.4749C188.719 21.7473 189.663 21.0145 190.453 20.2767C191.294 19.5039 191.814 18.6746 192.014 17.7889C192.265 16.8681 192.211 16.0473 191.854 15.3265C191.54 14.6132 191.007 14.0149 190.256 13.5315C189.548 13.0558 188.745 12.7388 187.849 12.5808C186.141 12.2797 184.725 12.4467 183.601 13.0817C182.477 13.7168 181.562 14.7836 180.858 16.2822C180.605 16.72 180.302 17.0614 179.951 17.3065C179.607 17.509 179.158 17.5613 178.603 17.4635L170.791 16.086C170.364 16.0107 170.027 15.7979 169.781 15.4474C169.542 15.0544 169.468 14.6027 169.558 14.0923C169.9 12.3984 170.598 10.811 171.652 9.33008C172.748 7.85672 174.159 6.59245 175.886 5.53728C177.663 4.4471 179.75 3.71865 182.147 3.35194C184.552 2.9427 187.228 2.99776 190.173 3.51714C193.375 4.08168 195.976 4.93496 197.975 6.07697C199.974 7.21898 201.463 8.51215 202.441 9.95646C203.461 11.4083 204.104 12.8812 204.369 14.3753C204.641 15.8267 204.629 17.1405 204.334 18.3164C204.021 19.8402 203.479 21.1699 202.706 22.3056C201.934 23.4413 201.027 24.4656 199.986 25.3785C198.994 26.2563 197.943 27.1016 196.831 27.9144C195.77 28.6921 194.769 29.5024 193.828 30.3452C192.894 31.1455 192.142 32.0435 191.57 33.0392C191.432 33.3219 191.294 33.6046 191.157 33.8873C191.026 34.1274 190.913 34.3926 190.818 34.6829C190.422 35.1831 190.069 35.5596 189.761 35.8122C189.46 36.0222 189.053 36.0821 188.541 35.9918L179.576 34.411Z" fill="#115934"/>
<path d="M9.50904 48.8432C8.78575 48.8432 8.21138 48.6305 7.78592 48.2051C7.36046 47.7796 7.10519 47.2903 7.02009 46.7372L0.0638192 5.95685C0.021273 5.87176 0 5.78667 0 5.70158C0 5.61649 0 5.55267 0 5.51012C0 5.16975 0.127638 4.87193 0.382914 4.61666C0.680736 4.31883 0.999831 4.16992 1.3402 4.16992H9.25376C10.445 4.16992 11.1045 4.63793 11.2321 5.57394L15.3804 30.5272L19.9754 15.785C20.103 15.4446 20.3157 15.083 20.6135 14.7001C20.9114 14.2746 21.4006 14.0619 22.0814 14.0619H26.6764C27.3996 14.0619 27.9102 14.2746 28.208 14.7001C28.5058 15.083 28.6973 15.4446 28.7824 15.785L33.3774 30.4634L37.5256 5.57394C37.6532 4.63793 38.3127 4.16992 39.504 4.16992H47.4175C47.8004 4.16992 48.1195 4.31883 48.3748 4.61666C48.6301 4.87193 48.7577 5.16975 48.7577 5.51012C48.7577 5.55267 48.7577 5.61649 48.7577 5.70158C48.7577 5.78667 48.7577 5.87176 48.7577 5.95685L41.8015 46.7372C41.7164 47.2903 41.4611 47.7796 41.0356 48.2051C40.6102 48.6305 40.0358 48.8432 39.3125 48.8432H33.2497C32.5264 48.8432 31.9733 48.6518 31.5904 48.2689C31.2075 47.886 30.9522 47.5243 30.8246 47.1839L24.3789 28.9317L17.9331 47.1839C17.8055 47.5243 17.5502 47.886 17.1673 48.2689C16.8269 48.6518 16.2951 48.8432 15.5718 48.8432H9.50904Z" fill="#F26522"/>
<path d="M73.7998 49.2252C70.2802 49.8458 67.2056 49.8047 64.576 49.1019C61.9882 48.3918 59.8602 47.1037 58.1919 45.2378C56.5581 43.3225 55.3989 40.9132 54.7141 38.0098C54.5244 37.1792 54.3373 36.2401 54.1526 35.1926C53.9605 34.1032 53.8152 33.1568 53.7167 32.3533C53.3598 29.3489 53.667 26.681 54.6384 24.3496C55.6098 22.0182 57.1898 20.0763 59.3786 18.5239C61.6094 16.9641 64.4216 15.885 67.8155 15.2865C71.2513 14.6807 74.263 14.7329 76.8508 15.4431C79.4805 16.1458 81.6504 17.4265 83.3606 19.2851C85.0708 21.1436 86.2719 23.5456 86.9641 26.4909C87.1464 27.2796 87.3335 28.2187 87.5256 29.308C87.7103 30.3555 87.8556 31.302 87.9615 32.1474C88.311 35.1099 88.0248 37.7741 87.1027 40.14C86.2151 42.4566 84.6559 44.3948 82.4252 45.9546C80.2364 47.5071 77.3613 48.5972 73.7998 49.2252ZM72.4478 41.5576C74.3333 41.2251 75.5953 40.4194 76.2338 39.1403C76.9142 37.8539 77.1178 36.0683 76.8445 33.7836C76.7756 33.1477 76.6488 32.306 76.4641 31.2585C76.2794 30.211 76.1107 29.3767 75.958 28.7556C75.4407 26.5571 74.6424 24.9697 73.563 23.9936C72.5182 22.9682 71.053 22.6217 69.1675 22.9542C67.3239 23.2792 66.0656 24.1059 65.3926 25.4343C64.7122 26.7207 64.5259 28.4817 64.8336 30.7171C64.9025 31.353 65.0294 32.1947 65.2141 33.2422C65.3988 34.2897 65.5675 35.124 65.7202 35.7451C66.2029 37.9929 66.984 39.6049 68.0634 40.581C69.1427 41.5571 70.6042 41.8827 72.4478 41.5576Z" fill="#F26522"/>
<path d="M95.7923 48.8431C95.3242 48.8431 94.9413 48.6942 94.6435 48.3964C94.3457 48.0986 94.1968 47.7157 94.1968 47.2476V17.2527C94.1968 16.8272 94.3457 16.4656 94.6435 16.1678C94.9413 15.8274 95.3242 15.6572 95.7923 15.6572H103.131C103.599 15.6572 103.982 15.8274 104.28 16.1678C104.578 16.4656 104.727 16.8272 104.727 17.2527V19.8055C105.876 18.4865 107.237 17.4654 108.811 16.7422C110.428 16.0189 112.236 15.6572 114.236 15.6572H117.044C117.469 15.6572 117.831 15.8061 118.129 16.104C118.469 16.4018 118.639 16.7847 118.639 17.2527V23.8261C118.639 24.2515 118.469 24.6344 118.129 24.9748C117.831 25.2726 117.469 25.4215 117.044 25.4215H110.854C109.109 25.4215 107.748 25.9108 106.769 26.8894C105.833 27.8254 105.365 29.1656 105.365 30.91V47.2476C105.365 47.7157 105.195 48.0986 104.855 48.3964C104.557 48.6942 104.174 48.8431 103.706 48.8431H95.7923Z" fill="#F26522"/>
<path d="M121.602 45.9002C121.141 45.8189 120.79 45.6058 120.548 45.2607C120.307 44.9157 120.226 44.5128 120.308 44.0519L127.622 2.57124C127.703 2.11034 127.916 1.7591 128.261 1.51752C128.606 1.27594 129.009 1.19578 129.47 1.27705L136.761 2.56257C137.18 2.63645 137.51 2.8459 137.752 3.19091C138.035 3.54331 138.136 3.94996 138.055 4.41086L134.342 25.4654L144.774 17.3899C145.077 17.1409 145.394 16.9375 145.724 16.7797C146.054 16.622 146.492 16.5911 147.036 16.6871L155.458 18.1721C155.835 18.2386 156.124 18.4407 156.323 18.7783C156.572 19.0814 156.664 19.4215 156.597 19.7986C156.568 19.9662 156.492 20.1474 156.372 20.3421C156.251 20.5368 156.096 20.6823 155.906 20.7784L142.443 30.9764L152.568 48.8978C152.844 49.2921 152.952 49.6568 152.893 49.992C152.827 50.3691 152.621 50.6785 152.276 50.92C151.98 51.1271 151.623 51.1937 151.204 51.1198L142.594 49.6016C141.965 49.4908 141.523 49.3047 141.266 49.0435C141.017 48.7404 140.789 48.441 140.582 48.1453L132.758 34.4529L130.741 45.8915C130.659 46.3524 130.425 46.6999 130.038 46.9341C129.693 47.1757 129.311 47.2596 128.892 47.1857L121.602 45.9002Z" fill="#F26522"/>
</svg>
