<svg width="247" height="200" viewBox="0 0 247 200" fill="none" xmlns="http://www.w3.org/2000/svg">
<g clip-path="url(#clip0_37_1852)">
<path d="M0.166748 199.743H76.9634H85.0938H111.115H117.315H118.106H121.396H121.444H121.76H123.2H130.27H154.171H162.998H243.227" stroke="#115934" stroke-miterlimit="10"/>
<path opacity="0.25" d="M55.9728 132.288C75.6028 132.288 91.516 116.4 91.516 96.7998C91.516 77.2 75.6028 61.3113 55.9728 61.3113C36.3429 61.3113 20.4297 77.2 20.4297 96.7998C20.4297 116.4 36.3429 132.288 55.9728 132.288Z" fill="#F26522"/>
<path d="M190.822 134.926C189.635 117.695 150.66 78.6528 150.66 78.6528C128.072 66.0178 139.049 96.6892 139.049 96.6892C139.049 96.6892 163.393 149.646 180.445 151.193C185.317 151.636 191.312 141.307 190.822 134.926Z" fill="#FBF7F4" stroke="#115934" stroke-miterlimit="10"/>
<path d="M136.344 68.2131C150.138 61.5324 183.15 109.372 177.645 113.51C172.141 117.648 159.803 138.337 153.112 131.562C146.421 124.786 138.417 106.292 138.417 106.292C138.417 106.292 127.771 72.4301 136.344 68.2763V68.2131Z" fill="#FBF7F4" stroke="#115934" stroke-miterlimit="10"/>
<path d="M154.171 199.727H111.114C110.068 196.115 108.327 192.741 105.989 189.793C105.108 188.806 104.174 187.867 103.19 186.982C100.754 184.66 98.0171 182.465 95.3755 180.191L94.5055 179.48C93.9448 179.03 93.3586 178.614 92.7497 178.232C91.3513 177.493 90.0452 176.592 88.8585 175.547C88.3095 174.96 87.851 174.295 87.4981 173.573C87.399 173.394 87.3093 173.209 87.2292 173.02C86.734 171.929 86.3472 170.791 86.0745 169.625H86.3117L87.3399 169.514L90.6301 169.182H90.7091C108.631 167.477 116.35 168.661 116.35 168.661C116.35 168.661 149.568 166.087 150.011 171.33V171.536C150.011 172.025 150.122 172.657 150.232 173.478C150.343 174.489 150.517 175.721 150.691 177.079C151.64 183.744 153.27 194.042 154.171 199.727Z" fill="#FBF7F4" stroke="#115934" stroke-miterlimit="10"/>
<path d="M119.894 178.295C119.894 178.295 119.894 180.996 119.735 185.924C119.641 187.993 119.546 190.472 119.419 193.299C119.293 196.127 119.103 199.143 118.865 202.555" fill="#FBF7F4"/>
<path d="M118.865 188.435C118.502 191.736 117.995 195.526 117.284 199.728H76.9318C76.5047 191.736 76.1251 183.697 75.8878 177.79C75.8878 176.858 75.8878 175.958 75.7929 175.137C75.7929 174.9 75.7929 174.663 75.7929 174.442C75.7929 173.257 75.698 172.231 75.6822 171.362C75.6822 170.888 75.6822 170.478 75.6822 170.114V169.593C75.6636 169.267 75.6636 168.94 75.6822 168.614C77.1849 168.614 78.6876 168.772 80.2062 168.882C82.1676 169.025 84.0974 169.182 86.043 169.356L87.3243 169.483C104.408 171.157 119.894 174.11 119.894 174.11" fill="#FBF7F4"/>
<path d="M118.865 188.435C118.502 191.736 117.995 195.526 117.284 199.728H76.9318C76.5047 191.736 76.1251 183.697 75.8878 177.79C75.8878 176.858 75.8878 175.958 75.7929 175.137C75.7929 174.9 75.7929 174.663 75.7929 174.442C75.7929 173.257 75.698 172.231 75.6822 171.362C75.6822 170.888 75.6822 170.478 75.6822 170.114V169.593C75.6636 169.267 75.6636 168.94 75.6822 168.614C77.1849 168.614 78.6876 168.772 80.2062 168.882C82.1676 169.025 84.0974 169.182 86.043 169.356L87.3243 169.483C104.408 171.157 119.894 174.11 119.894 174.11" stroke="#115934" stroke-miterlimit="10"/>
<path d="M142.972 68.2131C137.641 65.923 122.978 64.391 110.751 65.0544C103.047 65.4808 85.1096 63.475 81.9935 76.2363C78.2604 91.5562 65.0207 165.755 75.6663 173.62C100.77 192.162 144.965 186.824 150.486 176.779C157.414 164.144 155.041 137.026 150.486 103.875" fill="#FBF7F4"/>
<path d="M142.972 68.2131C137.641 65.923 122.978 64.391 110.751 65.0544C103.047 65.4808 85.1096 63.475 81.9935 76.2363C78.2604 91.5562 65.0207 165.755 75.6663 173.62C100.77 192.162 144.965 186.824 150.486 176.779C157.414 164.144 155.041 137.026 150.486 103.875" stroke="#115934" stroke-miterlimit="10"/>
<path d="M150.517 103.86C148.113 86.2338 145.108 72.2721 142.608 68.9081L150.517 103.86Z" fill="#FBF7F4"/>
<path d="M125.288 67.7867C125.288 67.7867 123.785 50.3031 123.785 47.1127C123.785 43.9224 129.131 36.6731 124.544 28.1603C119.957 19.6474 100.738 21.1162 96.4671 30.9242C92.1963 40.7321 92.6233 64.8175 99.4567 63.5382C106.29 62.2589 106.069 60.9796 106.069 60.9796L105.215 74.199C105.215 74.199 107.571 82.5065 116.524 76.5522C125.477 70.598 125.288 67.7867 125.288 67.7867Z" fill="#FBF7F4" stroke="#115934" stroke-miterlimit="10"/>
<path opacity="0.14" d="M116.856 25.9491L94.9326 38.7894L94.7428 40.2582L94.6321 41.2532C94.6321 41.2532 98.6657 42.2798 105.199 40.0055C109.311 38.4266 112.727 35.4367 114.832 31.5717C114.832 31.5717 113.756 41.0479 116.176 41.4743C118.059 41.8218 120.02 37.8733 120.827 36.0729L121.159 35.2516L122.646 45.328L123.706 30.8136L116.856 25.9491ZM106.685 60.5058L106.337 65.9704L106.243 67.4392C107.021 67.0418 107.74 66.5367 108.378 65.9388C112.427 62.2589 116.572 54.283 116.825 53.7776L106.685 60.5058Z" fill="#115934"/>
<path d="M113.978 28.9973C113.978 28.9973 102.905 41.4112 94.3157 39.2475C85.7265 37.0837 77.6751 28.6973 82.5946 22.5535C87.514 16.4097 90.2663 -4.46956 108.204 0.852924C108.204 0.852924 123.579 2.55864 121.871 8.32335C121.871 8.32335 134.256 8.32335 133.181 18.3366C132.105 28.3498 130.017 44.9806 125.493 46.7653C120.969 48.55 122.076 44.2067 122.076 44.2067L121.444 34.6199C121.444 34.6199 119.735 32.4878 119.087 36.7521C118.438 41.0164 116.097 42.0746 115.67 37.1785C115.243 32.2824 118.676 29.7081 113.978 29.0763V28.9973Z" fill="#115934"/>
<path d="M131.235 86.2495L121.823 90.8297C121.326 91.0775 120.927 91.4844 120.689 91.9854C120.451 92.4865 120.388 93.0527 120.51 93.5936L126.964 124.423C127.037 124.801 127.195 125.158 127.426 125.466C127.657 125.774 127.955 126.026 128.298 126.202C128.641 126.379 129.019 126.475 129.404 126.484C129.79 126.493 130.172 126.415 130.523 126.255L139.935 121.659C140.432 121.411 140.831 121.004 141.069 120.503C141.307 120.002 141.37 119.436 141.248 118.895L134.81 88.0658C134.736 87.6871 134.576 87.3302 134.343 87.0222C134.11 86.7142 133.81 86.4631 133.466 86.2881C133.121 86.1131 132.741 86.0187 132.355 86.012C131.968 86.0053 131.585 86.0865 131.235 86.2495Z" fill="#FBF7F4"/>
<path d="M132.374 88.3502L123.294 92.7882C122.821 93.0187 122.436 93.3994 122.202 93.8707C121.967 94.3421 121.895 94.8777 121.997 95.3941L127.787 124.249C127.849 124.556 127.971 124.848 128.147 125.108C128.322 125.368 128.547 125.59 128.808 125.763C129.069 125.936 129.363 126.056 129.67 126.116C129.978 126.176 130.295 126.175 130.602 126.113C130.806 126.081 131.004 126.017 131.188 125.923L140.267 121.501C140.742 121.268 141.127 120.884 141.362 120.41C141.596 119.936 141.667 119.398 141.564 118.879L135.759 90.0243C135.633 89.4076 135.268 88.8657 134.744 88.5166C134.219 88.1675 133.578 88.0396 132.959 88.1606C132.759 88.2071 132.563 88.2705 132.374 88.3502Z" fill="#FBF7F4" stroke="#F26522" stroke-miterlimit="10"/>
<path d="M136.676 98.774C136.676 98.774 135.506 93.1515 137.167 94.0359C138.828 94.9204 142.165 102.738 142.687 107.761C143.209 112.783 140.884 119.701 140.884 119.701C140.884 119.701 127.075 120.143 122.836 112.973C120.292 108.358 119.367 103.026 120.21 97.8264C120.21 97.8264 129.194 103.654 132.643 101.885C136.091 100.117 136.676 98.774 136.676 98.774Z" fill="#FBF7F4" stroke="#115934" stroke-miterlimit="10"/>
<path d="M142.687 107.824C142.687 107.824 158.695 121.533 165.734 123.27C168.36 123.918 170.828 124.66 172.9 125.339C177.978 126.997 186.361 125.339 189.746 129.524C192.91 133.394 191.47 142.933 188.164 147.324C181.442 156.121 169.974 148.114 163.899 141.638C157.825 135.163 140.932 119.764 140.932 119.764C140.932 119.764 139.714 108.298 142.735 107.824H142.687Z" fill="#FBF7F4" stroke="#115934" stroke-miterlimit="10"/>
<path d="M100.564 194.752C99.8679 194.668 99.1719 194.558 98.4759 194.421C97.4161 194.215 96.467 193.994 95.597 193.773C94.0078 193.451 92.5069 192.79 91.1966 191.836C89.8863 190.883 88.7975 189.658 88.0043 188.245C88.0043 188.072 87.862 188.103 87.862 188.103C84.9996 187.759 82.1623 187.231 79.3677 186.524C67.1878 183.586 45.8492 175.468 42.1795 154.573C40.5976 145.223 44.2516 130.883 49.2027 117.316C53.801 104.885 59.5799 92.9221 66.4602 81.5904C66.4602 81.5904 70.5886 76.1731 75.5239 74.42C77.3271 73.7883 78.9564 72.1299 80.8388 72.3984C80.475 73.6935 80.1428 74.9728 79.8264 76.2837C76.9837 87.6306 75.4813 99.2709 75.3499 110.967C75.3499 111.772 75.3499 112.546 75.3499 113.383C75.5127 118.027 74.9795 122.669 73.7681 127.155L72.645 129.351L59.864 151.92C59.6295 152.33 59.5501 152.81 59.64 153.274C59.73 153.738 59.9834 154.154 60.3544 154.447C60.3544 154.447 80.3326 168.156 90.4087 175.8C90.6143 176.132 93.5723 180.696 96.6252 182.023C97.0769 182.258 97.5789 182.381 98.0884 182.381C98.5978 182.381 99.0998 182.258 99.5515 182.023C103.379 179.78 109.042 177.537 109.976 178.343C110.909 179.148 104.582 183.886 104.582 183.886C104.582 183.886 119.103 186.098 120.858 187.772C122.614 189.446 112.443 196.142 100.564 194.752Z" fill="#FBF7F4" stroke="#115934" stroke-miterlimit="10"/>
<path d="M79.8107 105.597C76.8844 129.524 70.7628 131.941 67.6783 131.025C61.8098 129.272 55.1029 123.128 52.6986 116.305C51.9331 114.292 51.6356 112.132 51.8286 109.988C51.903 106.761 52.3272 103.552 53.094 100.417C54.6299 94.0426 57.753 88.1592 62.1736 83.3119C66.0184 79.1558 70.5571 75.6982 75.5873 73.0933C79.5819 70.9429 83.8342 69.3084 88.2417 68.2289" fill="#FBF7F4"/>
<path d="M79.8107 105.597C76.8844 129.524 70.7628 131.941 67.6783 131.025C61.8098 129.272 55.1029 123.128 52.6986 116.305C51.9331 114.292 51.6356 112.132 51.8286 109.988C51.903 106.761 52.3272 103.552 53.094 100.417C54.6299 94.0426 57.753 88.1592 62.1736 83.3119V83.3119C66.0184 79.1558 70.5571 75.6982 75.5873 73.0933C79.5819 70.9429 83.8342 69.3084 88.2417 68.2289" stroke="#115934" stroke-miterlimit="10"/>
<path d="M97.938 55.2465C97.938 55.2465 99.5198 57.5208 103.49 54.6937" stroke="#115934" stroke-miterlimit="10"/>
<path d="M101.244 46.702C101.244 46.702 97.3212 52.3246 101.782 50.9821" stroke="#115934" stroke-miterlimit="10"/>
<path d="M97.6058 44.791C98.0863 44.791 98.4758 44.289 98.4758 43.6697C98.4758 43.0504 98.0863 42.5483 97.6058 42.5483C97.1253 42.5483 96.7358 43.0504 96.7358 43.6697C96.7358 44.289 97.1253 44.791 97.6058 44.791Z" fill="#115934"/>
<path d="M106.907 44.791C107.387 44.791 107.777 44.289 107.777 43.6697C107.777 43.0504 107.387 42.5483 106.907 42.5483C106.426 42.5483 106.037 43.0504 106.037 43.6697C106.037 44.289 106.426 44.791 106.907 44.791Z" fill="#115934"/>
<path d="M141.596 25.6964L241.123 25.0331C241.838 25.0289 242.546 25.1653 243.208 25.4345C243.87 25.7037 244.472 26.1004 244.98 26.602C245.488 27.1036 245.893 27.7002 246.17 28.3577C246.447 29.0153 246.592 29.721 246.596 30.4345L246.834 66.2705C246.838 66.9839 246.701 67.6913 246.431 68.352C246.162 69.0128 245.765 69.614 245.262 70.1215C244.76 70.6289 244.162 71.0326 243.504 71.3095C242.845 71.5863 242.138 71.731 241.424 71.7351L162.713 72.2563C157.762 78.1158 151.783 85.7757 151.783 85.7757L148.762 72.3511H141.912C141.199 72.3573 140.491 72.2229 139.829 71.9554C139.167 71.6879 138.565 71.2927 138.056 70.7924C137.548 70.292 137.143 69.6965 136.866 69.0398C136.588 68.3831 136.444 67.6781 136.439 66.9654L136.202 31.1294C136.196 30.4167 136.331 29.7097 136.598 29.0491C136.866 28.3884 137.262 27.787 137.763 27.2793C138.264 26.7717 138.861 26.3678 139.519 26.0907C140.176 25.8137 140.882 25.6689 141.596 25.6648V25.6964Z" fill="#F26522"/>
<path d="M154.108 64.5963C162.198 64.5963 168.755 58.0485 168.755 49.9713C168.755 41.8941 162.198 35.3463 154.108 35.3463C146.018 35.3463 139.46 41.8941 139.46 49.9713C139.46 58.0485 146.018 64.5963 154.108 64.5963Z" fill="#FBF7F4"/>
<path d="M141.469 51.535C141.445 48.7931 142.231 46.1049 143.73 43.8072C145.228 41.5095 147.373 39.7046 149.895 38.6186C152.416 37.5325 155.203 37.2137 157.905 37.7021C160.607 38.1904 163.105 39.4642 165.086 41.3638C163.974 39.9001 162.583 38.671 160.992 37.7475C159.402 36.824 157.644 36.2245 155.82 35.9836C153.996 35.7428 152.142 35.8653 150.366 36.3442C148.59 36.8231 146.926 37.6488 145.471 38.7737C142.54 41.074 140.63 44.4305 140.151 48.1221C139.672 51.8136 140.662 55.5454 142.909 58.5158C143.39 59.1449 143.919 59.7363 144.491 60.2847C142.534 57.7864 141.471 54.7064 141.469 51.535Z" fill="#FBF7F4"/>
<path d="M154.108 64.5806C156.129 64.5761 158.127 64.1527 159.976 63.3371C161.825 62.5215 163.484 61.3315 164.848 59.8425V59.4634C164.776 56.7549 163.679 54.1744 161.778 52.2404C159.878 50.3065 157.314 49.1625 154.603 49.0385C151.893 48.9144 149.235 49.8195 147.166 51.5718C145.096 53.3241 143.767 55.7937 143.447 58.4842V59.4634V59.8425C144.805 61.3181 146.452 62.4998 148.285 63.3148C150.119 64.1297 152.101 64.5606 154.108 64.5806Z" fill="#115934"/>
<path opacity="0.14" d="M144.728 60.5058V60.1426V59.2739C145.003 56.8177 146.171 54.5477 148.011 52.8942C149.85 51.2407 152.234 50.3187 154.709 50.3031C156.584 50.3211 158.416 50.8687 159.992 51.8824C158.596 50.7364 156.914 49.9899 155.126 49.7225C153.338 49.455 151.511 49.6767 149.839 50.3638C148.168 51.0509 146.714 52.1777 145.633 53.6244C144.552 55.071 143.884 56.7833 143.7 58.579V59.4792V59.8425C144.544 60.6989 145.495 61.4421 146.531 62.0536C145.893 61.5828 145.29 61.0655 144.728 60.5058Z" fill="#115934"/>
<path d="M154.108 48.1393C156.213 48.1393 157.92 46.4352 157.92 44.333C157.92 42.2309 156.213 40.5267 154.108 40.5267C152.003 40.5267 150.296 42.2309 150.296 44.333C150.296 46.4352 152.003 48.1393 154.108 48.1393Z" fill="#115934"/>
<path d="M171.951 47.3022V42.1851H173.026V44.1277H175.004V42.1851H176.079V47.3022H175.004V45.0121H173.026V47.3022H171.951Z" fill="#FBF7F4"/>
<path d="M179.48 43.5907C179.751 43.7141 179.981 43.9112 180.145 44.1593C180.298 44.3933 180.4 44.657 180.445 44.9332C180.445 45.1069 180.445 45.3596 180.445 45.6755H177.693C177.684 45.8324 177.716 45.9888 177.785 46.1299C177.854 46.271 177.959 46.3919 178.088 46.481C178.25 46.5792 178.437 46.6286 178.626 46.6231C178.825 46.6289 179.02 46.5677 179.18 46.4494C179.264 46.3794 179.334 46.2936 179.385 46.1967H180.398C180.344 46.4566 180.211 46.6936 180.018 46.8758C179.834 47.0647 179.612 47.2118 179.367 47.3072C179.121 47.4026 178.857 47.444 178.594 47.4286C178.109 47.4363 177.637 47.2679 177.266 46.9548C177.05 46.7567 176.886 46.5097 176.787 46.2347C176.688 45.9598 176.657 45.665 176.696 45.3754C176.667 45.0903 176.698 44.8023 176.788 44.5301C176.878 44.258 177.025 44.0078 177.218 43.796C177.394 43.6207 177.604 43.4838 177.835 43.394C178.067 43.3043 178.315 43.2637 178.563 43.2749C178.888 43.3111 179.201 43.419 179.48 43.5907ZM178.009 44.4436C177.858 44.604 177.764 44.8092 177.74 45.028H179.449C179.446 44.9152 179.42 44.804 179.374 44.701C179.328 44.598 179.262 44.5051 179.18 44.4278C179.015 44.2924 178.808 44.2197 178.594 44.2225C178.481 44.2276 178.37 44.2571 178.269 44.3089C178.168 44.3607 178.079 44.4335 178.009 44.5226V44.4436Z" fill="#FBF7F4"/>
<path d="M181.979 47.3022H180.999V42.1851H181.979V47.3022Z" fill="#FBF7F4"/>
<path d="M183.957 47.3022H182.913V42.1851H183.893L183.957 47.3022Z" fill="#FBF7F4"/>
<path d="M188.085 46.8285C187.894 47.0195 187.667 47.171 187.418 47.2744C187.168 47.3778 186.9 47.431 186.63 47.431C186.36 47.431 186.092 47.3778 185.842 47.2744C185.593 47.171 185.366 47.0195 185.175 46.8285C184.868 46.4208 184.702 45.9248 184.702 45.4149C184.702 44.9051 184.868 44.409 185.175 44.0014C185.366 43.8103 185.593 43.6588 185.842 43.5554C186.092 43.452 186.36 43.3988 186.63 43.3988C186.9 43.3988 187.168 43.452 187.418 43.5554C187.667 43.6588 187.894 43.8103 188.085 44.0014C188.392 44.409 188.558 44.9051 188.558 45.4149C188.558 45.9248 188.392 46.4208 188.085 46.8285ZM187.294 46.2914C187.468 46.0303 187.551 45.7198 187.532 45.407C187.551 45.0992 187.468 44.7936 187.294 44.5383C187.217 44.4359 187.117 44.3536 187.001 44.2986C186.885 44.2435 186.758 44.2174 186.63 44.2225C186.499 44.2162 186.369 44.2416 186.251 44.2967C186.132 44.3517 186.029 44.4346 185.95 44.5383C185.794 44.8005 185.717 45.1022 185.728 45.407C185.713 45.7171 185.791 46.0248 185.95 46.2914C186.03 46.3933 186.134 46.474 186.252 46.5263C186.371 46.5786 186.501 46.601 186.63 46.5915C186.757 46.5984 186.883 46.5747 186.999 46.5225C187.114 46.4703 187.216 46.391 187.294 46.2914Z" fill="#FBF7F4"/>
<path d="M172.947 55.815H171.84V50.6979H172.916L172.947 55.815Z" fill="#FBF7F4"/>
<path d="M177.329 53.5092C177.464 53.5019 177.597 53.4753 177.724 53.4302C177.786 53.411 177.84 53.3735 177.88 53.3227C177.919 53.2718 177.942 53.2102 177.946 53.1459C177.95 53.0821 177.936 53.0183 177.906 52.9623C177.875 52.9062 177.828 52.8603 177.772 52.83C177.625 52.7573 177.461 52.7246 177.297 52.7353C177.206 52.7285 177.113 52.7405 177.026 52.7703C176.939 52.8002 176.859 52.8474 176.791 52.909C176.722 53.0147 176.674 53.1327 176.649 53.2564H175.7C175.702 52.9637 175.802 52.6802 175.984 52.451C176.153 52.2668 176.362 52.1249 176.596 52.0371C176.83 51.9492 177.081 51.9179 177.329 51.9456C177.714 51.9337 178.095 52.0207 178.436 52.1983C178.601 52.2834 178.737 52.4166 178.824 52.5802C178.912 52.7438 178.947 52.93 178.927 53.1143V55.2939C178.91 55.3826 178.91 55.4736 178.927 55.5623C178.968 55.6067 179.016 55.6441 179.069 55.6729V55.815H177.993C177.986 55.7415 177.986 55.6675 177.993 55.5939C177.993 55.5939 177.993 55.4518 177.993 55.3728C177.85 55.5161 177.69 55.6432 177.519 55.7518C177.296 55.8735 177.045 55.9335 176.791 55.9256C176.481 55.9386 176.177 55.8374 175.937 55.6413C175.818 55.5385 175.724 55.4092 175.664 55.2639C175.603 55.1186 175.578 54.9612 175.589 54.8043C175.579 54.6012 175.626 54.3995 175.724 54.2211C175.821 54.0428 175.966 53.8948 176.143 53.7934C176.415 53.6607 176.71 53.5804 177.013 53.5565L177.329 53.5092ZM177.946 53.983L177.756 54.0777H177.487H177.25C177.097 54.098 176.948 54.1406 176.807 54.2041C176.731 54.2456 176.669 54.3077 176.627 54.3831C176.585 54.4586 176.565 54.5443 176.57 54.6305C176.565 54.6978 176.576 54.7652 176.6 54.828C176.625 54.8908 176.663 54.9474 176.712 54.9938C176.81 55.0726 176.934 55.112 177.06 55.1043C177.275 55.1045 177.485 55.0383 177.661 54.9148C177.757 54.8307 177.833 54.7259 177.882 54.6082C177.932 54.4905 177.953 54.363 177.946 54.2357V53.983Z" fill="#FBF7F4"/>
<path d="M184.494 52.0561C184.668 52.1268 184.821 52.241 184.937 52.3878C185.048 52.5316 185.124 52.6992 185.159 52.8774C185.17 53.0615 185.17 53.2461 185.159 53.4302V55.815H184.146V53.4144C184.173 53.2947 184.173 53.1707 184.146 53.0511C184.098 52.9661 184.026 52.897 183.939 52.8522C183.852 52.8073 183.754 52.7887 183.656 52.7984C183.539 52.7902 183.422 52.8174 183.32 52.8766C183.219 52.9357 183.137 53.0241 183.087 53.1301C183.06 53.2763 183.06 53.4261 183.087 53.5723V55.815H182.09V53.5723C182.124 53.4108 182.124 53.2442 182.09 53.0827C182.048 52.9904 181.978 52.9135 181.89 52.8626C181.802 52.8117 181.701 52.7893 181.6 52.7984C181.487 52.7838 181.373 52.803 181.272 52.8537C181.17 52.9043 181.086 52.9841 181.03 53.0827C180.971 53.2279 180.944 53.3842 180.951 53.5407V55.815H179.749V52.0403H180.698V52.5931C180.79 52.4374 180.907 52.2985 181.046 52.1825C181.258 52.0185 181.522 51.9346 181.79 51.9455C182.044 51.929 182.295 52.0017 182.501 52.1509C182.646 52.2661 182.755 52.4192 182.818 52.5931C182.939 52.3928 183.108 52.2249 183.308 52.1035C183.52 52.0009 183.753 51.9469 183.988 51.9455C184.163 51.948 184.335 51.9856 184.494 52.0561Z" fill="#FBF7F4"/>
<path d="M189.366 50.6979H190.584L192.388 55.815H191.233L190.901 54.7569H189.018L188.67 55.815H187.547L189.366 50.6979ZM189.366 53.8566H190.679L190.031 51.835L189.366 53.8566Z" fill="#FBF7F4"/>
<path d="M194.966 52.1035C195.149 52.1967 195.302 52.3389 195.409 52.5141V50.7136H196.405V55.815H195.441V55.2938C195.32 55.4895 195.158 55.6566 194.966 55.7834C194.754 55.8838 194.521 55.9325 194.286 55.9256C194.074 55.9275 193.864 55.8817 193.673 55.7914C193.481 55.7012 193.312 55.5689 193.179 55.4044C192.866 55.0158 192.703 54.5283 192.72 54.0303C192.676 53.4681 192.833 52.9086 193.163 52.4509C193.307 52.2724 193.49 52.1295 193.699 52.0336C193.907 51.9377 194.135 51.8914 194.365 51.8982C194.581 51.9065 194.79 51.9779 194.966 52.1035ZM195.219 54.7884C195.374 54.5489 195.451 54.2678 195.441 53.9829C195.457 53.8006 195.433 53.6169 195.37 53.445C195.307 53.273 195.207 53.117 195.077 52.9879C194.942 52.8689 194.766 52.8066 194.586 52.8142C194.46 52.806 194.334 52.8308 194.22 52.8862C194.106 52.9416 194.009 53.0256 193.938 53.1301C193.801 53.3816 193.736 53.6655 193.748 53.9513C193.731 54.2446 193.803 54.5362 193.954 54.7884C194.02 54.8903 194.112 54.9731 194.22 55.0285C194.328 55.0839 194.449 55.1101 194.571 55.1043C194.696 55.1095 194.822 55.0833 194.935 55.0282C195.048 54.9731 195.146 54.8906 195.219 54.7884Z" fill="#FBF7F4"/>
<path d="M202.037 52.0561C202.206 52.1273 202.353 52.2417 202.464 52.3878C202.581 52.5276 202.658 52.697 202.685 52.8774C202.704 53.0612 202.704 53.2464 202.685 53.4302V55.815H201.673V53.4144C201.675 53.2889 201.648 53.1646 201.594 53.0511C201.551 52.9645 201.483 52.8935 201.397 52.8481C201.312 52.8027 201.215 52.7853 201.119 52.7985C201.001 52.7855 200.882 52.8107 200.78 52.8704C200.677 52.9301 200.596 53.0212 200.55 53.1301C200.489 53.2692 200.462 53.4208 200.471 53.5723V55.815H199.474V53.5723C199.484 53.4053 199.457 53.2383 199.395 53.0827C199.355 52.989 199.285 52.9106 199.197 52.8594C199.109 52.8082 199.006 52.7868 198.905 52.7985C198.793 52.7879 198.68 52.8089 198.579 52.8591C198.478 52.9094 198.394 52.9869 198.335 53.0827C198.303 53.2337 198.303 53.3898 198.335 53.5408V55.815H197.339V52.0403H198.304V52.5931C198.395 52.4374 198.513 52.2985 198.652 52.1825C198.864 52.0186 199.127 51.9347 199.395 51.9456C199.644 51.9314 199.89 52.004 200.091 52.1509C200.235 52.2697 200.349 52.4213 200.423 52.5931C200.534 52.3901 200.698 52.2209 200.898 52.1035C201.11 52.0009 201.342 51.947 201.578 51.9456C201.736 51.9573 201.891 51.9946 202.037 52.0561Z" fill="#FBF7F4"/>
<path d="M204.647 51.5823H203.65V50.6663H204.647V51.5823ZM203.65 52.0403H204.647V55.815H203.65V52.0403Z" fill="#FBF7F4"/>
<path d="M208.664 52.2456C208.795 52.3807 208.895 52.5423 208.958 52.7194C209.021 52.8965 209.045 53.0851 209.028 53.2722V55.815H208.016V53.5091C208.02 53.3528 207.993 53.1972 207.937 53.0511C207.882 52.9552 207.801 52.8772 207.702 52.8267C207.604 52.7762 207.493 52.7554 207.383 52.7668C207.239 52.7566 207.096 52.7924 206.973 52.8691C206.851 52.9458 206.756 53.0593 206.703 53.1933C206.637 53.3754 206.605 53.5681 206.608 53.7618V55.815H205.612V52.0403H206.64V52.5931C206.731 52.4373 206.849 52.2985 206.988 52.1825C207.211 52.0175 207.485 51.9338 207.763 51.9455C208.087 51.9509 208.402 52.0557 208.664 52.2456Z" fill="#FBF7F4"/>
<path d="M213.489 50.6505H213.695V51.456H213.426C213.377 51.4483 213.326 51.453 213.279 51.4695C213.232 51.486 213.19 51.514 213.157 51.5507C213.13 51.5774 213.109 51.6096 213.095 51.6449C213.082 51.6803 213.076 51.7182 213.078 51.7561V52.0719H213.726V52.7669H213.078V55.815H212.097V52.7669H211.543V52.0719H212.081V51.835C212.045 51.5403 212.118 51.2426 212.287 50.998C212.429 50.7611 212.777 50.6505 213.315 50.6505H213.489Z" fill="#FBF7F4"/>
<path d="M216.399 51.9456H216.479V52.9722H216.131C215.973 52.9567 215.813 52.9854 215.671 53.0551C215.528 53.1249 215.408 53.2329 215.324 53.367C215.241 53.5835 215.203 53.8146 215.213 54.0461V55.8466H214.217V52.0719H215.166V52.7195C215.272 52.5328 215.406 52.3626 215.561 52.214C215.767 52.05 216.025 51.9658 216.289 51.9772L216.399 51.9456Z" fill="#FBF7F4"/>
<path d="M220.212 55.357C220.031 55.5604 219.806 55.7191 219.553 55.8205C219.301 55.9219 219.028 55.9633 218.756 55.9414C218.485 55.9621 218.213 55.9202 217.961 55.8188C217.708 55.7175 217.483 55.5594 217.301 55.357C216.993 54.9469 216.827 54.4482 216.827 53.9356C216.827 53.423 216.993 52.9242 217.301 52.5142C217.482 52.3098 217.707 52.1495 217.959 52.0455C218.211 51.9415 218.484 51.8965 218.756 51.914C219.029 51.894 219.303 51.9379 219.555 52.0421C219.808 52.1463 220.033 52.3079 220.212 52.5142C220.53 52.9199 220.703 53.4203 220.703 53.9356C220.703 54.4509 220.53 54.9513 220.212 55.357ZM219.421 54.8043C219.594 54.549 219.678 54.2434 219.658 53.9356C219.678 53.6229 219.594 53.3123 219.421 53.0512C219.338 52.957 219.235 52.8817 219.121 52.83C219.006 52.7784 218.882 52.7517 218.756 52.7517C218.631 52.7517 218.507 52.7784 218.392 52.83C218.277 52.8817 218.175 52.957 218.092 53.0512C217.919 53.3123 217.835 53.6229 217.855 53.9356C217.835 54.2434 217.919 54.549 218.092 54.8043C218.172 54.9032 218.273 54.983 218.388 55.0378C218.503 55.0926 218.629 55.1211 218.756 55.1211C218.884 55.1211 219.01 55.0926 219.125 55.0378C219.24 54.983 219.341 54.9032 219.421 54.8043Z" fill="#FBF7F4"/>
<path d="M226.128 52.0561C226.299 52.1308 226.451 52.2443 226.57 52.3878C226.683 52.5289 226.754 52.6984 226.776 52.8774C226.797 53.061 226.797 53.2465 226.776 53.4302V55.815H225.764V53.4144C225.79 53.2947 225.79 53.1707 225.764 53.0511C225.715 52.9661 225.643 52.897 225.556 52.8522C225.469 52.8073 225.371 52.7886 225.273 52.7984C225.156 52.7902 225.039 52.8174 224.937 52.8766C224.836 52.9357 224.755 53.0241 224.704 53.1301C224.677 53.2763 224.677 53.4261 224.704 53.5723V55.815H223.707V53.5723C223.741 53.4108 223.741 53.2442 223.707 53.0827C223.665 52.9904 223.595 52.9135 223.508 52.8626C223.42 52.8117 223.318 52.7893 223.217 52.7984C223.105 52.7838 222.99 52.803 222.889 52.8537C222.787 52.9043 222.703 52.9841 222.648 53.0827C222.581 53.2256 222.554 53.3837 222.569 53.5407V55.815H221.556V52.0403H222.521V52.5931C222.613 52.4373 222.73 52.2985 222.869 52.1825C223.081 52.0185 223.345 51.9346 223.613 51.9455C223.866 51.9316 224.117 52.004 224.324 52.1509C224.469 52.2661 224.578 52.4192 224.641 52.5931C224.758 52.3894 224.927 52.2205 225.131 52.1035C225.343 52.0009 225.576 51.9469 225.811 51.9455C225.921 51.9694 226.027 52.0065 226.128 52.0561Z" fill="#FBF7F4"/>
<path d="M230.604 55.815H229.354L230.936 53.2091L229.354 50.6979H230.636L231.553 52.372L232.486 50.6979H233.72L232.138 53.1775L233.799 55.815H232.502L231.537 54.0777L230.604 55.815Z" fill="#FBF7F4"/>
<path d="M237.453 50.6979H238.655L236.947 53.8566V55.7677H235.872V53.8566L234.1 50.6979H235.365L236.425 52.9248L237.453 50.6979Z" fill="#FBF7F4"/>
<path d="M238.908 54.9148L241.518 51.6139H238.972V50.6979H242.847V51.5665L240.206 54.9148H242.863V55.815H238.908V54.9148Z" fill="#FBF7F4"/>
<path d="M243.86 50.7295H244.935V52.0246L244.651 54.3936H244.144L243.86 52.0246V50.7295ZM243.86 54.8201H244.904V55.8151H243.86V54.8201Z" fill="#FBF7F4"/>
</g>
<defs>
<clipPath id="clip0_37_1852">
<rect width="246.667" height="200" fill="white" transform="translate(0.166748)"/>
</clipPath>
</defs>
</svg>
