<svg width="275" height="200" viewBox="0 0 275 200" fill="none" xmlns="http://www.w3.org/2000/svg">
<g clip-path="url(#clip0_37_2455)">
<path opacity="0.25" d="M40.3779 136.765C62.3458 136.765 80.1543 119.001 80.1543 97.0867C80.1543 75.1727 62.3458 57.408 40.3779 57.408C18.4101 57.408 0.601562 75.1727 0.601562 97.0867C0.601562 119.001 18.4101 136.765 40.3779 136.765Z" fill="#F26522"/>
<path d="M134.747 0.882935H53.5304C44.0765 0.882935 36.4126 8.52803 36.4126 17.9587V182.342C36.4126 191.773 44.0765 199.418 53.5304 199.418H134.747C144.201 199.418 151.865 191.773 151.865 182.342V17.9587C151.865 8.52803 144.201 0.882935 134.747 0.882935Z" fill="#FBF7F4" stroke="#F26522" stroke-miterlimit="10"/>
<path d="M68.9135 0.882935H117.205C119.807 0.882935 121.896 3.76128 121.896 7.31064C121.896 10.8423 119.807 13.756 117.205 13.756H68.9135C66.329 13.756 64.2225 10.8777 64.2225 7.31064C64.2048 3.76128 66.3113 0.882935 68.9135 0.882935Z" fill="#FBF7F4" stroke="#F26522" stroke-miterlimit="10"/>
<path d="M104.353 5.20923H82.4024C81.415 5.20923 80.6145 6.00378 80.6145 6.98391C80.6145 7.96404 81.415 8.75859 82.4024 8.75859H104.353C105.34 8.75859 106.141 7.96404 106.141 6.98391C106.141 6.00378 105.34 5.20923 104.353 5.20923Z" fill="#115934"/>
<path d="M208.246 71.6407C209.091 72.5342 210.189 73.1509 211.393 73.4094C212.597 73.6679 213.851 73.5561 214.99 73.0887" stroke="#115934" stroke-miterlimit="10"/>
<path d="M212.831 60.7453C212.977 60.7453 213.096 60.4054 213.096 59.986C213.096 59.5666 212.977 59.2267 212.831 59.2267C212.684 59.2267 212.565 59.5666 212.565 59.986C212.565 60.4054 212.684 60.7453 212.831 60.7453Z" stroke="#115934" stroke-miterlimit="10"/>
<path d="M208.529 60.4275C208.529 60.4275 204.564 64.8245 205.378 66.9435C206.193 69.0625 207.768 65.9193 207.768 65.9193" fill="#115934"/>
<path d="M95.9446 86.4915C94.4496 87.1167 93.1741 88.1701 92.2792 89.5184C91.3844 90.8667 90.9104 92.4495 90.9173 94.0665C90.9242 95.6835 91.4116 97.2622 92.3179 98.6029C93.2243 99.9436 94.5088 100.986 96.009 101.599C97.5093 102.211 99.1579 102.366 100.746 102.044C102.335 101.721 103.792 100.937 104.933 99.7884C106.075 98.6401 106.849 97.18 107.158 95.5927C107.468 94.0054 107.299 92.3622 106.672 90.8709C106.256 89.8807 105.648 88.9819 104.884 88.226C104.12 87.47 103.214 86.8716 102.218 86.465C101.221 86.0583 100.155 85.8513 99.0784 85.8559C98.0021 85.8605 96.9372 86.0764 95.9446 86.4915ZM100.813 98.0932C100.008 98.4273 99.1224 98.516 98.2674 98.3482C97.4123 98.1803 96.6264 97.7633 96.0088 97.15C95.3912 96.5367 94.9697 95.7546 94.7976 94.9025C94.6255 94.0503 94.7104 93.1663 95.0417 92.3623C95.373 91.5583 95.9358 90.8703 96.659 90.3852C97.3821 89.9001 98.2332 89.6398 99.1046 89.637C99.976 89.6343 100.829 89.8892 101.555 90.3697C102.281 90.8502 102.848 91.5347 103.185 92.3366C103.407 92.872 103.522 93.4461 103.521 94.0258C103.521 94.6056 103.405 95.1794 103.181 95.7145C102.958 96.2495 102.63 96.7351 102.217 97.1433C101.805 97.5515 101.315 97.8744 100.777 98.0932H100.813Z" fill="#F26522"/>
<path d="M110.814 150.256C115.272 150.256 118.886 146.651 118.886 142.204C118.886 137.757 115.272 134.152 110.814 134.152C106.356 134.152 102.742 137.757 102.742 142.204C102.742 146.651 106.356 150.256 110.814 150.256Z" fill="#F26522" stroke="#FBF7F4" stroke-miterlimit="10"/>
<path d="M133.544 117.129C130.888 115.999 127.348 114.551 125.578 112.079C121.931 106.922 119.081 101.819 115.24 97.5635C110.354 92.2659 102.848 90.5 97.3252 92.9016C91.8022 95.3032 87.7661 101.731 88.0848 108.9C88.4211 114.622 90.0674 120.219 91.2003 126.453C91.7314 129.419 90.2621 132.969 89.2177 135.653C88.299 138.047 88.181 140.674 88.8814 143.14C89.0412 143.736 89.3229 144.292 89.7087 144.773C90.0945 145.255 90.5761 145.652 91.1232 145.939C91.6702 146.226 92.2709 146.397 92.8874 146.441C93.5039 146.485 94.1229 146.401 94.7054 146.195C101.91 143.652 109.062 140.668 116.142 137.719C123.223 134.77 130.446 131.733 137.226 128.431C137.783 128.162 138.278 127.781 138.68 127.312C139.082 126.843 139.383 126.296 139.562 125.705C139.742 125.115 139.797 124.493 139.724 123.88C139.651 123.267 139.451 122.676 139.137 122.144C137.861 119.917 135.899 118.159 133.544 117.129Z" fill="#F26522"/>
<path d="M89.7134 134.382L89.2177 135.653C88.299 138.047 88.181 140.674 88.8814 143.14C89.0412 143.736 89.3229 144.292 89.7087 144.773C90.0945 145.255 90.5761 145.652 91.1232 145.939C91.6702 146.226 92.2709 146.397 92.8874 146.441C93.5039 146.485 94.1228 146.401 94.7053 146.195C101.91 143.652 109.062 140.668 116.142 137.719C123.223 134.77 130.446 131.733 137.226 128.431C137.783 128.162 138.278 127.781 138.68 127.312C139.082 126.843 139.383 126.296 139.562 125.705C139.742 125.115 139.797 124.493 139.724 123.88C139.651 123.267 139.451 122.676 139.137 122.144C137.861 119.917 135.899 118.159 133.544 117.129L132.322 116.599C124.215 119.707 114.939 123.31 110.372 125.217C105.804 127.124 97.3429 130.92 89.7134 134.382Z" fill="#F26522" stroke="#FBF7F4" stroke-miterlimit="10"/>
<path d="M84.4381 84.2312C82.8329 84.006 81.1968 84.2606 79.7367 84.963C78.2766 85.6653 77.0581 86.7839 76.2352 88.177C75.4123 89.5702 75.022 91.1755 75.1137 92.7899C75.2054 94.4043 75.775 95.9554 76.7504 97.2469C77.7257 98.5384 79.0631 99.5125 80.5934 100.046C82.1237 100.579 83.7781 100.648 85.3476 100.243C86.917 99.8386 88.3309 98.9788 89.4105 97.7726C90.4901 96.5663 91.1868 95.0679 91.4127 93.4666C91.5627 92.4034 91.5012 91.3211 91.2319 90.2815C90.9625 89.242 90.4906 88.2655 89.8429 87.4079C89.1953 86.5503 88.3846 85.8284 87.4572 85.2833C86.5299 84.7383 85.504 84.3807 84.4381 84.2312ZM82.6679 96.6805C81.8057 96.557 80.9995 96.1813 80.3511 95.6011C79.7027 95.0208 79.2412 94.2619 79.0249 93.4202C78.8085 92.5785 78.847 91.6917 79.1355 90.8718C79.424 90.0519 79.9496 89.3357 80.6459 88.8136C81.3421 88.2914 82.1779 87.9868 83.0476 87.9381C83.9173 87.8894 84.782 88.0989 85.5324 88.54C86.2829 88.9812 86.8855 89.6343 87.2641 90.4168C87.6428 91.1994 87.7805 92.0763 87.6599 92.9369C87.4932 94.0926 86.8744 95.1353 85.9388 95.8369C85.0032 96.5385 83.8271 96.8418 82.6679 96.6805Z" fill="#FBF7F4" stroke="#115934" stroke-miterlimit="10"/>
<path d="M82.2432 149.532C86.7014 149.532 90.3154 145.927 90.3154 141.48C90.3154 137.033 86.7014 133.428 82.2432 133.428C77.7851 133.428 74.1711 137.033 74.1711 141.48C74.1711 145.927 77.7851 149.532 82.2432 149.532Z" fill="#FBF7F4" stroke="#F26522" stroke-miterlimit="10"/>
<path d="M100.441 130.497C98.6705 128.166 96.4223 125.111 96.1745 122.091C95.6789 115.787 95.8382 109.942 94.7407 104.433C93.2183 97.3691 87.6599 92.0716 81.712 91.277C75.7641 90.4823 68.9665 94.014 65.5677 100.318C62.9478 105.421 61.4963 111.072 59.2658 116.988C58.186 119.831 55.1236 122.126 52.8401 123.892C50.8259 125.486 49.3796 127.684 48.7155 130.161C48.5508 130.762 48.5133 131.39 48.6053 132.006C48.6972 132.621 48.9167 133.211 49.2497 133.738C49.5828 134.264 50.022 134.716 50.5396 135.064C51.0571 135.412 51.6416 135.649 52.2559 135.759C59.7438 137.242 67.4088 138.337 75.0207 139.396C82.6325 140.456 90.3683 141.551 97.8916 142.187C98.5081 142.238 99.1285 142.161 99.7141 141.962C100.3 141.763 100.838 141.445 101.295 141.029C101.752 140.613 102.118 140.108 102.37 139.544C102.622 138.981 102.754 138.371 102.76 137.754C102.792 135.149 101.978 132.603 100.441 130.497Z" fill="#FBF7F4" stroke="#115934" stroke-miterlimit="10"/>
<path d="M53.9199 122.921L52.8401 123.769C50.8234 125.352 49.3761 127.546 48.7155 130.02C48.5508 130.62 48.5133 131.248 48.6053 131.864C48.6972 132.48 48.9167 133.07 49.2497 133.596C49.5828 134.123 50.022 134.575 50.5396 134.923C51.0571 135.271 51.6416 135.507 52.2559 135.618C59.7438 137.118 67.4265 138.196 75.0207 139.255C82.6148 140.315 90.3683 141.41 97.8916 142.045C98.5087 142.099 99.1302 142.024 99.717 141.826C100.304 141.628 100.843 141.311 101.3 140.894C101.758 140.478 102.124 139.971 102.375 139.406C102.626 138.841 102.757 138.231 102.76 137.613C102.798 135.047 102.017 132.536 100.529 130.444C100.264 130.108 99.9982 129.737 99.7326 129.366C91.1649 127.901 81.3757 126.258 76.4545 125.57C71.5334 124.881 62.2929 123.804 54.0083 122.921H53.9199Z" fill="#FBF7F4" stroke="#115934" stroke-miterlimit="10"/>
<path d="M71.799 147.307L67.3027 148.579" stroke="#F26522" stroke-miterlimit="10"/>
<path d="M74.4188 150.362L70.8076 154.353" stroke="#F26522" stroke-miterlimit="10"/>
<path d="M109.911 158.98L110.885 154.353" stroke="#F26522" stroke-miterlimit="10"/>
<path d="M117.559 157.956L115.417 153.541" stroke="#F26522" stroke-miterlimit="10"/>
<path d="M122.94 153.541L118.886 150.945" stroke="#F26522" stroke-miterlimit="10"/>
<path d="M77.8176 152.817L77.0918 157.938" stroke="#F26522" stroke-miterlimit="10"/>
<path d="M72.6133 24.1746H36.4304V39.873H72.6133V24.1746Z" fill="#FBF7F4" stroke="#115934" stroke-miterlimit="10"/>
<path d="M41.4756 27.353H43.5644V34.8049H47.1934V36.5708H41.4756V27.353Z" fill="#115934"/>
<path d="M48.8042 27.353H50.893V36.5531H48.8042V27.353Z" fill="#115934"/>
<path d="M51.8843 27.353H54.097L55.1945 31.6441C55.4778 32.6506 55.6548 33.5865 55.938 34.593C56.2213 33.5865 56.416 32.6506 56.6815 31.6441L57.779 27.353H59.9033L57.1241 36.5531H54.752L51.8843 27.353Z" fill="#115934"/>
<path d="M60.8416 27.353H66.6124V29.1189H62.9127V30.8847H66.0637V32.6506H62.9127V34.7696H66.754V36.5355H60.8416V27.353Z" fill="#115934"/>
<path d="M62.4347 56.3308C62.4277 56.9055 62.2505 57.4653 61.9253 57.9398C61.6002 58.4142 61.1416 58.7822 60.6073 58.9973C60.073 59.2125 59.4869 59.2651 58.9227 59.1488C58.3584 59.0324 57.8413 58.7521 57.4363 58.3433C57.0314 57.9344 56.7567 57.4152 56.6469 56.851C56.537 56.2868 56.5968 55.7028 56.8189 55.1724C57.041 54.6421 57.4153 54.1891 57.8949 53.8705C58.3744 53.5519 58.9377 53.3818 59.5139 53.3818C59.9074 53.3551 60.302 53.4135 60.6709 53.5528C61.0398 53.692 61.3742 53.909 61.6514 54.1889C61.9286 54.4688 62.1421 54.805 62.2773 55.1746C62.4124 55.5442 62.4661 55.9386 62.4347 56.3308ZM60.9123 56.3308C60.9123 55.13 60.3813 54.459 59.5139 54.459C58.6465 54.459 58.1154 55.13 58.1154 56.3308C58.1154 57.5316 58.6642 58.2026 59.5139 58.2026C60.3636 58.2026 60.9123 57.4786 60.9123 56.3308ZM67.3027 59.1738L65.2316 55.4125C65.2316 55.9953 65.2316 56.5074 65.2316 56.8252V59.1738H63.7446V53.4878H65.5148L67.6745 57.4079C67.6745 56.8428 67.6745 56.2601 67.6745 55.9246V53.4878H69.1615V59.1738H67.3027ZM75.1801 59.1738H70.8078V53.4878H72.2947V57.92H75.1801V59.1738ZM76.4547 59.1738V53.4878H77.9593V59.1738H76.4547ZM83.0221 59.1738L80.951 55.4125C80.951 55.9953 80.951 56.5074 80.951 56.8252V59.1738H79.5348V53.4878H81.305L83.4647 57.4079C83.4647 56.8428 83.4647 56.2601 83.4647 55.9246V53.4878H84.9516V59.1738H83.0221ZM90.9172 59.1738H86.6156V53.4878H90.8995V54.5649H88.0318V55.6597H90.6694V56.8252H88.0318V57.9377H90.9172V59.1738ZM99.5027 56.2601C99.5618 56.9641 99.3403 57.6629 98.8863 58.205C98.4323 58.7471 97.7824 59.0889 97.0775 59.1561H94.1921V53.4701H96.3517C96.5933 53.4521 96.8359 53.4521 97.0775 53.4701C97.418 53.4833 97.7522 53.5649 98.0602 53.7101C98.3683 53.8553 98.6438 54.0611 98.8702 54.315C99.0967 54.5689 99.2694 54.8658 99.3781 55.1879C99.4868 55.51 99.5291 55.8507 99.5027 56.1895V56.2601ZM97.9449 56.2601C97.9449 55.2536 97.4316 54.7062 96.6881 54.6356H95.679V58.0084H96.6881C97.4316 57.8671 97.9449 57.2313 97.9449 56.2071V56.2601ZM106.477 56.2601C106.47 56.8348 106.293 57.3947 105.968 57.8692C105.643 58.3436 105.184 58.7116 104.65 58.9267C104.116 59.1418 103.529 59.1945 102.965 59.0781C102.401 58.9617 101.884 58.6815 101.479 58.2726C101.074 57.8638 100.799 57.3446 100.689 56.7804C100.58 56.2162 100.639 55.6322 100.861 55.1018C101.084 54.5715 101.458 54.1185 101.937 53.7998C102.417 53.4812 102.98 53.3112 103.556 53.3112C103.956 53.2831 104.358 53.3429 104.732 53.4863C105.107 53.6296 105.445 53.8531 105.723 54.141C106.002 54.4288 106.214 54.7741 106.344 55.1524C106.474 55.5308 106.52 55.933 106.477 56.3308V56.2601ZM104.955 56.2601C104.955 55.0593 104.406 54.3883 103.556 54.3883C102.707 54.3883 102.158 55.0593 102.158 56.2601C102.158 57.4609 102.689 58.1319 103.556 58.1319C104.424 58.1319 104.955 57.4786 104.955 56.3308V56.2601ZM113.009 55.2889H111.522C111.491 55.0266 111.36 54.7864 111.155 54.6186C110.95 54.4508 110.689 54.3683 110.425 54.3883C109.717 54.3883 109.186 54.9887 109.186 56.1542C109.186 57.3196 109.77 58.0789 110.443 58.0789C110.71 58.0799 110.967 57.9805 111.164 57.8005C111.361 57.6205 111.482 57.3732 111.505 57.1078V57.0195H112.992V57.1078C112.959 57.4163 112.865 57.7152 112.714 57.987C112.564 58.2587 112.361 58.4978 112.117 58.6902C111.873 58.8827 111.593 59.0246 111.293 59.1076C110.994 59.1906 110.68 59.2131 110.372 59.1738C109.991 59.1909 109.61 59.126 109.257 58.9834C108.903 58.8408 108.584 58.624 108.322 58.3475C108.06 58.071 107.861 57.7414 107.738 57.3812C107.615 57.0211 107.572 56.6387 107.61 56.2601C107.569 55.8724 107.612 55.4806 107.737 55.111C107.861 54.7414 108.063 54.4028 108.33 54.1181C108.597 53.8334 108.922 53.6092 109.284 53.4609C109.645 53.3125 110.034 53.2434 110.425 53.2582C110.729 53.2163 111.039 53.2361 111.335 53.3163C111.632 53.3966 111.909 53.5357 112.15 53.7253C112.391 53.9149 112.592 54.1511 112.739 54.4197C112.887 54.6884 112.979 54.984 113.009 55.2889ZM117.152 54.5826V59.1208H115.647V54.5649H113.877V53.3994H119.063V54.5649L117.152 54.5826ZM125.472 56.2601C125.465 56.8348 125.287 57.3947 124.962 57.8692C124.637 58.3436 124.178 58.7116 123.644 58.9267C123.11 59.1418 122.524 59.1945 121.959 59.0781C121.395 58.9617 120.878 58.6815 120.473 58.2726C120.068 57.8638 119.794 57.3446 119.684 56.7804C119.574 56.2162 119.634 55.6322 119.856 55.1018C120.078 54.5715 120.452 54.1185 120.932 53.7998C121.411 53.4812 121.974 53.3112 122.551 53.3112C122.958 53.2693 123.369 53.3187 123.754 53.4559C124.14 53.5931 124.49 53.8145 124.778 54.1041C125.067 54.3936 125.287 54.7438 125.422 55.1291C125.557 55.5144 125.604 55.9249 125.56 56.3308L125.472 56.2601ZM123.949 56.2601C123.949 55.0593 123.418 54.3883 122.551 54.3883C121.683 54.3883 121.152 55.0593 121.152 56.2601C121.152 57.4609 121.701 58.1319 122.551 58.1319C123.4 58.1319 123.949 57.4786 123.949 56.3308V56.2601ZM131.703 59.1032H130.092C129.951 58.7405 129.862 58.3602 129.826 57.973C129.738 57.3373 129.49 56.9841 129.118 56.9665H128.322V59.1208H126.835V53.4347H129.1H129.986C130.818 53.5407 131.526 53.9469 131.526 54.9534C131.539 55.2882 131.429 55.6163 131.218 55.8764C131.006 56.1364 130.706 56.3105 130.375 56.3661C130.977 56.578 131.189 57.0195 131.278 57.7081C131.306 58.2003 131.451 58.6786 131.703 59.1032ZM128.853 55.8716H129.242C129.631 55.8716 129.968 55.7127 129.968 55.2183C129.968 54.7238 129.667 54.6179 129.295 54.5826H128.322V55.8716H128.853Z" fill="#F26522"/>
<path d="M244.588 199.365H157.317C157.783 197.022 158.501 194.737 159.459 192.549C162.451 185.856 161.513 171.553 161.513 171.553L163.106 117.359C163.106 117.359 220.106 107.629 232.144 110.419C244.181 113.209 250.43 146.389 251.828 153.453C253.103 159.704 249.474 186.845 244.588 199.365Z" fill="#FBF7F4" stroke="#115934" stroke-miterlimit="10"/>
<path d="M194.173 168.074C235.666 179.923 257.334 158.185 260.131 134.205C262.927 110.225 241.827 100.195 234.41 96.0094C226.992 91.8244 219.327 89.7406 206.883 90.0232C204.936 90.0232 202.988 90.1468 201.112 90.2351C191.908 90.6154 182.881 92.8773 174.589 96.8808C166.297 100.884 158.918 106.544 152.91 113.509C145.106 122.442 140.504 133.712 139.828 145.542C137.774 183.649 183.605 180.117 205.962 160.039C219.186 150.009 218.619 150.857 219.469 147.519C220.319 144.182 222.408 127.442 215.557 131.627C208.706 135.812 196.687 151.987 175.727 150.309L166.505 148.544C166.505 148.544 164.487 148.967 165.106 147.784C165.726 146.601 169.337 144.535 169.833 142.381C170.328 140.226 170.594 136.412 168.062 136.183C169.213 134.858 172.01 135.547 175.143 137.613C178.277 139.679 192.226 144.323 196.917 145.153" fill="#FBF7F4"/>
<path d="M194.173 168.074C235.666 179.923 257.334 158.185 260.13 134.205C262.927 110.225 241.827 100.195 234.41 96.0094C226.992 91.8244 219.327 89.7406 206.883 90.0232C204.936 90.0232 202.988 90.1468 201.112 90.2351C191.908 90.6154 182.881 92.8773 174.589 96.8808C166.297 100.884 158.918 106.544 152.91 113.509C145.106 122.442 140.504 133.712 139.828 145.542C137.774 183.649 183.605 180.117 205.962 160.039C219.186 150.009 218.619 150.857 219.469 147.519C220.319 144.182 222.408 127.442 215.557 131.627C208.706 135.812 196.687 151.987 175.727 150.309L166.505 148.544C166.505 148.544 164.487 148.967 165.106 147.784C165.726 146.601 169.337 144.535 169.833 142.381C170.328 140.226 170.594 136.412 168.062 136.183C169.213 134.858 172.01 135.547 175.143 137.613C178.277 139.679 192.226 144.323 196.917 145.153" stroke="#115934" stroke-miterlimit="10"/>
<path d="M203.909 80.5935C180.525 80.5052 193.854 50.9449 193.854 50.9449L214.814 50.2915L220.018 65.4425L215.185 74.0952C214.21 75.3973 213.501 76.8786 213.1 78.4543C212.699 80.0299 212.614 81.669 212.849 83.2777C213.592 88.8578 220.018 95.6386 220.018 95.6386C215.563 97.7949 210.663 98.8767 205.713 98.7969C200.762 98.7172 195.9 97.4781 191.518 95.1795C193.854 89.7936 196.368 84.6727 196.828 79.2868" fill="#FBF7F4"/>
<path d="M203.909 80.5935C180.525 80.5052 193.854 50.9449 193.854 50.9449L214.814 50.2915L220.018 65.4425L215.185 74.0952C214.21 75.3973 213.501 76.8786 213.1 78.4543C212.699 80.0299 212.614 81.669 212.849 83.2777C213.592 88.8578 220.018 95.6386 220.018 95.6386C215.563 97.7949 210.663 98.8767 205.713 98.7969C200.762 98.7172 195.9 97.4781 191.518 95.1795C193.854 89.7936 196.368 84.6727 196.828 79.2868" stroke="#115934" stroke-miterlimit="10"/>
<path opacity="0.14" d="M196.545 81.6531C196.545 81.6531 202.511 81.7414 203.909 80.5936C201.516 80.5733 199.135 80.2408 196.828 79.6047L196.545 81.6531Z" fill="#115934"/>
<path d="M186.703 39.2196C186.703 39.4315 180.064 55.8716 199.484 56.0835C206.051 56.2954 207.449 55.2536 208.848 53.6466C210.246 52.0397 213.256 55.4125 211.008 57.9023C213.45 58.591 215.964 57.761 215.911 62.4935C215.858 67.226 212.123 67.7911 210.6 68.1443C212.264 73.1593 214.442 75.4549 216.177 75.4549C219.947 74.6956 220.868 74.7662 222.195 65.8487C223.523 56.9311 225.612 51.7218 219.947 46.1947C214.849 41.162 210.671 39.767 204.971 41.3033C199.271 42.8396 194.669 44.3759 188.243 38.3896C186.915 37.2595 186.703 39.2196 186.703 39.2196Z" fill="#115934"/>
<path d="M219.469 147.519C235.118 142.222 231.754 120.555 231.754 120.555L219.469 147.519Z" fill="#FBF7F4"/>
<path d="M219.469 147.519C235.118 142.222 231.754 120.555 231.754 120.555" stroke="#115934" stroke-miterlimit="10"/>
<path d="M168.505 137.966C168.505 137.966 161.424 134.664 154.91 138.39C148.396 142.116 148.679 148.42 150.856 150.98C153.033 153.541 158.132 150.786 159.619 149.532C161.106 148.279 161.619 147.36 162.557 147.254C164 147.265 165.442 147.347 166.876 147.502C169.127 145.619 170.847 143.185 171.868 140.438C172.329 138.708 168.505 137.966 168.505 137.966Z" fill="#FBF7F4" stroke="#115934" stroke-miterlimit="10"/>
<path d="M219.469 132.863C219.469 132.863 225.771 129.561 231.436 132.863C227.665 143.935 224.549 145.559 223.558 145.7L220.478 144.341C220.305 144.263 220.167 144.125 220.088 143.953C220.01 143.781 219.998 143.586 220.053 143.405C220.968 139.916 220.763 136.23 219.469 132.863Z" fill="#FBF7F4" stroke="#115934" stroke-miterlimit="10"/>
<path d="M274.416 199.647H262.202H184.614H174.931H148.006H138.465H138.111H138.075H97.4493H2.40723" stroke="#115934" stroke-miterlimit="10"/>
</g>
<defs>
<clipPath id="clip0_37_2455">
<rect width="273.797" height="200" fill="white" transform="translate(0.601562)"/>
</clipPath>
</defs>
</svg>
