<svg width="53" height="96" viewBox="0 0 53 96" fill="none" xmlns="http://www.w3.org/2000/svg">
<path d="M8.5145 1H44.1845C46.2492 1.07817 48.1988 1.97129 49.6063 3.48383C51.0139 4.99636 51.7648 7.00503 51.6945 9.06999V86.76C51.7675 88.8257 51.0175 90.8358 49.6093 92.349C48.2012 93.8621 46.2501 94.7544 44.1845 94.83H8.5145C6.44982 94.7518 4.50026 93.8587 3.09269 92.3462C1.68511 90.8336 0.934259 88.8249 1.00452 86.76V9.06999C0.934259 7.00503 1.68511 4.99636 3.09269 3.48383C4.50026 1.97129 6.44982 1.07817 8.5145 1Z" fill="#F26522" stroke="#F1E4DA" stroke-miterlimit="10"/>
<g clip-path="url(#clip0_87_1020)">
<path d="M14 36.75C14 36.5511 14.079 36.3603 14.2197 36.2197C14.3603 36.079 14.5511 36 14.75 36H19.25C19.4489 36 19.6397 36.079 19.7803 36.2197C19.921 36.3603 20 36.5511 20 36.75C20 36.9489 19.921 37.1397 19.7803 37.2803C19.6397 37.421 19.4489 37.5 19.25 37.5H15.5V41.25C15.5 41.4489 15.421 41.6397 15.2803 41.7803C15.1397 41.921 14.9489 42 14.75 42C14.5511 42 14.3603 41.921 14.2197 41.7803C14.079 41.6397 14 41.4489 14 41.25V36.75ZM32 36.75C32 36.5511 32.079 36.3603 32.2197 36.2197C32.3603 36.079 32.5511 36 32.75 36H37.25C37.4489 36 37.6397 36.079 37.7803 36.2197C37.921 36.3603 38 36.5511 38 36.75V41.25C38 41.4489 37.921 41.6397 37.7803 41.7803C37.6397 41.921 37.4489 42 37.25 42C37.0511 42 36.8603 41.921 36.7197 41.7803C36.579 41.6397 36.5 41.4489 36.5 41.25V37.5H32.75C32.5511 37.5 32.3603 37.421 32.2197 37.2803C32.079 37.1397 32 36.9489 32 36.75ZM14.75 54C14.9489 54 15.1397 54.079 15.2803 54.2197C15.421 54.3603 15.5 54.5511 15.5 54.75V58.5H19.25C19.4489 58.5 19.6397 58.579 19.7803 58.7197C19.921 58.8603 20 59.0511 20 59.25C20 59.4489 19.921 59.6397 19.7803 59.7803C19.6397 59.921 19.4489 60 19.25 60H14.75C14.5511 60 14.3603 59.921 14.2197 59.7803C14.079 59.6397 14 59.4489 14 59.25V54.75C14 54.5511 14.079 54.3603 14.2197 54.2197C14.3603 54.079 14.5511 54 14.75 54ZM37.25 54C37.4489 54 37.6397 54.079 37.7803 54.2197C37.921 54.3603 38 54.5511 38 54.75V59.25C38 59.4489 37.921 59.6397 37.7803 59.7803C37.6397 59.921 37.4489 60 37.25 60H32.75C32.5511 60 32.3603 59.921 32.2197 59.7803C32.079 59.6397 32 59.4489 32 59.25C32 59.0511 32.079 58.8603 32.2197 58.7197C32.3603 58.579 32.5511 58.5 32.75 58.5H36.5V54.75C36.5 54.5511 36.579 54.3603 36.7197 54.2197C36.8603 54.079 37.0511 54 37.25 54ZM20 42H21.5V43.5H20V42Z" fill="#F1E4DA"/>
<path d="M24.5 39H17V46.5H24.5V39ZM18.5 40.5H23V45H18.5V40.5ZM21.5 52.5H20V54H21.5V52.5Z" fill="#F1E4DA"/>
<path d="M24.5 49.5H17V57H24.5V49.5ZM18.5 51H23V55.5H18.5V51ZM30.5 42H32V43.5H30.5V42Z" fill="#F1E4DA"/>
<path d="M27.5 39H35V46.5H27.5V39ZM29 40.5V45H33.5V40.5H29ZM26 48V51H27.5V52.5H26V54H29V51H30.5V54H32V52.5H35V51H30.5V48H26ZM29 51H27.5V49.5H29V51ZM35 54H33.5V55.5H30.5V57H35V54ZM29 57V55.5H26V57H29Z" fill="#F1E4DA"/>
<path d="M32 49.5H35V48H32V49.5Z" fill="#F1E4DA"/>
</g>
<path d="M15.3044 1H36.5044C37.6444 1 38.5644 2.36999 38.5644 4.04999C38.5644 5.72999 37.6444 7.04999 36.5044 7.04999H15.3044C14.1644 7.04999 13.2444 5.68999 13.2444 4.04999C13.2044 2.36999 14.1244 1 15.3044 1Z" fill="#F1E4DA" stroke="#F1E4DA" stroke-miterlimit="10"/>
<path d="M21.1947 3.0498H30.8447C30.9511 3.05367 31.0556 3.07848 31.1524 3.1228C31.2492 3.16712 31.3363 3.23009 31.4088 3.30811C31.4812 3.38612 31.5376 3.47766 31.5746 3.57747C31.6117 3.67728 31.6287 3.78343 31.6247 3.88982C31.6287 3.9962 31.6117 4.10234 31.5746 4.20215C31.5376 4.30196 31.4812 4.3935 31.4088 4.47151C31.3363 4.54953 31.2492 4.61249 31.1524 4.65681C31.0556 4.70114 30.9511 4.72595 30.8447 4.72981H21.1947C21.0883 4.72595 20.9837 4.70114 20.8869 4.65681C20.7901 4.61249 20.703 4.54953 20.6305 4.47151C20.5581 4.3935 20.5017 4.30196 20.4647 4.20215C20.4276 4.10234 20.4106 3.9962 20.4146 3.88982C20.4106 3.78343 20.4276 3.67728 20.4647 3.57747C20.5017 3.47766 20.5581 3.38612 20.6305 3.30811C20.703 3.23009 20.7901 3.16712 20.8869 3.1228C20.9837 3.07848 21.0883 3.05367 21.1947 3.0498Z" fill="#F26522"/>
<defs>
<clipPath id="clip0_87_1020">
<rect width="24" height="24" fill="white" transform="translate(14 36)"/>
</clipPath>
</defs>
</svg>
