<svg width="96" height="96" viewBox="0 0 96 96" fill="none" xmlns="http://www.w3.org/2000/svg">
<path d="M1.43457 44.1843L1.43457 8.51425C1.51274 6.44957 2.40586 4.50001 3.91839 3.09244C5.43093 1.68486 7.4396 0.933979 9.50456 1.00424L87.1945 1.00424C89.2602 0.931309 91.2704 1.68129 92.7835 3.08941C94.2967 4.49754 95.189 6.44866 95.2646 8.51425L95.2646 44.1843C95.1864 46.2489 94.2933 48.1985 92.7807 49.6061C91.2682 51.0136 89.2595 51.0698 87.1945 50.9995L9.50456 50.9995C7.4396 51.0698 5.43093 51.0136 3.9184 49.6061C2.40586 48.1985 1.51274 46.2489 1.43457 44.1843Z" fill="#F26522" stroke="#F1E4DA" stroke-miterlimit="10"/>
<path d="M10.7 17H41.6399" stroke="#F1E4DA" stroke-miterlimit="10"/>
<path d="M10.7 32H74.7399" stroke="#F1E4DA" stroke-miterlimit="10"/>
<path d="M10.7 35.7695H72.94" stroke="#F1E4DA" stroke-miterlimit="10"/>
<path d="M10.7 39.5293H50.91" stroke="#F1E4DA" stroke-miterlimit="10"/>
<path d="M10.6997 20.2393H30.6997" stroke="#F1E4DA" stroke-miterlimit="10"/>
<path d="M37.061 1H58.261C59.401 1 60.321 2.36999 60.321 4.04999C60.321 5.72999 59.401 7.04999 58.261 7.04999H37.061C35.921 7.04999 35.001 5.68999 35.001 4.04999C34.961 2.36999 35.881 1 37.061 1Z" fill="#F1E4DA" stroke="#F1E4DA" stroke-miterlimit="10"/>
<path d="M42.951 3.0498H52.601C52.7074 3.05367 52.812 3.07848 52.9088 3.1228C53.0056 3.16712 53.0927 3.23009 53.1651 3.30811C53.2376 3.38612 53.2939 3.47766 53.331 3.57747C53.368 3.67728 53.385 3.78343 53.381 3.88982C53.385 3.9962 53.368 4.10234 53.331 4.20215C53.2939 4.30196 53.2376 4.3935 53.1651 4.47151C53.0927 4.54953 53.0056 4.61249 52.9088 4.65681C52.812 4.70114 52.7074 4.72595 52.601 4.72981H42.951C42.8446 4.72595 42.74 4.70114 42.6432 4.65681C42.5464 4.61249 42.4593 4.54953 42.3869 4.47151C42.3144 4.3935 42.2581 4.30196 42.221 4.20215C42.184 4.10234 42.167 3.9962 42.171 3.88982C42.167 3.78343 42.184 3.67728 42.221 3.57747C42.2581 3.47766 42.3144 3.38612 42.3869 3.30811C42.4593 3.23009 42.5464 3.16712 42.6432 3.1228C42.74 3.07848 42.8446 3.05367 42.951 3.0498Z" fill="#F26522"/>
<path d="M29.9998 51H65.9998V90C65.9998 92.7614 63.7612 95 60.9998 95H34.9998C32.2383 95 29.9998 92.7614 29.9998 90V51Z" stroke="#F1E4DA"/>
</svg>
