<svg width="88" height="62" viewBox="0 0 88 62" fill="none" xmlns="http://www.w3.org/2000/svg">
<path d="M83.1257 0.521463H83.1502L83.1746 0.51906C84.2137 0.416824 85.2511 0.728717 86.0616 1.38701C86.8652 2.03978 87.3813 2.98085 87.5 4.00867V44.4042C87.3811 45.4256 86.8699 46.3613 86.0736 47.0131C85.2704 47.6705 84.2415 47.9866 83.2078 47.8936L83.1854 47.8916H83.163H73.3395H72.976L72.8639 48.2374L68.9828 60.2127L57.8717 48.0543L57.723 47.8916H57.5026H4.83701H4.81466L4.79241 47.8936C3.75614 47.9864 2.72491 47.668 1.92134 47.0071C1.12434 46.3517 0.614663 45.4114 0.5 44.3866V4.00884C0.618858 2.98739 1.13015 2.05171 1.92643 1.39992C2.72955 0.742545 3.7585 0.426422 4.79219 0.51945L4.81455 0.521463H4.83701H83.1257Z" fill="#F26522" stroke="#F1E4DA"/>
<path d="M12.2512 16.0449H67.5127" stroke="#F1E4DA" stroke-miterlimit="10"/>
<path d="M12.2512 23.0107H67.5127" stroke="#F1E4DA" stroke-miterlimit="10"/>
<path d="M12.2512 29.9961H50.7606" stroke="#F1E4DA" stroke-miterlimit="10"/>
</svg>
