<svg width="88" height="85" viewBox="0 0 88 85" fill="none" xmlns="http://www.w3.org/2000/svg">
<path d="M83.43 1H5.03C2.80429 1 1 2.80429 1 5.03V18.97C1 21.1957 2.80429 23 5.03 23H83.43C85.6557 23 87.46 21.1957 87.46 18.97V5.03C87.46 2.80429 85.6557 1 83.43 1Z" fill="#F26522" stroke="#F1E4DA" stroke-miterlimit="10"/>
<path d="M83.43 32H5.03C2.80429 32 1 33.8043 1 36.03V49.97C1 52.1957 2.80429 54 5.03 54H83.43C85.6557 54 87.46 52.1957 87.46 49.97V36.03C87.46 33.8043 85.6557 32 83.43 32Z" fill="#F26522" stroke="#F1E4DA" stroke-miterlimit="10"/>
<path d="M11 44H79" stroke="#F1E4DA" stroke-miterlimit="10"/>
<path d="M11 41H55" stroke="#F1E4DA" stroke-miterlimit="10"/>
<path d="M83.43 62H5.03C2.80429 62 1 63.8043 1 66.03V79.97C1 82.1957 2.80429 84 5.03 84H83.43C85.6557 84 87.46 82.1957 87.46 79.97V66.03C87.46 63.8043 85.6557 62 83.43 62Z" fill="#F26522" stroke="#F1E4DA" stroke-miterlimit="10"/>
<path d="M11 71H62" stroke="#F1E4DA" stroke-miterlimit="10"/>
<path d="M11 74H44" stroke="#F1E4DA" stroke-miterlimit="10"/>
</svg>
