<svg width="29" height="28" viewBox="0 0 29 28" fill="none" xmlns="http://www.w3.org/2000/svg">
<g filter="url(#filter0_d_87_1113)">
<path fill-rule="evenodd" clip-rule="evenodd" d="M22.9 0H6.1C4.9402 0 4 0.89543 4 2V18C4 19.1046 4.9402 20 6.1 20H14.5V12.4706H11.35V9.64706H14.5V8.13082C14.5 5.26024 16.0642 4 18.6212 4C19.8218 4 20.4678 4.08142 20.7816 4.12097L20.8 4.12329V6.82353H19.056C17.9706 6.82353 17.65 7.35812 17.65 8.44047V9.64706H20.7728L20.341 12.4706H17.65V20H22.9C24.0598 20 25 19.1046 25 18V2C25 0.89543 24.0598 0 22.9 0Z" fill="#FBF7F4"/>
</g>
<defs>
<filter id="filter0_d_87_1113" x="0" y="0" width="29" height="28" filterUnits="userSpaceOnUse" color-interpolation-filters="sRGB">
<feFlood flood-opacity="0" result="BackgroundImageFix"/>
<feColorMatrix in="SourceAlpha" type="matrix" values="0 0 0 0 0 0 0 0 0 0 0 0 0 0 0 0 0 0 127 0" result="hardAlpha"/>
<feOffset dy="4"/>
<feGaussianBlur stdDeviation="2"/>
<feComposite in2="hardAlpha" operator="out"/>
<feColorMatrix type="matrix" values="0 0 0 0 0 0 0 0 0 0 0 0 0 0 0 0 0 0 0.25 0"/>
<feBlend mode="normal" in2="BackgroundImageFix" result="effect1_dropShadow_87_1113"/>
<feBlend mode="normal" in="SourceGraphic" in2="effect1_dropShadow_87_1113" result="shape"/>
</filter>
</defs>
</svg>
