<svg width="21" height="20" viewBox="0 0 21 20" fill="none" xmlns="http://www.w3.org/2000/svg">
<path fill-rule="evenodd" clip-rule="evenodd" d="M2 0C0.895431 0 0 0.895431 0 2V18C0 19.1046 0.89543 20 2 20H8.06749C8.02076 19.8696 7.99071 19.7182 7.99071 19.5306V17.8792H6.73208C6.04685 17.8792 5.43757 17.595 5.14211 17.0668C5.04272 16.889 4.96824 16.6826 4.89007 16.466C4.71028 15.9678 4.51102 15.4157 3.94441 15.033C3.7032 14.8502 3.88682 14.6417 4.16475 14.6699C4.67805 14.81 5.10371 15.1498 5.50434 15.6538C5.90329 16.1586 6.09108 16.2729 6.83641 16.2729C7.19781 16.2729 7.73865 16.2528 8.24778 16.1755C8.52153 15.5048 8.99477 14.8873 9.57317 14.5958C6.23798 14.2649 4.64633 12.6643 4.64633 10.4911C4.64633 9.55556 5.05948 8.65056 5.7614 7.88808C5.53104 7.13124 5.24143 5.58776 5.84987 5C7.35054 5 8.25779 5.93881 8.47563 6.19243C9.22346 5.94525 10.0447 5.80515 10.9078 5.80515C11.7724 5.80515 12.597 5.94525 13.3465 6.19404C13.5619 5.94203 14.47 5 15.974 5C16.5849 5.58857 16.292 7.13849 16.0591 7.89372C16.7569 8.65459 17.1675 9.55717 17.1675 10.4911C17.1675 12.6626 15.5784 14.2625 12.2482 14.595C13.1646 15.0564 13.8331 16.3527 13.8331 17.3293V19.5306C13.8331 19.6143 13.8139 19.9283 13.8039 20H19C20.1046 20 21 19.1046 21 18V2C21 0.895431 20.1046 0 19 0H2Z" fill="#FBF7F4"/>
</svg>
