<svg width="21" height="20" viewBox="0 0 21 20" fill="none" xmlns="http://www.w3.org/2000/svg">
<path fill-rule="evenodd" clip-rule="evenodd" d="M6.3 0H14.7C18.1794 0 21 2.68629 21 6V14C21 17.3137 18.1794 20 14.7 20H6.3C2.82061 20 0 17.3137 0 14V6C0 2.68629 2.82061 0 6.3 0ZM16.8 3C17.325 3 17.85 3.5 17.85 4C17.85 4.5 17.325 5 16.8 5C16.275 5 15.75 4.5 15.75 4C15.75 3.5 16.275 3 16.8 3ZM15.75 10C15.75 7.2425 13.3954 5 10.5 5C7.60462 5 5.25 7.2425 5.25 10C5.25 12.7575 7.60462 15 10.5 15C13.3954 15 15.75 12.7575 15.75 10ZM10.5 7C8.7603 7 7.35 8.34315 7.35 10C7.35 11.6569 8.7603 13 10.5 13C12.2397 13 13.65 11.6569 13.65 10C13.65 8.34315 12.2397 7 10.5 7Z" fill="#FBF7F4"/>
</svg>
