<svg width="21" height="20" viewBox="0 0 21 20" fill="none" xmlns="http://www.w3.org/2000/svg">
<path fill-rule="evenodd" clip-rule="evenodd" d="M18.9 0H2.1C0.940202 0 0 0.89543 0 2V18C0 19.1046 0.940202 20 2.1 20H18.9C20.0598 20 21 19.1046 21 18V2C21 0.89543 20.0598 0 18.9 0ZM4.2 4.56404C4.2 5.42749 4.93533 6.12899 5.84469 6.12899C6.75119 6.12899 7.48843 5.42749 7.48843 4.56404C7.48843 3.7015 6.75119 3 5.84469 3C4.93629 3 4.2 3.70059 4.2 4.56404ZM4.46296 16H7.2838V7.36366H4.46296V16ZM17.85 16H15.0311V11.8001C15.0311 10.7984 15.0119 9.51001 13.5652 9.51001C12.0974 9.51001 11.8717 10.6009 11.8717 11.7273V16H9.0528V7.36366H11.7589V8.54374H11.7971C12.1739 7.86499 13.0938 7.14894 14.4659 7.14894C17.3222 7.14894 17.85 8.93771 17.85 11.2633V16Z" fill="#FBF7F4"/>
</svg>
