<svg width="21" height="20" viewBox="0 0 21 20" fill="none" xmlns="http://www.w3.org/2000/svg">
<path fill-rule="evenodd" clip-rule="evenodd" d="M18.9 0H2.1C0.940202 0 0 0.89543 0 2V18C0 19.1046 0.940202 20 2.1 20H18.9C20.0598 20 21 19.1046 21 18V2C21 0.89543 20.0598 0 18.9 0ZM16.1177 6.23936C16.7278 6.1722 17.3089 6.02331 17.85 5.80205C17.4458 6.35858 16.9341 6.84744 16.3444 7.23946C16.3501 7.35868 16.3529 7.47842 16.3529 7.59868C16.3529 11.2685 13.3203 15.5 7.77297 15.5C6.06953 15.5 4.48482 15.0403 3.15 14.2526C3.38632 14.2786 3.6266 14.2917 3.86971 14.2917C5.28311 14.2917 6.58345 13.8476 7.61524 13.1026C6.29568 13.0802 5.18191 12.2769 4.79803 11.1737C4.98178 11.2055 5.17117 11.2232 5.36509 11.2232C5.64042 11.2232 5.90727 11.1893 6.15999 11.1258C4.77994 10.8712 3.7408 9.74881 3.7408 8.40302V8.36814C4.1473 8.57587 4.61259 8.70081 5.10672 8.71539C4.29769 8.21769 3.76568 7.36753 3.76568 6.4044C3.76568 5.89472 3.91437 5.41784 4.17331 5.0076C5.66134 6.68813 7.88322 7.79391 10.3895 7.90948C10.3386 7.70697 10.3115 7.49456 10.3115 7.27694C10.3115 5.74374 11.6615 4.5 13.3271 4.5C14.1944 4.5 14.978 4.83736 15.5281 5.37723C16.2155 5.25228 16.8612 5.02113 17.4435 4.70304C17.2185 5.35172 16.7408 5.89576 16.1177 6.23936Z" fill="#FBF7F4"/>
</svg>
