<svg width="42" height="30" viewBox="0 0 42 30" fill="none" xmlns="http://www.w3.org/2000/svg">
<g clip-path="url(#clip0_87_1084)">
<path d="M8.12008 28.3327C9.48008 28.3327 10.7334 27.5593 11.3201 26.3593L15.1067 18.786C15.4801 18.0393 15.6667 17.2393 15.6667 16.4127V4.33268C15.6667 2.86602 14.4667 1.66602 13.0001 1.66602H2.33341C0.866748 1.66602 -0.333252 2.86602 -0.333252 4.33268V14.9993C-0.333252 16.466 0.866748 17.666 2.33341 17.666H7.66675L4.92008 23.1593C3.72008 25.5327 5.45341 28.3327 8.12008 28.3327ZM34.7867 28.3327C36.1467 28.3327 37.4001 27.5593 37.9867 26.3593L41.7734 18.786C42.1467 18.0393 42.3334 17.2393 42.3334 16.4127V4.33268C42.3334 2.86602 41.1334 1.66602 39.6667 1.66602H29.0001C27.5334 1.66602 26.3334 2.86602 26.3334 4.33268V14.9993C26.3334 16.466 27.5334 17.666 29.0001 17.666H34.3334L31.5867 23.1593C30.3867 25.5327 32.1201 28.3327 34.7867 28.3327Z" fill="#F26522"/>
</g>
<defs>
<clipPath id="clip0_87_1084">
<rect width="42" height="30" fill="white"/>
</clipPath>
</defs>
</svg>
