<svg width="488" height="91" viewBox="0 0 488 91" fill="none" xmlns="http://www.w3.org/2000/svg">
<path d="M19.1669 65.8814C18.7047 65.7999 18.3525 65.5862 18.1102 65.2402C17.8679 64.8942 17.7875 64.4901 17.869 64.0279L23.6258 31.3796L12.4069 29.4014C11.9447 29.3199 11.5925 29.1061 11.3502 28.7601C11.1153 28.3721 11.035 27.968 11.109 27.5478L12.2982 20.8039C12.3797 20.3417 12.5934 19.9894 12.9394 19.7472C13.2854 19.5049 13.6895 19.4245 14.1517 19.506L48.0606 25.4851C48.5228 25.5666 48.8751 25.7803 49.1173 26.1263C49.3596 26.4723 49.44 26.8764 49.3585 27.3386L48.1693 34.0826C48.0952 34.5027 47.8815 34.855 47.5281 35.1393C47.1821 35.3815 46.778 35.4619 46.3158 35.3804L35.0969 33.4022L29.3401 66.0506C29.2586 66.5128 29.0448 66.865 28.6989 67.1073C28.3529 67.3495 27.9488 67.4299 27.4866 67.3484L19.1669 65.8814Z" fill="#115934"/>
<path d="M147.831 67C147.362 67 146.978 66.8507 146.679 66.552C146.38 66.2533 146.231 65.8693 146.231 65.4V32.248H134.839C134.37 32.248 133.986 32.0987 133.687 31.8C133.388 31.4587 133.239 31.0747 133.239 30.648V23.8C133.239 23.3307 133.388 22.9467 133.687 22.648C133.986 22.3493 134.37 22.2 134.839 22.2H169.271C169.74 22.2 170.124 22.3493 170.423 22.648C170.722 22.9467 170.871 23.3307 170.871 23.8V30.648C170.871 31.0747 170.722 31.4587 170.423 31.8C170.124 32.0987 169.74 32.248 169.271 32.248H157.879V65.4C157.879 65.8693 157.73 66.2533 157.431 66.552C157.132 66.8507 156.748 67 156.279 67H147.831Z" fill="#115934"/>
<path d="M175.309 65.9063C174.847 65.8248 174.494 65.611 174.252 65.265C174.01 64.9191 173.929 64.515 174.011 64.0528L181.235 23.0848C181.316 22.6225 181.53 22.2703 181.876 22.028C182.222 21.7858 182.626 21.7054 183.088 21.7869L191.534 23.2761C191.996 23.3576 192.348 23.5713 192.591 23.9173C192.833 24.2633 192.913 24.6674 192.832 25.1296L185.608 66.0976C185.527 66.5598 185.313 66.9121 184.967 67.1543C184.621 67.3966 184.217 67.477 183.754 67.3955L175.309 65.9063Z" fill="#115934"/>
<path d="M199.975 67C199.548 67 199.164 66.8507 198.823 66.552C198.524 66.2533 198.375 65.8693 198.375 65.4V23.8C198.375 23.3307 198.524 22.9467 198.823 22.648C199.164 22.3493 199.548 22.2 199.975 22.2H206.887C207.57 22.2 208.082 22.392 208.423 22.776C208.807 23.1173 209.042 23.3947 209.127 23.608L220.391 43.832L231.655 23.608C231.783 23.3947 231.996 23.1173 232.295 22.776C232.636 22.392 233.17 22.2 233.895 22.2H240.743C241.212 22.2 241.596 22.3493 241.895 22.648C242.236 22.9467 242.407 23.3307 242.407 23.8V65.4C242.407 65.8693 242.236 66.2533 241.895 66.552C241.596 66.8507 241.212 67 240.743 67H233.127C232.658 67 232.252 66.8507 231.911 66.552C231.612 66.2533 231.463 65.8693 231.463 65.4V41.4L224.231 54.776C224.06 55.16 223.804 55.5013 223.463 55.8C223.122 56.0987 222.652 56.248 222.055 56.248H218.727C218.13 56.248 217.66 56.0987 217.319 55.8C216.978 55.5013 216.7 55.16 216.487 54.776L209.255 41.4V65.4C209.255 65.8693 209.106 66.2533 208.807 66.552C208.508 66.8507 208.124 67 207.655 67H199.975Z" fill="#115934"/>
<path d="M273.527 67.3418C269.661 68.0234 266.189 67.9858 263.109 67.2291C260.03 66.4723 257.469 64.9742 255.428 62.7346C253.379 60.453 251.934 57.4152 251.092 53.6212C250.731 51.8218 250.391 50.0187 250.073 48.2119C249.754 46.4051 249.453 44.5736 249.169 42.7174C248.67 38.9061 248.993 35.5781 250.138 32.7334C251.317 29.8393 253.221 27.4891 255.848 25.6827C258.476 23.8763 261.702 22.636 265.525 21.9618C269.307 21.295 272.741 21.361 275.828 22.1598C278.957 22.9511 281.571 24.5049 283.669 26.8211C285.759 29.0952 287.201 32.112 287.994 35.8715C288.404 37.7055 288.768 39.5259 289.087 41.3327C289.405 43.1395 289.682 44.9537 289.917 46.7753C290.423 50.6286 290.103 53.9776 288.959 56.8223C287.807 59.6249 285.913 61.9084 283.278 63.6728C280.643 65.4371 277.393 66.6601 273.527 67.3418ZM271.927 58.2658C274.154 57.8731 275.842 56.8822 276.991 55.2931C278.183 53.6966 278.561 51.4203 278.127 48.4642C277.885 46.6006 277.619 44.8494 277.33 43.2107C277.041 41.572 276.699 39.8776 276.304 38.1277C275.872 36.1676 275.212 34.6376 274.325 33.5376C273.472 32.3882 272.427 31.6194 271.189 31.2312C269.951 30.8429 268.596 30.7785 267.126 31.0378C265.697 31.2897 264.467 31.8098 263.436 32.5981C262.406 33.3864 261.665 34.4701 261.215 35.8492C260.758 37.1863 260.661 38.8497 260.925 40.8394C261.195 42.6116 261.474 44.317 261.763 45.9557C262.051 47.5944 262.38 49.3345 262.748 51.1759C263.393 54.095 264.527 56.1046 266.151 57.2046C267.774 58.3047 269.7 58.6585 271.927 58.2658Z" fill="#115934"/>
<path d="M298.975 67C298.506 67 298.122 66.8507 297.823 66.552C297.524 66.2533 297.375 65.8693 297.375 65.4V23.8C297.375 23.3307 297.524 22.9467 297.823 22.648C298.122 22.3493 298.506 22.2 298.975 22.2H305.759C306.484 22.2 306.996 22.3707 307.295 22.712C307.636 23.0107 307.85 23.2453 307.935 23.416L323.551 48.056V23.8C323.551 23.3307 323.7 22.9467 323.999 22.648C324.298 22.3493 324.682 22.2 325.151 22.2H332.831C333.3 22.2 333.684 22.3493 333.983 22.648C334.282 22.9467 334.431 23.3307 334.431 23.8V65.4C334.431 65.8267 334.282 66.2107 333.983 66.552C333.684 66.8507 333.3 67 332.831 67H325.983C325.3 67 324.788 66.8293 324.447 66.488C324.148 66.1467 323.956 65.912 323.871 65.784L308.255 42.104V65.4C308.255 65.8693 308.106 66.2533 307.807 66.552C307.508 66.8507 307.124 67 306.655 67H298.975Z" fill="#115934"/>
<path d="M341.309 65.9063C340.846 65.8248 340.494 65.611 340.252 65.265C340.01 64.9191 339.929 64.515 340.011 64.0528L347.234 23.0848C347.316 22.6225 347.53 22.2703 347.876 22.028C348.222 21.7858 348.626 21.7054 349.088 21.7869L357.534 23.2761C357.996 23.3576 358.348 23.5713 358.59 23.9173C358.833 24.2633 358.913 24.6674 358.832 25.1296L351.608 66.0976C351.526 66.5598 351.313 66.9121 350.967 67.1543C350.621 67.3966 350.216 67.477 349.754 67.3955L341.309 65.9063Z" fill="#115934"/>
<path d="M361.815 67C361.474 67 361.154 66.872 360.855 66.616C360.599 66.3173 360.471 65.9973 360.471 65.656C360.471 65.4427 360.492 65.2507 360.535 65.08L375.575 23.992C375.703 23.5227 375.959 23.1173 376.343 22.776C376.77 22.392 377.346 22.2 378.071 22.2H387.543C388.268 22.2 388.823 22.392 389.207 22.776C389.634 23.1173 389.911 23.5227 390.039 23.992L405.015 65.08C405.1 65.2507 405.143 65.4427 405.143 65.656C405.143 65.9973 404.994 66.3173 404.695 66.616C404.439 66.872 404.119 67 403.735 67H395.863C395.223 67 394.732 66.8507 394.391 66.552C394.092 66.2107 393.9 65.912 393.815 65.656L391.319 59.128H374.231L371.799 65.656C371.714 65.912 371.522 66.2107 371.223 66.552C370.924 66.8507 370.412 67 369.687 67H361.815ZM376.855 49.912H388.759L382.743 33.016L376.855 49.912Z" fill="#115934"/>
<path d="M415.912 69.0037C415.45 69.0852 415.046 69.0048 414.7 68.7626C414.354 68.5203 414.14 68.1681 414.059 67.7059L406.835 26.7379C406.754 26.2756 406.834 25.8715 407.076 25.5256C407.318 25.1796 407.671 24.9658 408.133 24.8843L416.453 23.4173C416.873 23.3432 417.256 23.4273 417.602 23.6696C417.99 23.9045 418.225 24.253 418.306 24.7152L424.13 57.7417L443.164 54.3854C443.626 54.3039 444.034 54.4053 444.387 54.6896C444.775 54.9245 445.01 55.273 445.092 55.7352L446.203 62.038C446.284 62.5002 446.183 62.908 445.899 63.2614C445.656 63.6074 445.304 63.8211 444.842 63.9026L415.912 69.0037Z" fill="#115934"/>
<path d="M466.079 67.64C461.812 67.64 458.271 67.0427 455.455 65.848C452.639 64.6107 450.506 63.0107 449.055 61.048C447.604 59.0853 446.836 56.9947 446.751 54.776C446.751 54.4347 446.879 54.136 447.135 53.88C447.434 53.5813 447.775 53.432 448.159 53.432H456.223C456.82 53.432 457.268 53.5387 457.567 53.752C457.908 53.9653 458.207 54.2427 458.463 54.584C458.804 55.224 459.274 55.8427 459.871 56.44C460.511 57.0373 461.322 57.528 462.303 57.912C463.327 58.2533 464.586 58.424 466.079 58.424C468.554 58.424 470.41 58.04 471.647 57.272C472.927 56.504 473.567 55.4587 473.567 54.136C473.567 53.1973 473.226 52.4293 472.543 51.832C471.86 51.192 470.751 50.6373 469.215 50.168C467.722 49.656 465.716 49.144 463.199 48.632C459.956 47.9493 457.183 47.0747 454.879 46.008C452.618 44.8987 450.89 43.4693 449.695 41.72C448.5 39.928 447.903 37.7093 447.903 35.064C447.903 32.4613 448.628 30.136 450.079 28.088C451.572 26.04 453.642 24.44 456.287 23.288C458.932 22.136 462.068 21.56 465.695 21.56C468.639 21.56 471.22 21.944 473.439 22.712C475.7 23.48 477.599 24.504 479.135 25.784C480.671 27.064 481.823 28.4293 482.591 29.88C483.402 31.288 483.828 32.6747 483.871 34.04C483.871 34.3813 483.743 34.7013 483.487 35C483.231 35.256 482.911 35.384 482.527 35.384H474.079C473.61 35.384 473.204 35.2987 472.863 35.128C472.522 34.9573 472.223 34.68 471.967 34.296C471.711 33.3573 471.028 32.5467 469.919 31.864C468.852 31.1387 467.444 30.776 465.695 30.776C463.818 30.776 462.346 31.1173 461.279 31.8C460.255 32.44 459.743 33.4427 459.743 34.808C459.743 35.6613 460.02 36.408 460.575 37.048C461.172 37.688 462.132 38.2427 463.455 38.712C464.82 39.1813 466.676 39.672 469.023 40.184C472.906 40.9093 476.042 41.8267 478.431 42.936C480.82 44.0027 482.57 45.4107 483.679 47.16C484.788 48.8667 485.343 51.0213 485.343 53.624C485.343 56.5253 484.511 59.0427 482.847 61.176C481.226 63.2667 478.964 64.8667 476.063 65.976C473.162 67.0853 469.834 67.64 466.079 67.64Z" fill="#115934"/>
<path d="M53.975 67C53.5057 67 53.1217 66.8507 52.823 66.552C52.5244 66.2533 52.375 65.8693 52.375 65.4V23.8C52.375 23.3307 52.5244 22.9467 52.823 22.648C53.1217 22.3493 53.5057 22.2 53.975 22.2H83.863C84.3324 22.2 84.7164 22.3493 85.015 22.648C85.3137 22.9467 85.463 23.3307 85.463 23.8V29.816C85.463 30.2853 85.3137 30.6693 85.015 30.968C84.7164 31.2667 84.3324 31.416 83.863 31.416H63.447V40.056H82.455C82.9244 40.056 83.3084 40.2267 83.607 40.568C83.9057 40.8667 84.055 41.2507 84.055 41.72V47.288C84.055 47.7147 83.9057 48.0987 83.607 48.44C83.3084 48.7387 82.9244 48.888 82.455 48.888H63.447V57.784H84.375C84.8444 57.784 85.2284 57.9333 85.527 58.232C85.8257 58.5307 85.975 58.9147 85.975 59.384V65.4C85.975 65.8693 85.8257 66.2533 85.527 66.552C85.2284 66.8507 84.8444 67 84.375 67H53.975Z" fill="#115934"/>
<path d="M113.928 67.3589C109.726 68.0998 106.135 68.1264 103.154 67.4389C100.166 66.7094 97.7877 65.5041 96.0182 63.8232C94.2488 62.1422 93.1294 60.2167 92.6601 58.0466C92.6008 57.7104 92.675 57.3941 92.8827 57.0975C93.1249 56.7515 93.4352 56.5452 93.8133 56.4785L101.755 55.0782C102.343 54.9745 102.803 55.0017 103.134 55.1599C103.507 55.3108 103.849 55.532 104.161 55.8237C104.608 56.3947 105.178 56.9225 105.87 57.407C106.604 57.8841 107.487 58.2266 108.52 58.4343C109.588 58.5927 110.857 58.5422 112.328 58.2829C114.765 57.8531 116.526 57.1527 117.611 56.1815C118.738 55.2029 119.187 54.0623 118.958 52.7597C118.795 51.8353 118.325 51.1383 117.549 50.6686C116.766 50.1568 115.577 49.8032 113.983 49.6077C112.423 49.3628 110.359 49.2068 107.791 49.1397C104.479 49.0305 101.596 48.6507 99.1421 48.0004C96.7225 47.3006 94.7725 46.193 93.2922 44.6777C91.8045 43.1204 90.831 41.0391 90.3716 38.434C89.9197 35.8709 90.2302 33.4549 91.3032 31.1861C92.4182 28.9099 94.1783 26.9749 96.5834 25.381C98.9885 23.7872 101.977 22.6754 105.548 22.0456C108.448 21.5344 111.056 21.4643 113.375 21.8354C115.735 22.199 117.783 22.8778 119.518 23.8716C121.253 24.8654 122.624 26.01 123.632 27.3052C124.675 28.5511 125.336 29.8426 125.615 31.1798C125.675 31.5159 125.604 31.8533 125.404 32.1919C125.196 32.4884 124.903 32.6701 124.525 32.7367L116.206 34.2037C115.743 34.2852 115.329 34.2716 114.964 34.1628C114.598 34.054 114.255 33.8327 113.937 33.499C113.522 32.619 112.709 31.9392 111.497 31.4596C110.321 30.9305 108.871 30.8178 107.149 31.1216C105.3 31.4476 103.91 32.0393 102.978 32.8969C102.08 33.705 101.75 34.7813 101.987 36.1259C102.135 36.9663 102.538 37.6534 103.196 38.1874C103.895 38.7139 104.937 39.0935 106.321 39.326C107.747 39.5511 109.66 39.712 112.06 39.8088C116.009 39.8489 119.257 40.2077 121.803 40.8853C124.341 41.5208 126.308 42.6037 127.705 44.1338C129.093 45.6219 130.014 47.6475 130.466 50.2106C130.97 53.0679 130.587 55.6915 129.319 58.0813C128.085 60.4218 126.136 62.3901 123.472 63.9864C120.807 65.5827 117.626 66.7069 113.928 67.3589Z" fill="#115934"/>
</svg>
