<svg width="380" height="300" viewBox="0 0 380 300" fill="none" xmlns="http://www.w3.org/2000/svg">
<rect width="380" height="300" rx="40" fill="#349362"/>
<g clip-path="url(#clip0_37_3165)">
<path d="M277.489 221.215H209.654C208.063 221.215 206.773 222.512 206.773 224.113V232.395C206.773 233.996 208.063 235.293 209.654 235.293H277.489C279.08 235.293 280.37 233.996 280.37 232.395V224.113C280.37 222.512 279.08 221.215 277.489 221.215Z" fill="#349362" stroke="#115934" stroke-miterlimit="10"/>
<path d="M273.087 211.138H214.042C212.79 211.138 211.775 212.159 211.775 213.418V218.935C211.775 220.194 212.79 221.215 214.042 221.215H273.087C274.339 221.215 275.354 220.194 275.354 218.935V213.418C275.354 212.159 274.339 211.138 273.087 211.138Z" fill="#349362" stroke="#115934" stroke-miterlimit="10"/>
<path d="M243.572 139.894C251.317 139.913 258.739 143.022 264.209 148.537C269.679 154.053 272.75 161.525 272.75 169.315V211.197H214.379V169.256C214.394 161.474 217.475 154.014 222.946 148.511C228.418 143.008 235.834 139.909 243.572 139.894Z" fill="#349362" stroke="#115934" stroke-miterlimit="10"/>
<path d="M243.572 203.15C253.83 203.15 262.146 194.785 262.146 184.467C262.146 174.149 253.83 165.785 243.572 165.785C233.313 165.785 224.997 174.149 224.997 184.467C224.997 194.785 233.313 203.15 243.572 203.15Z" fill="#349362" stroke="#115934" stroke-miterlimit="10"/>
<path d="M248.896 181.981V186.953H233.772V181.981H248.896Z" fill="#115934"/>
<path d="M254.366 184.467L247.784 178.671V190.263L254.366 184.467Z" fill="#115934"/>
<path fill-rule="evenodd" clip-rule="evenodd" d="M254.614 103.043C253.856 103.044 253.112 102.834 252.464 102.437C251.816 102.04 251.29 101.471 250.943 100.793L244.479 102.514C244.261 102.516 244.05 102.438 243.886 102.294C243.722 102.151 243.615 101.952 243.587 101.735C243.558 101.518 243.609 101.298 243.73 101.117C243.851 100.935 244.034 100.804 244.245 100.749L250.49 99.0715C250.49 99.0715 250.49 98.9538 250.49 98.8803C250.494 97.9355 250.818 97.0203 251.408 96.2851C251.998 95.5499 252.819 95.0385 253.737 94.8348V82.7573C253.764 82.541 253.87 82.3422 254.032 82.1981C254.195 82.0541 254.405 81.9746 254.622 81.9746C254.839 81.9746 255.048 82.0541 255.211 82.1981C255.374 82.3422 255.479 82.541 255.506 82.7573V94.8495C256.508 95.0605 257.395 95.6383 257.997 96.4705C258.598 97.3028 258.871 98.3303 258.762 99.3533C258.652 100.376 258.169 101.322 257.405 102.007C256.641 102.691 255.652 103.066 254.629 103.058L254.614 103.043Z" fill="#115934"/>
<path fill-rule="evenodd" clip-rule="evenodd" d="M249.758 127.257C243.812 126.718 238.173 124.362 233.597 120.505C232.224 119.387 230.969 118.13 229.853 116.754L229.75 116.592C225.993 112.025 223.703 106.418 223.183 100.513C223.046 99.6424 223.007 98.7592 223.066 97.8798C223.008 97.0004 223.047 96.1172 223.183 95.2466C223.717 89.2983 226.038 83.6543 229.838 79.0647C230.362 78.3279 230.97 77.6562 231.652 77.0641C232.244 76.3826 232.912 75.7707 233.641 75.2399C238.182 71.4398 243.76 69.1115 249.642 68.5613H249.919H250.212H250.68H253.371H254.015H254.57H254.658C260.697 69.0121 266.441 71.3701 271.068 75.2988C271.787 75.8204 272.445 76.4225 273.028 77.0935C273.719 77.6967 274.333 78.3835 274.856 79.1383C278.634 83.7412 280.952 89.378 281.511 95.3201C281.621 95.971 281.656 96.6325 281.614 97.2914C281.614 97.7033 281.614 98.1152 281.614 98.5124C281.648 99.1566 281.614 99.8026 281.511 100.439C281.299 102.95 280.763 105.423 279.917 107.795C280.444 108.633 281.014 109.56 281.599 110.56C282.184 111.561 282.784 112.561 283.471 113.782C287.002 106.764 288.088 98.7566 286.555 91.0435C285.023 83.3304 280.959 76.3584 275.017 71.2449C269.075 66.1314 261.598 63.1727 253.785 62.8429C245.971 62.5131 238.274 64.8315 231.927 69.4263C225.579 74.0211 220.95 80.6263 218.78 88.1831C216.61 95.7399 217.025 103.811 219.959 111.102C222.894 118.393 228.177 124.482 234.962 128.393C241.747 132.304 249.641 133.81 257.379 132.671C256.78 131.886 256.406 130.953 256.295 129.971C256.184 128.989 256.341 127.994 256.75 127.095C256.15 127.184 255.492 127.242 254.878 127.287C254.03 127.404 253.172 127.438 252.318 127.39C251.444 127.449 250.566 127.41 249.7 127.272L249.758 127.257Z" fill="#115934"/>
<path fill-rule="evenodd" clip-rule="evenodd" d="M277.913 107.898C278.688 109.089 279.712 110.752 281.072 113.076C284.115 118.313 287.537 124.653 289.161 127.463C289.482 128.023 289.651 128.658 289.65 129.304C289.65 129.95 289.481 130.585 289.159 131.144C288.837 131.703 288.374 132.167 287.818 132.49C287.261 132.812 286.629 132.981 285.987 132.98H261.708C261.108 132.982 260.517 132.833 259.989 132.548C259.46 132.263 259.011 131.85 258.68 131.347C258.355 130.83 258.16 130.24 258.114 129.629C258.068 129.019 258.172 128.406 258.417 127.846V127.772L258.519 127.551C259.982 125.051 262.907 119.652 265.686 114.783C268.465 109.913 271.112 105.603 272.004 105.073C272.834 104.646 273.787 104.526 274.696 104.735H274.813L275.091 104.823H275.281C276.133 105.661 276.862 106.617 277.445 107.663L277.913 107.898Z" fill="#115934"/>
<path fill-rule="evenodd" clip-rule="evenodd" d="M252.347 70.2383H254.088V75.6518C254.088 76.1083 253.907 76.5461 253.587 76.8689C253.266 77.1916 252.83 77.373 252.377 77.373C251.923 77.373 251.487 77.1916 251.167 76.8689C250.846 76.5461 250.665 76.1083 250.665 75.6518V70.2383H251.089H251.616H252.347Z" fill="#115934"/>
<path fill-rule="evenodd" clip-rule="evenodd" d="M248.881 70.4591C244.021 71.083 239.416 73.0029 235.542 76.0197L239.228 79.7268C239.712 80.2193 240.04 80.8445 240.172 81.524C240.304 82.2035 240.234 82.9071 239.97 83.5466C239.706 84.186 239.26 84.7328 238.688 85.1184C238.117 85.504 237.445 85.7112 236.756 85.7141C236.299 85.7154 235.846 85.625 235.424 85.4482C235.003 85.2714 234.62 85.0117 234.299 84.6843L230.613 80.992C227.607 84.8854 225.693 89.5182 225.07 94.4081H230.292C234.884 94.4081 234.884 101.425 230.292 101.425H225.07C225.688 106.316 227.603 110.95 230.613 114.841L234.299 111.134C234.623 110.809 235.007 110.551 235.43 110.374C235.853 110.198 236.306 110.108 236.763 110.108C237.221 110.108 237.674 110.198 238.097 110.374C238.52 110.551 238.904 110.809 239.228 111.134C239.552 111.46 239.808 111.846 239.983 112.272C240.159 112.697 240.249 113.153 240.249 113.613C240.249 114.073 240.159 114.529 239.983 114.955C239.808 115.38 239.552 115.766 239.228 116.092L235.601 119.799C239.476 122.805 244.073 124.728 248.925 125.374V120.123C248.925 115.503 255.901 115.503 255.901 120.123V125.418C256.603 125.33 257.291 125.227 257.993 125.08C260.918 119.917 263.595 114.944 265.891 111.075C268.187 107.206 270.118 104.206 271.2 103.558H271.536C272.816 102.924 274.293 102.823 275.646 103.279H275.734H275.807H275.968C276.144 103.367 276.334 103.455 276.495 103.558H276.568C276.862 103.773 277.127 104.025 277.357 104.308C277.776 104.779 278.171 105.27 278.542 105.78C278.973 104.336 279.291 102.86 279.493 101.366H274.271C269.679 101.366 269.679 94.3493 274.271 94.3493H279.493C278.849 89.4625 276.931 84.834 273.935 80.9331L270.264 84.6255C269.61 85.2829 268.724 85.6523 267.8 85.6523C266.875 85.6523 265.989 85.2829 265.335 84.6255C264.681 83.9681 264.314 83.0765 264.314 82.1468C264.314 81.217 264.681 80.3254 265.335 79.668L269.021 75.9609C265.152 72.9231 260.538 70.9963 255.667 70.3855V75.6372C255.698 76.1171 255.631 76.5982 255.47 77.0509C255.308 77.5035 255.056 77.9181 254.73 78.2689C254.403 78.6198 254.008 78.8994 253.569 79.0906C253.13 79.2818 252.657 79.3804 252.179 79.3804C251.701 79.3804 251.228 79.2818 250.789 79.0906C250.351 78.8994 249.956 78.6198 249.629 78.2689C249.302 77.9181 249.05 77.5035 248.889 77.0509C248.727 76.5982 248.66 76.1171 248.691 75.6372V70.4002L248.881 70.4591Z" fill="#115934"/>
<path fill-rule="evenodd" clip-rule="evenodd" d="M234.138 77.167L237.926 80.9918C238.246 81.3156 238.425 81.7541 238.424 82.2106C238.422 82.6672 238.241 83.1045 237.919 83.4264C237.597 83.7483 237.161 83.9283 236.707 83.927C236.253 83.9256 235.818 83.7429 235.498 83.4191L231.71 79.609L231.856 79.4325L233.963 77.3141L234.138 77.167Z" fill="#115934"/>
<path fill-rule="evenodd" clip-rule="evenodd" d="M224.909 96.188H230.291C230.745 96.188 231.181 96.3693 231.502 96.6921C231.822 97.0149 232.003 97.4527 232.003 97.9091C232.003 98.3656 231.822 98.8034 231.502 99.1262C231.181 99.449 230.745 99.6303 230.291 99.6303H224.909V96.188Z" fill="#115934"/>
<path fill-rule="evenodd" clip-rule="evenodd" d="M231.754 116.224L235.542 112.399C235.862 112.075 236.297 111.893 236.751 111.891C237.205 111.89 237.641 112.07 237.963 112.392C238.285 112.714 238.466 113.151 238.468 113.608C238.469 114.064 238.29 114.503 237.97 114.827L234.138 118.651L233.919 118.46L231.842 116.371L231.71 116.224H231.754Z" fill="#115934"/>
<path fill-rule="evenodd" clip-rule="evenodd" d="M272.999 79.609L269.196 83.4191C268.869 83.7023 268.448 83.8506 268.016 83.8344C267.585 83.8182 267.175 83.6385 266.87 83.3315C266.565 83.0245 266.386 82.6127 266.37 82.1788C266.354 81.7449 266.501 81.3209 266.783 80.9918L270.571 77.167L270.717 77.2847L272.75 79.3442L272.999 79.609Z" fill="#115934"/>
<path fill-rule="evenodd" clip-rule="evenodd" d="M252.376 134.819C254.663 134.817 256.945 134.6 259.192 134.171C259.972 134.6 260.848 134.823 261.737 134.819H286.016C286.967 134.812 287.9 134.556 288.722 134.075C289.544 133.594 290.227 132.906 290.703 132.078C291.179 131.25 291.431 130.311 291.435 129.354C291.439 128.398 291.195 127.457 290.725 126.625C288.692 123.079 286.557 119.196 284.553 115.636C297.717 91.4218 280.473 61 252.376 61C242.644 61 233.31 64.8886 226.428 71.8105C219.546 78.7323 215.68 88.1203 215.68 97.9093C215.68 107.698 219.546 117.086 226.428 124.008C233.31 130.93 242.644 134.819 252.376 134.819Z" fill="#115934"/>
<path fill-rule="evenodd" clip-rule="evenodd" d="M274.461 96.188H279.844V99.6303H274.461C274.008 99.6303 273.572 99.449 273.251 99.1262C272.931 98.8034 272.75 98.3656 272.75 97.9091C272.75 97.4527 272.931 97.0149 273.251 96.6921C273.572 96.3693 274.008 96.188 274.461 96.188Z" fill="#115934"/>
<path fill-rule="evenodd" clip-rule="evenodd" d="M250.665 125.536V120.122C250.665 119.666 250.846 119.228 251.167 118.905C251.487 118.583 251.923 118.401 252.377 118.401C252.83 118.401 253.266 118.583 253.587 118.905C253.907 119.228 254.088 119.666 254.088 120.122V125.536C252.948 125.61 251.805 125.61 250.665 125.536Z" fill="#115934"/>
<path fill-rule="evenodd" clip-rule="evenodd" d="M273.877 123.712C273.053 123.708 272.264 123.376 271.683 122.789C271.102 122.202 270.776 121.407 270.776 120.578V112.87C270.83 112.078 271.181 111.336 271.758 110.794C272.335 110.253 273.095 109.951 273.884 109.951C274.673 109.951 275.433 110.253 276.01 110.794C276.587 111.336 276.938 112.078 276.992 112.87V120.578C276.992 121.409 276.664 122.206 276.079 122.794C275.495 123.382 274.703 123.712 273.877 123.712Z" fill="#115934"/>
<path fill-rule="evenodd" clip-rule="evenodd" d="M273.877 111.531C274.231 111.531 274.571 111.672 274.823 111.923C275.075 112.173 275.218 112.514 275.222 112.87V120.579C275.188 120.911 275.032 121.219 274.784 121.443C274.537 121.667 274.217 121.791 273.884 121.791C273.551 121.791 273.23 121.667 272.983 121.443C272.736 121.219 272.58 120.911 272.546 120.579V112.87C272.546 112.694 272.58 112.52 272.647 112.358C272.714 112.195 272.812 112.048 272.935 111.924C273.059 111.799 273.206 111.701 273.367 111.633C273.529 111.566 273.702 111.531 273.877 111.531Z" fill="#115934"/>
<path fill-rule="evenodd" clip-rule="evenodd" d="M273.877 130.876C273.089 130.822 272.352 130.469 271.813 129.889C271.274 129.308 270.975 128.544 270.975 127.75C270.975 126.956 271.274 126.192 271.813 125.612C272.352 125.031 273.089 124.678 273.877 124.624C274.664 124.678 275.402 125.031 275.94 125.612C276.479 126.192 276.779 126.956 276.779 127.75C276.779 128.544 276.479 129.308 275.94 129.889C275.402 130.469 274.664 130.822 273.877 130.876Z" fill="#115934"/>
<path fill-rule="evenodd" clip-rule="evenodd" d="M273.877 126.404C274.23 126.404 274.568 126.545 274.818 126.796C275.067 127.047 275.208 127.388 275.208 127.743C275.208 128.098 275.067 128.438 274.818 128.689C274.568 128.94 274.23 129.081 273.877 129.081C273.524 129.081 273.185 128.94 272.935 128.689C272.686 128.438 272.546 128.098 272.546 127.743C272.546 127.388 272.686 127.047 272.935 126.796C273.185 126.545 273.524 126.404 273.877 126.404Z" fill="#115934"/>
<path fill-rule="evenodd" clip-rule="evenodd" d="M254.614 96.5117C253.99 96.5117 253.391 96.7612 252.949 97.2054C252.508 97.6496 252.26 98.252 252.26 98.8801C252.26 99.5083 252.508 100.111 252.949 100.555C253.391 100.999 253.99 101.249 254.614 101.249C255.239 101.249 255.838 100.999 256.279 100.555C256.721 100.111 256.969 99.5083 256.969 98.8801C256.969 98.252 256.721 97.6496 256.279 97.2054C255.838 96.7612 255.239 96.5117 254.614 96.5117Z" fill="#115934"/>
<path fill-rule="evenodd" clip-rule="evenodd" d="M244.215 100.748L250.461 99.0714C250.417 98.0955 250.718 97.1354 251.309 96.3604C251.9 95.5854 252.744 95.0451 253.693 94.8347V82.7572C253.721 82.5409 253.826 82.3421 253.989 82.198C254.151 82.054 254.361 81.9745 254.578 81.9745C254.795 81.9745 255.004 82.054 255.167 82.198C255.33 82.3421 255.435 82.5409 255.463 82.7572V94.8494C256.148 94.9935 256.785 95.3106 257.315 95.7708C257.845 96.231 258.249 96.8193 258.49 97.4801C258.732 98.141 258.802 98.8527 258.694 99.5484C258.586 100.244 258.304 100.901 257.875 101.456C257.445 102.012 256.882 102.449 256.238 102.725C255.594 103.002 254.891 103.109 254.195 103.037C253.499 102.964 252.832 102.715 252.258 102.312C251.684 101.909 251.222 101.366 250.914 100.734L244.449 102.455C244.232 102.457 244.021 102.379 243.857 102.235C243.693 102.092 243.586 101.893 243.557 101.676C243.529 101.459 243.58 101.239 243.701 101.058C243.822 100.876 244.005 100.745 244.215 100.69V100.748ZM235.557 119.872C239.433 122.879 244.029 124.802 248.881 125.448V120.123C248.881 115.503 255.858 115.503 255.858 120.123V125.418C256.56 125.33 257.247 125.227 257.949 125.08C260.874 119.917 263.551 114.944 265.847 111.075C268.143 107.206 270.001 104.132 271.434 103.411C272.077 103.085 272.777 102.89 273.495 102.837C274.213 102.784 274.934 102.874 275.617 103.102L276.758 103.661C277.524 104.325 278.189 105.098 278.732 105.956C279.163 104.512 279.481 103.037 279.683 101.543H274.462C269.869 101.543 269.869 94.5258 274.462 94.5258H279.683C279.039 89.639 277.122 85.0105 274.125 81.1096L270.454 84.802C269.8 85.4594 268.914 85.8287 267.99 85.8287C267.065 85.8287 266.179 85.4594 265.525 84.802C264.872 84.1446 264.504 83.253 264.504 82.3232C264.504 81.3935 264.872 80.5019 265.525 79.8445L269.211 76.1374C265.342 73.0995 260.728 71.1728 255.858 70.562V75.8137C255.888 76.2936 255.821 76.7747 255.66 77.2274C255.499 77.68 255.247 78.0946 254.92 78.4454C254.593 78.7963 254.198 79.0759 253.759 79.2671C253.32 79.4583 252.847 79.5569 252.369 79.5569C251.891 79.5569 251.418 79.4583 250.979 79.2671C250.541 79.0759 250.146 78.7963 249.819 78.4454C249.492 78.0946 249.24 77.68 249.079 77.2274C248.917 76.7747 248.85 76.2936 248.881 75.8137V70.5767C244.021 71.2006 239.416 73.1205 235.542 76.1374L239.228 79.8445C239.712 80.3369 240.04 80.9621 240.172 81.6416C240.304 82.3212 240.234 83.0248 239.97 83.6642C239.706 84.3037 239.26 84.8505 238.688 85.2361C238.117 85.6217 237.445 85.8289 236.756 85.8318C236.299 85.8331 235.846 85.7427 235.424 85.5658C235.003 85.389 234.62 85.1294 234.299 84.802L230.613 81.1096C227.607 85.0031 225.693 89.6359 225.07 94.5258H230.292C234.884 94.5258 234.884 101.543 230.292 101.543H225.07C225.688 106.434 227.603 111.068 230.613 114.959L234.299 111.252C234.623 110.926 235.007 110.668 235.43 110.492C235.853 110.316 236.306 110.225 236.763 110.225C237.221 110.225 237.674 110.316 238.097 110.492C238.52 110.668 238.904 110.926 239.228 111.252C239.552 111.577 239.808 111.964 239.983 112.389C240.159 112.815 240.249 113.27 240.249 113.731C240.249 114.191 240.159 114.647 239.983 115.072C239.808 115.497 239.552 115.884 239.228 116.209L235.557 119.872Z" fill="#115934"/>
<path fill-rule="evenodd" clip-rule="evenodd" d="M235.601 83.4191C235.921 83.7429 236.356 83.9256 236.809 83.927C237.263 83.9283 237.699 83.7483 238.021 83.4264C238.343 83.1045 238.525 82.6672 238.526 82.2106C238.528 81.7541 238.349 81.3156 238.029 80.9918L234.138 77.167L231.71 79.609L235.601 83.4191Z" fill="#349362"/>
<path fill-rule="evenodd" clip-rule="evenodd" d="M230.291 96.188H224.909V99.6303H230.291C230.745 99.6303 231.181 99.449 231.502 99.1262C231.822 98.8034 232.003 98.3656 232.003 97.9091C232.003 97.4527 231.822 97.0149 231.502 96.6921C231.181 96.3693 230.745 96.188 230.291 96.188Z" fill="#349362"/>
<path fill-rule="evenodd" clip-rule="evenodd" d="M235.601 112.399L231.812 116.224L234.138 118.652L237.926 114.827C238.148 114.5 238.252 114.106 238.219 113.712C238.186 113.317 238.019 112.946 237.746 112.661C237.473 112.376 237.11 112.194 236.719 112.147C236.329 112.099 235.934 112.188 235.601 112.399Z" fill="#349362"/>
<path fill-rule="evenodd" clip-rule="evenodd" d="M250.665 120.122V125.536C251.805 125.61 252.948 125.61 254.088 125.536V120.122C254.088 119.666 253.907 119.228 253.587 118.905C253.266 118.583 252.83 118.401 252.377 118.401C251.923 118.401 251.487 118.583 251.167 118.905C250.846 119.228 250.665 119.666 250.665 120.122Z" fill="#349362"/>
<path fill-rule="evenodd" clip-rule="evenodd" d="M252.377 127.375C251.502 127.434 250.624 127.395 249.759 127.257C243.813 126.718 238.173 124.362 233.597 120.505C232.224 119.387 230.969 118.13 229.853 116.754L229.75 116.592C225.993 112.025 223.703 106.418 223.183 100.513C223.048 99.6424 223.009 98.7593 223.066 97.8799C223.008 97.0005 223.047 96.1173 223.183 95.2467C223.717 89.2984 226.038 83.6544 229.838 79.0649C230.362 78.328 230.97 77.6564 231.652 77.0642C232.244 76.3828 232.912 75.7708 233.641 75.2401C239.52 70.3211 247.08 67.9131 254.702 68.532C260.741 68.9828 266.485 71.3408 271.112 75.2695C271.831 75.7911 272.489 76.3932 273.072 77.0642C273.763 77.6674 274.377 78.3542 274.9 79.109C278.678 83.712 280.996 89.3488 281.555 95.2908C281.678 96.3502 281.712 97.418 281.658 98.4831C281.692 99.1273 281.658 99.7733 281.555 100.41C281.343 102.921 280.807 105.394 279.961 107.766L283.515 113.753C287.046 106.735 288.132 98.7273 286.599 91.0142C285.067 83.3012 281.003 76.3291 275.061 71.2156C269.119 66.1021 261.642 63.1434 253.828 62.8136C246.015 62.4838 238.318 64.8022 231.971 69.397C225.623 73.9918 220.994 80.597 218.824 88.1538C216.654 95.7106 217.069 103.781 220.003 111.072C222.938 118.363 228.221 124.452 235.006 128.363C241.791 132.274 249.685 133.781 257.423 132.641C256.824 131.857 256.45 130.924 256.339 129.942C256.228 128.959 256.385 127.965 256.794 127.066C256.194 127.154 255.536 127.213 254.921 127.257C254.079 127.378 253.227 127.418 252.377 127.375Z" fill="#349362"/>
<path fill-rule="evenodd" clip-rule="evenodd" d="M265.745 114.738C262.951 119.608 260.026 125.036 258.578 127.507C258.267 128.067 258.105 128.699 258.109 129.341C258.113 129.982 258.282 130.612 258.601 131.168C258.919 131.723 259.376 132.187 259.925 132.512C260.475 132.838 261.099 133.014 261.737 133.024H286.016C286.659 133.025 287.29 132.856 287.847 132.534C288.404 132.212 288.866 131.748 289.188 131.188C289.51 130.629 289.679 129.994 289.68 129.348C289.68 128.702 289.511 128.067 289.19 127.507C287.055 123.815 281.233 112.944 277.913 107.898C276.582 105.883 276.056 105.221 275.573 104.956C275.038 104.683 274.447 104.541 273.847 104.541C273.248 104.541 272.656 104.683 272.122 104.956C271.229 105.485 268.553 109.869 265.803 114.665L265.745 114.738ZM273.877 123.712C273.053 123.708 272.264 123.376 271.683 122.789C271.102 122.202 270.776 121.407 270.776 120.579V112.87C270.83 112.078 271.181 111.336 271.758 110.795C272.335 110.253 273.095 109.951 273.884 109.951C274.673 109.951 275.433 110.253 276.01 110.795C276.587 111.336 276.938 112.078 276.992 112.87V120.579C276.992 121.41 276.664 122.207 276.079 122.794C275.495 123.382 274.703 123.712 273.877 123.712ZM273.877 130.876C273.089 130.822 272.352 130.469 271.813 129.889C271.274 129.308 270.975 128.544 270.975 127.75C270.975 126.956 271.274 126.192 271.813 125.612C272.352 125.031 273.089 124.678 273.877 124.624C274.664 124.678 275.402 125.031 275.94 125.612C276.479 126.192 276.779 126.956 276.779 127.75C276.779 128.544 276.479 129.308 275.94 129.889C275.402 130.469 274.664 130.822 273.877 130.876Z" fill="#349362"/>
<path fill-rule="evenodd" clip-rule="evenodd" d="M272.546 112.87V120.579C272.58 120.911 272.736 121.219 272.983 121.443C273.23 121.667 273.551 121.791 273.884 121.791C274.217 121.791 274.537 121.667 274.784 121.443C275.032 121.219 275.188 120.911 275.222 120.579V112.87C275.188 112.537 275.032 112.229 274.784 112.006C274.537 111.782 274.217 111.658 273.884 111.658C273.551 111.658 273.23 111.782 272.983 112.006C272.736 112.229 272.58 112.537 272.546 112.87Z" fill="#115934"/>
<path fill-rule="evenodd" clip-rule="evenodd" d="M273.877 126.404C273.524 126.404 273.185 126.545 272.935 126.796C272.686 127.047 272.546 127.388 272.546 127.743C272.546 128.098 272.686 128.438 272.935 128.689C273.185 128.94 273.524 129.081 273.877 129.081C274.23 129.081 274.568 128.94 274.818 128.689C275.067 128.438 275.208 128.098 275.208 127.743C275.208 127.388 275.067 127.047 274.818 126.796C274.568 126.545 274.23 126.404 273.877 126.404Z" fill="#115934"/>
<path fill-rule="evenodd" clip-rule="evenodd" d="M274.461 99.6303H279.844V96.188H274.461C274.008 96.188 273.572 96.3693 273.251 96.6921C272.931 97.0149 272.75 97.4527 272.75 97.9091C272.75 98.3656 272.931 98.8034 273.251 99.1262C273.572 99.449 274.008 99.6303 274.461 99.6303Z" fill="#349362"/>
<path fill-rule="evenodd" clip-rule="evenodd" d="M254.614 101.249C255.239 101.249 255.838 100.999 256.279 100.555C256.721 100.111 256.969 99.5083 256.969 98.8801C256.969 98.252 256.721 97.6496 256.279 97.2054C255.838 96.7612 255.239 96.5117 254.614 96.5117C253.99 96.5117 253.391 96.7612 252.949 97.2054C252.508 97.6496 252.26 98.252 252.26 98.8801C252.26 99.5083 252.508 100.111 252.949 100.555C253.391 100.999 253.99 101.249 254.614 101.249Z" fill="#349362"/>
<path fill-rule="evenodd" clip-rule="evenodd" d="M266.783 80.9918C266.501 81.3209 266.354 81.7449 266.37 82.1788C266.386 82.6127 266.565 83.0245 266.87 83.3315C267.175 83.6385 267.585 83.8182 268.016 83.8344C268.448 83.8506 268.869 83.7023 269.196 83.4191L272.999 79.609L270.571 77.167L266.783 80.9918Z" fill="#349362"/>
<path fill-rule="evenodd" clip-rule="evenodd" d="M254.088 75.696V70.2825H252.347H250.665V75.696C250.665 76.1525 250.846 76.5903 251.167 76.9131C251.487 77.2358 251.923 77.4172 252.377 77.4172C252.83 77.4172 253.266 77.2358 253.587 76.9131C253.907 76.5903 254.088 76.1525 254.088 75.696Z" fill="#349362"/>
<path d="M203.658 154.84C204.455 154.837 205.234 155.072 205.898 155.516C206.562 155.959 207.079 156.591 207.386 157.33C207.692 158.07 207.773 158.885 207.618 159.671C207.463 160.457 207.08 161.179 206.517 161.746C205.953 162.313 205.235 162.698 204.454 162.854C203.672 163.009 202.862 162.928 202.127 162.62C201.391 162.312 200.763 161.791 200.322 161.124C199.881 160.456 199.648 159.672 199.65 158.871C199.658 157.804 200.083 156.783 200.833 156.029C201.583 155.275 202.597 154.848 203.658 154.84Z" fill="#349362" stroke="#115934" stroke-miterlimit="10"/>
<path d="M184.41 108.766C185.209 108.763 185.991 108.998 186.657 109.443C187.323 109.887 187.842 110.52 188.15 111.262C188.458 112.003 188.54 112.82 188.386 113.609C188.232 114.397 187.848 115.122 187.284 115.692C186.721 116.261 186.001 116.649 185.218 116.807C184.434 116.965 183.622 116.885 182.884 116.578C182.145 116.271 181.514 115.751 181.07 115.083C180.625 114.415 180.388 113.629 180.388 112.826C180.388 111.752 180.811 110.721 181.565 109.96C182.319 109.199 183.342 108.77 184.41 108.766Z" fill="#349362" stroke="#115934" stroke-miterlimit="10"/>
<path d="M136.306 79.5503C137.372 79.5503 138.396 79.9765 139.15 80.7352C139.904 81.4938 140.328 82.5228 140.328 83.5957C140.328 84.6687 139.904 85.6976 139.15 86.4563C138.396 87.215 137.372 87.6412 136.306 87.6412C135.537 87.6377 134.784 87.4241 134.127 87.0233C133.559 86.6511 133.093 86.1431 132.768 85.5449C132.444 84.9467 132.273 84.277 132.269 83.5957C132.273 82.5215 132.7 81.4925 133.457 80.7343C134.213 79.976 135.238 79.5503 136.306 79.5503Z" fill="#349362" stroke="#115934" stroke-miterlimit="10"/>
<path d="M86.7533 98.2771C87.8214 98.281 88.8444 98.7105 89.5982 99.4715C90.3521 100.232 90.7754 101.263 90.7754 102.337C90.7813 102.869 90.6812 103.398 90.481 103.89C90.2808 104.383 89.9845 104.83 89.6096 105.206C89.2347 105.582 88.7889 105.878 88.2983 106.078C87.8078 106.277 87.2824 106.376 86.7533 106.368C85.6866 106.368 84.6635 105.942 83.9092 105.183C83.1549 104.424 82.7312 103.395 82.7312 102.323C82.7312 101.25 83.1549 100.221 83.9092 99.462C84.6635 98.7033 85.6866 98.2771 86.7533 98.2771Z" fill="#349362" stroke="#115934" stroke-miterlimit="10"/>
<path d="M112.436 85.052C113.503 85.052 114.526 85.4782 115.28 86.2369C116.035 86.9956 116.459 88.0245 116.459 89.0975C116.459 90.1704 116.035 91.1994 115.28 91.958C114.526 92.7167 113.503 93.1429 112.436 93.1429C111.37 93.1429 110.347 92.7167 109.592 91.958C108.838 91.1994 108.414 90.1704 108.414 89.0975C108.414 88.0245 108.838 86.9956 109.592 86.2369C110.347 85.4782 111.37 85.052 112.436 85.052Z" fill="#349362" stroke="#115934" stroke-miterlimit="10"/>
<path d="M193.829 136.599C193.854 137.651 193.47 138.671 192.759 139.443C192.048 140.215 191.065 140.678 190.02 140.734C188.975 140.789 187.95 140.433 187.162 139.741C186.374 139.048 185.885 138.074 185.8 137.025C185.785 136.883 185.785 136.74 185.8 136.599C185.862 135.566 186.313 134.596 187.062 133.887C187.811 133.178 188.8 132.783 189.829 132.783C190.858 132.783 191.847 133.178 192.596 133.887C193.345 134.596 193.797 135.566 193.858 136.599H193.829Z" fill="#349362" stroke="#115934" stroke-miterlimit="10"/>
<path d="M155.743 101.749C156.77 101.811 157.734 102.265 158.44 103.018C159.145 103.772 159.537 104.767 159.537 105.802C159.537 106.836 159.145 107.832 158.44 108.585C157.734 109.338 156.77 109.792 155.743 109.854C154.74 109.849 153.774 109.47 153.032 108.791C152.289 108.112 151.822 107.181 151.721 106.177C151.714 106.049 151.714 105.922 151.721 105.794C151.721 105.263 151.825 104.737 152.027 104.246C152.23 103.755 152.526 103.309 152.899 102.934C153.273 102.558 153.716 102.26 154.204 102.057C154.692 101.853 155.215 101.749 155.743 101.749Z" fill="#349362" stroke="#115934" stroke-miterlimit="10"/>
<path d="M89.9272 104.794L89.9419 104.809L100.78 113.4V138.026" stroke="#115934" stroke-miterlimit="10"/>
<path d="M112.466 93.1282L112.773 125.109" stroke="#115934" stroke-miterlimit="10"/>
<path d="M134.141 86.9939L134.127 87.0086L126.74 97.2326L126.419 119.549V119.563" stroke="#115934" stroke-miterlimit="10"/>
<path d="M151.721 106.177L140.971 106.677L140.825 119.019" stroke="#115934" stroke-miterlimit="10"/>
<path d="M182.099 116.195L175.342 124.521L158.157 125.183" stroke="#115934" stroke-miterlimit="10"/>
<path d="M169.638 137.878L185.8 137.025" stroke="#115934" stroke-miterlimit="10"/>
<path d="M174.86 152.692H185.99L190.363 158.797H199.65" stroke="#115934" stroke-miterlimit="10"/>
<path d="M112.89 142.086C112.074 142.479 111.348 143.038 110.757 143.726C110.165 144.415 109.721 145.218 109.453 146.087H109.292C107.872 146.83 106.682 147.949 105.849 149.323C105.017 150.697 104.574 152.274 104.568 153.884C104.57 155.44 104.995 156.966 105.796 158.297L105.899 158.4C105.034 159.208 104.345 160.187 103.875 161.276C103.404 162.364 103.162 163.539 103.164 164.726C103.164 165.923 103.407 167.108 103.877 168.208C104.347 169.308 105.035 170.3 105.899 171.125H106.074C105.827 171.966 105.699 172.837 105.694 173.714C105.694 178.524 108.736 182.423 113.504 182.423C113.9 183.747 114.711 184.907 115.815 185.731C116.919 186.555 118.257 186.999 119.632 186.998C120.87 187 122.082 186.648 123.128 185.983C124.183 186.406 125.325 186.563 126.454 186.439C127.583 186.315 128.665 185.915 129.604 185.273C130.544 184.632 131.313 183.768 131.844 182.758C132.375 181.748 132.651 180.623 132.649 179.48V141.056C132.651 140.135 132.473 139.223 132.124 138.372C131.774 137.521 131.262 136.747 130.615 136.095C129.969 135.443 129.201 134.926 128.355 134.573C127.509 134.221 126.603 134.039 125.687 134.039C125.368 134.03 125.049 134.06 124.737 134.127V134.054C123.436 133.59 122.044 133.442 120.676 133.621C119.307 133.8 118 134.301 116.86 135.083C115.72 135.866 114.78 136.908 114.115 138.124C113.451 139.341 113.081 140.698 113.036 142.086H112.89ZM141.995 114.724C152.765 116.336 162.6 121.786 169.709 130.081C176.818 138.376 180.727 148.964 180.724 159.915C180.741 163.943 181.746 167.905 183.65 171.448L192.045 187.395C192.371 188.018 192.534 188.714 192.518 189.418C192.502 190.122 192.308 190.81 191.953 191.417C191.599 192.024 191.096 192.53 190.493 192.886C189.889 193.243 189.205 193.439 188.505 193.456L180.798 193.603V210.432C180.798 212.978 179.794 215.421 178.006 217.224C176.219 219.028 173.793 220.045 171.261 220.053H158.098V231.924C158.098 232.818 157.745 233.675 157.117 234.306C156.489 234.938 155.637 235.293 154.749 235.293H107.698C106.81 235.289 105.961 234.933 105.333 234.302C104.706 233.671 104.352 232.817 104.348 231.924V219.744C104.337 206.157 101.108 192.769 94.9292 180.687C91.755 174.391 90.0635 167.445 89.9856 160.386C89.8666 149.917 93.3327 139.725 99.8018 131.523C106.271 123.321 115.349 117.607 125.512 115.342C128.632 114.634 131.82 114.269 135.019 114.253C137.353 114.232 139.685 114.39 141.995 114.724ZM165.002 171.139C165.865 170.315 166.553 169.323 167.023 168.223C167.493 167.123 167.736 165.938 167.737 164.74C167.738 163.553 167.496 162.379 167.026 161.29C166.555 160.202 165.866 159.223 165.002 158.415L165.089 158.312C165.886 156.979 166.306 155.453 166.303 153.898C166.299 152.291 165.858 150.715 165.028 149.341C164.198 147.967 163.01 146.847 161.594 146.102H161.433C161.167 145.232 160.724 144.427 160.132 143.738C159.54 143.05 158.813 142.492 157.996 142.1H157.82C157.775 140.713 157.406 139.356 156.741 138.139C156.077 136.922 155.136 135.881 153.996 135.098C152.856 134.315 151.549 133.814 150.181 133.636C148.812 133.457 147.421 133.605 146.12 134.068V134.142C145.812 134.076 145.498 134.047 145.184 134.054C143.333 134.054 141.559 134.793 140.25 136.109C138.942 137.425 138.207 139.21 138.207 141.071V179.554C138.211 181.412 138.948 183.194 140.256 184.506C141.564 185.819 143.336 186.556 145.184 186.556C146.065 186.547 146.937 186.377 147.758 186.056C148.594 186.592 149.541 186.926 150.527 187.032C151.512 187.139 152.509 187.015 153.439 186.671C154.369 186.326 155.208 185.77 155.889 185.046C156.57 184.322 157.076 183.449 157.367 182.496C162.15 182.496 165.192 178.598 165.192 173.787C165.189 172.909 165.056 172.037 164.797 171.198L165.002 171.139Z" fill="#349362" stroke="#115934" stroke-miterlimit="10"/>
<path d="M167.795 164.74C167.795 165.938 167.552 167.122 167.082 168.223C166.612 169.323 165.924 170.315 165.06 171.139H164.855C165.114 171.978 165.247 172.85 165.25 173.728C165.25 178.539 162.208 182.437 157.425 182.437C157.135 183.39 156.629 184.263 155.948 184.987C155.266 185.711 154.428 186.267 153.498 186.612C152.568 186.956 151.571 187.08 150.585 186.973C149.6 186.867 148.652 186.533 147.816 185.997C146.995 186.319 146.123 186.488 145.242 186.497C143.394 186.497 141.622 185.76 140.314 184.447C139.006 183.135 138.269 181.354 138.266 179.495V141.056C138.266 139.195 139.001 137.41 140.309 136.094C141.617 134.778 143.392 134.039 145.242 134.039C145.557 134.032 145.871 134.061 146.178 134.127V134.054C147.479 133.59 148.87 133.442 150.239 133.621C151.608 133.8 152.915 134.301 154.055 135.083C155.195 135.866 156.135 136.908 156.8 138.124C157.464 139.341 157.834 140.698 157.879 142.086H158.084C158.901 142.477 159.628 143.035 160.22 143.723C160.811 144.412 161.254 145.217 161.521 146.087H161.682C163.098 146.832 164.286 147.952 165.115 149.326C165.945 150.7 166.387 152.276 166.391 153.884C166.394 155.439 165.974 156.965 165.177 158.297L165.089 158.4C165.95 159.212 166.635 160.195 167.1 161.286C167.566 162.377 167.803 163.553 167.795 164.74Z" fill="#349362" stroke="#115934" stroke-miterlimit="10"/>
<path d="M109.453 146.087C109.722 145.218 110.165 144.415 110.757 143.726C111.348 143.038 112.074 142.479 112.89 142.086H113.08C113.125 140.698 113.495 139.341 114.159 138.124C114.824 136.908 115.764 135.866 116.904 135.083C118.044 134.301 119.351 133.8 120.72 133.621C122.088 133.442 123.48 133.59 124.781 134.054V134.127C125.093 134.06 125.412 134.03 125.731 134.039C126.647 134.039 127.553 134.22 128.399 134.573C129.245 134.926 130.013 135.443 130.659 136.095C131.306 136.747 131.818 137.52 132.167 138.372C132.517 139.223 132.695 140.135 132.693 141.056V179.539C132.695 180.682 132.419 181.807 131.888 182.817C131.357 183.827 130.588 184.69 129.648 185.332C128.709 185.974 127.627 186.374 126.498 186.498C125.369 186.621 124.227 186.465 123.172 186.041C122.126 186.707 120.914 187.059 119.676 187.056C118.301 187.058 116.963 186.614 115.859 185.79C114.755 184.966 113.944 183.805 113.548 182.481C108.78 182.481 105.738 178.583 105.738 173.773C105.743 172.896 105.871 172.024 106.118 171.183H105.943C105.079 170.359 104.391 169.367 103.921 168.267C103.451 167.167 103.208 165.982 103.208 164.784C103.206 163.597 103.448 162.423 103.919 161.334C104.389 160.246 105.078 159.267 105.943 158.459L105.84 158.356C105.039 157.025 104.614 155.499 104.612 153.943C104.618 152.333 105.061 150.756 105.893 149.382C106.726 148.008 107.916 146.889 109.336 146.146L109.453 146.087Z" fill="#349362" stroke="#115934" stroke-miterlimit="10"/>
<path d="M132.679 179.539C132.68 180.682 132.404 181.807 131.873 182.817C131.342 183.827 130.573 184.69 129.634 185.332C128.694 185.974 127.612 186.374 126.483 186.498C125.354 186.621 124.212 186.465 123.157 186.041C122.112 186.707 120.899 187.059 119.662 187.056C118.287 187.058 116.948 186.614 115.844 185.79C114.74 184.966 113.93 183.805 113.533 182.481C113.352 181.875 113.259 181.246 113.255 180.613C113.251 179.054 113.809 177.547 114.826 176.37C115.843 175.193 117.249 174.427 118.784 174.214" stroke="#115934" stroke-miterlimit="10"/>
<path d="M118.784 141.056C118.779 139.368 119.382 137.736 120.482 136.462C121.582 135.188 123.104 134.358 124.766 134.127C125.078 134.06 125.397 134.03 125.717 134.039C126.632 134.039 127.539 134.22 128.384 134.573C129.23 134.926 129.998 135.443 130.645 136.095C131.291 136.747 131.804 137.52 132.153 138.372C132.502 139.223 132.68 140.135 132.679 141.056" fill="#349362"/>
<path d="M118.784 141.056C118.779 139.368 119.382 137.736 120.482 136.462C121.582 135.188 123.104 134.358 124.766 134.127C125.078 134.06 125.397 134.03 125.717 134.039C126.632 134.039 127.539 134.22 128.384 134.573C129.23 134.926 129.998 135.443 130.645 136.095C131.291 136.747 131.804 137.52 132.153 138.372C132.502 139.223 132.68 140.135 132.679 141.056" stroke="#115934" stroke-miterlimit="10"/>
<path d="M113.504 182.481C108.736 182.481 105.694 178.583 105.694 173.773C105.699 172.896 105.827 172.024 106.074 171.184C106.624 169.4 107.727 167.841 109.222 166.735C110.717 165.628 112.525 165.032 114.382 165.034" stroke="#115934" stroke-miterlimit="10"/>
<path d="M105.899 171.139C105.035 170.315 104.347 169.323 103.877 168.223C103.407 167.122 103.164 165.938 103.164 164.74C103.19 162.435 104.112 160.231 105.733 158.601C107.354 156.971 109.545 156.043 111.837 156.017" stroke="#115934" stroke-miterlimit="10"/>
<path d="M105.796 158.311C104.995 156.98 104.57 155.454 104.568 153.898C104.574 152.289 105.017 150.712 105.849 149.338C106.682 147.964 107.873 146.845 109.292 146.102" stroke="#115934" stroke-miterlimit="10"/>
<path d="M121.738 151C120.599 150.998 119.472 150.771 118.42 150.331C117.369 149.891 116.414 149.246 115.61 148.435C114.806 147.624 114.169 146.661 113.734 145.602C113.3 144.542 113.078 143.408 113.08 142.262V142.086C113.125 140.698 113.495 139.341 114.159 138.124C114.823 136.908 115.764 135.866 116.904 135.083C118.044 134.301 119.351 133.8 120.72 133.621C122.088 133.442 123.48 133.59 124.781 134.054" stroke="#115934" stroke-miterlimit="10"/>
<path d="M115.669 154.399C113.968 154.403 112.336 153.728 111.129 152.523C109.923 151.318 109.241 149.68 109.233 147.97C109.239 147.333 109.327 146.7 109.497 146.087C109.765 145.218 110.209 144.415 110.801 143.726C111.392 143.038 112.118 142.479 112.934 142.086" stroke="#115934" stroke-miterlimit="10"/>
<path d="M132.693 141.041V179.539" stroke="#115934" stroke-miterlimit="10"/>
<path d="M138.266 179.539C138.269 181.398 139.006 183.179 140.314 184.491C141.622 185.804 143.394 186.541 145.242 186.541C146.123 186.532 146.995 186.363 147.816 186.041C148.652 186.577 149.6 186.911 150.585 187.017C151.571 187.124 152.568 187 153.498 186.656C154.428 186.311 155.266 185.755 155.948 185.031C156.629 184.307 157.135 183.434 157.425 182.481C157.607 181.875 157.7 181.246 157.703 180.613C157.707 179.054 157.149 177.547 156.133 176.37C155.116 175.193 153.71 174.427 152.175 174.214" stroke="#115934" stroke-miterlimit="10"/>
<path d="M152.233 141.056C152.238 139.366 151.633 137.732 150.53 136.458C149.427 135.184 147.901 134.355 146.237 134.127C145.929 134.061 145.615 134.032 145.301 134.039C143.45 134.039 141.676 134.778 140.368 136.094C139.059 137.41 138.324 139.195 138.324 141.056" fill="#349362"/>
<path d="M152.233 141.056C152.238 139.366 151.633 137.732 150.53 136.458C149.427 135.184 147.901 134.355 146.237 134.127C145.929 134.061 145.615 134.032 145.301 134.039C143.45 134.039 141.676 134.778 140.368 136.094C139.059 137.41 138.324 139.195 138.324 141.056" stroke="#115934" stroke-miterlimit="10"/>
<path d="M157.425 182.481C162.208 182.481 165.25 178.583 165.25 173.773C165.247 172.895 165.114 172.022 164.855 171.184C164.309 169.404 163.211 167.847 161.721 166.741C160.231 165.634 158.429 165.036 156.577 165.034" stroke="#115934" stroke-miterlimit="10"/>
<path d="M165.06 171.139C165.924 170.315 166.612 169.323 167.082 168.223C167.552 167.122 167.795 165.938 167.795 164.74C167.769 162.435 166.846 160.231 165.226 158.601C163.605 156.971 161.414 156.043 159.122 156.017" stroke="#115934" stroke-miterlimit="10"/>
<path d="M165.148 158.311C165.945 156.979 166.365 155.453 166.362 153.898C166.357 152.29 165.916 150.715 165.086 149.34C164.256 147.966 163.069 146.846 161.652 146.102" stroke="#115934" stroke-miterlimit="10"/>
<path d="M149.191 151C151.495 151 153.705 150.08 155.334 148.441C156.964 146.802 157.879 144.58 157.879 142.262V142.086C157.834 140.698 157.464 139.341 156.8 138.124C156.135 136.908 155.195 135.866 154.055 135.083C152.915 134.301 151.608 133.8 150.239 133.621C148.87 133.442 147.479 133.59 146.178 134.054" stroke="#115934" stroke-miterlimit="10"/>
<path d="M155.334 154.399C157.032 154.399 158.661 153.722 159.864 152.517C161.067 151.313 161.747 149.678 161.755 147.97C161.749 147.333 161.661 146.7 161.491 146.087C161.225 145.217 160.782 144.412 160.19 143.724C159.599 143.035 158.871 142.477 158.054 142.086" stroke="#115934" stroke-miterlimit="10"/>
<path d="M138.28 141.041V179.539" stroke="#115934" stroke-miterlimit="10"/>
<path d="M90.1465 235.293H97.8982H145.271H168.673H181.295H182.275H202.254H202.283H202.575H210.444H232.705H240.705H297.175" stroke="#115934" stroke-miterlimit="10"/>
</g>
<defs>
<clipPath id="clip0_37_3165">
<rect width="215" height="178" fill="white" transform="translate(82 61)"/>
</clipPath>
</defs>
</svg>
