<svg width="380" height="300" viewBox="0 0 380 300" fill="none" xmlns="http://www.w3.org/2000/svg">
<rect width="380" height="300" rx="40" fill="#349362"/>
<g clip-path="url(#clip0_37_3464)">
<path opacity="0.25" d="M175.258 152.26H163.565C160.292 152.26 157.152 153.564 154.838 155.887C152.524 158.209 151.223 161.358 151.223 164.642V212.083C145.549 212.086 139.961 210.692 134.949 208.022C129.938 205.352 125.656 201.489 122.48 196.771C119.304 192.053 117.331 186.626 116.733 180.964C116.136 175.303 116.933 169.581 119.055 164.3C121.176 159.02 124.557 154.343 128.9 150.68C133.244 147.017 138.417 144.479 143.967 143.291C149.516 142.102 155.271 142.298 160.727 143.862C166.183 145.426 171.172 148.309 175.258 152.26Z" fill="#115934"/>
<path d="M164.336 61.7739H235.13C239.077 61.7739 242.863 63.345 245.657 66.1423C248.45 68.9397 250.024 72.7348 250.032 76.695V220.302C250.024 224.261 248.45 228.055 245.656 230.849C242.861 233.644 239.076 235.212 235.13 235.208H164.336C162.381 235.212 160.445 234.83 158.637 234.083C156.829 233.336 155.186 232.239 153.801 230.855C152.415 229.471 151.315 227.827 150.563 226.016C149.812 224.205 149.423 222.264 149.418 220.302V76.695C149.427 72.7321 151.002 68.9347 153.8 66.1369C156.597 63.3391 160.387 61.7698 164.336 61.7739Z" fill="#349362" stroke="#115934" stroke-miterlimit="10"/>
<path d="M177.526 61.7739H219.61C221.863 61.7739 223.698 64.2969 223.698 67.408C223.698 70.5037 221.863 73.0266 219.61 73.0266H177.526C175.258 73.0266 173.422 70.5037 173.422 67.408C173.422 64.2969 175.258 61.7739 177.526 61.7739Z" fill="#349362" stroke="#115934" stroke-miterlimit="10"/>
<path d="M188.988 65.8447H208.148C208.558 65.8447 208.95 66.0078 209.239 66.2981C209.529 66.5883 209.691 66.982 209.691 67.3926C209.691 67.8031 209.529 68.1968 209.239 68.487C208.95 68.7773 208.558 68.9404 208.148 68.9404H188.988C188.579 68.9404 188.187 68.7773 187.897 68.487C187.608 68.1968 187.446 67.8031 187.446 67.3926C187.446 66.982 187.608 66.5883 187.897 66.2981C188.187 66.0078 188.579 65.8447 188.988 65.8447Z" fill="#115934"/>
<path d="M250.032 231.973C265.078 231.973 277.276 219.735 277.276 204.638C277.276 189.542 265.078 177.304 250.032 177.304C234.986 177.304 222.788 189.542 222.788 204.638C222.788 219.735 234.986 231.973 250.032 231.973Z" fill="#115934"/>
<path d="M250.032 189.578V204.7C250.033 205.161 250.148 205.614 250.366 206.019C250.584 206.424 250.899 206.769 251.282 207.022L262.59 214.452" stroke="#349362" stroke-miterlimit="10"/>
<path d="M181.429 103.194H165.292V119.384H181.429V103.194Z" fill="#349362" stroke="#115934" stroke-miterlimit="10"/>
<path d="M207.793 103.194H191.657V119.384H207.793V103.194Z" fill="#349362" stroke="#115934" stroke-miterlimit="10"/>
<path d="M234.158 103.194H218.021V119.384H234.158V103.194Z" fill="#349362" stroke="#115934" stroke-miterlimit="10"/>
<path d="M181.429 126.597H165.292V142.787H181.429V126.597Z" fill="#115934"/>
<path d="M207.793 126.597H191.657V142.787H207.793V126.597Z" fill="#349362" stroke="#115934" stroke-miterlimit="10"/>
<path d="M234.158 126.597H218.021V142.787H234.158V126.597Z" fill="#349362" stroke="#115934" stroke-miterlimit="10"/>
<path d="M181.429 150.016H165.292V166.206H181.429V150.016Z" fill="#349362" stroke="#115934" stroke-miterlimit="10"/>
<path d="M207.793 150.016H191.657V166.206H207.793V150.016Z" fill="#115934"/>
<path d="M234.158 150.016H218.021V166.206H234.158V150.016Z" fill="#349362" stroke="#115934" stroke-miterlimit="10"/>
<path d="M170.275 137.788L176.431 131.612" stroke="#349362" stroke-miterlimit="10"/>
<path d="M170.275 131.612L176.431 137.788" stroke="#349362" stroke-miterlimit="10"/>
<path d="M196.455 158.978L198.861 161.392L204.307 155.944" stroke="#349362" stroke-miterlimit="10"/>
<path d="M250.032 225.132C244.769 225.132 239.708 223.093 235.906 219.441C232.105 215.789 229.855 210.805 229.626 205.529C229.397 200.253 231.207 195.092 234.678 191.123C238.15 187.153 243.015 184.681 248.258 184.223" stroke="#349362" stroke-miterlimit="10"/>
<path d="M245.342 187.008L247.811 184.253L245.065 181.761L247.286 181.653L250.032 184.145L247.548 186.884L245.342 187.008Z" fill="#349362"/>
<path d="M149.418 117.836C162.437 117.836 172.991 107.247 172.991 94.1855C172.991 81.1235 162.437 70.5347 149.418 70.5347C136.4 70.5347 125.846 81.1235 125.846 94.1855C125.846 107.247 136.4 117.836 149.418 117.836Z" fill="#349362" stroke="#115934" stroke-miterlimit="10"/>
<path d="M150.32 96.9794L150.538 89.5058H149.043L149.261 96.9794H150.32ZM149.791 100.171C150.351 100.171 150.709 99.7509 150.709 99.2059C150.709 98.6454 150.351 98.2406 149.791 98.2406C149.261 98.2406 148.872 98.6454 148.872 99.2059C148.872 99.7509 149.246 100.171 149.775 100.171H149.791Z" fill="#115934"/>
<path d="M310.737 235.208H317.586H241.856H232.399H206.112H196.81H196.47H196.424H156.762H64" stroke="#115934" stroke-miterlimit="10"/>
</g>
<defs>
<clipPath id="clip0_37_3464">
<rect width="253" height="178" fill="white" transform="translate(64 61)"/>
</clipPath>
</defs>
</svg>
