<svg width="380" height="300" viewBox="0 0 380 300" fill="none" xmlns="http://www.w3.org/2000/svg">
<rect width="380" height="300" rx="40" fill="#349362"/>
<g clip-path="url(#clip0_37_3367)">
<path opacity="0.25" d="M166.026 155.4H154.623C151.447 155.4 148.402 156.661 146.157 158.905C143.912 161.149 142.651 164.192 142.651 167.366V213.212C137.146 213.215 131.725 211.868 126.864 209.288C122.002 206.708 117.849 202.974 114.768 198.415C111.687 193.856 109.772 188.611 109.193 183.139C108.614 177.668 109.387 172.138 111.445 167.036C113.503 161.933 116.783 157.413 120.996 153.873C125.21 150.333 130.228 147.881 135.611 146.732C140.994 145.583 146.577 145.773 151.87 147.284C157.162 148.795 162.003 151.582 165.966 155.4H166.026Z" fill="#115934"/>
<path d="M155.416 67.9556H224.09C225.987 67.9517 227.865 68.3211 229.619 69.0429C231.373 69.7647 232.967 70.8246 234.311 72.1622C235.654 73.4998 236.721 75.0888 237.451 76.8386C238.18 78.5883 238.558 80.4646 238.562 82.3601V221.14C238.554 224.97 237.025 228.64 234.312 231.344C231.598 234.047 227.922 235.564 224.09 235.56H155.416C151.584 235.564 147.908 234.047 145.195 231.344C142.481 228.64 140.953 224.97 140.945 221.14V82.3601C140.949 80.4646 141.326 78.5883 142.055 76.8386C142.785 75.0888 143.852 73.4998 145.196 72.1622C146.539 70.8246 148.133 69.7647 149.887 69.0429C151.641 68.3211 153.519 67.9517 155.416 67.9556Z" fill="#349362" stroke="#115934" stroke-miterlimit="10"/>
<path d="M168.211 67.9556H209.05C211.235 67.9556 213.016 70.3937 213.016 73.3853C213.016 76.3769 211.235 78.8151 209.05 78.8151H168.211C166.026 78.8151 164.245 76.3919 164.245 73.3853C164.245 70.3937 166.026 67.9556 168.211 67.9556Z" fill="#349362" stroke="#115934" stroke-miterlimit="10"/>
<path d="M179.345 71.8894H197.931C198.328 71.8894 198.709 72.047 198.99 72.3275C199.27 72.608 199.428 72.9885 199.428 73.3852C199.428 73.7819 199.27 74.1624 198.99 74.4429C198.709 74.7234 198.328 74.881 197.931 74.881H179.345C178.948 74.881 178.567 74.7234 178.287 74.4429C178.006 74.1624 177.848 73.7819 177.848 73.3852C177.848 72.9885 178.006 72.608 178.287 72.3275C178.567 72.047 178.948 71.8894 179.345 71.8894Z" fill="#135934"/>
<path d="M147.23 69.7205V120.712L133.342 108.492H96.8577C94.5437 108.492 92.3246 107.573 90.6884 105.937C89.0522 104.302 88.1331 102.084 88.1331 99.7711V69.7205C88.1331 67.4077 89.0522 65.1896 90.6884 63.5542C92.3246 61.9188 94.5437 61 96.8577 61H138.505C140.819 61 143.038 61.9188 144.675 63.5542C146.311 65.1896 147.23 67.4077 147.23 69.7205Z" fill="#115934"/>
<path d="M97.8154 76.3469H137.563" stroke="#349362" stroke-miterlimit="10"/>
<path d="M97.8154 84.5588H137.563" stroke="#349362" stroke-miterlimit="10"/>
<path d="M97.8154 92.7708H127.237" stroke="#349362" stroke-miterlimit="10"/>
<path d="M211.415 95.9717H155.775C154.386 95.9717 153.261 97.0968 153.261 98.4846V108.162C153.261 109.55 154.386 110.675 155.775 110.675H211.415C212.803 110.675 213.929 109.55 213.929 108.162V98.4846C213.929 97.0968 212.803 95.9717 211.415 95.9717Z" fill="#349362" stroke="#135934" stroke-miterlimit="10"/>
<path d="M215.291 115.806C222.184 115.806 227.772 110.221 227.772 103.331C227.772 96.4414 222.184 90.8562 215.291 90.8562C208.398 90.8562 202.81 96.4414 202.81 103.331C202.81 110.221 208.398 115.806 215.291 115.806Z" fill="#115934"/>
<path d="M222.459 107.714C222.459 108.015 222.339 108.304 222.126 108.518C221.913 108.731 221.624 108.851 221.322 108.851H209.694C209.535 108.869 209.373 108.853 209.221 108.805C209.068 108.757 208.927 108.676 208.807 108.57C208.687 108.463 208.592 108.332 208.526 108.186C208.46 108.04 208.427 107.881 208.427 107.721C208.427 107.561 208.46 107.402 208.526 107.256C208.592 107.11 208.687 106.979 208.807 106.873C208.927 106.766 209.068 106.686 209.221 106.637C209.373 106.589 209.535 106.574 209.694 106.592H210.113V102.104C210.119 100.973 210.479 99.872 211.141 98.9548C211.804 98.0377 212.737 97.3504 213.809 96.9888C214.913 96.63 216.103 96.63 217.207 96.9888C218.28 97.347 219.213 98.034 219.874 98.9522C220.535 99.8704 220.89 100.973 220.888 102.104V106.592H221.322C221.621 106.592 221.908 106.71 222.121 106.92C222.334 107.13 222.455 107.415 222.459 107.714Z" fill="#349362" stroke="#115934" stroke-miterlimit="10"/>
<path d="M217.206 96.1064V96.6748C216.105 96.301 214.911 96.301 213.809 96.6748V96.1064C213.787 95.8701 213.814 95.6317 213.89 95.4066C213.965 95.1814 214.086 94.9745 214.246 94.7989C214.406 94.6234 214.601 94.4832 214.818 94.3872C215.035 94.2912 215.27 94.2417 215.508 94.2417C215.745 94.2417 215.98 94.2912 216.197 94.3872C216.415 94.4832 216.609 94.6234 216.769 94.7989C216.929 94.9745 217.051 95.1814 217.126 95.4066C217.201 95.6317 217.229 95.8701 217.206 96.1064Z" fill="#349362" stroke="#115934" stroke-miterlimit="10"/>
<path d="M218.688 108.851C218.688 109.668 218.363 110.452 217.785 111.029C217.207 111.607 216.423 111.932 215.605 111.932C214.788 111.932 214.004 111.607 213.425 111.029C212.847 110.452 212.522 109.668 212.522 108.851H218.688Z" fill="#115934"/>
<path d="M217.147 109.165C217.147 109.573 216.984 109.965 216.695 110.254C216.406 110.543 216.014 110.705 215.605 110.705C215.196 110.705 214.804 110.543 214.515 110.254C214.226 109.965 214.064 109.573 214.064 109.165H217.147Z" fill="#349362"/>
<path d="M210.996 96.2112C209.839 97.1066 209.038 98.3844 208.736 99.8161" stroke="#349362" stroke-miterlimit="10"/>
<path d="M219.93 96.2112C221.107 97.0895 221.934 98.3561 222.265 99.7861" stroke="#349362" stroke-miterlimit="10"/>
<path d="M211.415 127.294H155.775C154.386 127.294 153.261 128.419 153.261 129.807V139.485C153.261 140.873 154.386 141.998 155.775 141.998H211.415C212.803 141.998 213.929 140.873 213.929 139.485V129.807C213.929 128.419 212.803 127.294 211.415 127.294Z" fill="#349362" stroke="#135934" stroke-miterlimit="10"/>
<path d="M215.291 147.128C222.184 147.128 227.772 141.543 227.772 134.653C227.772 127.763 222.184 122.178 215.291 122.178C208.398 122.178 202.81 127.763 202.81 134.653C202.81 141.543 208.398 147.128 215.291 147.128Z" fill="#115934"/>
<path d="M211.415 158.616H155.775C154.386 158.616 153.261 159.741 153.261 161.129V170.806C153.261 172.194 154.386 173.319 155.775 173.319H211.415C212.803 173.319 213.929 172.194 213.929 170.806V161.129C213.929 159.741 212.803 158.616 211.415 158.616Z" fill="#349362" stroke="#135934" stroke-miterlimit="10"/>
<path d="M215.291 178.435C222.184 178.435 227.772 172.85 227.772 165.96C227.772 159.071 222.184 153.485 215.291 153.485C208.398 153.485 202.81 159.071 202.81 165.96C202.81 172.85 208.398 178.435 215.291 178.435Z" fill="#115934"/>
<path d="M211.415 189.923H155.775C154.386 189.923 153.261 191.048 153.261 192.436V202.114C153.261 203.501 154.386 204.627 155.775 204.627H211.415C212.803 204.627 213.929 203.501 213.929 202.114V192.436C213.929 191.048 212.803 189.923 211.415 189.923Z" fill="#349362" stroke="#135934" stroke-miterlimit="10"/>
<path d="M215.291 209.757C222.184 209.757 227.772 204.172 227.772 197.282C227.772 190.392 222.184 184.807 215.291 184.807C208.398 184.807 202.81 190.392 202.81 197.282C202.81 204.172 208.398 209.757 215.291 209.757Z" fill="#115934"/>
<path d="M83 235.56H147.739H182.083H182.113H182.428H189.491H190.479H191.901H209.963H210.023H213.241H221.427H231.034H233.818H234.671H257.358H259.737H259.752H271.365H274.717H277.126H287.018H297.344" stroke="#135934" stroke-miterlimit="10"/>
<path d="M156.646 103.914V103.264C157.076 103.43 157.433 103.513 157.716 103.513C157.966 103.513 158.171 103.447 158.331 103.316C158.491 103.184 158.571 103.006 158.571 102.783C158.571 102.621 158.529 102.475 158.445 102.344C158.361 102.211 158.238 102.108 158.076 102.036C157.916 101.962 157.662 101.925 157.314 101.925H157.048V101.406L157.273 101.403C157.605 101.403 157.844 101.374 157.988 101.315C158.133 101.255 158.246 101.162 158.328 101.037C158.41 100.912 158.451 100.777 158.451 100.633C158.451 100.459 158.392 100.317 158.272 100.208C158.155 100.099 157.972 100.044 157.722 100.044C157.405 100.044 157.066 100.125 156.705 100.287V99.6953C156.887 99.6328 157.03 99.5918 157.136 99.5723C157.243 99.5508 157.368 99.5332 157.511 99.5195C157.653 99.5059 157.788 99.499 157.915 99.499C158.37 99.499 158.721 99.5928 158.967 99.7803C159.215 99.9678 159.339 100.22 159.339 100.536C159.339 100.792 159.259 101.011 159.099 101.192C158.94 101.372 158.701 101.515 158.381 101.62C158.66 101.685 158.873 101.774 159.02 101.89C159.168 102.003 159.281 102.138 159.359 102.294C159.438 102.448 159.477 102.614 159.477 102.792C159.477 103.12 159.347 103.413 159.087 103.671C158.829 103.927 158.411 104.055 157.833 104.055C157.681 104.055 157.519 104.05 157.347 104.04C157.177 104.032 156.943 103.99 156.646 103.914ZM161.867 104.055C161.52 104.055 161.22 103.958 160.968 103.765C160.716 103.571 160.522 103.294 160.388 102.933C160.253 102.571 160.186 102.187 160.186 101.778C160.186 101.372 160.252 100.988 160.385 100.627C160.52 100.264 160.714 99.9854 160.968 99.792C161.222 99.5986 161.521 99.502 161.867 99.502C162.209 99.502 162.507 99.5977 162.761 99.7891C163.015 99.9805 163.209 100.258 163.344 100.621C163.479 100.982 163.546 101.368 163.546 101.778C163.546 102.175 163.481 102.553 163.353 102.912C163.224 103.27 163.033 103.55 162.781 103.753C162.529 103.954 162.225 104.055 161.867 104.055ZM161.867 103.513C162.127 103.513 162.318 103.369 162.441 103.082C162.564 102.795 162.626 102.341 162.626 101.72C162.626 101.161 162.562 100.742 162.436 100.463C162.311 100.184 162.121 100.044 161.867 100.044C161.607 100.044 161.415 100.188 161.29 100.475C161.167 100.76 161.105 101.213 161.105 101.834C161.105 102.393 161.169 102.812 161.296 103.094C161.423 103.373 161.613 103.513 161.867 103.513ZM166.241 103.946V100.729H167.073V101.336C167.183 101.141 167.326 100.979 167.504 100.85C167.682 100.721 167.899 100.656 168.157 100.656C168.313 100.656 168.449 100.681 168.564 100.729C168.68 100.776 168.781 100.852 168.869 100.955C168.959 101.057 169.017 101.184 169.042 101.336C169.202 101.094 169.364 100.92 169.528 100.814C169.694 100.709 169.896 100.656 170.132 100.656C170.394 100.656 170.605 100.733 170.768 100.888C170.932 101.04 171.014 101.287 171.014 101.629V103.946H170.182V101.913C170.182 101.673 170.143 101.518 170.064 101.447C169.988 101.377 169.902 101.342 169.807 101.342C169.676 101.342 169.546 101.389 169.417 101.482C169.29 101.576 169.165 101.717 169.042 101.904V103.946H168.21V101.913C168.21 101.675 168.172 101.52 168.096 101.447C168.021 101.375 167.932 101.339 167.826 101.339C167.699 101.339 167.572 101.386 167.445 101.479C167.32 101.573 167.196 101.715 167.073 101.904V103.946H166.241ZM172.06 103.946V100.729H172.927V103.946H172.06ZM172.06 100.188V99.4639H172.927V100.188H172.06ZM174.011 103.946V100.729H174.878V101.336C175.034 101.088 175.207 100.913 175.396 100.812C175.586 100.708 175.778 100.656 175.974 100.656C176.228 100.656 176.445 100.738 176.627 100.902C176.811 101.064 176.902 101.321 176.902 101.673V103.946H176.035V101.887C176.035 101.711 176.019 101.592 175.985 101.529C175.954 101.467 175.91 101.42 175.854 101.389C175.799 101.355 175.737 101.339 175.669 101.339C175.55 101.339 175.426 101.379 175.297 101.459C175.168 101.537 175.028 101.691 174.878 101.922V103.946H174.011ZM177.869 103.844V103.208C178.299 103.388 178.666 103.478 178.971 103.478C179.133 103.478 179.262 103.443 179.357 103.375C179.455 103.307 179.504 103.22 179.504 103.114C179.504 103.022 179.468 102.945 179.396 102.883C179.323 102.822 179.213 102.763 179.064 102.704L178.771 102.587C178.469 102.466 178.245 102.332 178.101 102.186C177.956 102.041 177.884 101.853 177.884 101.62C177.884 101.341 177.992 101.11 178.209 100.929C178.428 100.747 178.761 100.656 179.208 100.656C179.47 100.656 179.781 100.694 180.143 100.771V101.38C179.795 101.259 179.507 101.198 179.278 101.198C179.099 101.198 178.964 101.229 178.874 101.292C178.784 101.353 178.739 101.432 178.739 101.529C178.739 101.605 178.769 101.673 178.827 101.731C178.884 101.79 178.987 101.848 179.138 101.904L179.39 102.001C179.806 102.159 180.078 102.312 180.207 102.461C180.334 102.611 180.397 102.791 180.397 103C180.397 103.271 180.28 103.51 180.046 103.715C179.813 103.918 179.475 104.02 179.029 104.02C178.65 104.02 178.264 103.961 177.869 103.844Z" fill="#135934"/>
<path d="M157.057 135.448V134.762C157.319 134.411 157.573 134.127 157.819 133.913L158.173 133.599C158.427 133.375 158.636 133.153 158.8 132.934C158.966 132.713 159.049 132.483 159.049 132.243C159.049 132.026 158.979 131.859 158.838 131.742C158.699 131.623 158.511 131.563 158.273 131.563C157.956 131.563 157.588 131.67 157.168 131.885V131.25C157.61 131.085 158.036 131.003 158.448 131.003C158.904 131.003 159.271 131.113 159.55 131.332C159.831 131.548 159.972 131.839 159.972 132.205C159.972 132.435 159.912 132.653 159.793 132.858C159.676 133.061 159.431 133.313 159.058 133.614L158.765 133.848C158.636 133.952 158.494 134.084 158.34 134.247C158.188 134.409 158.087 134.581 158.038 134.762H159.954V135.448H157.057ZM162.978 135.448V130.822H163.845V132.837C164.001 132.589 164.174 132.415 164.364 132.313C164.553 132.209 164.745 132.158 164.941 132.158C165.195 132.158 165.412 132.24 165.594 132.404C165.778 132.566 165.869 132.823 165.869 133.174V135.448H165.002V133.388C165.002 133.212 164.986 133.093 164.952 133.031C164.921 132.968 164.877 132.921 164.821 132.89C164.766 132.857 164.704 132.84 164.636 132.84C164.517 132.84 164.393 132.88 164.264 132.96C164.135 133.039 163.995 133.193 163.845 133.423V135.448H162.978ZM168.292 135.521C167.945 135.521 167.646 135.454 167.396 135.319C167.148 135.182 166.958 134.982 166.827 134.718C166.697 134.455 166.631 134.162 166.631 133.839C166.631 133.519 166.696 133.228 166.824 132.966C166.953 132.703 167.143 132.502 167.393 132.366C167.643 132.227 167.943 132.158 168.292 132.158C168.644 132.158 168.944 132.227 169.192 132.366C169.442 132.502 169.631 132.703 169.76 132.966C169.891 133.228 169.956 133.519 169.956 133.839C169.956 134.162 169.891 134.455 169.76 134.718C169.629 134.982 169.439 135.182 169.189 135.319C168.941 135.454 168.642 135.521 168.292 135.521ZM168.292 134.979C168.538 134.979 168.723 134.872 168.846 134.657C168.971 134.44 169.033 134.167 169.033 133.839C169.033 133.513 168.971 133.242 168.846 133.025C168.723 132.808 168.538 132.7 168.292 132.7C168.048 132.7 167.864 132.808 167.739 133.025C167.615 133.242 167.554 133.513 167.554 133.839C167.554 134.167 167.615 134.44 167.739 134.657C167.864 134.872 168.048 134.979 168.292 134.979ZM172.742 135.448V134.841C172.588 135.087 172.416 135.262 172.227 135.366C172.037 135.469 171.844 135.521 171.647 135.521C171.393 135.521 171.174 135.44 170.99 135.278C170.809 135.114 170.718 134.856 170.718 134.504V132.231H171.585V134.291C171.585 134.466 171.601 134.585 171.632 134.648C171.665 134.71 171.709 134.758 171.764 134.792C171.821 134.823 171.883 134.838 171.951 134.838C172.071 134.838 172.195 134.799 172.323 134.721C172.452 134.641 172.592 134.486 172.742 134.255V132.231H173.61V135.448H172.742ZM174.697 135.448V132.231H175.564V132.837C175.667 132.63 175.809 132.465 175.989 132.342C176.168 132.219 176.368 132.158 176.589 132.158C176.642 132.158 176.696 132.164 176.75 132.175V132.949C176.629 132.904 176.515 132.881 176.407 132.881C176.236 132.881 176.079 132.925 175.939 133.013C175.798 133.099 175.673 133.23 175.564 133.406V135.448H174.697ZM177.342 135.345V134.709C177.772 134.889 178.139 134.979 178.444 134.979C178.606 134.979 178.735 134.945 178.83 134.876C178.928 134.808 178.977 134.721 178.977 134.616C178.977 134.524 178.941 134.447 178.868 134.384C178.796 134.324 178.686 134.264 178.537 134.206L178.244 134.088C177.942 133.967 177.718 133.833 177.573 133.687C177.429 133.542 177.357 133.354 177.357 133.122C177.357 132.842 177.465 132.612 177.682 132.43C177.901 132.249 178.234 132.158 178.681 132.158C178.943 132.158 179.254 132.196 179.615 132.272V132.881C179.268 132.76 178.98 132.7 178.751 132.7C178.572 132.7 178.437 132.731 178.347 132.793C178.257 132.854 178.212 132.933 178.212 133.031C178.212 133.107 178.241 133.174 178.3 133.233C178.357 133.292 178.46 133.349 178.611 133.406L178.863 133.502C179.279 133.661 179.551 133.814 179.68 133.962C179.807 134.113 179.87 134.292 179.87 134.501C179.87 134.773 179.753 135.011 179.519 135.216C179.286 135.419 178.948 135.521 178.502 135.521C178.123 135.521 177.737 135.462 177.342 135.345Z" fill="#135934"/>
<path d="M158.929 166.964V165.807H156.905V165.157L158.894 162.628H159.688V165.157H160.195V165.807H159.688V166.964H158.929ZM157.599 165.157H158.947V163.458L157.599 165.157ZM162.978 166.964V162.338H163.845V164.354C164.001 164.106 164.174 163.931 164.364 163.83C164.553 163.726 164.745 163.674 164.941 163.674C165.195 163.674 165.412 163.756 165.594 163.92C165.778 164.083 165.869 164.339 165.869 164.691V166.964H165.002V164.905C165.002 164.729 164.986 164.61 164.952 164.547C164.921 164.485 164.877 164.438 164.821 164.407C164.766 164.374 164.704 164.357 164.636 164.357C164.517 164.357 164.393 164.397 164.264 164.477C164.135 164.555 163.995 164.709 163.845 164.94V166.964H162.978ZM168.292 167.038C167.945 167.038 167.646 166.97 167.396 166.835C167.148 166.699 166.958 166.499 166.827 166.235C166.697 165.971 166.631 165.678 166.631 165.356C166.631 165.036 166.696 164.745 166.824 164.483C166.953 164.219 167.143 164.019 167.393 163.882C167.643 163.744 167.943 163.674 168.292 163.674C168.644 163.674 168.944 163.744 169.192 163.882C169.442 164.019 169.631 164.219 169.76 164.483C169.891 164.745 169.956 165.036 169.956 165.356C169.956 165.678 169.891 165.971 169.76 166.235C169.629 166.499 169.439 166.699 169.189 166.835C168.941 166.97 168.642 167.038 168.292 167.038ZM168.292 166.496C168.538 166.496 168.723 166.388 168.846 166.173C168.971 165.957 169.033 165.684 169.033 165.356C169.033 165.03 168.971 164.758 168.846 164.542C168.723 164.325 168.538 164.216 168.292 164.216C168.048 164.216 167.864 164.325 167.739 164.542C167.615 164.758 167.554 165.03 167.554 165.356C167.554 165.684 167.615 165.957 167.739 166.173C167.864 166.388 168.048 166.496 168.292 166.496ZM172.742 166.964V166.358C172.588 166.604 172.416 166.779 172.227 166.882C172.037 166.986 171.844 167.038 171.647 167.038C171.393 167.038 171.174 166.957 170.99 166.794C170.809 166.63 170.718 166.373 170.718 166.021V163.748H171.585V165.807C171.585 165.983 171.601 166.102 171.632 166.165C171.665 166.227 171.709 166.275 171.764 166.308C171.821 166.339 171.883 166.355 171.951 166.355C172.071 166.355 172.195 166.316 172.323 166.238C172.452 166.158 172.592 166.002 172.742 165.772V163.748H173.61V166.964H172.742ZM174.697 166.964V163.748H175.564V164.354C175.667 164.147 175.809 163.982 175.989 163.859C176.168 163.736 176.368 163.674 176.589 163.674C176.642 163.674 176.696 163.68 176.75 163.692V164.465C176.629 164.42 176.515 164.398 176.407 164.398C176.236 164.398 176.079 164.442 175.939 164.53C175.798 164.616 175.673 164.747 175.564 164.922V166.964H174.697ZM177.342 166.862V166.226C177.772 166.406 178.139 166.496 178.444 166.496C178.606 166.496 178.735 166.461 178.83 166.393C178.928 166.325 178.977 166.238 178.977 166.132C178.977 166.041 178.941 165.963 178.868 165.901C178.796 165.84 178.686 165.781 178.537 165.722L178.244 165.605C177.942 165.484 177.718 165.35 177.573 165.204C177.429 165.059 177.357 164.871 177.357 164.638C177.357 164.359 177.465 164.128 177.682 163.947C177.901 163.765 178.234 163.674 178.681 163.674C178.943 163.674 179.254 163.712 179.615 163.789V164.398C179.268 164.277 178.98 164.216 178.751 164.216C178.572 164.216 178.437 164.248 178.347 164.31C178.257 164.371 178.212 164.45 178.212 164.547C178.212 164.624 178.241 164.691 178.3 164.75C178.357 164.808 178.46 164.866 178.611 164.922L178.863 165.019C179.279 165.177 179.551 165.331 179.68 165.479C179.807 165.629 179.87 165.809 179.87 166.018C179.87 166.29 179.753 166.528 179.519 166.733C179.286 166.936 178.948 167.038 178.502 167.038C178.123 167.038 177.737 166.979 177.342 166.862Z" fill="#135934"/>
<path d="M158.487 198.466V194.634H157.907L157.889 194.2L159.354 194.074V198.466H158.487ZM165.302 198.466V197.859C165.19 198.086 165.047 198.256 164.871 198.369C164.697 198.482 164.49 198.539 164.25 198.539C163.855 198.539 163.55 198.394 163.333 198.103C163.116 197.81 163.008 197.424 163.008 196.945C163.008 196.439 163.129 196.019 163.371 195.683C163.613 195.345 163.951 195.176 164.385 195.176C164.502 195.176 164.609 195.188 164.707 195.214C164.804 195.237 164.898 195.274 164.988 195.325C165.078 195.376 165.182 195.459 165.302 195.574V193.84H166.172V198.466H165.302ZM165.302 196.09C165.18 195.953 165.066 195.86 164.959 195.812C164.851 195.763 164.742 195.738 164.631 195.738C164.396 195.738 164.22 195.852 164.103 196.078C163.988 196.303 163.93 196.567 163.93 196.872C163.93 197.173 163.984 197.413 164.092 197.593C164.201 197.771 164.358 197.859 164.563 197.859C164.694 197.859 164.823 197.814 164.95 197.725C165.079 197.633 165.196 197.513 165.302 197.364V196.09ZM168.832 198.12C168.707 198.241 168.598 198.328 168.507 198.381C168.415 198.434 168.319 198.473 168.219 198.498C168.12 198.525 168.014 198.539 167.903 198.539C167.616 198.539 167.385 198.45 167.212 198.272C167.04 198.093 166.954 197.873 166.954 197.613C166.954 197.297 167.083 197.033 167.341 196.822C167.6 196.609 168.02 196.503 168.6 196.503H168.832V196.21C168.832 196.013 168.777 195.88 168.668 195.812C168.558 195.743 168.42 195.709 168.252 195.709C167.92 195.709 167.581 195.805 167.235 195.996V195.398C167.628 195.25 168.018 195.176 168.407 195.176C168.645 195.176 168.858 195.208 169.046 195.272C169.233 195.337 169.383 195.438 169.494 195.574C169.607 195.709 169.664 195.911 169.664 196.181V197.604C169.664 197.778 169.69 197.885 169.743 197.924C169.798 197.963 169.851 197.982 169.904 197.982C169.935 197.982 169.974 197.979 170.021 197.971L170.042 198.457C169.858 198.512 169.695 198.539 169.552 198.539C169.392 198.539 169.254 198.513 169.136 198.46C169.021 198.405 168.932 198.292 168.87 198.12H168.832ZM168.832 197.654V197.001H168.627C168.344 197.001 168.133 197.052 167.994 197.153C167.855 197.253 167.786 197.378 167.786 197.528C167.786 197.651 167.828 197.753 167.912 197.833C167.996 197.911 168.094 197.95 168.208 197.95C168.309 197.95 168.412 197.926 168.515 197.877C168.621 197.826 168.726 197.752 168.832 197.654ZM170.795 199.623L171.524 198.466L170.332 195.249H171.263L172.06 197.399L173.007 195.249H173.666L171.679 199.623H170.795Z" fill="#135934"/>
<path d="M222.459 139.201C222.459 139.502 222.339 139.791 222.126 140.004C221.913 140.218 221.623 140.337 221.322 140.337H209.694C209.392 140.337 209.103 140.218 208.89 140.004C208.676 139.791 208.557 139.502 208.557 139.201C208.557 138.899 208.676 138.61 208.89 138.397C209.103 138.184 209.392 138.064 209.694 138.064H210.113V133.576C210.118 132.447 210.477 131.347 211.14 130.432C211.803 129.517 212.737 128.832 213.809 128.476C214.911 128.102 216.105 128.102 217.206 128.476C218.279 128.831 219.211 129.515 219.872 130.431C220.533 131.347 220.889 132.447 220.888 133.576V138.064H221.322C221.623 138.064 221.913 138.184 222.126 138.397C222.339 138.61 222.459 138.899 222.459 139.201Z" fill="#349362" stroke="#115934" stroke-miterlimit="10"/>
<path d="M217.206 127.578V128.146C216.105 127.772 214.911 127.772 213.809 128.146V127.578C213.849 127.155 214.045 126.762 214.359 126.477C214.674 126.191 215.083 126.032 215.508 126.032C215.933 126.032 216.342 126.191 216.656 126.477C216.971 126.762 217.167 127.155 217.206 127.578Z" fill="#349362" stroke="#115934" stroke-miterlimit="10"/>
<path d="M218.688 140.337C218.688 141.154 218.363 141.938 217.785 142.516C217.207 143.094 216.423 143.418 215.605 143.418C214.788 143.418 214.004 143.094 213.425 142.516C212.847 141.938 212.522 141.154 212.522 140.337H218.688Z" fill="#115934"/>
<path d="M217.147 140.636C217.147 141.045 216.984 141.437 216.695 141.726C216.406 142.015 216.014 142.177 215.605 142.177C215.196 142.177 214.804 142.015 214.515 141.726C214.226 141.437 214.064 141.045 214.064 140.636H217.147Z" fill="#349362"/>
<path d="M210.996 127.712C209.839 128.608 209.038 129.886 208.736 131.317" stroke="#349362" stroke-miterlimit="10"/>
<path d="M219.93 127.712C221.107 128.591 221.934 129.857 222.265 131.287" stroke="#349362" stroke-miterlimit="10"/>
<path d="M222.459 170.672C222.459 170.973 222.339 171.262 222.126 171.476C221.913 171.689 221.623 171.809 221.322 171.809H209.694C209.392 171.809 209.103 171.689 208.89 171.476C208.676 171.262 208.557 170.973 208.557 170.672C208.557 170.37 208.676 170.081 208.89 169.868C209.103 169.655 209.392 169.535 209.694 169.535H210.113V165.048C210.118 163.918 210.477 162.818 211.14 161.903C211.803 160.988 212.737 160.304 213.809 159.947C214.911 159.573 216.105 159.573 217.206 159.947C218.279 160.302 219.211 160.986 219.872 161.902C220.533 162.818 220.889 163.918 220.888 165.048V169.535H221.322C221.623 169.535 221.913 169.655 222.126 169.868C222.339 170.081 222.459 170.37 222.459 170.672Z" fill="#349362" stroke="#115934" stroke-miterlimit="10"/>
<path d="M217.206 159.124V159.678C216.102 159.319 214.913 159.319 213.809 159.678V159.124C213.787 158.888 213.814 158.65 213.89 158.425C213.965 158.199 214.086 157.993 214.246 157.817C214.406 157.641 214.601 157.501 214.818 157.405C215.035 157.309 215.27 157.26 215.508 157.26C215.745 157.26 215.98 157.309 216.197 157.405C216.415 157.501 216.609 157.641 216.769 157.817C216.929 157.993 217.051 158.199 217.126 158.425C217.201 158.65 217.229 158.888 217.206 159.124Z" fill="#349362" stroke="#115934" stroke-miterlimit="10"/>
<path d="M218.688 171.809C218.688 172.626 218.363 173.41 217.785 173.987C217.207 174.565 216.423 174.89 215.605 174.89C214.788 174.89 214.004 174.565 213.425 173.987C212.847 173.41 212.522 172.626 212.522 171.809H218.688Z" fill="#115934"/>
<path d="M217.147 172.108C217.147 172.517 216.984 172.908 216.695 173.197C216.406 173.486 216.014 173.649 215.605 173.649C215.196 173.649 214.804 173.486 214.515 173.197C214.226 172.908 214.064 172.517 214.064 172.108H217.147Z" fill="#349362"/>
<path d="M210.996 159.125C209.839 160.02 209.038 161.298 208.736 162.729" stroke="#349362" stroke-miterlimit="10"/>
<path d="M219.93 159.125C221.107 160.003 221.934 161.269 222.265 162.699" stroke="#349362" stroke-miterlimit="10"/>
<path d="M222.459 202.144C222.459 202.445 222.339 202.734 222.126 202.947C221.913 203.161 221.623 203.28 221.322 203.28H209.694C209.392 203.28 209.103 203.161 208.89 202.947C208.676 202.734 208.557 202.445 208.557 202.144C208.557 201.995 208.586 201.848 208.643 201.711C208.701 201.574 208.785 201.449 208.891 201.345C208.996 201.241 209.122 201.158 209.26 201.103C209.398 201.047 209.545 201.02 209.694 201.022H210.113V196.534C210.12 195.405 210.48 194.306 211.143 193.392C211.806 192.477 212.738 191.792 213.809 191.434C214.913 191.075 216.103 191.075 217.206 191.434C218.277 191.791 219.209 192.476 219.87 193.391C220.53 194.306 220.886 195.406 220.888 196.534V201.022H221.322C221.47 201.02 221.618 201.047 221.756 201.103C221.894 201.158 222.019 201.241 222.125 201.345C222.231 201.449 222.315 201.574 222.372 201.711C222.43 201.848 222.459 201.995 222.459 202.144Z" fill="#349362" stroke="#115934" stroke-miterlimit="10"/>
<path d="M217.206 190.536V191.105C216.105 190.731 214.911 190.731 213.809 191.105V190.536C213.787 190.3 213.814 190.061 213.89 189.836C213.965 189.611 214.086 189.404 214.246 189.229C214.406 189.053 214.601 188.913 214.818 188.817C215.035 188.721 215.27 188.671 215.508 188.671C215.745 188.671 215.98 188.721 216.197 188.817C216.415 188.913 216.609 189.053 216.769 189.229C216.929 189.404 217.051 189.611 217.126 189.836C217.201 190.061 217.229 190.3 217.206 190.536Z" fill="#349362" stroke="#115934" stroke-miterlimit="10"/>
<path d="M218.688 203.28C218.688 204.097 218.363 204.881 217.785 205.459C217.207 206.037 216.423 206.362 215.605 206.362C214.788 206.362 214.004 206.037 213.425 205.459C212.847 204.881 212.522 204.097 212.522 203.28H218.688Z" fill="#115934"/>
<path d="M217.147 203.58C217.147 203.988 216.984 204.38 216.695 204.669C216.406 204.958 216.014 205.12 215.605 205.12C215.196 205.12 214.804 204.958 214.515 204.669C214.226 204.38 214.064 203.988 214.064 203.58H217.147Z" fill="#349362"/>
<path d="M210.996 190.641C209.842 191.532 209.041 192.804 208.736 194.231" stroke="#349362" stroke-miterlimit="10"/>
<path d="M219.93 190.641C221.107 191.519 221.934 192.786 222.265 194.216" stroke="#349362" stroke-miterlimit="10"/>
</g>
<defs>
<clipPath id="clip0_37_3367">
<rect width="214" height="178" fill="white" transform="translate(83 61)"/>
</clipPath>
</defs>
</svg>
