<svg width="380" height="300" viewBox="0 0 380 300" fill="none" xmlns="http://www.w3.org/2000/svg">
<rect width="380" height="300" rx="40" fill="#349362"/>
<path opacity="0.25" d="M121.719 161.395H109.655C106.278 161.395 103.039 162.735 100.651 165.119C98.2635 167.503 96.922 170.737 96.922 174.109V222.821C91.0678 222.824 85.3023 221.392 80.1317 218.651C74.9611 215.91 70.5435 211.943 67.2667 207.099C63.9898 202.255 61.954 196.681 61.3378 190.868C60.7216 185.055 61.5441 179.18 63.7328 173.758C65.9215 168.337 69.4096 163.534 73.8909 159.773C78.3723 156.012 83.7098 153.406 89.435 152.186C95.1601 150.965 101.098 151.166 106.727 152.772C112.356 154.378 117.504 157.339 121.719 161.395Z" fill="#115934"/>
<path d="M140.755 234.709V234.82H109.177L103.447 207.484L102.286 201.938L118.202 199.999L138.893 197.488C138.893 197.488 139.068 200.269 139.307 204.354C139.848 213.651 140.755 229.734 140.755 234.709Z" fill="#349362" stroke="#115934" stroke-miterlimit="10"/>
<path d="M127.338 199.284L126.064 206.594L123.55 221.057V221.343L121.178 234.82H88.0247C88.152 223.552 88.7249 212.57 90.2688 206.134C90.2688 206.022 90.2688 205.911 90.3484 205.8C90.6403 204.429 91.1394 203.111 91.8286 201.89L118.218 199.951L127.338 199.284Z" fill="#349362" stroke="#115934" stroke-miterlimit="10"/>
<path opacity="0.14" d="M123.422 221.47L123.629 221.184L120.971 219.182L122.961 207.182L122.611 207.119L120.589 219.325L123.422 221.47Z" fill="#115934"/>
<path d="M130.075 94.1047L129.534 101.829C129.359 104.957 129.519 108.095 130.012 111.19C130.569 115.083 125.412 121.25 123.534 121.329V129.085C124.011 134.425 120.494 138.764 116.769 139.256C112.504 139.829 107.22 135.442 107.538 129.085V110.935C107.538 110.935 101.012 109.743 104.784 103.291C107.043 99.5362 108.369 95.2967 108.652 90.9262L115.703 85.6021L130.075 94.1047Z" fill="#349362" stroke="#115934" stroke-miterlimit="10"/>
<path d="M78.7296 167.943C78.7296 167.943 77.9338 151.573 83.7751 139.447C85.3387 136.204 87.8905 133.539 91.0647 131.834C96.2632 128.828 101.791 126.428 107.538 124.683C107.538 129.45 110.976 134.059 115.496 133.964C117.604 133.88 119.601 132.996 121.08 131.493C122.558 129.99 123.407 127.981 123.454 125.875C133.593 128.147 138.575 132.232 140.325 135.855C143.779 143.166 144.304 158.471 144.304 158.471L138.941 159.536C138.941 159.536 140.294 199.951 139.227 204.306C123.133 207.961 106.496 208.581 90.1734 206.134C91.2875 201.159 92.3062 195.851 93.1498 190.241C94.2848 182.713 95.0391 175.133 95.4098 167.53L78.7296 167.943Z" fill="#349362" stroke="#115934" stroke-miterlimit="10"/>
<path d="M139.02 159.536C138.597 158.311 138.241 157.064 137.954 155.801C137.636 154.561 137.397 153.306 137.158 152.066C136.919 150.827 136.744 149.555 136.617 148.3C136.461 147.045 136.376 145.782 136.362 144.517C136.791 145.736 137.152 146.978 137.445 148.236C137.763 149.492 138.002 150.731 138.224 151.987C138.447 153.242 138.654 154.498 138.766 155.753C138.922 157.008 139.007 158.271 139.02 159.536Z" fill="#115934"/>
<path d="M122.324 100.875C123.211 102.053 123.884 103.376 124.314 104.785C124.555 105.506 124.647 106.268 124.584 107.026C124.552 107.423 124.396 107.801 124.139 108.107C124.005 108.245 123.844 108.355 123.666 108.429C123.488 108.503 123.297 108.539 123.104 108.536C123.443 108.447 123.734 108.23 123.916 107.932C124.073 107.644 124.155 107.322 124.155 106.994C124.121 106.298 123.998 105.609 123.789 104.944C123.375 103.577 122.77 102.258 122.324 100.875Z" fill="#115934"/>
<path d="M118.345 112.715C118.934 113.637 123.422 114.225 124.6 112.461L118.345 112.715Z" fill="#349362"/>
<path d="M118.345 112.715C118.934 113.637 123.422 114.225 124.6 112.461" stroke="#115934" stroke-miterlimit="10"/>
<path opacity="0.14" d="M123.534 121.329C123.534 121.329 118.377 121.059 115.878 118.707C115.878 118.707 119.061 125.064 123.534 125.875V121.329Z" fill="#115934"/>
<path d="M133.911 91.7845C133.911 91.7845 133.911 88.2722 127.64 86.7306C121.369 85.189 120.239 81.7403 116.674 82.6938C114.368 83.4119 112.34 84.8214 110.865 86.7306C110.865 86.7306 99.7232 85.0142 105.103 102.862C105.103 102.862 109.146 107.63 109.575 103.386C110.005 99.1429 110.96 91.9594 113.284 90.0681C115.608 88.1769 119.205 90.0681 120.589 91.1012C121.974 92.1342 130.569 98.237 131.428 97.7126C132.288 97.1881 135.662 96.2345 133.911 91.7845Z" fill="#115934"/>
<path d="M140.516 155.038H153.679C153.859 155.027 154.038 155.063 154.199 155.144C154.359 155.224 154.496 155.345 154.595 155.495C154.693 155.646 154.75 155.819 154.76 155.998C154.77 156.178 154.732 156.356 154.65 156.516L143.509 176.192C143.409 176.352 143.271 176.485 143.107 176.58C142.943 176.674 142.759 176.726 142.57 176.732L129.566 177.066C129.385 177.08 129.204 177.046 129.041 176.967C128.878 176.888 128.739 176.767 128.638 176.616C128.537 176.465 128.479 176.291 128.469 176.11C128.458 175.929 128.496 175.749 128.579 175.588L139.609 155.578C139.703 155.42 139.835 155.287 139.993 155.192C140.152 155.098 140.332 155.045 140.516 155.038Z" fill="#349362" stroke="#115934" stroke-miterlimit="10"/>
<path d="M125.778 177.113L123.884 177.94L93.2453 191.592C91.0097 192.576 88.4743 192.636 86.1949 191.757C83.9156 190.878 82.0781 189.133 81.0853 186.903C80.5885 185.803 80.3231 184.613 80.3054 183.407L79.9075 167.895L95.4894 167.578V174.793L121.751 166.576L122.547 166.322C122.547 166.322 122.977 167.133 123.056 166.974C124.552 170.168 125.473 173.6 125.778 177.113Z" fill="#349362" stroke="#115934" stroke-miterlimit="10"/>
<path d="M151.833 161.395C151.833 161.395 155.462 161.157 151.833 166.163C151.467 166.672 150.814 166.449 150.671 167.069C150.56 167.511 150.335 167.917 150.018 168.245C150.183 168.539 150.269 168.87 150.269 169.206C150.269 169.543 150.183 169.874 150.018 170.168C150.159 170.535 150.183 170.937 150.086 171.318C149.989 171.7 149.776 172.042 149.477 172.298C149.477 172.298 149.366 174.713 147.774 174.713H144.671C144.671 174.713 143.7 173.966 144.671 173.41C144.671 173.41 142.936 172.568 144.114 171.646C144.114 171.646 143.047 170.47 144.639 169.294C144.392 168.993 144.274 168.608 144.31 168.222C144.346 167.835 144.533 167.478 144.83 167.228L145.1 167.053C145.769 166.942 146.421 166.83 147.074 166.687C147.73 166.545 148.346 166.26 148.88 165.854C149.413 165.448 149.851 164.929 150.162 164.335L151.833 161.395Z" fill="#349362" stroke="#115934" stroke-miterlimit="10"/>
<path d="M96.2853 172.822C95.8494 171.457 95.4986 170.066 95.2349 168.658C95.1075 167.148 95.0757 165.623 95.0757 164.097C95.0786 162.557 95.1689 161.018 95.3462 159.488C95.5788 157.821 96.0282 156.191 96.6832 154.641C96.5755 155.405 96.5065 156.174 96.4763 156.945V157.915C96.4763 158.789 96.4763 159.663 96.4763 160.537V161.999C96.5745 163.53 96.5372 165.067 96.3649 166.592C96.3649 167.164 96.2376 167.736 96.2057 168.356C96.2376 169.882 96.2375 171.201 96.2853 172.822Z" fill="#115934"/>
<path d="M126.239 103.593C126.564 103.593 126.876 103.464 127.106 103.234C127.336 103.005 127.465 102.694 127.465 102.369C127.465 102.044 127.336 101.733 127.106 101.504C126.876 101.274 126.564 101.145 126.239 101.145C125.914 101.145 125.603 101.274 125.373 101.504C125.143 101.733 125.014 102.044 125.014 102.369C125.014 102.694 125.143 103.005 125.373 103.234C125.603 103.464 125.914 103.593 126.239 103.593Z" fill="#115934"/>
<path d="M114.7 103.593C114.946 103.599 115.188 103.531 115.394 103.399C115.601 103.266 115.763 103.074 115.859 102.848C115.955 102.622 115.981 102.373 115.934 102.132C115.886 101.892 115.767 101.671 115.592 101.498C115.417 101.326 115.194 101.21 114.953 101.166C114.711 101.122 114.461 101.151 114.237 101.25C114.012 101.349 113.822 101.513 113.692 101.721C113.562 101.929 113.497 102.172 113.507 102.417C113.519 102.728 113.649 103.022 113.87 103.241C114.092 103.459 114.389 103.585 114.7 103.593Z" fill="#115934"/>
<path d="M117.708 171.249C117.83 170.37 118.13 169.524 118.59 168.765C119.049 168.005 119.659 167.347 120.382 166.831C122.34 165.368 126.017 162.571 129.2 159.869C133.768 156.007 132.383 159.647 129.709 163.859C127.035 168.07 140.93 157.501 138.718 161.983C136.505 166.465 129.789 166.147 130.616 166.91C131.444 167.673 144.559 161.475 140.691 165.035C136.824 168.595 130.616 168.213 131.142 170.009C131.667 171.805 146.326 167.975 138.734 171.01C131.142 174.046 128.531 179.434 121.608 176.7C118.138 175.333 117.486 173.108 117.708 171.249Z" fill="#349362" stroke="#115934" stroke-miterlimit="10"/>
<path d="M176.248 110.443C189.68 110.443 200.568 99.5702 200.568 86.1583C200.568 72.7465 189.68 61.874 176.248 61.874C162.817 61.874 151.928 72.7465 151.928 86.1583C151.928 99.5702 162.817 110.443 176.248 110.443Z" fill="#349362" stroke="#115934" stroke-miterlimit="10"/>
<path d="M176.248 72.6973V86.3651L186.912 93.3421" stroke="#115934" stroke-miterlimit="10"/>
<path d="M176.248 110.363C189.68 110.363 200.568 99.4908 200.568 86.079C200.568 72.6671 189.68 61.7947 176.248 61.7947C162.817 61.7947 151.928 72.6671 151.928 86.079C151.928 99.4908 162.817 110.363 176.248 110.363Z" fill="#349362" stroke="#115934" stroke-miterlimit="10"/>
<path d="M176.248 72.6973V86.1585C176.248 86.5658 176.35 86.9667 176.545 87.3247C176.74 87.6827 177.021 87.9865 177.362 88.2087L187.453 94.8201" stroke="#115934" stroke-miterlimit="10"/>
<path d="M153.822 89.9726C161.136 89.9726 167.065 84.0525 167.065 76.7497C167.065 69.4469 161.136 63.5269 153.822 63.5269C146.509 63.5269 140.58 69.4469 140.58 76.7497C140.58 84.0525 146.509 89.9726 153.822 89.9726Z" fill="#349362" stroke="#115934" stroke-miterlimit="10"/>
<path d="M154.32 76.9794L154.538 69.5058H153.043L153.261 76.9794H154.32ZM153.791 80.1713C154.351 80.1713 154.709 79.7509 154.709 79.2059C154.709 78.6454 154.351 78.2406 153.791 78.2406C153.261 78.2406 152.872 78.6454 152.872 79.2059C152.872 79.7509 153.246 80.1713 153.775 80.1713H153.791Z" fill="#115934"/>
<path d="M303.005 202.494L297.005 202.605V215.622C297.001 217.589 296.216 219.474 294.823 220.865C293.43 222.256 291.542 223.039 289.572 223.044H279.354V234.82H237.526V222.805C237.521 212.3 235.005 201.948 230.188 192.609C227.747 187.811 226.436 182.519 226.354 177.138C226.273 171.757 227.424 166.428 229.72 161.558C232.015 156.689 235.394 152.408 239.599 149.041C243.805 145.675 248.724 143.312 253.983 142.133C258.214 141.215 262.574 141.059 266.859 141.672C275.248 142.92 282.907 147.138 288.439 153.557C293.97 159.976 297.005 168.168 296.989 176.636C296.994 179.742 297.765 182.799 299.233 185.536L305.759 197.853C306.007 198.333 306.13 198.867 306.115 199.406C306.099 199.946 305.947 200.472 305.671 200.937C305.396 201.401 305.007 201.787 304.54 202.06C304.074 202.332 303.546 202.482 303.005 202.494Z" fill="#349362" stroke="#115934" stroke-miterlimit="10"/>
<path d="M291.848 196.661C301.957 196.661 310.152 188.479 310.152 178.385C310.152 168.291 301.957 160.108 291.848 160.108C281.739 160.108 273.544 168.291 273.544 178.385C273.544 188.479 281.739 196.661 291.848 196.661Z" fill="#349362" stroke="#115934" stroke-miterlimit="10"/>
<path d="M300.296 186H295.621L292.606 180.299C292.492 180.088 292.374 179.697 292.252 179.127H292.203C292.146 179.396 292.012 179.803 291.8 180.348L288.773 186H284.073L289.652 177.248L284.549 168.495H289.347L291.849 173.744C292.044 174.159 292.219 174.652 292.374 175.221H292.423C292.521 174.879 292.704 174.371 292.972 173.695L295.755 168.495H300.15L294.901 177.174L300.296 186Z" fill="#115934"/>
<path d="M230.921 119.835H167.335C165.393 119.835 163.818 121.408 163.818 123.348V143.85C163.818 145.789 165.393 147.362 167.335 147.362H230.921C232.863 147.362 234.438 145.789 234.438 143.85V123.348C234.438 121.408 232.863 119.835 230.921 119.835Z" fill="#115934"/>
<path d="M172.555 129.484V132.023H175.383C175.888 132.023 176.297 131.93 176.609 131.742C176.927 131.549 177.086 131.211 177.086 130.727C177.086 130.19 176.878 129.836 176.461 129.664C176.102 129.544 175.643 129.484 175.086 129.484H172.555ZM172.555 133.93V137H175.383C175.888 137 176.281 136.932 176.562 136.797C177.073 136.547 177.328 136.068 177.328 135.359C177.328 134.76 177.081 134.349 176.586 134.125C176.31 134 175.922 133.935 175.422 133.93H172.555ZM175.852 127.484C177.263 127.505 178.263 127.914 178.852 128.711C179.206 129.201 179.383 129.786 179.383 130.469C179.383 131.172 179.206 131.737 178.852 132.164C178.654 132.404 178.362 132.622 177.977 132.82C178.565 133.034 179.008 133.372 179.305 133.836C179.607 134.299 179.758 134.862 179.758 135.523C179.758 136.206 179.586 136.818 179.242 137.359C179.023 137.719 178.75 138.021 178.422 138.266C178.052 138.547 177.615 138.74 177.109 138.844C176.609 138.948 176.065 139 175.477 139H170.258V127.484H175.852ZM185.422 137.43C186.073 137.43 186.573 137.198 186.922 136.734C187.271 136.271 187.445 135.612 187.445 134.758C187.445 133.904 187.271 133.247 186.922 132.789C186.573 132.326 186.073 132.094 185.422 132.094C184.771 132.094 184.268 132.326 183.914 132.789C183.565 133.247 183.391 133.904 183.391 134.758C183.391 135.612 183.565 136.271 183.914 136.734C184.268 137.198 184.771 137.43 185.422 137.43ZM189.781 134.758C189.781 136.008 189.422 137.078 188.703 137.969C187.984 138.854 186.893 139.297 185.43 139.297C183.966 139.297 182.875 138.854 182.156 137.969C181.438 137.078 181.078 136.008 181.078 134.758C181.078 133.529 181.438 132.464 182.156 131.562C182.875 130.661 183.966 130.211 185.43 130.211C186.893 130.211 187.984 130.661 188.703 131.562C189.422 132.464 189.781 133.529 189.781 134.758ZM195.203 137.43C195.854 137.43 196.354 137.198 196.703 136.734C197.052 136.271 197.227 135.612 197.227 134.758C197.227 133.904 197.052 133.247 196.703 132.789C196.354 132.326 195.854 132.094 195.203 132.094C194.552 132.094 194.049 132.326 193.695 132.789C193.346 133.247 193.172 133.904 193.172 134.758C193.172 135.612 193.346 136.271 193.695 136.734C194.049 137.198 194.552 137.43 195.203 137.43ZM199.562 134.758C199.562 136.008 199.203 137.078 198.484 137.969C197.766 138.854 196.674 139.297 195.211 139.297C193.747 139.297 192.656 138.854 191.938 137.969C191.219 137.078 190.859 136.008 190.859 134.758C190.859 133.529 191.219 132.464 191.938 131.562C192.656 130.661 193.747 130.211 195.211 130.211C196.674 130.211 197.766 130.661 198.484 131.562C199.203 132.464 199.562 133.529 199.562 134.758ZM201.141 127.523H203.328V133.727L206.102 130.523H208.859L205.883 133.781L208.977 139H206.289L204.25 135.359L203.328 136.32V139H201.141V127.523Z" fill="#349362"/>
<path d="M234.438 135.267C242.973 135.267 249.893 128.358 249.893 119.835C249.893 111.312 242.973 104.403 234.438 104.403C225.903 104.403 218.983 111.312 218.983 119.835C218.983 128.358 225.903 135.267 234.438 135.267Z" fill="#349362" stroke="#115934" stroke-miterlimit="10"/>
<path d="M228.724 120.853L232.019 124.381L240.152 116.26" fill="#349362"/>
<path d="M228.724 120.853L232.019 124.381L240.152 116.26" stroke="#115934" stroke-miterlimit="10"/>
<path d="M59.1367 234.82H88.0247H109.177H121.051H121.146H121.401H140.755H154.841H195.762H195.809H196.16H205.757H232.878H242.635H313.701H320.768" stroke="#115934" stroke-miterlimit="10"/>
</svg>
