<svg width="380" height="300" viewBox="0 0 380 300" fill="none" xmlns="http://www.w3.org/2000/svg">
<rect width="380" height="300" rx="40" fill="#349362"/>
<g clip-path="url(#clip0_37_3241)">
<path d="M148.004 61.7674H218.34C220.283 61.7633 222.209 62.1429 224.006 62.8843C225.803 63.6256 227.436 64.7144 228.813 66.0882C230.189 67.462 231.282 69.0939 232.028 70.8907C232.774 72.6875 233.159 74.6139 233.161 76.5598V218.914C233.153 222.842 231.587 226.607 228.808 229.381C226.029 232.155 222.264 233.71 218.34 233.706H148.004C144.08 233.71 140.314 232.155 137.535 229.381C134.756 226.607 133.19 222.842 133.182 218.914V76.5598C133.184 74.6139 133.569 72.6875 134.316 70.8907C135.062 69.0939 136.154 67.462 137.531 66.0882C138.907 64.7144 140.541 63.6256 142.338 62.8843C144.135 62.1429 146.06 61.7633 148.004 61.7674Z" fill="#349362" stroke="#115934" stroke-miterlimit="10"/>
<path d="M161.108 61.7673H202.921C205.174 61.7673 206.982 64.2685 206.982 67.3375C206.982 70.4065 205.174 72.923 202.921 72.923H161.108C158.855 72.923 157.047 70.4218 157.047 67.3375C157.047 64.2685 158.855 61.7673 161.108 61.7673Z" fill="#349362" stroke="#115934" stroke-miterlimit="10"/>
<path d="M172.497 65.803H191.533C191.939 65.803 192.329 65.9646 192.617 66.2524C192.904 66.5402 193.066 66.9305 193.066 67.3375C193.066 67.7444 192.904 68.1347 192.617 68.4225C192.329 68.7103 191.939 68.8719 191.533 68.8719H172.497C172.09 68.8719 171.7 68.7103 171.413 68.4225C171.125 68.1347 170.964 67.7444 170.964 67.3375C170.964 66.9305 171.125 66.5402 171.413 66.2524C171.7 65.9646 172.09 65.803 172.497 65.803Z" fill="#115934"/>
<path d="M108 233.706H147.513H182.689H182.72H183.026H191.287H211.243H211.305H214.6H222.984H232.824H256.09H272.123H256.09" stroke="#115934" stroke-miterlimit="10"/>
<path d="M208.607 101.203H157.016C154.096 101.203 151.728 103.574 151.728 106.497V142.711C151.728 145.635 154.096 148.005 157.016 148.005H208.607C211.528 148.005 213.895 145.635 213.895 142.711V106.497C213.895 103.574 211.528 101.203 208.607 101.203Z" fill="#349362" stroke="#115934" stroke-miterlimit="10"/>
<path d="M158.089 147.1L174.137 114.323L185.249 134.41L195.61 124.788L207.534 146.425C207.571 146.492 207.59 146.568 207.59 146.645C207.589 146.721 207.568 146.797 207.529 146.863C207.491 146.93 207.436 146.985 207.369 147.024C207.303 147.063 207.228 147.083 207.151 147.084L158.089 147.1Z" fill="#115934"/>
<path d="M195.824 116.917C198.567 116.917 200.79 114.691 200.79 111.945C200.79 109.199 198.567 106.973 195.824 106.973C193.082 106.973 190.858 109.199 190.858 111.945C190.858 114.691 193.082 116.917 195.824 116.917Z" fill="#115934"/>
<path d="M235.568 217.517C247.537 217.517 257.24 207.803 257.24 195.82C257.24 183.836 247.537 174.122 235.568 174.122C223.598 174.122 213.895 183.836 213.895 195.82C213.895 207.803 223.598 217.517 235.568 217.517Z" fill="#349362" stroke="#115934" stroke-miterlimit="10"/>
<path d="M231.346 206H226.451L232.932 195.732L226.766 185.848H231.797L235.393 192.396L239.084 185.848H243.951L237.785 195.568L244.334 206H239.221L235.393 199.137L231.346 206Z" fill="#115934"/>
<path d="M151.728 164.823H213.895" stroke="#115934" stroke-miterlimit="10"/>
<path d="M151.728 171.882H200.79" stroke="#115934" stroke-miterlimit="10"/>
<path d="M151.728 178.925H213.895" stroke="#115934" stroke-miterlimit="10"/>
<path opacity="0.25" d="M208.975 187.595H153.506C152.524 187.595 151.728 188.388 151.728 189.367C151.728 190.346 152.524 191.139 153.506 191.139H208.975C209.957 191.139 210.753 190.346 210.753 189.367C210.753 188.388 209.957 187.595 208.975 187.595Z" fill="#115934"/>
<path opacity="0.25" d="M192.836 195.82H153.506C152.524 195.82 151.728 196.613 151.728 197.592C151.728 198.571 152.524 199.364 153.506 199.364H192.836C193.817 199.364 194.613 198.571 194.613 197.592C194.613 196.613 193.817 195.82 192.836 195.82Z" fill="#115934"/>
</g>
<defs>
<clipPath id="clip0_37_3241">
<rect width="164" height="178" fill="white" transform="translate(108 61)"/>
</clipPath>
</defs>
</svg>
