<svg width="380" height="300" viewBox="0 0 380 300" fill="none" xmlns="http://www.w3.org/2000/svg">
<rect width="380" height="300" rx="40" fill="#349362"/>
<g clip-path="url(#clip0_37_3418)">
<path opacity="0.25" d="M113.013 140.187H102.841C100.002 140.215 97.287 141.357 95.2806 143.365C93.2742 145.374 92.1366 148.09 92.1124 150.929V192.039C87.1741 192.045 82.3098 190.839 77.9469 188.526C73.5839 186.213 69.8558 182.865 67.0899 178.775C64.3241 174.685 62.6051 169.978 62.0841 165.069C61.5631 160.159 62.2559 155.197 64.1017 150.618C65.9476 146.038 68.8899 141.982 72.6703 138.806C76.4507 135.629 80.9535 133.429 85.7831 132.399C90.6127 131.369 95.6214 131.541 100.369 132.899C105.117 134.257 109.459 136.759 113.013 140.187Z" fill="#115934"/>
<path d="M103.553 61.774H165.125C166.826 61.7699 168.511 62.1011 170.084 62.7486C171.657 63.3961 173.087 64.3472 174.292 65.5475C175.497 66.7479 176.453 68.1739 177.106 69.7441C177.76 71.3142 178.097 72.9977 178.099 74.6983V199.159C178.097 200.86 177.76 202.543 177.106 204.113C176.453 205.683 175.497 207.109 174.292 208.31C173.087 209.51 171.657 210.461 170.084 211.109C168.511 211.756 166.826 212.087 165.125 212.083H103.553C101.852 212.087 100.167 211.756 98.5944 211.109C97.0216 210.461 95.5918 209.51 94.3869 208.31C93.1819 207.109 92.2255 205.683 91.5722 204.113C90.9189 202.543 90.5816 200.86 90.5796 199.159V74.6983C90.5816 72.9977 90.9189 71.3142 91.5722 69.7441C92.2255 68.1739 93.1819 66.7479 94.3869 65.5475C95.5918 64.3472 97.0216 63.3961 98.5944 62.7486C100.167 62.1011 101.852 61.7699 103.553 61.774Z" fill="#349362" stroke="#115934" stroke-miterlimit="10"/>
<path d="M115.026 61.7739H151.718C153.684 61.7739 155.263 63.9564 155.263 66.6496C155.263 69.3428 153.715 71.5252 151.718 71.5252H115.026C113.059 71.5252 111.465 69.3428 111.465 66.6496C111.465 63.9564 113.013 61.7739 115.026 61.7739Z" fill="#349362" stroke="#115934" stroke-miterlimit="10"/>
<path d="M124.996 65.303H141.654C142.012 65.303 142.354 65.4449 142.607 65.6974C142.859 65.9499 143.001 66.2924 143.001 66.6496C143.001 67.0067 142.859 67.3492 142.607 67.6018C142.354 67.8543 142.012 67.9962 141.654 67.9962H124.996C124.639 67.9962 124.296 67.8543 124.043 67.6018C123.791 67.3492 123.649 67.0067 123.649 66.6496C123.649 66.2924 123.791 65.9499 124.043 65.6974C124.296 65.4449 124.639 65.303 124.996 65.303Z" fill="#115934"/>
<path d="M118.416 97.668H104.389V111.691H118.416V97.668Z" fill="#349362" stroke="#115934" stroke-miterlimit="10"/>
<path d="M141.345 97.668H127.318V111.691H141.345V97.668Z" fill="#349362" stroke="#115934" stroke-miterlimit="10"/>
<path d="M164.274 97.668H150.247V111.691H164.274V97.668Z" fill="#349362" stroke="#115934" stroke-miterlimit="10"/>
<path d="M118.416 117.96H104.389V131.983H118.416V117.96Z" fill="#349362" stroke="#115934" stroke-miterlimit="10"/>
<path d="M141.345 117.96H127.318V131.983H141.345V117.96Z" fill="#349362" stroke="#115934" stroke-miterlimit="10"/>
<path d="M164.274 117.96H150.247V131.983H164.274V117.96Z" fill="#349362" stroke="#115934" stroke-miterlimit="10"/>
<path d="M118.416 138.252H104.389V152.275H118.416V138.252Z" fill="#349362" stroke="#115934" stroke-miterlimit="10"/>
<path d="M141.345 138.252H127.318V152.275H141.345V138.252Z" fill="#349362" stroke="#115934" stroke-miterlimit="10"/>
<path d="M164.274 138.252H150.247V152.275H164.274V138.252Z" fill="#349362" stroke="#115934" stroke-miterlimit="10"/>
<path d="M130.91 145.527L133.016 147.632L137.753 142.896" fill="#349362"/>
<path d="M130.91 145.527L133.016 147.632L137.753 142.896" stroke="#115934" stroke-miterlimit="10"/>
<path d="M107.981 145.527L110.087 147.632L114.824 142.896" fill="#349362"/>
<path d="M107.981 145.527L110.087 147.632L114.824 142.896" stroke="#115934" stroke-miterlimit="10"/>
<path d="M107.981 125.235L110.087 127.34L114.824 122.604" fill="#349362"/>
<path d="M107.981 125.235L110.087 127.34L114.824 122.604" stroke="#115934" stroke-miterlimit="10"/>
<path d="M130.91 125.235L133.016 127.34L137.753 122.604" fill="#349362"/>
<path d="M130.91 125.235L133.016 127.34L137.753 122.604" stroke="#115934" stroke-miterlimit="10"/>
<path d="M153.854 145.527L155.944 147.632L160.682 142.896" fill="#349362"/>
<path d="M153.854 145.527L155.944 147.632L160.682 142.896" stroke="#115934" stroke-miterlimit="10"/>
<path d="M153.854 125.235L155.944 127.34L160.682 122.604" fill="#349362"/>
<path d="M153.854 125.235L155.944 127.34L160.682 122.604" stroke="#115934" stroke-miterlimit="10"/>
<path d="M306.707 235.456H296.04H288.237H246.514H236.574H228.106H224.777H224.715H204.558H196.213H195.903H195.872H189.695H160.341H127.411H126.637" stroke="#115934" stroke-miterlimit="10"/>
<path d="M111.403 107.11C112.745 107.11 113.833 106.022 113.833 104.68C113.833 103.337 112.745 102.25 111.403 102.25C110.06 102.25 108.972 103.337 108.972 104.68C108.972 106.022 110.06 107.11 111.403 107.11Z" fill="#115934"/>
<path d="M134.332 107.11C135.674 107.11 136.762 106.022 136.762 104.68C136.762 103.337 135.674 102.25 134.332 102.25C132.989 102.25 131.901 103.337 131.901 104.68C131.901 106.022 132.989 107.11 134.332 107.11Z" fill="#115934"/>
<path d="M157.26 107.11C158.603 107.11 159.691 106.022 159.691 104.68C159.691 103.337 158.603 102.25 157.26 102.25C155.918 102.25 154.83 103.337 154.83 104.68C154.83 106.022 155.918 107.11 157.26 107.11Z" fill="#115934"/>
<path d="M302.883 198.911C307.971 198.911 312.095 194.788 312.095 189.702C312.095 184.615 307.971 180.492 302.883 180.492C297.796 180.492 293.672 184.615 293.672 189.702C293.672 194.788 297.796 198.911 302.883 198.911Z" fill="#349362"/>
<path d="M302.883 198.911C307.971 198.911 312.095 194.788 312.095 189.702C312.095 184.615 307.971 180.492 302.883 180.492C297.796 180.492 293.672 184.615 293.672 189.702C293.672 194.788 297.796 198.911 302.883 198.911Z" stroke="#115934" stroke-miterlimit="10"/>
<path d="M318.009 214.065V235.456H287.788V214.065C287.788 210.781 289.093 207.631 291.416 205.309C293.739 202.987 296.889 201.682 300.174 201.682H305.623C308.908 201.682 312.059 202.987 314.381 205.309C316.704 207.631 318.009 210.781 318.009 214.065Z" fill="#349362" stroke="#115934" stroke-miterlimit="10"/>
<path d="M280.125 188.015C286.734 188.015 292.092 182.658 292.092 176.05C292.092 169.442 286.734 164.085 280.125 164.085C273.515 164.085 268.157 169.442 268.157 176.05C268.157 182.658 273.515 188.015 280.125 188.015Z" fill="#349362"/>
<path d="M280.125 188.015C286.734 188.015 292.092 182.658 292.092 176.05C292.092 169.442 286.734 164.085 280.125 164.085C273.515 164.085 268.157 169.442 268.157 176.05C268.157 182.658 273.515 188.015 280.125 188.015Z" stroke="#115934" stroke-miterlimit="10"/>
<path d="M299.756 207.687V235.455H260.509V207.687C260.526 203.427 262.226 199.346 265.239 196.334C268.252 193.321 272.334 191.622 276.595 191.605H283.67C287.933 191.618 292.017 193.316 295.031 196.329C298.045 199.343 299.744 203.426 299.756 207.687Z" fill="#349362" stroke="#115934" stroke-miterlimit="10"/>
<path d="M255.772 178.573C263.698 178.573 270.124 172.149 270.124 164.224C270.124 156.3 263.698 149.876 255.772 149.876C247.846 149.876 241.42 156.3 241.42 164.224C241.42 172.149 247.846 178.573 255.772 178.573Z" fill="#349362"/>
<path d="M255.772 178.573C263.698 178.573 270.124 172.149 270.124 164.224C270.124 156.3 263.698 149.876 255.772 149.876C247.846 149.876 241.42 156.3 241.42 164.224C241.42 172.149 247.846 178.573 255.772 178.573Z" stroke="#115934" stroke-miterlimit="10"/>
<path d="M279.32 202.162V235.456H232.224V202.162C232.236 197.053 234.27 192.157 237.882 188.544C241.494 184.93 246.389 182.892 251.499 182.876H260.091C265.192 182.909 270.073 184.953 273.674 188.564C277.275 192.176 279.304 197.063 279.32 202.162Z" fill="#349362" stroke="#115934" stroke-miterlimit="10"/>
<path d="M229.514 171.933C238.356 171.933 245.523 164.767 245.523 155.928C245.523 147.089 238.356 139.924 229.514 139.924C220.673 139.924 213.506 147.089 213.506 155.928C213.506 164.767 220.673 171.933 229.514 171.933Z" fill="#349362"/>
<path d="M229.514 171.933C238.356 171.933 245.523 164.767 245.523 155.928C245.523 147.089 238.356 139.924 229.514 139.924C220.673 139.924 213.506 147.089 213.506 155.928C213.506 164.767 220.673 171.933 229.514 171.933Z" stroke="#115934" stroke-miterlimit="10"/>
<path d="M255.787 198.276V235.424H203.257V198.276C203.298 192.583 205.578 187.134 209.605 183.108C213.632 179.082 219.082 176.802 224.777 176.762H234.252C239.949 176.798 245.404 179.076 249.434 183.103C253.464 187.129 255.747 192.58 255.787 198.276Z" fill="#349362" stroke="#115934" stroke-miterlimit="10"/>
<path d="M204.217 160.138C214.708 160.138 223.213 151.636 223.213 141.147C223.213 130.658 214.708 122.155 204.217 122.155C193.726 122.155 185.221 130.658 185.221 141.147C185.221 151.636 193.726 160.138 204.217 160.138Z" fill="#349362" stroke="#115934" stroke-miterlimit="10"/>
<path d="M235.32 191.373V235.455H173.083V191.373C173.103 184.613 175.797 178.135 180.577 173.353C185.357 168.572 191.835 165.874 198.597 165.85H209.837C216.593 165.882 223.063 168.583 227.837 173.364C232.61 178.145 235.3 184.618 235.32 191.373Z" fill="#349362" stroke="#115934" stroke-miterlimit="10"/>
<path d="M167.339 217.903C179.335 217.903 189.06 208.181 189.06 196.187C189.06 184.194 179.335 174.471 167.339 174.471C155.343 174.471 145.618 184.194 145.618 196.187C145.618 208.181 155.343 217.903 167.339 217.903Z" fill="#115934"/>
<path d="M175.312 192.998H171.844C171.458 192.998 171.088 192.845 170.815 192.572C170.542 192.299 170.389 191.929 170.389 191.543V188.045C170.39 187.65 170.239 187.27 169.969 186.982C169.698 186.695 169.328 186.521 168.934 186.498H165.017C164.622 186.521 164.252 186.695 163.982 186.982C163.711 187.27 163.561 187.65 163.561 188.045V191.543C163.561 191.929 163.408 192.299 163.135 192.572C162.862 192.845 162.492 192.998 162.106 192.998H158.607C158.226 193.017 157.865 193.176 157.593 193.444C157.322 193.713 157.159 194.072 157.136 194.453V198.369C157.159 198.751 157.322 199.11 157.593 199.379C157.865 199.647 158.226 199.806 158.607 199.824H162.106C162.485 199.846 162.842 200.007 163.111 200.275C163.379 200.543 163.539 200.901 163.561 201.279V204.793C163.561 205.179 163.715 205.549 163.988 205.822C164.261 206.095 164.631 206.248 165.017 206.248H168.934C169.32 206.248 169.69 206.095 169.963 205.822C170.236 205.549 170.389 205.179 170.389 204.793V201.248C170.411 200.87 170.572 200.512 170.84 200.244C171.108 199.976 171.466 199.815 171.844 199.793H175.359C175.745 199.793 176.115 199.64 176.388 199.367C176.661 199.094 176.814 198.724 176.814 198.338V194.422C176.81 194.23 176.768 194.04 176.69 193.864C176.612 193.688 176.5 193.529 176.361 193.397C176.221 193.265 176.056 193.161 175.876 193.093C175.696 193.024 175.505 192.992 175.312 192.998Z" fill="#349362"/>
</g>
<defs>
<clipPath id="clip0_37_3418">
<rect width="257" height="178" fill="white" transform="translate(62 61)"/>
</clipPath>
</defs>
</svg>
