<svg width="380" height="300" viewBox="0 0 380 300" fill="none" xmlns="http://www.w3.org/2000/svg">
<rect width="380" height="300" rx="40" fill="#349362"/>
<path d="M294.188 113.151C296.512 113.709 298.941 113.65 301.235 112.979C301.235 112.979 302.541 110.539 303.015 109.95C303.489 109.362 304.364 109.433 305.886 108.988C307.407 108.543 311.526 106.361 310.78 103.734C310.034 101.107 305.871 98.1073 300.446 100.792C295.02 103.476 294.059 109.792 294.059 109.792C294.059 109.792 292.839 112.706 294.188 113.151Z" fill="#349362" stroke="#115934" stroke-miterlimit="10"/>
<path d="M204.138 73.8906H138.286C130.621 73.8906 124.407 80.1054 124.407 87.7718V221.401C124.407 229.067 130.621 235.282 138.286 235.282H204.138C211.803 235.282 218.017 229.067 218.017 221.401V87.7718C218.017 80.1054 211.803 73.8906 204.138 73.8906Z" fill="#349362" stroke="#115934" stroke-miterlimit="10"/>
<path d="M150.73 73.8906H189.899C191.995 73.8906 193.703 76.2305 193.703 79.1302C193.703 82.0011 191.995 84.3553 189.899 84.3553H150.73C148.635 84.3553 146.927 82.0155 146.927 79.1302C146.927 76.2305 148.635 73.8906 150.73 73.8906Z" fill="#349362" stroke="#115934" stroke-miterlimit="10"/>
<path d="M179.494 77.4075H161.696C160.895 77.4075 160.246 78.0534 160.246 78.8501C160.246 79.6469 160.895 80.2928 161.696 80.2928H179.494C180.294 80.2928 180.943 79.6469 180.943 78.8501C180.943 78.0534 180.294 77.4075 179.494 77.4075Z" fill="#115934"/>
<g opacity="0.48">
<path d="M205.458 107.969H155.309C153.668 107.969 152.338 109.299 152.338 110.94V121.793C152.338 123.434 153.668 124.764 155.309 124.764H205.458C207.099 124.764 208.429 123.434 208.429 121.793V110.94C208.429 109.299 207.099 107.969 205.458 107.969Z" fill="#349362"/>
<path d="M160.878 122.295C164.215 122.295 166.92 119.589 166.92 116.252C166.92 112.914 164.215 110.208 160.878 110.208C157.541 110.208 154.835 112.914 154.835 116.252C154.835 119.589 157.541 122.295 160.878 122.295Z" fill="#115934"/>
<path d="M171.341 110.74H202.645C202.984 110.74 203.309 110.874 203.548 111.114C203.788 111.353 203.922 111.678 203.922 112.017C203.924 112.186 203.893 112.354 203.829 112.51C203.766 112.667 203.672 112.81 203.553 112.93C203.435 113.05 203.293 113.145 203.137 113.21C202.981 113.276 202.814 113.309 202.645 113.309H171.341C171.172 113.309 171.005 113.276 170.849 113.21C170.693 113.145 170.552 113.05 170.433 112.93C170.314 112.81 170.22 112.667 170.157 112.51C170.094 112.354 170.062 112.186 170.064 112.017C170.064 111.678 170.198 111.353 170.438 111.114C170.678 110.874 171.002 110.74 171.341 110.74Z" fill="#115934"/>
<path d="M171.341 115.003H195.454C195.623 115.001 195.791 115.033 195.947 115.096C196.104 115.159 196.247 115.253 196.367 115.372C196.487 115.491 196.582 115.632 196.647 115.788C196.712 115.944 196.746 116.112 196.746 116.281C196.746 116.623 196.61 116.952 196.368 117.194C196.125 117.436 195.797 117.573 195.454 117.573H171.341C171.172 117.573 171.005 117.539 170.849 117.474C170.693 117.409 170.552 117.313 170.433 117.193C170.314 117.073 170.22 116.931 170.157 116.774C170.094 116.617 170.062 116.45 170.064 116.281C170.064 115.942 170.198 115.617 170.438 115.377C170.678 115.138 171.002 115.003 171.341 115.003Z" fill="#115934"/>
<path d="M171.341 119.726H177.011C177.353 119.726 177.682 119.862 177.924 120.104C178.166 120.346 178.302 120.675 178.302 121.018C178.302 121.187 178.269 121.354 178.204 121.51C178.139 121.666 178.043 121.807 177.923 121.926C177.803 122.045 177.661 122.139 177.504 122.202C177.347 122.265 177.18 122.297 177.011 122.295H171.341C171.002 122.295 170.678 122.161 170.438 121.921C170.198 121.681 170.064 121.356 170.064 121.018C170.062 120.849 170.094 120.681 170.157 120.524C170.22 120.368 170.314 120.225 170.433 120.105C170.552 119.985 170.693 119.889 170.849 119.824C171.005 119.759 171.172 119.726 171.341 119.726Z" fill="#115934"/>
<path d="M192.311 131.224H142.161C140.521 131.224 139.19 132.554 139.19 134.195V145.047C139.19 146.688 140.521 148.019 142.161 148.019H192.311C193.952 148.019 195.282 146.688 195.282 145.047V134.195C195.282 132.554 193.952 131.224 192.311 131.224Z" fill="#349362"/>
<path d="M189.885 128.381H139.736C138.095 128.381 136.765 129.712 136.765 131.353V142.205C136.765 143.846 138.095 145.177 139.736 145.177H189.885C191.526 145.177 192.856 143.846 192.856 142.205V131.353C192.856 129.712 191.526 128.381 189.885 128.381Z" fill="#115934"/>
<path d="M145.305 142.708C148.642 142.708 151.347 140.002 151.347 136.664C151.347 133.327 148.642 130.621 145.305 130.621C141.968 130.621 139.262 133.327 139.262 136.664C139.262 140.002 141.968 142.708 145.305 142.708Z" fill="#349362"/>
<path d="M155.711 131.152H187.015C187.184 131.152 187.351 131.185 187.507 131.25C187.663 131.316 187.804 131.411 187.923 131.531C188.042 131.651 188.136 131.794 188.199 131.95C188.262 132.107 188.294 132.275 188.292 132.444C188.292 132.783 188.157 133.108 187.918 133.347C187.678 133.587 187.353 133.721 187.015 133.721H155.711C155.372 133.721 155.047 133.587 154.808 133.347C154.568 133.108 154.433 132.783 154.433 132.444C154.432 132.275 154.463 132.107 154.527 131.95C154.59 131.794 154.684 131.651 154.803 131.531C154.921 131.411 155.063 131.316 155.219 131.25C155.375 131.185 155.542 131.152 155.711 131.152Z" fill="#349362"/>
<path d="M155.711 135.416H179.824C180.166 135.416 180.495 135.552 180.737 135.794C180.979 136.036 181.116 136.365 181.116 136.707C181.116 136.876 181.082 137.044 181.017 137.2C180.952 137.356 180.856 137.497 180.736 137.616C180.616 137.735 180.474 137.829 180.317 137.892C180.16 137.955 179.993 137.987 179.824 137.985H155.711C155.372 137.985 155.047 137.85 154.808 137.611C154.568 137.371 154.433 137.046 154.433 136.707C154.432 136.538 154.463 136.371 154.527 136.214C154.59 136.057 154.684 135.915 154.803 135.795C154.921 135.675 155.063 135.579 155.219 135.514C155.375 135.449 155.542 135.416 155.711 135.416Z" fill="#349362"/>
<path d="M155.711 140.152H161.452C161.791 140.152 162.116 140.287 162.355 140.527C162.595 140.766 162.729 141.091 162.729 141.43C162.729 141.769 162.595 142.094 162.355 142.333C162.116 142.573 161.791 142.708 161.452 142.708H155.711C155.372 142.708 155.047 142.573 154.808 142.333C154.568 142.094 154.433 141.769 154.433 141.43C154.433 141.091 154.568 140.766 154.808 140.527C155.047 140.287 155.372 140.152 155.711 140.152Z" fill="#349362"/>
</g>
<path d="M126.115 102.313C137.324 102.313 146.41 93.2257 146.41 82.0155C146.41 70.8054 137.324 61.7178 126.115 61.7178C114.906 61.7178 105.82 70.8054 105.82 82.0155C105.82 93.2257 114.906 102.313 126.115 102.313Z" fill="#349362" stroke="#115934" stroke-miterlimit="10"/>
<path d="M140.31 79.3886C138.528 77.6043 136.411 76.189 134.081 75.2234C131.751 74.2579 129.254 73.7611 126.732 73.7615V73.7615C124.208 73.76 121.708 74.2562 119.376 75.2218C117.044 76.1873 114.925 77.6033 113.14 79.3886" stroke="#115934" stroke-miterlimit="10"/>
<path d="M136.679 83.0203C135.377 81.7014 133.826 80.6542 132.116 79.9396C130.406 79.2249 128.571 78.8571 126.718 78.8574V78.8574C124.869 78.8545 123.038 79.2183 121.33 79.928C119.623 80.6376 118.073 81.6789 116.771 82.9916" stroke="#115934" stroke-miterlimit="10"/>
<path d="M120.388 86.6377C121.231 85.7899 122.237 85.121 123.345 84.6711C124.419 84.2296 125.571 84.0099 126.732 84.0252C127.908 84.0162 129.074 84.2428 130.161 84.6914C131.248 85.1401 132.234 85.8019 133.062 86.6377" stroke="#115934" stroke-miterlimit="10"/>
<path d="M129.445 90.2552C129.086 89.894 128.656 89.6106 128.182 89.4226C127.726 89.2382 127.239 89.1409 126.747 89.1355C126.254 89.1402 125.768 89.2376 125.311 89.4226C124.838 89.6106 124.408 89.894 124.048 90.2552" stroke="#115934" stroke-miterlimit="10"/>
<path opacity="0.22" d="M125.828 92.9682C126.431 92.2504 127.034 92.1356 127.636 92.9682" stroke="#115934" stroke-miterlimit="10"/>
<path d="M249.809 210.017L225.093 202.725L212.692 199.079C212.692 200.73 212.807 202.366 212.893 203.988C213.493 214.573 215.152 225.071 217.845 235.325H249.579C249.134 220.482 249.809 210.017 249.809 210.017Z" fill="#349362" stroke="#115934" stroke-miterlimit="10"/>
<path d="M255.981 192.648C258.76 207.586 263.885 221.99 271.166 235.325H237.322C230.97 225.47 226.8 214.369 225.093 202.769C224.806 200.831 224.576 198.835 224.418 196.811L254.746 183.648C255.003 186.667 255.415 189.671 255.981 192.648Z" fill="#349362" stroke="#115934" stroke-miterlimit="10"/>
<path d="M297.489 116.955C286.882 133.937 273.505 141.358 264.291 144.689C260.814 145.996 257.18 146.841 253.483 147.201C253.483 147.201 253.339 147.603 253.139 148.378C251.569 154.865 251.639 161.641 253.343 168.095C255.047 174.548 258.331 180.475 262.899 185.342C265.382 188.026 258.133 192.232 248.259 195.95C232.915 201.778 211.257 206.472 210.252 202.582C202.186 171.188 218.017 140.253 218.017 140.253C200.951 128.697 197.076 100.447 196.487 95.1644C196.487 94.6046 196.401 94.3031 196.401 94.3031L201.64 93.2122C201.64 93.2122 217.931 116.969 242.79 124.362C250.746 126.567 259.2 126.154 266.903 123.185C274.511 120.341 281.567 116.198 287.758 110.94C290.026 109.046 291.289 107.754 291.289 107.754L297.489 116.955Z" fill="#349362" stroke="#115934" stroke-miterlimit="10"/>
<path d="M244.326 121.922C243.422 121.356 242.391 121.025 241.326 120.96C241.035 120.931 240.742 120.931 240.451 120.96C239.307 120.972 238.176 121.206 237.121 121.649C236.8 121.76 236.493 121.905 236.202 122.08C235.014 122.699 234.079 123.715 233.561 124.951C233.403 125.412 233.339 125.9 233.375 126.386C233.547 128.267 235.413 129.774 238.154 130.018C241.584 130.334 245.072 128.582 245.962 126.013C246.052 125.753 246.11 125.483 246.134 125.209C246.183 124.545 246.038 123.881 245.717 123.298C245.396 122.714 244.913 122.236 244.326 121.922Z" fill="#115934"/>
<path d="M256.827 108.83C256.827 108.83 260.215 106.376 258.636 102.816C257.057 99.2557 255.162 98.739 255.162 98.739C255.162 98.739 257.186 95.6814 252.292 95.3225C247.369 96.4135 248.603 90.5423 242.847 95.7532C242.608 95.965 242.409 96.2177 242.259 96.4996C241.111 98.983 247.527 101.265 247.9 101.466C247.342 101.421 246.787 101.59 246.35 101.94C245.641 102.472 245.058 103.153 244.642 103.935C243.522 105.988 243.206 108.787 245.402 110.252C249.062 112.735 240.049 112.548 244.699 117.917C244.814 118.032 244.929 118.19 245.072 118.319C250.541 124.061 252.622 120.587 251.674 116.97C250.727 113.352 258.349 115.979 258.937 112.663C259.057 111.881 258.915 111.081 258.534 110.388C258.152 109.695 257.552 109.147 256.827 108.83Z" fill="#115934"/>
<path d="M237.953 118.305L236.087 125.339C236.087 125.339 241.829 127.678 244.355 124.937V118.018L237.953 118.305Z" fill="#349362" stroke="#115934" stroke-miterlimit="10"/>
<path opacity="0.14" d="M244.297 118.018C243.565 119.97 237.336 121.678 237.379 123.559C237.449 124.021 237.638 124.457 237.927 124.825C238.217 125.192 238.597 125.478 239.03 125.654C239.575 125.93 240.154 126.132 240.752 126.257C239.143 126.375 237.532 126.058 236.087 125.339L237.953 118.305L244.297 118.018Z" fill="#115934"/>
<path d="M238.125 118.534C232.844 117.501 232.801 113.453 234.365 109.29C234.595 108.673 234.882 108.041 235.169 107.409C236.676 104.401 238.5 101.562 240.609 98.9399C240.609 98.9399 248.661 102.443 252.091 106.548C252.105 106.548 249.866 120.817 238.125 118.534Z" fill="#349362" stroke="#115934" stroke-miterlimit="10"/>
<path d="M250.196 108.4C250.196 108.4 252.119 107.409 252.895 108.529C253.67 109.649 250.498 114.515 249.062 112.692C247.627 110.869 250.196 108.4 250.196 108.4Z" fill="#349362" stroke="#115934" stroke-miterlimit="10"/>
<path d="M301.838 113.151C301.589 112.485 301.257 111.853 300.848 111.271C299.573 109.378 298.106 107.622 296.47 106.031C295.508 105.112 294.633 104.596 294.131 104.596C292.494 104.983 289.121 109.548 289.121 109.548C289.115 109.577 289.115 109.606 289.121 109.634C289.755 111.199 290.564 112.687 291.533 114.07C292.679 116.027 294.133 117.786 295.839 119.281C295.912 119.334 295.997 119.37 296.086 119.387C296.175 119.405 296.267 119.403 296.355 119.381C297.676 118.922 302.398 115.046 301.838 113.151Z" fill="#349362" stroke="#115934" stroke-miterlimit="10"/>
<path d="M252.292 104.509C251.732 102.629 248.316 101.926 247.713 99.8011C247.283 98.3656 243.163 97.4469 242.216 96.4994C241.814 96.0688 242.001 95.6382 243.35 95.1357C243.077 93.3988 238.398 93.1691 237.035 96.442C236.824 96.8526 236.705 97.3035 236.685 97.7643C236.664 98.225 236.743 98.6847 236.916 99.1123C237.089 99.5398 237.352 99.9251 237.687 100.242C238.022 100.559 238.421 100.8 238.857 100.949H239.087C243.034 100.332 243.135 103.131 244.584 103.964C244.856 104.102 245.154 104.18 245.459 104.192C245.764 104.205 246.067 104.151 246.35 104.036C249.895 102.973 248.129 106.433 248.603 108.457C248.775 109.16 249.12 109.304 249.522 109.175C250.153 109.017 250.957 108.256 251.474 108.055H251.545C251.576 108.039 251.611 108.03 251.646 108.03C251.681 108.03 251.715 108.039 251.746 108.055C252.521 108.055 252.837 106.361 252.292 104.509Z" fill="#115934"/>
<path d="M201.841 92.0638C201.841 92.0638 200.88 85.7764 195.454 83.0777C190.029 80.379 185.852 83.3792 185.106 85.9487C184.359 88.5182 188.493 90.7719 190.014 91.2169C191.536 91.6619 192.397 91.5758 192.885 92.1643C193.536 93.1419 194.134 94.1529 194.679 95.1932C196.973 95.8641 199.402 95.9235 201.726 95.3655C203.076 94.9779 201.841 92.0638 201.841 92.0638Z" fill="#349362" stroke="#115934" stroke-miterlimit="10"/>
<path d="M195.54 94.3894C196.028 93.5999 199.286 90.9873 201.985 92.2505C202.703 92.4972 203.301 93.0088 203.656 93.681C204.01 94.3531 204.096 95.1352 203.894 95.8679C203.894 95.8679 197.693 98.7389 196.2 99.5571C194.708 100.375 194.765 95.6383 195.54 94.3894Z" fill="#349362" stroke="#115934" stroke-miterlimit="10"/>
<path d="M236.69 112.448C236.69 112.448 236.69 115.132 240.221 114.773" stroke="#115934" stroke-miterlimit="10"/>
<path d="M240.122 105.929C240.387 105.544 240.391 105.086 240.129 104.906C239.868 104.726 239.442 104.892 239.176 105.277C238.911 105.662 238.907 106.121 239.168 106.3C239.429 106.48 239.856 106.314 240.122 105.929Z" fill="#115934"/>
<path d="M246.714 110.088C246.979 109.702 246.983 109.244 246.722 109.064C246.46 108.884 246.034 109.051 245.768 109.436C245.503 109.821 245.499 110.279 245.76 110.459C246.021 110.639 246.448 110.473 246.714 110.088Z" fill="#115934"/>
<path d="M241.627 108.572C241.627 108.572 238.183 110.007 239.159 111.199C240.135 112.39 240.738 111.07 240.738 111.07" fill="#115934"/>
<path d="M86.6731 168.934V235.253H93.419C93.4185 234.969 93.4473 234.685 93.5051 234.406C93.5582 234.121 93.6399 233.842 93.7491 233.574C94.0305 232.907 94.4752 232.323 95.0422 231.874C95.6091 231.425 96.2799 231.126 96.9929 231.004H97.4235H98.1554H98.5717C98.998 231.092 99.4091 231.242 99.7917 231.449C100.298 231.724 100.743 232.1 101.098 232.554C101.454 233.011 101.717 233.533 101.873 234.09C101.983 234.463 102.036 234.85 102.031 235.239H114.245C114.681 235.241 115.113 235.156 115.516 234.99C115.919 234.824 116.286 234.58 116.594 234.272C116.902 233.964 117.146 233.597 117.312 233.194C117.478 232.791 117.563 232.359 117.561 231.923V172.235C117.563 171.799 117.478 171.367 117.312 170.964C117.146 170.561 116.902 170.195 116.594 169.886C116.286 169.578 115.919 169.334 115.516 169.168C115.113 169.002 114.681 168.918 114.245 168.919H102.031C102.031 169.204 102.002 169.488 101.945 169.766C101.887 170.05 101.806 170.329 101.701 170.599C101.419 171.265 100.975 171.85 100.408 172.299C99.8407 172.748 99.1698 173.047 98.4568 173.169H98.0263H97.7249C97.5817 173.183 97.4374 173.183 97.2943 173.169H96.8637C96.5828 173.111 96.3086 173.024 96.0456 172.91C95.7747 172.806 95.5189 172.666 95.2849 172.494C94.8084 172.173 94.4029 171.758 94.0936 171.274C93.6373 170.58 93.4021 169.764 93.419 168.934H86.6731Z" fill="#115934"/>
<path d="M112.035 176.671C113.256 176.671 114.245 175.682 114.245 174.461C114.245 173.24 113.256 172.25 112.035 172.25C110.814 172.25 109.824 173.24 109.824 174.461C109.824 175.682 110.814 176.671 112.035 176.671Z" fill="#349362"/>
<path d="M112.035 231.952C113.256 231.952 114.245 230.962 114.245 229.741C114.245 228.52 113.256 227.53 112.035 227.53C110.814 227.53 109.824 228.52 109.824 229.741C109.824 230.962 110.814 231.952 112.035 231.952Z" fill="#349362"/>
<path opacity="0.79" d="M77.7456 168.92V173.198H80.7023V231.005H77.7456V235.282H86.6301V168.92H77.7456Z" fill="#115934"/>
<path opacity="0.71" d="M103.193 218.688H92.1416V225.32H103.193V218.688Z" fill="#349362"/>
<path opacity="0.71" d="M103.193 192.146H92.1416V198.778H103.193V192.146Z" fill="#349362"/>
<path opacity="0.71" d="M103.193 178.882H92.1416V185.514H103.193V178.882Z" fill="#349362"/>
<path d="M108.719 182.198H117.561" stroke="#349362" stroke-width="0.75"/>
<path d="M108.719 188.83H117.561" stroke="#349362" stroke-width="0.75"/>
<path d="M108.719 195.462H117.561" stroke="#349362" stroke-width="0.75"/>
<path d="M108.719 202.094H117.561" stroke="#349362" stroke-width="0.75"/>
<path d="M108.719 208.726H117.561" stroke="#349362" stroke-width="0.75"/>
<path d="M108.719 215.372H117.561" stroke="#349362" stroke-width="0.75"/>
<path d="M108.719 222.004H117.561" stroke="#349362" stroke-width="0.75"/>
<path opacity="0.71" d="M92.1416 205.424H103.193V212.056H92.1416V205.424Z" fill="#349362"/>
<path d="M288.547 235.282H278.644H273.764H273.749H258.248H253.842H243.063H242.431H232.241H219.998H213.883H213.711H207.898H204.798H204.74H200.506H186.053H178.331H178.044H178.001H172.432H145.061H68" stroke="#115934" stroke-miterlimit="10"/>
<path d="M120.388 192.548C131.597 192.548 140.683 183.46 140.683 172.25C140.683 161.04 131.597 151.952 120.388 151.952C109.18 151.952 100.093 161.04 100.093 172.25C100.093 183.46 109.18 192.548 120.388 192.548Z" fill="#349362" stroke="#115934" stroke-miterlimit="10"/>
<path d="M115.346 182H110.451L116.932 171.732L110.766 161.848H115.797L119.393 168.396L123.084 161.848H127.951L121.785 171.568L128.334 182H123.221L119.393 175.137L115.346 182Z" fill="#115934"/>
<path opacity="0.25" d="M200.148 156.345H148.204C147.285 156.345 146.539 157.087 146.539 158.003C146.539 158.918 147.285 159.661 148.204 159.661H200.148C201.067 159.661 201.812 158.918 201.812 158.003C201.812 157.087 201.067 156.345 200.148 156.345Z" fill="#115934"/>
<path opacity="0.25" d="M185.034 164.039H148.204C147.285 164.039 146.539 164.781 146.539 165.697C146.539 166.613 147.285 167.355 148.204 167.355H185.034C185.953 167.355 186.699 166.613 186.699 165.697C186.699 164.781 185.953 164.039 185.034 164.039Z" fill="#115934"/>
<path d="M216.208 144.115C216.208 144.115 219.237 137.325 222.883 131.195L216.208 144.115Z" fill="#349362"/>
<path d="M216.208 144.115C216.208 144.115 219.237 137.325 222.883 131.195" stroke="#115934" stroke-miterlimit="10"/>
</svg>
